<mxfile host="Electron" agent="Mozilla/5.0 (X11; Linux x86_64) AppleWebKit/537.36 (KHTML, like Gecko) draw.io/26.2.2 Chrome/134.0.6998.205 Electron/35.2.0 Safari/537.36" version="26.2.2">
  <diagram id="feCId1GSlL5NfNwG9Z4X" name="Page-1">
    <mxGraphModel dx="1428" dy="844" grid="1" gridSize="10" guides="1" tooltips="1" connect="1" arrows="1" fold="1" page="1" pageScale="1" pageWidth="1169" pageHeight="827" math="0" shadow="0">
      <root>
        <mxCell id="0" />
        <mxCell id="1" parent="0" />
        <mxCell id="Np6NXg_4izOHI7aook8U-42" value="" style="edgeStyle=orthogonalEdgeStyle;rounded=1;sketch=0;orthogonalLoop=1;jettySize=auto;entryX=0;entryY=0.5;entryDx=0;entryDy=0;shadow=0;strokeColor=#666666;strokeWidth=4;endArrow=none;endFill=0;fillColor=#f5f5f5;spacing=0;fontSize=12;align=left;spacingLeft=10;labelBackgroundColor=none;fontColor=default;" parent="1" source="Np6NXg_4izOHI7aook8U-27" target="Np6NXg_4izOHI7aook8U-37" edge="1">
          <mxGeometry relative="1" as="geometry" />
        </mxCell>
        <mxCell id="Np6NXg_4izOHI7aook8U-43" value="" style="edgeStyle=orthogonalEdgeStyle;rounded=1;sketch=0;orthogonalLoop=1;jettySize=auto;exitX=1;exitY=0.5;exitDx=0;exitDy=0;entryX=0;entryY=0.5;entryDx=0;entryDy=0;shadow=0;strokeColor=#666666;strokeWidth=4;sourcePerimeterSpacing=0;endArrow=none;endFill=0;fillColor=#f5f5f5;spacing=0;fontSize=12;align=left;spacingLeft=10;labelBackgroundColor=none;fontColor=default;" parent="1" source="Np6NXg_4izOHI7aook8U-31" target="Np6NXg_4izOHI7aook8U-36" edge="1">
          <mxGeometry relative="1" as="geometry" />
        </mxCell>
        <mxCell id="Np6NXg_4izOHI7aook8U-57" value="" style="edgeStyle=orthogonalEdgeStyle;rounded=1;sketch=0;orthogonalLoop=1;jettySize=auto;entryX=0;entryY=0.5;entryDx=0;entryDy=0;shadow=0;strokeColor=#666666;strokeWidth=4;endArrow=none;endFill=0;fillColor=#f5f5f5;spacing=0;fontSize=12;align=left;spacingLeft=10;labelBackgroundColor=none;fontColor=default;" parent="1" source="Np6NXg_4izOHI7aook8U-50" target="Np6NXg_4izOHI7aook8U-48" edge="1">
          <mxGeometry relative="1" as="geometry" />
        </mxCell>
        <mxCell id="Np6NXg_4izOHI7aook8U-58" value="" style="edgeStyle=orthogonalEdgeStyle;rounded=1;sketch=0;orthogonalLoop=1;jettySize=auto;exitX=1;exitY=0.5;exitDx=0;exitDy=0;entryX=0;entryY=0.5;entryDx=0;entryDy=0;shadow=0;strokeColor=#666666;strokeWidth=4;sourcePerimeterSpacing=0;endArrow=none;endFill=0;fillColor=#f5f5f5;spacing=0;fontSize=12;align=left;spacingLeft=10;labelBackgroundColor=none;fontColor=default;" parent="1" source="Np6NXg_4izOHI7aook8U-54" target="Np6NXg_4izOHI7aook8U-47" edge="1">
          <mxGeometry relative="1" as="geometry" />
        </mxCell>
        <mxCell id="Np6NXg_4izOHI7aook8U-63" value="" style="edgeStyle=orthogonalEdgeStyle;rounded=1;sketch=0;orthogonalLoop=1;jettySize=auto;exitX=1;exitY=0.5;exitDx=0;exitDy=0;entryX=0;entryY=0.5;entryDx=0;entryDy=0;shadow=0;strokeColor=#666666;strokeWidth=4;endArrow=none;endFill=0;sourcePerimeterSpacing=0;fillColor=#f5f5f5;spacing=0;fontSize=12;align=left;spacingLeft=10;labelBackgroundColor=none;fontColor=default;" parent="1" source="Np6NXg_4izOHI7aook8U-35" target="Np6NXg_4izOHI7aook8U-61" edge="1">
          <mxGeometry relative="1" as="geometry" />
        </mxCell>
        <mxCell id="Np6NXg_4izOHI7aook8U-64" value="" style="edgeStyle=orthogonalEdgeStyle;rounded=1;sketch=0;orthogonalLoop=1;jettySize=auto;exitX=1;exitY=0.5;exitDx=0;exitDy=0;entryX=0;entryY=0.5;entryDx=0;entryDy=0;shadow=0;strokeColor=#666666;strokeWidth=4;endArrow=none;endFill=0;sourcePerimeterSpacing=0;fillColor=#f5f5f5;spacing=0;fontSize=12;align=left;spacingLeft=10;labelBackgroundColor=none;fontColor=default;" parent="1" source="Np6NXg_4izOHI7aook8U-46" target="Np6NXg_4izOHI7aook8U-62" edge="1">
          <mxGeometry relative="1" as="geometry" />
        </mxCell>
        <mxCell id="cP9SBrHYOixEWWslTNj9-5" value="" style="edgeStyle=orthogonalEdgeStyle;rounded=1;sketch=0;orthogonalLoop=1;jettySize=auto;entryX=0;entryY=0.5;entryDx=0;entryDy=0;shadow=0;strokeColor=#666666;strokeWidth=4;endArrow=none;endFill=0;fillColor=#f5f5f5;spacing=0;fontSize=12;align=left;spacingLeft=10;labelBackgroundColor=none;fontColor=default;" parent="1" source="cP9SBrHYOixEWWslTNj9-20" target="cP9SBrHYOixEWWslTNj9-4" edge="1">
          <mxGeometry relative="1" as="geometry" />
        </mxCell>
        <mxCell id="cP9SBrHYOixEWWslTNj9-6" value="" style="edgeStyle=orthogonalEdgeStyle;rounded=1;sketch=0;orthogonalLoop=1;jettySize=auto;exitX=1;exitY=0.5;exitDx=0;exitDy=0;entryX=0;entryY=0.5;entryDx=0;entryDy=0;shadow=0;strokeColor=#666666;strokeWidth=4;sourcePerimeterSpacing=0;endArrow=none;endFill=0;fillColor=#f5f5f5;spacing=0;fontSize=12;align=left;spacingLeft=10;labelBackgroundColor=none;fontColor=default;" parent="1" source="cP9SBrHYOixEWWslTNj9-24" target="cP9SBrHYOixEWWslTNj9-3" edge="1">
          <mxGeometry relative="1" as="geometry" />
        </mxCell>
        <mxCell id="cP9SBrHYOixEWWslTNj9-11" value="" style="edgeStyle=orthogonalEdgeStyle;rounded=1;sketch=0;orthogonalLoop=1;jettySize=auto;entryX=0;entryY=0.5;entryDx=0;entryDy=0;shadow=0;strokeColor=#666666;strokeWidth=4;endArrow=none;endFill=0;fillColor=#f5f5f5;spacing=0;fontSize=12;align=left;spacingLeft=10;labelBackgroundColor=none;fontColor=default;" parent="1" source="cP9SBrHYOixEWWslTNj9-28" target="cP9SBrHYOixEWWslTNj9-10" edge="1">
          <mxGeometry relative="1" as="geometry" />
        </mxCell>
        <mxCell id="cP9SBrHYOixEWWslTNj9-12" value="" style="edgeStyle=orthogonalEdgeStyle;rounded=1;sketch=0;orthogonalLoop=1;jettySize=auto;exitX=1;exitY=0.5;exitDx=0;exitDy=0;entryX=0;entryY=0.5;entryDx=0;entryDy=0;shadow=0;strokeColor=#666666;strokeWidth=4;sourcePerimeterSpacing=0;endArrow=none;endFill=0;fillColor=#f5f5f5;spacing=0;fontSize=12;align=left;spacingLeft=10;labelBackgroundColor=none;fontColor=default;" parent="1" source="cP9SBrHYOixEWWslTNj9-32" target="cP9SBrHYOixEWWslTNj9-9" edge="1">
          <mxGeometry relative="1" as="geometry" />
        </mxCell>
        <mxCell id="cP9SBrHYOixEWWslTNj9-17" value="" style="edgeStyle=orthogonalEdgeStyle;rounded=1;sketch=0;orthogonalLoop=1;jettySize=auto;exitX=1;exitY=0.5;exitDx=0;exitDy=0;entryX=0;entryY=0.5;entryDx=0;entryDy=0;shadow=0;strokeColor=#666666;strokeWidth=4;endArrow=none;endFill=0;sourcePerimeterSpacing=0;fillColor=#f5f5f5;spacing=0;fontSize=12;align=left;spacingLeft=10;labelBackgroundColor=none;fontColor=default;" parent="1" source="cP9SBrHYOixEWWslTNj9-2" target="cP9SBrHYOixEWWslTNj9-15" edge="1">
          <mxGeometry relative="1" as="geometry" />
        </mxCell>
        <mxCell id="cP9SBrHYOixEWWslTNj9-18" value="" style="edgeStyle=orthogonalEdgeStyle;rounded=1;sketch=0;orthogonalLoop=1;jettySize=auto;html=1;exitX=1;exitY=0.5;exitDx=0;exitDy=0;entryX=0;entryY=0.5;entryDx=0;entryDy=0;shadow=0;strokeColor=#666666;strokeWidth=4;endArrow=none;endFill=0;sourcePerimeterSpacing=0;fillColor=#f5f5f5;spacing=0;fontSize=12;align=left;spacingLeft=10;" parent="1" source="cP9SBrHYOixEWWslTNj9-8" target="cP9SBrHYOixEWWslTNj9-16" edge="1">
          <mxGeometry relative="1" as="geometry" />
        </mxCell>
        <mxCell id="cP9SBrHYOixEWWslTNj9-40" value="" style="edgeStyle=orthogonalEdgeStyle;rounded=1;sketch=0;orthogonalLoop=1;jettySize=auto;shadow=0;strokeColor=#666666;strokeWidth=4;endArrow=none;endFill=0;sourcePerimeterSpacing=0;fillColor=#f5f5f5;entryX=0;entryY=0.5;entryDx=0;entryDy=0;spacing=0;fontSize=12;align=left;spacingLeft=10;labelBackgroundColor=none;fontColor=default;" parent="1" source="Np6NXg_4izOHI7aook8U-60" target="cP9SBrHYOixEWWslTNj9-37" edge="1">
          <mxGeometry relative="1" as="geometry">
            <mxPoint x="866.4444444444445" y="291.2862903225806" as="sourcePoint" />
            <mxPoint x="866.4444444444445" y="460.45768817204294" as="targetPoint" />
          </mxGeometry>
        </mxCell>
        <mxCell id="cP9SBrHYOixEWWslTNj9-41" value="" style="edgeStyle=orthogonalEdgeStyle;rounded=1;sketch=0;orthogonalLoop=1;jettySize=auto;shadow=0;strokeColor=#666666;strokeWidth=4;endArrow=none;endFill=0;sourcePerimeterSpacing=0;fillColor=#f5f5f5;entryX=1;entryY=0.5;entryDx=0;entryDy=0;exitX=0;exitY=0.5;exitDx=0;exitDy=0;spacing=0;fontSize=12;align=left;spacingLeft=10;labelBackgroundColor=none;fontColor=default;" parent="1" source="cP9SBrHYOixEWWslTNj9-38" target="cP9SBrHYOixEWWslTNj9-14" edge="1">
          <mxGeometry relative="1" as="geometry">
            <mxPoint x="796.4444444444443" y="505.9762634408602" as="sourcePoint" />
            <mxPoint x="876.5555555555552" y="678.7318010752688" as="targetPoint" />
          </mxGeometry>
        </mxCell>
        <mxCell id="7TzrphOt-DHHnTkeYhhr-1" value="{{ category }}" style="rounded=1;fontSize=18;spacing=2;" parent="1" vertex="1">
          <mxGeometry x="320" y="40" width="530" height="40" as="geometry" />
        </mxCell>
        <mxCell id="7TzrphOt-DHHnTkeYhhr-2" value="&lt;p style=&quot;line-height:normal;margin-top:0pt;margin-bottom:0pt;border:none;border-left:none;border-top:none;border-right:none;border-bottom:none;mso-border-between:none&quot; class=&quot;docData;DOCY;v5;1485;BQiAAgAAEYQCAAAGiAIAAAM0BQAABUIFAAAAAAAAAAAAAAAAAAAAAAAAAAAAAAAAAAAAAAAAAAAAAAAAAAAAAAAAAAAAAAAAAAAAAAAAAAAAAAAAAAAAAAAAAAAAAAAAAAAAAAAAAAAAAAAAAAAAAAAAAAAAAAAAAAAAAAAAAAAAAAAAAAAAAAAAAAAAAAAAAAAAAAAAAAAAAAAAAAAAAAAAAAAAAAAAAAAAAAAAAAAAAAAAAAAAAAAAAAAAAAAAAAAAAAAAAAAAAAAAAAAAAAAAAAAAAAAAAAAAAAAAAAAAAAAAAAAAAAAAAAAAAAAAAAAAAAAAAAAAAAAAAAAAAAAAAAAAAAAAAAAAAAAAAAAAAAAAAAAAAAAAAAAAAAAAAAAAAAAAAAAAAAAAAAAAAAAAAAAAAAAAAAAAAAAAAAAAAAAAAAAAAAAAAAAAAAAAAAAAAAAAAAAAAAAAAAAAAAAAAAAAAAAAAAAAAAAAAAAAAAAAAAAAAAAAAAAAAAAAAAAAAAAAAAAAAAAAAAAAAAAAAAAAAAAAAAAAAAAAAAAAAAAAAAAAAAAAAAAAAAAAAAAAAAAAAAAAAAAAAAAAAAAAAAAAAAAAAAAAAAAAAAAAAAAAAAAAAAAAAAAAAAAAAAAAAAAAAAAAAAAAAAAAAAAAAAAAAAAAAAAAAAAAAAAAAAAAAAAAAAAAAAAAAAAAAAAAAAAAAAAAAAAAAAAAAAAAAAAAAAAAAAAAAAAAAAAAAAAAAAAAAAAAAAAAAAAAAAAAAAAAAAAAAAAAAAAAAAAAAAAAAAAAAAAAAAAAAAAAAAAAAAAAAAAAAAAAAAAAAAAAAAAAAAAAAAAAAAAAAAAAAAAAAAAAqAIAAACjAgAAARgAAAABBgAAAAAJBgAAAAAaBgAAAAAbBgAAAAACgQIAAAVtAgAAAQAAAAAIYwIAAAxeAgAAAAEBAwEAIQR8vgEAIwQAAAAAIgR8vgEAIAQAAAAACQEBCwQABAAPDAEADQYYAAAABAQAAAAABQQAAAAABgQAAAAABwQAAAAADgYMAAAAAgT9CBsAAwSUfBwADwYJAAAAAAEBBATdSn8AEAYJAAAAAAEGBATB6fr/EQYMAAAAAgQAAAAAAwQAAAAAEgAeBgMAAAAAAQEfBiIAAAAABAAAAKOYOl4BFAAAAFAAaQBjAHQAdQByAGUAIAAzADcAAQabAQAAAJYBAAABkQEAAAKMAQAAADMAAAAAHgAAAPoAteCOMAEJAAAAUABpAGMAdAB1AHIAZQAgADIA+wEEAAAA+gMB+wICAAAA+vsB4gAAAAHdAAAA+vsA0QAAAPr7AgQAAAAAAAAAA8EAAAD6AF0AAABmAGkAbABlADoALwAvAC8AaABvAG0AZQAvAG0AeQByAHIAaAAvAC4AbABvAGMAYQBsAC8AcwBoAGEAcgBlAC8AbwBuAGwAeQBvAGYAZgBpAGMAZQAvAGQAZQBzAGsAdABvAHAAZQBkAGkAdABvAHIAcwAvAHIAZQBjAG8AdgBlAHIALwBEAEUAXwBfAFgAWgBOAFMARQAwAC8AbQBlAGQAaQBhAC8AaQBtAGEAZwBlADEALgBwAG4AZwD7AwAAAAACaAAAAPoAAPsAHwAAAPoAAAAAAAEAAAAAAv0IGwADlHwcAAgACQAKAAAAAPsBFAAAAAEPAAAA+gAEAAAAcgBlAGMAdAD7AgUAAAACAAAAAAMYAAAA+vsABQAAAAIAAAAAAgcAAAD6AAAAAAD7BQoAAAABAAAAAAgAAAAACgAAAAAAAAAAEQAAAACHAAAAAC0AAAABBgAAAAAJBhsAAAAnBAMBAAALAQEcAQAoBAAAAAAdAQApBKAAAAAbBgAAAAABSwAAACgBBykBByoBBysBBRMBAQgEFgAAABYEFgAAABkGCgAAAGUAbgAtAEcAQgAaBgoAAABhAHIALQBTAEEAGwYKAAAAZQBuAC0AVQBTAAIAAAAA&quot;&gt;&lt;span style=&quot;font-family:&#39;Times New Roman&#39;;font-size:10pt;color:#000000;mso-style-textfill-fill-color:#000000&quot;&gt;&lt;img style=&quot;max-width:100%;&quot; width=&quot;186&quot; height=&quot;196&quot; src=&quot;data:image/png;base64,iVBORw0KGgoAAAANSUhEUgAAASoAAAE6CAYAAACh7B+0AAAAAXNSR0IArs4c6QAAIABJREFUeF7sXQWcXMX9/86T9d2zXDwXgSQkeIOluLYUCZQChVKkRYIUirtrsQLFvVjRUooUKVBcgyVAEuJ6LntrT+f/+c17s/d2by93CSnl37Ilvd0n8+aNfOf702H44fPf0AJsLbzEQMsY6HUDqRLv5yJ5Pnjdmjy/v+cMpK4/XPMfbIE16fT/YHV/eHQfLbCm/Vh+30DKGcg1/XVUX8BBx2X5wWvkdzq3JqCzJvf09w4/nP8OW2BtDLrvsLr/04+q1FfBYwPpy76uKT8eBIx/d6MP9FnlYDNQ8KoEeMF3+gHE/t09vBbKH8jgXguP+aGICi0w0LaX162K/ayqrL7ArNLx8skffPbqTOhg2X0BkWRHlQBInguyq0rP7w+EqNn7AjjZJf2d/wHUvgfTd6CT5XtQ1f/3VagENP21fyWQ6g94gmBTfn85AJSXVen6YMP3BZoD6ZxyfVMl/VMl4Kl0XfnzVnVNX2UGxciBAF4Q9Oj61QHugbTPD9esogX6myg/NN7AW2B1RbP+Jn3wfH/gROf7A8K+rgm+oeL/6GtcyDLKGdNA2cmqWFEQOMqZUH9AIoGjr+uCQLaqOqwKgPoC2r7evb/jAx9ZP1zZa3D/0CQDb4H+gKGciVS6nq7pizUFgaUcZIKA0d93WY9KbIqOuT47kBMx+Ju+B69x/Ovl8aBYJ0FO/tXKQC8IglQm/S5vE3lNJcCR15aDTvB3sO6rApa+gK0vZra6bLAcpH5gYAOfVxWv/IFRrboB+2MWAxGLKrEQCVBywgbBJHiunFUFwYC+lzMg+TtYLzlJ6FxwgtJ3mthycpe3RHm9Vf95wWdSGXRcMiAqS34nUCsHkUrvJssNPj/4blRGEMAqMaLge5S/o3zPcrCQx4PsLXhN+Xd53UBAq7zM8nsrjbpK7/Utp/d/z+0/AFXlvixnOf2JXuXMqBxg+mI9wQkpa9KLeUSjUGoiUFLhiJJIhpWqKiAWA4/HojylKa6e4qy6BqjTdTWe4CyW1LSquKNpkVAoHObReDgU13W3RlOVpAI3zlQ1pjFerSpKQtEQV1UloYAnFVWJM4YIVBZjLo8zRdEVBYw+3HEZZyyiKCzCGFRuu3Dpi8I4wBTuOJwzBYoCF4w5ruPmOZhF93POANcxXa4UOJB1HZ6zbTvrOizHGM85QMY1nazN0c0dnjcsp9s07U7DRpeVZ7msYectk+UKBjc6ux27u9OyW7tUpztd4Ok0452mqzoFV+8qGCzdbSBjgqfT4CaDWygUwZiAU37KwYyOBwE7CG6VQDgIPKtiYX2BXfmoq3Tdfw/KrIU3+V8Hqkrv3xdIVTpe6VhQpJEAJcFHsgd5H/0OijRFhhWJQBmVgvrz3YdGt9skog+qU7RoRNFjYR5RQywEhoimsrjLkIioaoopvFrTWD1TlDqV8zowVqMAKUCJMyAGxlTOmM7AGRiYAjD6VtIA/g9GRz38EaSIEaHhLsTVXgGMczrvjUAqUP72ZEH67UmHnO7n/nnuoYEibqUzPfRLFMDoOgF0HJw7AHNccJuBZ7nLO8F4J7ibdl233XacZtdmnZaNLtNGmjs8a7ha3jB4xnG51Z62eVfatJa0ofDae13Wv97N2N1G8ZGSgUlxuJxZ0m/JCCuBVl/AJqdkkFmWi7H9MbK+gC/I0tbC1P//VcT/MlBJEAmyIdl7lc4FxbRyAArqXILgExxcyujRUEfWDmLjRoS0EaNsrTYRUuNhR4tFlXAyZIcj8VAoEmWRaFSJxTU7mYqqVSHdrTVst44xd5CiKLWayuoUVa3XVaVGUZS4whSdgEURYFKOm+J1xMAXZwQs9fykg+UDgABEXNeDQwE4IQjySgje5/3uOer/LiKPj3ZeZcRJQqLiDeKBhEyiVDohHkOX0E8COgJLCasSA1xwl85yuIRuLvKWyzOOw9ssy2nlLu/gnHcyoF1lekt3XmntyvF03uAZ20Yhk4HR0eU4mbxrd+Ydq721YC5dbpvzmrrtpS1wOjth+y9e3qhB4JIsrJLoKSsaZHFBAOuLlVUCqr7A7f8X2nyL2v43A9Wq3q0vIAqCVlDfI1lS+TF5PKi/kc/1ro2CV3Noh06rSR48raa6robXhiNKbUhXa3RVrQVTEmGFV7kuq2JALeeo4Y5bZbtOynLdiOtYmqooqsqgMkWBQlOY5CkfeEr+9gIqyW985iNwgCZ95U8RxgIz1AMWD1YYQQbdLjDEBy15PjgdfdQS1xdJjEffvPv7GrGSZ/Vc4M1Q7/+9o7IEecYHSM48wPJAS4CYTdKoq3BXZQ4Ulmcaz7ouT+sMnQDrAEenbfEOxlgXOLoBljFMpWP+knzz399sbnnx3Vxm4XI4hlGsb5AdUXUk85J/pXhZbqAIglu5mDcQ8AoueMH7yxsyWL9vAQvfv1v/24Eq+H7l34MrZfmqKXVHQSCSTImupQEpBuXw4VD32W2MNniwpdXHWGR4PU8kUnp1VZQNDofUQRHNHqRxVOuaU6eGlRRTWLXClKTOWA2DUqswlgQU1YeenhHiSVlccA/6HpzeJEr51MOHoOJ93ovI1+k9boOyngdyNPeDr+9zneDc9LFAiHABLiR+B9yJhMjnA2EpRHrPERDZx4grllMkZn5JAimDH4/xSQYnGWDPVRK4uJBW6ZdQn9E7kmhJkiUnrKdy6JfjWA63LMftNB20E2DZQF6FnXYctcsw9c6Co7ZZObe5O8sbW1ut5uUtRnrRknzhq0Wm8cnCgtveXjQoSGZNFZYW0qClVH6XYFMOWuXHy0Gp/Prg8lAOZt8/tPkWNfpvAKpK77AqECpnU/J3kDVJoCITu7RqyYFAg4XEAntUDLH7rh21zqaTI+tC5Q2qwhpUpo1kwFBwpcblLObCiTjcVV1ueVyIQVEUwYmEqsevqI8ZHusQSiQG0MWicp5E5H38L978FTod8dcV87OciQTu84CvCGNi3hYRUDaB5FQ+zIiJTcAV+C11U14BxQqRwlwIcBKoxG9fNxWEUb++VKb4WgQifw4WdV890CNr5VFUUmX5oqlfBZ9plTZQoHpekVzgMenOPOWTlG1J0Q/BwlzXBYfiKlBdFczhKnNcpjgug+UqKCjgWcbdTrhuo8vdxbalLGruUuY9/OTKhbc/0dHenhfjQgcQBkBjRzIpybjofBCseuTYVbuJBAEsOA7LwUk2WgV0/xYo8T249b8FqILgI5u1EiBJMAqCkwQlOiZYUyIBngD44HEJttX6KXfTHznK+LpwIpJUR1RH1I2iYWXTqIZJKnPqohEt7HKucc51xlkcIKsYUz2FMpEVKWq5ZDwTk9kDIk8ZI5hGgDWIc6S+Jm23D1gSrMQRAUY07by/YqRzBkc8jEQf7/Xpr5wlQsPjX02io8o4oaUoiwmFuQJVfFcFOIqJTb+pflQRl/TapAOjS+m3r8dyOKAGFO00BcVvC5zqSbOfEYg6ApcIJESdhGxG/3nzlHOyH3psx6s7vY/fjVRXkvaE9l/q85knAvu/RacWmZ7rg5JXgOs3iKejZ+Au1cf12od7i4FcCQTMiuNCxPUKKDIxAjrqPFGgDe7mHAcGY6rFmcsNE5nuPF+WN/isbMad0dRkz120zGybuSBtfvhlTv1mGcKGIcaXXOiCgCUZetDyWO7P1hfbCoJTOVBVOvc9gJ3Vr8L/N6Aqr2+QCnjUoucTBCoay0GLmwQlWvXkdWptFOynO1Xp+2wV14cPcbVBQ+KD6+v0KbqOLTWubADGRnAoMRqyrmszzl3OSTrzldQesHg8RVTGZzhFI1pZ7YlX0UQQoCOGlCLmhbD4B0QomkseWyLRi2asAk63insBso8JNiAAwPH0Sa6nq6FpRVPXBtEChpwdheWEYTg6bDcOCxoYdJhcg+HGYSIEy1VhugryVhSuqKMrmIhhh2ExDY7tAYpDvEOlutMz6XkqdJ1BU02EFIvgT+CWqpgIaRbXFY6IZiHBctCUAiJUK0ZPNOA6tuCXDA4SmoFYyEBEMcjxAQqz4Siahyf0l96Z2Kbf0BrzLIwKcwRTIg8JwZlcxW8T39pYbGfmgaVgZz7TLOrhJNBLxudhlUQJ76yAMVKDCc8MIpLElQmcSfWvMNdhzOnkUBa6Fvu0I+3O+OTL7jmz5hQ6vl5iYsbcjLZoORzTLKoQJGgJpl7m7yYV9UHF/apAayDAJWdJOfNafQT5ju74/wRU5aAkgamcOcnjkikRQJW4BYweFNM23KRaX7dB04YP52xonRIaXu8m6qPasJqkuYGuYydFDW8W0llKgRZQDwnZxvt4RimBFjQ+JdfxUEoKK/6lBEGCsfSIZx6boRsFf/L1RAocpgiFMDGA4mJve+OS2ICqaoJxMFWH4yhw1TAsS4GJMPKmjiwiaM1F0JTT0JwLoTWvYX5bCAtbVazsiKAzp8GwFdiuApepPrORU1vxxTFfSCyKd/4wERPTb275iuKvT2882ubr3j3KwghQfPYkrHeCGQkkFYDigTLpjVwoKoeuukhEHQxOmhg52MaYGhsjExbqkjavj1ioidisWi3wZMREHAbTNRshO8M11QFzLcFluWMLHwjXhmBmDnfg0AIgmKoKjdpbcQRT46D7PJxQXGlsJLgkcPatkHIyesaA4hDooV2C2wk/Mt/LQmCXXKAE83Xtgmk6ywyTf5oz3LeXN7lffLWQd86ak3PTXSbvSkP5eF7WbmwHqe6DYCXZlnSXKAesIPOqBGBilAacb+XvSn+/I9hZ/cd8H4GqUp2CICXPB//K7+VWOGJM9E84BMUAtsmm0M84Ymh8w7GhYdGkvk5YCw1RmDteddkU13XXceCEoShcU5lQKHmKZk/z0mOT8h7n6Uo8nUlQTPP8j7xJLe/0rWaEWGImiwmryjIIqhgcYa0CCiZDNsfQnkugKRvFykwUjbkIugth5NwQDGJFagQFO4asG0W3EUba1pA3gYyjImsyZCwGi/5xDZZDE8gFBBPy2I/PG4rv16P8kkAcaN6Az5QvqwZcHUoQq6LjgvQ88IA9AOIe7yy2VY/vg6+6EeKpgrDCoIcYj6ouwrqLpGIiGnaQDDlIRC0kVANRrYAQNxBmBtMdA1UxGw1RC2PrCxiayKEmZiAWNqFqDhTdIfkXCklw1A+uBddxwOmfgBwG5lLfeWxSwLZ/XAivUlwntiraskdKLDZtkWX3vKOnBxMLFpWetsHmmJb1EXOwiCuxlc+92rjsjBtb2tozgmlJCzN9t/x/QQDryzWiEvMKgtWqGJdEkO8d0/q+AlWQJfXFnOQ1Uqyj30VrXSIB7L7dGPVHGyEyaaySHFzj1jLbGhLWjJFDBsXWU1VlI13RJiqKUkUoJKxuvo8jsQBiQHJS+kTBG46BFhPwIlQcghOR4Ca0RmJlJWZEYpKiipWZGIMn0XHYloK0pSFjRuGwEEweQc6NIW2G0VEIoTGXQHM2grnpaizqDGFpRwjpjAurQOoiAhwhHwJc9VX9QqHVw/IICAVb83FbUBqPxYgLhY4psKqJF/MVPhUXuyAYBcdyr0IkypUt4HKeBJmmX4filJCtTGTIE+AIpDxHUp+jEjsjkdaz3IEL+dfTd0kWS2xN8EKdIRpRMLSOY51hDoYnuzAylkVtNMPrQxlUhU3EkGMxrYC4kkciZCOpWkhGPKbn6atI8U5jgSR8y1t+qB+pDr5OsEds91lvQH8ojQ1SVykZmvTT8JT7DunRuA1tZTqd/9Q0lFnNXe78psbCwkwOLY2tFn/6Xx3ux18LlhW0JNJvCUpFK3TgWCXAKndEXZVOK8i4Vp8CreU7/pNA1Rdzolcs9+4OglXwvBTppHWOynQGAdohB0eiJx0xpiERwRRVdX6kMGUYc92RtusOY0yEijACIyGS+exIegD0VIyGvIdeXo9KpbTvMiBWXII4EslcqIoLRREaZY8uQYXJdXQbUbTmYpjTVotZzUnMbolhQRtDa3cYBiJwXB0WC8PhOlwlBK6EYXEVeQewLQegfySeOEE25JnXiyKotGJ5yNkDGMJ8WGY27LVe9rWABoFlICNPyn3+fT7j9FCxLyAMuH4WH1EGgBJIxdSRIrfPzgQ+lK1rQa4t+kSBoqkQsT8aR5hghtlQucUYzyPCTVSFcxiacrBhA8fEOgvr1XZibHUn6qIZHtYLAPMlMoUx2zRg2R4D9miPiBOCKowFBGLSkUw6jvUYDrxX9Kyjvi3SM4SQvxcXJmHXUXnBcp1mXVWWaC4WLF2efe2EP7Z89Po7Rt63KEZ80AoyrUq6rFU5pA5ETCwfGP8xpvWfBqpy5iQBKRjvFjwmgSmoc3J23nkE221bJbzRWG3QqKQ9WVO19VMpNjEa0ce4rjOcAXWMzMZC5akI5Tf50XgCm1d8SSyJ0LkEsdIjIXKJEbyErGcKgyZW/QgsHsHyzjg+WhbHV61V6IYOW08gY6toz8XRakXRnE2iywgh3c1gGyZg+oxAgozPHoomLTm5fV+qUiYUqFBwYko9Ui//oyDQlHf7f2z89TRq0Fe9SPeKDuo9lS9W1X+HotJIssQekuDhpCfGEUv2AIXkLg9AhJVRtBcnSRCKpiMS0pBM6kiFc6iO5VAd7kZ1KIeElkONlkN9ysD69WlsMcxAjW5A5XmiyLDJsgmHWbSg+KxP9Q0i5LIlFxTPX9YDKmEZFVZOD6zpPxpnHm0iI4JCsmg3Y0qbC3S3pd0lbe3a5+lu5Z05czNL/vLSSuvdWYbsTFqsiWUReAWtiOXuEFSbcr1WJaZVzrbk8P+PDJbvCqjKnxOcWkGwkt+DQEXHpHVOMicCKntIAvjVntHwyb8ZPS4es3cLMfWnLtg6LkOMc0fIDp4txhsa9JUYFJniPXHCf5xgTN53IVZI+k6DWizYDCHYcKHC5aTZCCHLU2jNDsbc9CB8vHIQvmgM4cuVDpZ3k5I7BLAQ4JDJy8dUhRTXLuCYvrgi/ZPKmIZomSADCTpJSoYTZDqrGDclhChwXY+UVaZTqsSaSgTfgdCqvq9ZnSFesnL4E73omDrAasjnSWZXZGYB5X+guaXiULjf+v0gdHuuI1wsVNeFqyuoVg2Mripg09HAxqPy2KC6lY9NtKI+1MbCShdCmgnDcQRTch1aFHv84wjEvLL9vyV+ZK6wRgqtuecpIcgX5wpnCnM5UxwGjQyvXSrj81pa+Ms3/rnpxUdfamlb0YEQgEQArCTbKncyLQeu/pTxknlJoAr+lR2xOj07wM4rvey7BKpy9lQOUJUcLovK8fp6qD/5yWg2qQHYcFghMnqYukEqoe+eius7aiob5bpuWAhyhERidRJuA8J63uMw4DMhivIXo8U39ZNalaxgAqgcoeMIk/XI1eBCQ95JYW73EDw7fyhenaNjeSYGwwnDcnTkEYbpRoQFzlsKbd9/SKpppMNOQIdUNJOvLrOu0F3S+rjK7q/AvtZouPw7bipBzcADysS/EqVaWT2CWFoCzvK68oOy7LJn+8xVLFuiyXxfOMmlvaElfLY0WoAUVVgtVYVD4xZI31UbzmLy6DSmbdSOHw/rwFDWziM8B5vbwgWDXESI5Wkqp2VPjDWhWPCtn+T35YUC+b5wvrMt+XB5jEuhr2SftBgUWjutrjwWrGi0n14wL/v6h59nmt//PK3Nb0a4OQcXJgo+y6KqB3VcwaDrvjzmg+yrHKgqAdi/Y4CIMv8dQFWpTAlKlZiUjxhFRbh0J6C/Wm0tlC0aoB5/SF1ks82qx0ZCoc001d2NcUzhnEf9qH2fBnnDSABT0RnQM0kLPROZWxTSJZDClri+N1RIYUpKTQKrjmwYyzqqsKIwCG3mYCzI1+GL5iQ+X8bQ1K0CFokLGqATQ6Iy5IhyPAVvEX59i2FFEcxnSSXnyhTcvdaqvib0QHvx377orWKQVkSP1by+L+AKgHCvEv17Kt1a3hzlDM7XIfXMEtn+vrgoRDPi6t64KnraMxLaXIRCGsbVuNikIY/1qtv4uHgT1ou2sBFVnUjG077bhueIojJXuNQJ07Tv31UUB8k/zrcsesjgrcPeKymu5wRBcEmgZTc5BfutTBZvLl7pzv3z3xs7/vJKzspmxcVBsVD6awV1WMFQHwlC5Qp5CVbyfBCsgq2/1gfb2gaqYHnloCSBUR4v1zcJw9mkSTH9xEMnhEPRrnBtzIyOqbbqhwyKbq7r+s9UhW3MFJbwaJYY/EXrv/DHKY5ZqX8iMY+8rVVwxbPE2aRY5YDmcDiuJhwITSeKRmsQXls2Ak98kcInS2NIFzRwR/NEN3JsEHEWNgTKCTAKimFlfVTspp4h1S+RXSUzKsowfjH9UoiyKdtXNw9gPFUiI8Hbigpz/5Hid2DxLf/9b1tzAwWXYPoAhniwOSvVr9KoLi7zwonB83sjr3fx6qS3pHVQE6IfODl0OdA1B+sMzWO3rdqxx7hmPjHUhiTaEXbyjJxayTLsKhpXSMLjlpc1wiXdV8B/yx/msgt8J1OXVmqPArqM0zOZ2tSazv9zRaP5yqIV5vy5C8zC3AW2PePrrLOsA5ZpCuDy/VWKFsUgWEnlfJBVVRITy5lWryV2bXT5AHpxwI8pLyvIooLfg+4EpHOi2CjRYLVA4rl7R4/aYFJ0vGGY43SOzZmm/shlqCd9k1CCV4prLS6cQqD32ZTv3CfYFKBpHDYLC2/sjo4k/rUghveWVmOFXYVOpx4rClVY0qUjR6uPSaEftHLa3qSj5U5oW33/Bc+Rpsfzr9hEwRkc+F4RD/oO0PWK6w9EguLLgPvof+zC1RzeJU1ebqUsWyxWVbQwxngRAuQxJbBeWGNIXHShhhUkwzZGxQp8aKwNo2MFtvHoHHYbuxRjUl1c0S2YLhlbHBHEyYR+vBSIi/nA5DCU3vNSVBS+DyLsqcAVvsxx3S8sQ5nR3KF/ecOf5zU//nK+O+N5xtOHQMsMOJpWEhH7syDKQdvHJPh2Q281e7LPh/UHUsEQFvmdT52aUg7Ysya8yTh1xJCoPVnT2Lp1qdB4rjpbcRejNK6qIibNV0YWrXMlDohesKlMxiZ4Mf0j9RMLI6zG4bIk3l4Ux6ddY2DGB2HWihTemqdiSTsDCuRXRMpvWo98gCIXA/FG3lop/V4q4lFxZa3UNhXEkmJL9SWP9CEmVWQu/YHZtxsc/51399G+4mXLwb98WJdQtYDjrGTYgRbrtY7QwuerCfz4Ss+1hWQ+BfEkw5iGAnYe24gNB3XyMVXt2DiVR8xog8I64HJD+Al7mipZj8BDfOFChoWLuEo/KFzIFyLjF3MYV2bPXtr5+pLFXXP16OBlHR1s5Q0PLer+fF7RWigZFIGVFBGDPlv9AVZQHFxrA3RtANVAQUronKhLawBnl6lQrzpvvRF1g5S9oDi7weFDHJcPZ5wnSUqj5EsafSk683mkTLSCjMsS/e4Fm4ox5lLsGAXKxhCKNEBNbAjUjMHD77m44Kk0GrMRuFoShquDWQZcixiT365C8PQdJ3vN0LL2Ltc79SkGDmSqr7W+HMjDfrhmlS3Qlzgvb/IBQi6UJSKwT4LlbCiKvP69RQWmD4jc02mKWE9aVeX4E44FFsKhAvbauAY37x/ideElUIyZcPIL4dhp5pLnL3ShX6Xxrvh+frRY90ixnuRG80N6KtOC7jiMFyzVAYxMrDayNKIoX77ywpIXDr00/XFbBuSnRT5a9BZUExnOE9RpBf21guKhBKjyv2tlzK1toCoX9yR7UrfeGrjt7A21hJoZlStgO1V3dxo1OLa+5ViDKL0c59Ap4zbJd54LgXRxChTpO9LRmws1JCMnSyBnhsH4EERTDQjXToab3ARMHwk1UgMbGn5x46d45o2vRZgKZQhwSM8kUusKuc5fSIOrZZlY16uVBgIu/TStmBOBcsoX+lUt/Gul6/9HClnTdi0Bmp7pX7HVSohWJaYcvMs/L/tf3OurKyhjKYEWfRwOvaYKz5ywOXbfbCjg5MDN+UB2AYzsfJjNM+DaK7iudpEeljlMoyhxkelV6HAVL37Scy71PWPEkOPc8fKIcUVXXQXImyZvyxtO04om66vGxsI/Fy40vvzHjHzmH++KjIHSJ4vkT8mspG5rVexKnlsrA21tAJXkzH2C1JgxUF+5afKIhmHqoabt7Au4o11SU5NemzskcLki/I0pUMklU2ZOojCUQIgvxUl5rnDU/Ary+Sje+aIK7RiDvff7DeqHb+k1ayCD1KJ2jm0ueArLlzd6gKRoJXmbxMGiIjsAHGUqib5beyCgtVb66odC1qQFvjPAryAm9glgfb0I6ZX8gE+KptYiOO/X2+DSvdcru8EFzy3A8889gO6Vn2GzyV18WCrLVL0blqlwhWkU4E3Q1ZPYUCRG9RZHL82NQ6jDFa766fAFOyBf2A7usLczee1vv7142YwX3uwg+ibjDaU4WClQOujuIMVHOTm+9ST5tkAV5MrS50nAgQ8X2v671LALjw6PGDkk9rCqqZu4wopG0ptv3iU/AT8dNolw5O3tGV8plYkCks7I0ka+Jo6hIJNL4ZumGrw6M4mXXtcw7xsLP919Y9z34MnQFNLLl37ue7cJR938PByTwiD8nErFtw68fvFrsE2DK2n5Srkms+Zb3POdTbhvUccfbh1AC1SYcsVhJhdN31psWdhl+03wysnbViz3sSdfwbnn/AWROMPE4Q7fcZduvttGrXxwIouQXlBEaKfn7MxUxWWKUMz7YEWOpX76Zlm4iGL0Mz2HQor14ZfZv2x3+NI/lPlfSWYlQSvIroJWwXIL4QDapu9Lvg1QBe+V4CRZldRH6W8+NSk8ZZz7GzdrX+xlZvMuEclNvIA7MFJdST8W5nEo+h+ZIfJ5ho7mBBavTGD2wiq8MW8QvlxkY+VKF8gpwvn7nDP2wFnn7l3xLQ+84x08/vLnntVuVZ7NFVviWy8E36pzfrj5v60Fguu6FP2Dx8osja6LwUOq8NkV+2JYFbnIlH6alqWx80++w7tpAAAgAElEQVQvRFNLF1SEwNUMH15v880mGnzKxAw2GFWwhw/KWTVDC3oojJBIRkFuE/6uQczxrOT0jyIyvO8yPRpjzFGWbXvUnF9/Nhstvt6KQKpcbxVkV+UuDUGw+lad+W2AKijyVWRTpPF779FhDRuPS1zt2NjZCxvokRBJyKNgUaKqlHSNdE6MuTALGjLpMFa0JzFzaS2ef68Kn8+20ERWOpuc7LxcQgoiSCTD+OcrJ2Pd9Rp6NUR33sWPLngS8xY1A8S2hMwoB0M/ICR1CLLUHxjNtxpo/zM39zVOyq22wQYRjMp3eZGzSjAfBWoIePD4XXDQj9ep2IT7/+J6vPH2XKiOCdslBb1OyWtonNupRL6w8fju/M5T05EdNs9HhyQtJRKybU23oEfDOk03blsiSwQ5mgp5za8LSZ7cQddnX9vn73f2wvfb2gQZIzGQFO6SVQWtgsH4wr6U7Gs8DNYGUPUFUmptNJp47KbELttsVHOF7WCo0CwF4+wUDYrOhGMctyPo7NLwxdwk3v6iGh/O1dHYrKKpI4TujAJmFQRACcFbsDAvwdyPtxqN5589D0zE1JV+3pi5Artf8zzyBdsPn/PdDSo1V8kA+4FJrfGI+l+/sYwgDbw5yoBKLOiUud3CL3beAI8fu13Fou6/8xWcecFfRAyqF5dIGEHpokkL5dgqU5xoOMcG1WfVMdWWNWJItusXP+nWttxUSYV06JbILmgLJ1Gx/Zjv/kBAZTnMDjP29+P+0HjPg8+lu3xfq5z/txJYBZ1I+4ohHHiTBK5cW0BVjMnzdVPq7rtvGjr2qJ0mjg89+9t1BrFDTAptknni/ABgTVeRN6P4bEEt5i2pwhffxPH1wjDmL1PR3u7CzFFwiw1Nc6D5AOXliBLWCzhuHhdcsC9OPeXAii9/2iOf4rpnPii1rvUVNVQEqh9AakAjSY6ccqPDD803oObrfVEQqOSuFRqYY6NhZA1mXrYPknHaM6L0s/SbFuz00/PQkXZERhAZeuMnf/eCnGkbHifMuQ4jEXYKI9ft1nbeshDZZFSOr1trFcZP7NQjmhulCEKRH4vkP0p7JsREd8m9L6avPvmyltk+oyKgIvFPBj0HAUtmbih3YQi6LKxR+3wboOqR4XoS1kndlPbUU3cnf/7zhn1Wvn3qUVWaObmYQFygjCJycds8hkeer8Vdz1RjaTOJdTEolJHSNuCIdLIUhkAhMJQv26+ql/QVlmUhkVLx2ONnYZsfT+wt9hkudrryBcz4eokf0SGrG5xZq3APWKPm/F+8qS8KsbpIVn69lIH+F5FPAhWFHbuIRlU8e9ru2HHDUb0HmAPst/8f8NKrXyAaifbsUC1Tx4gMtMS06FbFdVyXNtZhihphht1uDapqSt9zUXd4mw2cJKcoHjhClUtg5bicqxz5N74s3DvtuKUvOg4IpEj0I6Cif6RGDubECira+wKrNZokawpU8r7yjAcyJEZ/5vm/NGy/WdfR5uxrDojpapVM1+t59pMiPYJ5jcNw0Z2j8O7HNrq7TYH+mk5J6Ci7gedPItOvlEwHl8MyDWy5xQQ8/OgpGDI42evl353bjL2uewWdnWmRyKznU+YvtUbN9j266VvpziqBSV8UqRKQSDD5LtqjH1+m76IK39kzituDCM8ZNcRw6p4b4qpfTq0s/t37BqafdCti4SjtUlv0SBe94xsQpdLcC8lxuWMzSlnj2ODOGYcv4uf9qjPkWLZC0RledlMCKnDb4fbyNuO1X5yy5J45CyHFP6mrIqCS7EoGPQedQ6XeqtxdYbVbck2ASt4jKYpM/yuzHlBeHP3VV/+2+aRh7x8bbn78J2Fdo3x1fl5x2pCAwWYJPPjCGNz+ZC2WLckKBiUATNHJl6qHQcmYmODmlkRnTROnnn4Azj53b+iaTF/V8/7XvDAT5z/2MexCwd96KTjR+pp0q91+34MbKiBVf+BVJCnlWRzK2qVXRoGgMaIM+4MtURxVvjizJs29ypFZiWX199Lfg65arSp4fSO0sSrDFpMG49VTf4JoLNqrlFmfL8NP9r4I6Q4DkYhnNCrGAvqqDm/bHDreozSneByHq3y7bbvtu86Yi9qwEWKUX1+CldjQkLvZgjXn1sfSd1xxV/t8n0ERq5K6KsmuJJsKsqpyBfsa0+M1ASq5jNK95bopcmTSotFo5OtPH98+0nrVGWE0baT7eXuo2SkpGddUZLtTOOWmdfDcaypsxxYsylVUf6823y29WDsZ3+SFKdiWidqqGG6/91T8ZNdyZzivH395x+t48q0F4BYxNb9vS0Jd1rjNVmu49XnxgOdVGRsMVrs0LWnZoyp1bV/ZHDy2Iu4QIUvcy4IpDgR0J+KnDBnwt7vwry/GyfVI6CUk1qu29OPpKTbIlMUlEtsC1Zdpe0sCtYNgWPLmJQ1Uofn/w/0ua1Te/6sYD5QZpHZwCi/+fjdMWWdwr3dqbezCEcfehtde+QLxaESIbSJnvt/mPfHt3mYjctt7z4PdQV2dVjjtwJn5w/boSkDVdC+qjJxCORzH5Z05q2PRMvXJg85e+K8VTUL0y/hARSBF7KpcDFxVltE16oC1AVTFMBlAZBnUd9tht5oHbtl6V3flXRclotFaldz6RXpxL6MB16OYvSCO4y4fhpnfRKEpltj+yXPIDGRALHZJT7pDSixmGQVsueVE3H3fSRg7uq5Xx7V0ZrHnDS/jk7ktcG1SDkqgWjsY8+8vpWSW+o/zXsLLPuojSl8VqcSE5LXSRUMUIsHIL1t4bnjuH56IHrCk+m0o/d9EDcSxHpCTNfMe5R0v5rj1JTdZf5k1XMZa9mS58fSuIsJJuL4F2kICp1/1yunUPDCUr9frmmJAe19Df43m0eoPiX6Bym8w4YDpIpyK4ZqDp+KEnSf1epZRMHHrnf/E+ec/gJAW8TZVlX1L9wdeyWtdirbx24k4VRi5bScvy9x65tKq2jo1AofytHkJFFyH8668Y7kGPph+1cpHXnjLaPeBivKMEECV66yCmRgqMSpZhdVqs28DVFLko79yW6pQFLWRF16/bsS6uO+XUSw6PhyOqZrIAcwFYwLT4fIonv5XHc69rR4dbeSNToI47bYmdxUODhb/uyBVZMFwYVs5TD9uH5x3zs9RXRPv9cLPfTwfJz/xGeYtbOrt5Lmmb9xfsw6IIVV4eF+J9fwQbMlfZEC2BAEPI+QmEz4sFBP39fGSQsFKjh0cOlOgaZrY+EDsIuzSjsTeX8YtWOCwFRWWiD0Tkfeid8ROy1SGz6S8s75HNYGKvwWx3MtZRPAL8PMjm0iHoqqU/aQnDo3cTgQDcGjTeziuTcGzYn8+kZiOdm+Wm5X5fnDeM/0J6UN3yVsH97PohevlYOR3Xp8szXd3rBSM3N+4WNPzJeOCQYvpOHz7Cbjr8G284PngxwXeeOtrHHbEtWhvLSAUJsFGivUBqPbRm/5QGA31qctdV2HcGjk07zx40dfa5AlWCJYGh9ueA6jLkTE5L2TMxbc/lbn7qvs6FgIgkCLRj9iU/FuJVcmdcyplEF2tllnTaRsU+SRQUeuEtthit9jzz5+6ftt7R541tDq0taoqXFcpRTCJE5rYZaWrO4FbHx+O259KwsrbhFGCTckdh33q4Gc6l8sj7cTLYZoWEnENF1z6a/zmkO0RiRGJ6/lQAs7THnwLD32wHO1NrSKLp+9EVbq4Sge7AQHMarVpIF3IKu4rspFA1H1g/gjJqyjx+u7Cgkn4KTsCk8/rRD88SPU2DRDpbaWbsQ9qpPsbkQxjWEglkzVM2oeAabAZF3v/eTt2uuBmjuRrWGEFadoNh6tixxWPZrkI5bNImK6XDl4c9zaYKm4zpWpe0jc/JEroJzXNC8Gk3XkUDWpI88Kl1DCYRhsuqCJKwVY1WNyFSangKKeTrsFlLiyLwzAKcAuUh9yGRfnLZQqe4igmHxifyYkGlDslBylFKUj1TAC/jYsREv31+VpmXiXjsHeuM2qv7TYciUeO3BpDB1X1qtz8eS047qRb8Oa/vkQsGvdwyh/jPYudv6iI4r35ROOAMrUPqrbd2875BttvXlA1V2GuSNhHZzgKNuOZdK77nS/cB3578YpPCwV0+2BFQEWgRawqqFiX1kCpWK+UPbS/Bi45v7pAJa+nv8EcUwQ1hBiRo446O37xGetsaX517p+q6xIpXVWhiX2paDzTahnBF/PrcdNjDXjlbQ7btsQq6k3MngBh2cjB4eDYDowCWfvWx+9O3hXT9twKqlb6Ch3pAg67+228NGMhzILh7/Lpv3NwxZQDIzDI+81Vt8qmXUVTBkRP77E9eh/xuyhW9bwtgY2YdKoClbZiElszUdpaDSEGhGkrLY3CjMSe7eCGBSWfB+9Ow61LwqmqhuU4sAXCUDEKdJVhvbCJcKYbZmM7Cm152A6FIdHWFZTHW4VGvjOuCW5lwarCMMZPQGssIRYIEse0QgGDli5BuKMTIcUVjMtkITGgxYbDMKBrDDZFAhAjchyxEAn2xm3YDm0hFoarEbP2UutQDQU3YiGwcAg8Eocb1SliVvgGkROdFtZBIR+W48KiFNIC1HSouiY2pae4WQpuE8pihaMA5ilOHJpuXht5H8na/Sg4mTzI2469J8rKkzvlKllZygyOB9n9FRnyAOZkpQVTLmYUhaEyTFh3BK7eZxL22nxCrwKbm7rwx5uex7V//CsSZP2jVSQw3ntGp58qSQQnE2NyyQOdh2Kue8n0dmffHZew2qirezn3SPRzKd6WpzO2s6jJfGH6Jcv/+dV8dAJI+wBFjEr6VklWVQ5UwawLa5RVYU2ASvLtIFAJNgUgdv4lVyWO3XnOvnr3Py6OJBMK+UHRllKkfnKZAsOK4+9vDsVVDzdg6YIcVN0SYp8oVCyG3mQt6Xd/XlP+VNI5/ebwvXDYMVthysa9wwo+X9iMo//8IT6audjLWyXSuPilBd92jRhVEN18HUKFMSiIeSAFurfNt9dsYtdwyt0elNT9CSGminBmoQmqIBSKYHAsgZTCEaJ9A21bpFbmhTRyXQVYmTycbBZ2Jg8jk4Nr5OG6BYTra+BsMgVph1ZDyjmriFBH3bYxOt0JffESpDu6BAAOSoQQDodEdEA4oqGmJoVoOI6ZC5egu6uA5HoT0DS2ARmxizBDuK0dQxbMh5LNYPttNsDgmji4psBbgTkiyTiypopX3pyFFSubYVCaDJ0hFY9i6vqjEOE2spks2jJ5FEwLuUIBpGPJ503YpgXTtmHbDgp2BFAS3uLlGEIE0bgBLUw5lTgsPQaEIghV1SCSTCGSjCKWCkGPhaERQ9NVZFQdaUtFh2UiSyoDsY2VxwJJ7yM3K6XYNwF8gtX5DjGCkPrAVbYtYl8+w6VDYTUYV3Gwlw2mAOgp3EHdkGocs8MEXLD3ptDDpZJEdzqPp/76Pk454z5YORvhiHdejNKiAaRnZnmMihzYPXDXFNfedbuMcdx+8/iUiTyuiT3GvPPkL5rLu2jutmdfc1/HQw88090EFFmVZFSr8q8Kbp76nQJVUPSTvlPkNhu/709Hx/bd+PULFe7sp2o6pZsQPlHEmmyoKBTi+OMjw3Djo4MBIwc9RuZQyqggPaZKO9hLbE+bPTowclkkUgmce86v8OtDt0JtbaoXTDz1wXyc9pdPsGjRSgGAXhC0RL7AiFhV7FWvUleF5z0WyiLdLDIkLwWtWNNpwlGSLUUD7X4atonDeKZilZO5gUOhDUYtG3YhA9aRFhM2FQlBc0y4+QJcOw9uGFCtPBzDK1OJMIRoPzpdQUhlYh9B2qTCmrwhWqqrYFoGbMpOQZukcgcRB6hbvgJY3oqRtTrOP/dA/Gib9cAtigJwxN52iq7hqb9/jD9c8AASw4cjPWkculQNjuUitrwFqeVLMWl4Etfe/nsMHpYS3tNEp2jjZqZG8eRjb+HqW59DZ8bzjYOqIxkFzj1+GvY+cGvPwps34ViW2A1Z7P5j2cgVLGSzBpYub8RrL3+C5178HMtbc55Z3bYEKxxeH8H4cSPRvrIN6XwaGaNbgL7t2rAMF0o4jrimIUz4NnEi8mPHI88VGLYJyzChWiZCuQJ08tsTG7vSEquCRRSYiQgKoRAMjWJPvV2ZvUyxnrXM86H0zAF9E6dgTv3AQAqK+uVMTK555dgWYFT0QHL83HXzdXHvYVNRV007Y/V8zIKDN9+aifMvfwKfvDsHyVTCQymZHbesbJlJm5gwAZXNDXvkYCt78gELtV/tno/oOkQCAVqAqH1NiyOdsTJ/+1fhrtOvb5ptWYJFSRFQOoKSKBgUAYNbdgUV68FlegB0s39CW16IFPmCol9R7KMEeG8+vFPt+qPmPRrSQmNFolWxvQYl81JhQUFXt4YT/9CA596pQ1Q1oYa8HWK8/c7Kt/n2/UEoa7RpwDTyGLNuAy6+5GDsu/ePoOulaV3yFnDLK5/j0sdnoLszA05xN1Lh2gtrKq14fQFS7+Ni6ge2h/P0QvQqPuEU6ZGJOjvQjDx4LiuS/1dHIkiGVagmEDLyCDs56HkDLG/A6sogk+5EvmCgk5K3R6LQ6B0dEwbnCIViiISj+OmOP8K2W08SPjNV1THUD65FdX0SzFRw170v4Ynn30IhVY+WievAobxDwpvfU4STl3/ScJCaNRvRwgrcfMvJ2GHvrXw229PdS5d34Je7no0OQ4ex2frIaCocw0B0aRvq0m3YbZt1cMmfpiMSKQ3ryGcLuOiCR/H0Pz+H7WowXBtc1RC1DRy+5xSccv4BiBNq9ffhLp5/+iNce9Pf8fmspbANsXUQtpiyDh585GzU1EeQbskg09QFI28jk89h2dI2PPDEG/jo3RkiEb+yzjg4I4bDiYTBLBuRjnbEW9OIdHXDLGTgckoaTkyRAuJjUJJVsOtrkEnF0R0KoxCOQtE4ND0C0uQYFoWVEGo6Xkp90dX+1vNC7iUR0zdXliu8i++7GkxLUCKZW9vban7jDUfjgSO3wwYja3sRuC8+W4DbH3wLd9/6PGIRHaqqe2O0ZKds7zaJFKK6cGE5lqurbuF3+yxUTzmiW4tEoBLjpPFD15IGIZt3+Sez7b8ece7ifzZ3CEAi8Y/AitiU/BcU/2Qe9vIMofLxA26MNRH9yh08SUcqxL76MMJvPTl5i9pU/s/REGmnfDGHKDVXRbbNBctrccSFw/DNIoaQThYgb1cYL7NCj9472K/EqkzLhG0Z2HrbTXHueftgh+026DXUFzd14rpXZ+PWv38Gx/REyiKdqghU/sGiDkn+DqTbKPoT+SX5ek7axFRs+C7iDVyhi6FdAEOkx7EchPImwq6DEA1qMwejPQ0zb0ApGAi7FlzSrziWiGOMqCoiMaC2ZhA22WpTvPnmp/h61jeIbrAJQoPrYdgGtEIGSnMGqpPHhecchEOO2rH3VOfA/bf8A1fe+BRanTC6N54EREKenkrk/4LQQyVZCIm5i8GWf4kTjvkZTrno8F5lFQwb+//sXMz5qgOFLTaAEY3AzuURX9GBEVYW+/18U5x8zn5Q9VKgSndm8buT78ZXc1vRbCnIC1uegnihgB3GxnHFn47EyIZh/cGUOO/aHK+//hnOu/ARzJ7VJCZMMsXw8CNnYbvtepvpCxkTJxx7C1546VOk1psId2QdTMcFMzIIt3QhvLIFmlXAsBGDse0um2Ls+CEIh1W0t2QwZ8Y8fD5zNtpbDZihFNI6g1VbBW30KPCqKrjpDPKGgW4R+uUtSp4pk1i7xCgRV+eFsfiRFaV6z8C8rDjzKiiqJFA5ZJW1MXydobjt0K2x58a9w2maVnTiz4++g2uuegK5TBbhSMxzVSgKFT0P9ZCCYvs85Z1Jid9cZv/yJ4248vgWJZk0xcZOLln/fLw0TI7FK5yPjrpk8UMzvnKJPRFIkbd6EKikXxWxqb6U6t85UBXdEohNTZ2c0h+/sfb0WEQ/Oqx5KVEJfUi0c2l1ZWG88uFonHZlCpmsCY2AilYkXzclmrGsr0SuHNcVjIpWhmn7bIczzvwZNlx/TMlgpyLe/3oZzn32K7z+/lw//7nsoaASoMJ36T/k+3F5Sl7JjHwzuGBIvheQPz4jtNpkCgg1N4Gl81BsCyEwVGkKorAQ1hh0xmDZLpa2tKPASaTgSISAYw7fFRttPg7kDBuLR1E7uBbDJwxFJg0ctPtJ+Gb2SsR33Q1mPIGcnUV1REF0XjvSi2bjsMN2wCVXHFFxsr/81Ds448IHsazdRnrT9YFUQljJaDzSyCMWmopGoc9ZCbbwM+y9yya46c+ne31V9pl+2B/xyj9mwdh4IsxkAk53BsmWbozTbRxy2DY4/PifQiGxPfBpbcngtNPvxpyFaSwwGExNFQrZaN7ElGQBl11zKDbdqvci0xdymaaNxx97Exec9zg6uyyAFXDcCXvjsksP6GVdXb54OfaadiVajAT0CSOg1KVgdLchtLwN+tI2JDUDh/xmLxx03O4YXFfK6kwTWDJvJZ5/8g288MJHWNCUhssiiNZXIzxyGNzuHLKNK5E3LOR1BU5dFfSaGrB4HE4oBpOMA463tbtrWYKCUP4Cl9IQ9Biue3Sv0mIZfPGiQ3JgIkjxjxYb10bVsBpcdsBUHL/9hCIWyiKsAsejT7yFy658EovnL0UknoJK6gZ/TpVa/7y7pAhrWzZtvsSnbJix7ztzqTpiWFbRXAaHLK9iLebCSpzJOE3n3Nhy00P/6CaFugQqKfoRYBFQSRGwPHB5ja1/a8qogpuEEpuiZVW/6IS62Ak/jz+hhyIbaN4WxUKiF24Jro5sLoFrHxuPe/9KIUWeta/H/863xgSASvhxUGM6DgzDxKhRQ7DH7lNw5jnTMHhwdcnYJm75zEcLcNz976N5eTOE1lXqpyrOAk8xIOBIAJOKECn+bS9VhlAyWhZoQxry0hauAsScbAeq4iClQIgzvK0LSroTrm0joTuIRiMIRcKIx8KoH1SFESOH4MtvGvHRJ3PgqDoUaKhN6fjXqxehfnhvL+MP3puLabv9HuFEA7QdN0eHS0pgC9VhDbWNaXR8/QV22WUT3HP/KRXfauZHc3HiSXdi9qI0un40GQ4BFeUc8rcS1zUVqXgc2vxGuHM+xU9+PBn3PH6O7yRYWuQN1/wNN17/HKxxDTBTcbjdWdRkLEysUnHkMTtjn4N7Z57sbM/j9FNuw5cLuzDH1mHQBLZdxHN5bBTN4eKLD8I2u04peVDO4nDMPJLx3snh6MKurjxOP+MhPP30R7AKGWz6o/F44R9ni7YOfp57+h2cdMo9sAaNgllPk9SB3tiBcHsOMTeLs87/NQ78zfZ9YaI47pguPnj7a1x/w9P4eNZSaEoE4VRY5DJ3M10okPHCLkAjcZJUq1oMTtVw2MkkaM8EYe6PhuGm4sIqS5ZqL3U56RR9HRdNfGn4LZKsYErsgCOupDNi62QX4do4TtpzCk7aZhSGDy4T/wC88uKnuPSqp/D+u18hGotBJ/UH+aEVdcBlrErmZyMLsc0RH+Tm//T7hcrOU9q1CK1CZP1jHlkgY4RjMeveZ7vuOv2m5q/h6akIsKTlLwhUlYKWy/cN/LeJfkGxT/pPEVDRkFHffnzcqLFD3Jc1JRQltwFv23QCAR0W17BsZRWmXz4BX3xjQlNpOx9vNRaqqQobcIo+Er4eFmzbxdQtN8Kuu07A6Wfs12s1yVsObnptDs69719wTMq8ENBPyQUqMEQ9vuSBFTGlhK4hoXJoZD1b2oRcexpOtls4H9IgE5hHGX6YihjpXEhlIjR1EaRiIUzdaCR233sr1A6txtAx9aganES0Kgo7p+L3J96KF1/8AHo8KURgzc3j2adPx+RNemd9uOW6v+Lis+9A9fpbwdhkXbTlciJJf42uoLYtg/bPPsfPpk3F7XccW3HCrVzSgROPvxXvfbwImY0nwq6vEyKzY3tbVGqaglQsitCCJvD5n2Ov7afglodOqWjIeu/teTj8sKuRSdaC16bAc3lUGxzrD4nj1LP3xtTt1+9Vh+60ifNOvwPvz2rENzyCgh4CdzhiuTw2iWRx1rn7Ydc9eoJraZ68/+lCPHj/P7HDjzfBPtM2Qyjae/187dWvceTRt6ClqR3DRw7CO+9djkE1pcHo9935Ii668C/go0bBroqDFQrQm7sQM3I46pif4eSz91klSAVPLl6wEmef/xjefG82wnoUCrF/y4aVy0NhFtYbVYvhQ5L4Zs58tHVkkXeBvB2CSRJCPApl0BAUJoyGrWlgtu1veuvCpDxPigZbbGjrbfUmQyeK2dKElTGghhA+cR79UUIqpm23Ac7dfjimrD+u1/t88ckCXHj543j1lS+E+0E4HC4aA7wxXwpUsgAvFxWlirHz07Zbal44vTVek1BUjbx7CagcSl3s+dK996Xxz31PXfxMPiMyJ3QEHECDQCVZVVD8W+PYv4EyKnkd/ZVsSgKVsPbtsGWt/ddravYBU/5E21yRbCw2DCVbkvDJCOOdmYNx5JmjkCsY0CIqHHLI68PaJ5wV/X3JKN+5poex0/ZT8OvDNsNe037ce4LkLZzy2Ke4+2/v+XqDMmHGlyu9lHs+yNAKxYEk/e1Mgze2QE2nobgGmEo+S4ow2auacJ+Eyy1h0s/bQEs7iVMcmpZEKMJx+AGb45Lrju5lnli5tAUH/vo6LFzYDi2ehK6GkG1fhluvPQzTDtql13scftD1ePaZtzF0ux2QbhiMjs524Z1dzYCqFU3onjsXZ150BI47rve9VFh32sD5p/0Zz77wITrHNcAe0wCLXBSEVY8MXAyJWAT63BXgC7/Aofvvistv+G3FCdzZWsDP9r4AC1oMxOqT4CZH3HGxxXqDccElB2HM+KG97jMMjsvOvgPPvTkfi0JVglERUMULBjaNZPD7U/fGHj8vZWIvv/oVzjjrITi2icvO/Tmm/aJ3/7Y0dmO/X1yNTz+fi9q6Wrz/wZUYNqSUVUvWljMAACAASURBVD/64Bs4++wHgFEjYOsM6MhC7erC1ptNwF2PnoYYOaCtxmfFsg4cdcIdmDlrGUIhz9ub3GO4Y2Dy2GpccslR6M7mMG/mN5i/YAkWLe9E04oWtDR3w1ZSyA6pQ2bUcJhhDbrrIpnOgi9eCsTCCDWMR2dER3s+5znaCm9/XzdKtqWAkCgGVVGp7mD9yQ24bI+J2HvzCVDKAvKbV6T5hZc/wl58eRZaG9uFl7p0jSmRLMv8jEXLuA4sZtlj67rS91+2onrdhryiCLOn5xxKpI7yrLd1WIt3O37BHxcsESIexf2RCFgu/sk4wHLxr3wHmwH1yEB7zlfYiNYLbsVOOioS9mMX/W6EefJBoesA7QCCAgFUgq0osESITBR3PNqAK+5MipAZWhkc4VUm1XrB+vaYf2lVsI08kskq7LzDFFx61b4YPXpIr5dr7MzhgJtfx1sfzwfKrIEebfPWEpXM9IJZcySMDKpa0og0d8LqaqXxgymbTMI2266P9SY1YOjoIUjUxKALy5YrzO+6qmDmV4046OCrkE4bIt87BXYedvBUXHsjsRyPpcnPG698iN+d+Sja0i6iVUlE9DCalszF1RcejCOO+WnZe3Bst/VpmP11G+p32QZddQl0tjSDQUdVLoPY/CVAPofHn7sIm2xUITcR7WdkA9dd8jgeevhVNA0eDHPdcbBcB47Yw5AcvRniYQ3al4ugr/wGvz9uf5x0zn59Dpb9f3k1Xn5jDhKpKDSmIRENY9ou6+P8iw5EtEIiN7IiXX3RA3jo6U+wIjEIeV0TgB43bGwezuC4k/bA3vuXZqt86635OPq4O9Hc0YkpGw3BYw+dhpoy15NC3sSRv7kdzzz3Hqqrk3j3g6swanip6PPScx/jhJPvgVVTA24UYHXkEGUGbrrpeOwxbbNe70j6r4/eXoyWpgzWWa8WG27au00/mrEIRx93C7q6vMB5EuVIBKpLMtz2p2Ox2eYTizuu5boMLFvShL8+9gaeff4jpAsc3SOGIT1yqMgJFSuYqP56JozGFYgNGYfo1M2QAUNnNot03oYhxCzyyPdiY2khF1KjHxEgtr+ybVTXRHH+gVvhhB0n9vKnsgzOb/jT03jsr5+wubMWQqNU32K/SqmrKh2f1CjyCM0J0zF5NGxmnrpqUWLjyWmm2GS195TuAqgEWNvGby9cfsXTrxdW+tkUSKFeLv5JoCrPWRXchXmti34SqMotfrTMULBd6KGrRsb33i78KKBNoiYhj2IRG8YV8XKmXc2P+8N4vPSGxXQavCq9vCeTCREsoJsSjedr+cTWPraFqqok9p02FdfdcLhQEJZ/PlnQij2ueQmNK9uAUKhXVk9aVbwkoQyawpFqa4a+cAUiGQNh3cV2O26KXx+6IzbZbDzCVas2n7eubMNWO5yD1tY8OZvAcS0c+PPNccc9J/oO+17tbMPETTc8iz/d954QAeJ1KegO0DRvNm65YTr2/2Upc+jqyGH7rU9GYy6C2u2noE1xkO/uEnmw4ytboSyej/ENQ/HCq1cgGpMWzdKWoCa975aXcNdtz2NxNIk86ZfEBKPYLWJUCmK6Au3LeUh2NeK8Mw7BIcfs2idQnXnWA7jjnpfF7vbkDzdq9BCccuLuOPzwnfp0brn56idw0z2vo7V2BPLkM8WBlMWxWTiN6SfsjmkHluqJPpmxFIf89k9o78gimeC44/YTsNO2k0vqRKPpnLMfw213PIfqVBKv/+sSjB1TX3LNO29+id9Ovxk5HgYKFgr5HCaMq8Pf/nYBBg0u9bnLZvP43fT78OLzH8EJhVGVCOO0036Go6f/pFdbXHfds7jlzpehqLrQ1VB+f/LAP+fUfXH0UTt7Vr/AZ+XCdlx4yUN4+725MKGja+JoFBIJ4Vk/yjKgffYpulasQCSVQmzIMLipFOxYBGYkgbyqwiDPfo2MTww5gQ4UD0txmC4cy4HGLBz58x/j+v02QYRW17Ih8MJzM3DNzf9gn3041xMXVdVz+hTEzPMEK/14k0+4KdjkbMzM+y+Yo+00tV1RHcXPpOHp2ByxAQTDvU9133PK9Svf9eN8SfyTGRVkrqogUPUl/knrX7+sanUYVTAIOZh7ioBKffW+sRtMnRR62HZ5XHiWkL+cELNIxFOxND2U/+r00Vi41GQ6UUmRTqHEy9+rrI+xQaCiBhpUF8MJJ+yFk07ao9dL0apz9xvf4JjbXgPI4hKM+vdFPgp51hUgrHAk25YjSlavrI0x69bhxNP3x257bgFtgKLBnNnLsPOu56OQ92DWsvL4+b5Tcc/9J5YMge6OTpx1zqN49p/zoFbHkUhFYGdt5FYuwZ/vOgE77LZxybss+mYl9trlDLTFRiE1dRI6cnlY3ISuaNDnLIOzZDaOPnIvXHzVYavs2GcefRs33fB3zM4z5BqGwohFYTsU+KsgpCmIMA5t1hwMY3mcf8bB2PdXlfNx00MeuO9N/P7Mu1DIknMmsO6EBtx84+HYtgxIghW675ZnccUfn0Nb3UgUdLL4AgkBVFkcc8Ku2PeXpa4Vs2Ytw0GH3YT2tgyIvJ50+r6YfugOvrjVU/L1f/wHrrjycaRiMTz34tmYvN7Iknb47JP5OOTwP6IrC5HehyzFv9h3c9xy6/FlezkCl170GG666XmosVqEw1FkbBNxNYdrLzsYB5QZCdpbcvjlIVdj7oI2MenJAGe7LrbZcjxuuuZgDBneO4PHi89+iIuveBQtTSYyDYOQrx8CR1WQBEdNOoPCjE/gGBnUpqJwrbwwFmk8DK26HnzwUCAVR5a76CrYSFclwRIJcJe89jmYa2K7qevh8eN2xKBUqUGBGmTRvFb3jAseVl57+VOR501kyPUDNIrGq0paScrvSaItVPf0Xy02f/ertojOTR+oPH8uOus4Cr6ab779sxMW3t/VLVyTgiE15Xqq8rTFlRw/+2VWawJUQYsftRLRD/eLv004ctww9RxO8hzjwn3DY1RkddDxjy/W4b+7tA5GriB2QqaFYpUP9wMnCbCosGFDq3DDzdOx0/YV/GdMF8c+/D7uf3YGoPlOoIF0HiTuURhPSOOoam6COnsJYg7H5lPWxXlXHYTx64/uF9GDF/zjxU9x+KHXQtUT0FQdme4OHHjg9rjt9qNLyiHr47GnPogZszoQqYsjFGHIt2TgdLfiqYdPwaZblMZsffLe1zh43wvROXwSUpuvhw6qazSCmK7BnjEXWtdyPPDQudhme49tLFzShIgWwbDhpUGq77/+Oa648il82phDR3UK5uA6Eb5E7UBuIyHbRmj2bGxQG8OJJ07DnvtVzhxJz5jxwQIcePBVaGxMC+aw4Ubr4pEHT8TYcb0tlvLln3zoVZx18aNoq2mARSK+C1TbwAZ6N445dlf84pCdStrpyy+X4vCjbkNTY5fI8Lrfvlvg/HP3RSpZqiy/885/4aKLH0IkFMVjj/8Om5fFvM2b24j9fnkZ2lot0B525Kd38eUH4lcHlwLj4kXN2GvXs9CcT2DYRuNhhUPItOVQWLwAI1IMT/3tfIxZp5StPfLQG7jgsseE9ZoWRstyUDMoiQtO3Q0HHLhjr8Hc1ZbDmWfeiddfn4NcMobMOuNge56FCDkMtUuXwZgzE+MnjMKpZxyGxfMWYuaMrzD/m0VozdjImyoyhSxUx4DV0IDuCZNFIDalZyHL4vCxdXjulD2wUUNNr7Frm3COP/lu5ekn32aWaXuiJG0p7n/6YlSehEnxoZxPntDV9uhFC+rqay3GXMp24UW+kCrGdBkKWWflvqcuueqjWeTeX+KmILMpSDeFoPUvGKRcvmHpKufg6gJVEKRI9iCgCtdEwD97ZtItNSm2BzmOiEzDwtHMCwfkis6vfHBd3PYw6accoS0iC0Iws1KlisishKGQignjh+PRx07BsGG9O6a1K48d/vACaMAjFPZXT9/9gGJafXGvpqsZkS+XQDMd7PGzLXDBdYdWTBPTH2pdf/0zuOjCRzCofgii4Rg602049Nfb48qrDim5dd7sJZh+6sNY0mgiNawKlpVD14pOhGHgny+cI9wtgp+X/vYufnfYNejeYEtEJ41EurmJshAiyVTk3/8U44bG8cwLl6Om1ltFL/rDY1ivYRR+eVCpCPnN5wtw0aWP4t25rWjSoyiMHgqVkhIyhpCiIpzPIfzNPGy7znCcePI0bLXT+kJvV+nT0pzFAQdcjhmfLBILBhk07vvzdOER31vb4ZXwyrNv48TTHkBr9SiYIjOCgiobmMAyOGr6TjjosFJDwFdfLcVRx96JFUvbRVzg1j9eD9dfdwjqakuV5Tfd+iquvOwJRPUQ7r73SOy080YlVSbl9577XYrGFRnAdtAwchjue3A6JpUxr0ceeA0nHv8nJH40FbEJY2AojoiX5Atb4Cyag4P23QLX3jK9pOzuTgO//u31eP/DhVAVTQCVGlZwwL5TcPnFv0Kigrf96y99hvPOvx8r2wow1m1AZ/VgoeuhMLoaCwjN/Bxx1oF7H7oUm0/1LHjkz/X1rOW45uqn8OrrbyPFFBQmTUZbfb0ACfKeIRfMcELFw7+fhn02GlICQn6l3cuueho33/h3heIoGSWuFHqqYIy11+HlfShSEHMLeshsueXU2am9tzXCjqOBK54xhtgxWS5Vbhun39h6zV1PpklPRaC0um4K5alf1jpQEUARYBF1ITal/frAuth10wc9FQop66lCGUhzwgMqAiWDx/ghZ4zEu18mGXlGexlIetheaWN5ui1PYqMgXYZISMVPfzIFt95+NDQKuSn7fLmkE1ue9wSy3TmAPKVlHB81KFkeGUdNZwfi85dAyeTw0902xxU3H4lUBdrcH0jR+WOOvBWPPfkOBg8ZhmQ8iXS6FdOP2QGnnl6qlJ756UJMP+VBdOQZBg2vQ3emCy1LGjGkLoa3Xr4YsXhpYOkT972EM469Ebkf7wR19BDk25qg61FEuvIwvvoCB+2zLW649ShRRdql54jjb8AOUybh5NNIr9KzYrataMX5Fz6EV99fgiaEkFlnJBCi7AUcFMLFWhqRWrEUu208AWedfxDGTh6J7q4c4okwouHS9iXl/PRjb8ffn/lApHw+YP9tcM01h0ENKfhm8UoMG1yHZLT0PT586zMcPf02NCZH4f9YewvoNq61a3hLI7Rky8x27DBjw03aMDM1zMzMjE7iMDMzQ4Nt0jZt0rRhThw7jpktptHMv86RlEiW23vv97+z1r3JaqSRNHNmnwf2s7dNalcZ87YCkZwGI0c0Rb8h7jWxd+/TMGr8HiR/yKYd1lrflMKWzUMQGOBSV+KAuLXXEL/uNOSMFBs2DUaXbnXcbhep8bXutASJH3JoCaBug+o4enysh3vL7Cn7sXfXJQgbNQVLP4N08jiIdBaIP3xEAKfB2cuLUbpcuNv5f/zxKa2BEdNtoibBCXi0blUTOzYMRlCop/SKUWfD4sUHcfzkr2C8vKGrWAYFjJyqYngzcqjSs6F//QD9en+LNZsnfv0sHti45iLWbT4DqMJQUCYSepGDykNqoiRTEfOY/8N3mNmipAefjODPyTN/2KZP2yvSay2OQrq9c22HJ8+Yygla1JyUIzQKs2FoxwRL3FidL5UAokmfnS5ERrLIHPrey/knJq3MvUfKsQ6gcupUFeVTuaZ/Rcdp/qsh5f82ovrHsRk/GQS3T0RViA2Q7hMJmFCBkBeQCpW9eEdDTj49Q853nhwuyFD7EaqbvYvhuGD2qVDXr+ECW9QhkYFSLsL0md0weqxnoZOc5tTDFPRadQbU9M8ubkXPTh5MglneFj0CE9LAZ+WhVq0y2HxoCoKDPQX3yHsIoe/Dyyy8fvEZmTlqeKsk+KZ+GVSoUgJikRgGFujRaQUePU5CQFAgZDIvWDT5mDarLQYOcn8Af//tHUZOOgwrI0F0bDC0GjUS3iShcqVI3L06zwMTd687j2Uzd8DYpDUQ4guLthBiQtRMzoa0IBVxS0egz0B7Penho2yMnbwdHZpWxYJFXdzOZTFasGrpUZy7/BwZHIOCcrHgxXaZZ8o2TvoAP40anetVwKwF/RAcHYy7954RLEPz79zrZuTEGzfdxNp1ZyGXiDBuTGtMmNQBZjOwZc9ldGj5DcqWcR+Jef00Af0HrEO2Vyg4mb1r5G1h4GcuxJgxzdB/sPt1+vAhDWMm7kPS+xwatdWsVRI7dgyDr+rrPSKuQ9NmncLBgz9DwlmxactI/NCnodvvJuzqlu2X4dmjZEoo7tT5e+zaN8yug+U4yOrq020Z7lz/G7rvmoKjemZ2YrHUykORrQHz+R2GDWqGBcvdI2SjlkWLDvPx9Emqw/yAgGE17Nw0GOXLFz8WRPTMR4yOx+dkHQSlIpATHAaBXAIZL4LKaIHx/j3EBIpw+7d18FaRQWMBrDoTZkzahnO3XkEbFIXCEgF01MwxXOjIGDi0rF0ax4fXg7+v53D+8+cpbL8BcUxGuk5gJ067g1PxUOVobRFDKKuJ//ab1MIzqwr9CGGXpISUpkDlYYhghgB3n5n/ajf+0wFYKVARkCIFdVc1Bec4zT+lf65Gpf8aI/wnoHJFFNe0j/yd5B+KDo1V2LfMvzsjEM0QCYX+QqrmSXDKPnoiFErY83cD+HlbokRa0oul9SnXGMoj+LRfVNqhIEAlhL+PDEeOT0PtusW7xc468wJxR+5QkTW7nLH9XjI8B6mNQ1hWNoSf0hAR5oete8ejQjXPmpTFYsa5ow9x+PBtvEtIh9lE5uPI3AkPpRRo26kOxk/sBqFUgh96LEdalgm+gQEQCUWwqPOxYvUP6NCxrtvF/unmSwwesxcCmQSxpcNh1BmR8PYNGjSqisvHp3rcmPjFxxC/aB9szduCC/KFxWKAqFALUXIKgmUsThxdgEpVI2ExA5t3/IxVa09hQI9vEb/O/YEiJ96z5RL27PkJBWYGyRVKE8cRymkTmG3gPrxFoM2Crg3LYsbc/giODMLVW4/x9m0ipo7tBCkxCHA5fv75PUaO2URVErZvH41mzatBr+Uxa9F+9OvWAHUbuOvWpyZno2u3ZcgW+EDoLYNAxEBmEkCmK8DE8c0xoAhQJX7MwuiJe5D0Lhscx6JZyxpYHz8QXl5fv4deo0PPfrvx6y+PwJm02LJ9MgYP+d7jGnbsugq//vQKQt6KwaPbIz7O/doQoYd238/Cw2cfoGvYiHKaKFARvS4bDz+tGbLkD4jyl+Ds1eUICHRnyy9cdBzrNlwBZyVMbQ4VqpbElviBqN+gnF0IsMhBlnp83Bls2X4dkCtgqVQaej9/CKwc5BZA9OIVBDkfcfDwDDRp+Q1dc9mfMjB98nbcelUAnV8I9JF+4BnJVyVVclKOQ0SYL+4t7ICYIE+g0qgt1h4/LGWePk0TUqCxB1JfmlXOyMr169InkU5h8LCwJpQvpTfd2pIqEzMm0j1wsOkJTcEuZJSaK0yt1vPNSsIndsz7OdUUnLN/xQFVUfOH/5OIypU/5SR4OgGLAJVyyeRQ2ZjOsukioaibUMh4Ea4nwQpK9BQIwTJy47zNMdzFnwLkFr1BSCbpv2iY06vkCVSO2RtHiihATHgwbv22AH4qzxEL8u4Wcdfx058JZOLWcTfsA8MinkeYWgfZx0RIYMGixQPQtZ/nCIUmT4sZ007i2q0n0PMSCIOCwPtKQdJYVsdClJcFhs1GmagIlK1YErduPwQjUcE7wA+wCgCjHhu29sV337nXTM6ee4Rxk/aCY0QICVbBrGWRl5OKxk2r4tzJ6R6LevbEXdi36TTQrA24MH9wBjWQlg9JTiYaVA7FwcNzofSRoDDPgO79t+KXu39haN/vsW33aHq9XY+blx5i2aJjUJtF+FQmFmapPaICERNM+IhghkevxmUxZW4/BIT44fyPL3D18s9YMa8PIqLdC8mJiQXo3H0JlT25fn0ZwkKVyMyyYvzkHRjavyFat6np9tmFBQZ0aL8AqWYJJH4KCBghpEYGQm0+xo/+HkOGu/PHkpNyMGbCfnx4k04EkDF6UntMGNOKCC5+Oe/Llx/Rs992JH/IAm9VY3X8KIwb39bjGv7QfyNVXRAzLCbP6on5s7u6R5sWHi3rTcTTd6nQN2oEXulFJw5omYIHVCYrgrMyIdJkIi5+LNp0cP9t9379gF79ViMvW0drOZGxEdgcPwAtWlSDlISkxRzJCTkYNmIt3ibkQ14iDIWx9sK62MpAmpQO/ctfMX1CT8xa2g/grEh7k4RpU/fjdqIBhqBAGMP8v0xx2HdwuzyNlwy4vrA7GpUttrFhmzBhJ3/63EORjYwoka6vi4rC1yvr/NtXNhUBSyICEFmSt11Z904Q4q0RCsyEUuRwUoYQVh682YL8Rv3frf6Q+sVGi/CpikZURc0fnIoKRcdp/n9HVE7tKadQnlN/itSn5AdXRAS1byhbyjBMI0YgEDudrij/m2GQr/XTD5wfyb1KkHjZWJ4hkrP2wTnXYLyY1M9BKyC8kZYt6uDEqbHF/pB8LYta807jU1oe1T0iKEi6igwPKDkrghJSwOVmomXTqli/ZxIkRWowZqMJo4bswbXrj8GrgsBUiIRVKYdZYCedEkk/McfCKzERTFYuOBEDg9UMb79A+Ab4g7OQqM2MXXuHoUq1WLfvePrMI0ycuocSNiVyCQmnodPmYUC/Vti4zlOxYNSAeJw5cgNMs9YQRYXBlJsGUWoulJp8jB7SDNPm2B2hkz/moV7jOchMT0P3ro1w4vRMIgTqdrx7mYKJwzYiSwOklo6CgQipkZSbjOQkpyBMCgxoXgHjp/eGt583Tp57gs1bjyBu/mA0buY+NJyTpUeXPstRIjocR/ePo5/z4kUuRo1Yh3Hj26N3H9I1/HoPrRYObdstQEIeC0WQirKnhXqAI79j8LcYPb6D23f9/CkHo8ftxYc3GfD188KGrUNRv06pL5ZpBr0F8fGXsG3XVRj1xCpNh/nz+2LGLHcQIicdNnonTh35DRKGxdylAzF5fBt3oDLZ0KLeVDxLTIe2Xl3A15vqh9MyBcdBwQJRGh2YnET06lQXc5a5U0Hyso3o0msFHtx/T5ncgWEBWLNyADp1qAGld/GzigRXdmy5iPiNF8FCBmtsGAwRUWA4BuK0fOgf3UGPdg2x9zjZvHio07MxdfIu3HyWA1NoCPKC/Bya8S72ZlSb3oJt49tgdBPPUSxyov17blsXrjgjMeosNHUjQPWVnuC8LF+B6kt6SPSpWCtCIvy4+HGPDd/VSFcynIxq19Pok+hTcTxvZTnNxkPaoyv2Zb+kRSx7Qd3Jp3LWqVydalxZ6kXHaf7PgMoZSTn1pwhQSa9ti6pYv6p8GcBVZAQM6YLSvE1A5hklIv5Jgo9x6IJwYVa+l1jA2hiiquNqLFKU6OkGX0R5wGLCjLm9MWe6++J2vu7u60y0WXEZZiLrQtM+AlI8pEIgWJMLwYuPCPKTY++hmahUwzPlWzHvJDZt/RG8XyBslWJg8fJyaDjZp8aJIDDpmCgsJqg+fYIlJQsmgRXKgGD4B4fAqjcj2EeCA4dGIyLSnU9z4corTJ66HSpvJcrE+CMixg8+vj7oP7AZykQFut0Y1gb07bYUt6/dh6x1Bwh8FTCmJ0OUqUUU9Fi2dABad7anlhfOv8QPvefBylpRo2Z53Lq1En4q94J2Xp4BI3utxMfPWmSViYZORlIHIXi9EaLMTETJOQxrVx2jp/WGRCbCvoMPsWLtXkwZ1Rljxro/3AX5JvwwcDE6dmyJsQ55mavX3mHm5E0YObYzRo9rClERFYUOHRbjZYoePiG+9jEPPcBqCjBiUAOMn9DJHaiSMjBp6iF8TMpDzRqxWEs6fn72eo3ZYMLp439h3YYLSMsyUI0xqz4bE8a2x+IV/T0W94TJB7F/1w0Qf4MFKwbSyMz1ILpWrRpNx9+vP8FQrw44Px+76qcj5ZGRUoHODK+sFNQp649tx2dAKvp6bQkIz51/HOs3XKBFZx+VD1atGogunashKNCzI+38bNLRHDVyPR6/zASv8IK1XCkIVX4QZmmg//seapeLxI931lCuMpknXDLvEI6dewTERiMpOMiuf+8csXGkfiT6GtShFvYP8RwOJ5/75O/Plp4DVksKcwx2Aw/HSBr9uV8uirP751LFIrUoQrL29uZb136dv2x8up+XTEwYH6AGpcSpnOWI1qLx9Sfm17Zj3l8xGOhlJBGVc5zG1fTBSVUobpzmv6pT/acaVdFoymnZ7lRMkP55KKZF2VjpfEbAhQiFAvJMC8hYOUFvsVTMn7mptE7ZHCkwG+QMSW6prIuLbvU/AZVzvEnIW3Dw5Ey0KdKKdl7nFVdfYe6hezT1cZbliS6UH2eF4lUCGE0hRg/vgCkLu3ss6l9vv8SQ/hugFiohqhwNva+CCtRRLWl6N8n/k1wWEPMC+OgMkL9/DUNhAWSBkQgICqCLqkKMP/bsHwfvIl3E56+y8cfPj1CncXmUKhUCH4WXO0i7fCOrBejYegb+fpQI79ZtYWBNMKR+hrfGjFrBcsRtHIny1UrQ94+fdgrbNuynyy00LAh3ftuAsjHuDwnB7alD1uH+75+QXjoKRqWMqlYK9UZICgoQIbVgSv9G6DfKDhqbNt/B8jX70Lfzd1i3YYib04lWY8WEKeswfGR3NKhtrxPu2PEb4lccQZ9+zTB/aTeqc+V69Oodh4cvs+AXFkA2LHA6G6xaNYYP+hYTikRUSQmpWLXuMgoKWXzftCyGDmwOiViAtM85+PHiUxw4dA+fM7UQKCUQS7xQmPwKwwe1QtyGYR73dPbCE9i25hKl081e1A/TJrunh4Rh36nVIvz250vo69cB5+tDQwEnUDE2Fj4FBgSqCxErN2PHoSmIKRXh9jmHjtzD6LHbYTZYwYiFWLF8KLp3q4IS0Z6zj65vPHXgDpauOoU8swAoEQZ5qZLgCnTQPHqCSDmL23fWIyjMj7BOMQAAIABJREFUm2gtY8Oas9i68SokpUvifUQILZfYSyaObIQsBI5FnSpRuDe7HcTFpJ2aArO1UYsZwtREDUN6TM63u6QzbpBFcciRARKSApEECvZJKTi/KkERHiGSwiYGJ7DrbRG/PxPLsxotXrUbl3j4fTKlKBCQImJ6ruM0ToNS55Cy01HZ6f3nrFH9K0v9fwUqV/0piVQK2dOTpYcG+YvGSIQ2JSOkbjMCwtugsrtiCbdxn9IWf7oUY9OTp4SU2p06Vf9CRnUU/Yj8sL+vErfvLEVMtCf7l9y2rpt/wsXf3jskbe1FdKmAQVhWFvjXb1G2bAQOHp+NkAj39rHJZEGfruvw4I+P4GqWgTlYBZOA8FTsw5eu9X4qOMdzUEAI308fYfmcArFfGHyD/MDqdWhYIwabd44BlbZxOVz10zyeqCL/QaPm0bb5WHzM0CPw+6bIyc8Fm5kNpdGC7rVLYM7aofAJ8KY65m16LMOj35+AY83w8fbF9Z/iUbemZ7QYN/cwzh5/gPQYAlRy2loWGozw0hsQIjZh8eROaNvtW/pNps89ix07z6B142o4dHQq5PKvhWyrhcefD1+h/reVv3TQpk49hMvn/0TbVtURt2kwpKSR4XIMHb4RP/2RiIDwEKriyhlYmDVqjBjcCOPHdXBYfdmvV1JCCjbuug2JSIXSMSrUqBSEt69TcOPycyQk5CDXBBjD/SD19QVTaELB27/Ru1MDbNo70YM0vGLNBaxaeBJiiRgTp3bBgvnuHVGymw3quQZXrj+AqV59WAJV1ADXaeQgJAz1AgP89SxC2VysjBuE71vVcPttd35+hZ791iE/Tw8hLJg46QcMG1IX5cv9O3E4N12DmdN24qcHibAoveBVuQxkIikKHz+DqCAD587HoWYdu87aycN3sWjqbihKlsbrmDCYHevyayBkHz0LDPTC/YVdUSrEnRzreJ2tbafF3IPfEsUiMeNCCXItvXxds1+BjNKHeMJpE4s1hgNzXtqa1ud8bGYpbAKCM6TmxcNs42xmky110JLsg7d+M2Q7AIqkf04nZdeo6p9MSl0jqn8Ehf8FqJwg5Uz9JHUrSrzPboiaLpIwPygkQiJ1RC0cSAdFKGJgNEutizYqBMfvlmJYIwEqJ7fKRdbFpRNhv7j2lh0NL61mVK9WBteuzYNXEVss8koTC9ScdxrvPmZTLXKyM0qEQgSAg+yvlxCZNFi6hGgQeSoNXDz3EJPG7ILYNxx5VcOhF9lNAzjqX+fcc+zXjXYQSVQFIYK1+ZAmJgMSObyUPrAZNOjYqhqWrfKsOf0ncHL99/TPOrRqNg46iQIBteohPe0zuHw1fK0WTOnbEEOmdINIKkRqWgHWxF+hJqzeSgViw4PRo3dDBAR7ziee2ncLa5efQ0ZoGEy+SjorJjGZIdHrEciYsWHFIDRoUoV+jU6dN+Dm9V9QtWppnL8wG+FFBn5dv6vOYMXQQVvw9GkiGtUuiS37x0NWZEefNGUXzv/4HCFR4WDEDKxGM0waDS2+T57Y2W2kJe1zGrZsv4bkz2bkpKTRQjGRktabJdBLJdCH+sOg8oGQkcI7Ox/mF3+gQ/Oa2H1itgdRdcvOa1gw9Qgl/g4d0gxr1vb1uA2zJuzH/gNXYa5dF3xkEIxGE/WLpEvPZoVMa0KA3oYQSy5Gj2qFwSPd08cnjxMxeOQOPHuWDJHQhl49W2DmzFYeYo4eH8wDP55/gCVxZ/AxSwtFVDiiK1aALikBGc+eYNP6qejRpx592y93XmB0j6Xwi62I57Eh0FM1Tsfz4Twx8WaUCnFyYmt0/abYIXVu2py9ln07f5KJGam92+6su7iJvjvTP7uUDE0CqQKNADbGals5+qV2RHedH2siksxkZtRpo8VzHGsrWLy74MTWY4VvHQDlClSu3T+nlnrRuT8nUP1r9++/BSrX+hTZaknHT7R1rn9k1yaKWUKRrLVCKiJcPSFPQkNyAcVi/n2CSL9iT4DkztMSYovJ6gZUX+xbPYDKfjMoVd+oRb+BbbB96/Bi520+ZupQd8EZ5BeaKAYScFOKxQjMzIDl+VtULh+Fo2fnwj/YfbchbeV+3VfjwS9JEFUri8wwBcw2+7AljaacgPl1+4KAEdAuooJjEajTQW4wQGjiwRs16D/ge0ybWmTn/l9QCsDLJ5no2mE6xNHh8CtbAYkfEiAiHSgRh7j5PdGsfe3/8YzAw1/eYOLITUhXBcMW6ENTCrHZCpFOh0AJiwO7J6NcxXD6e2vXn41nf75EZKkIHD85HfVqFk8FIV/i/btMjB+3Gx+TslGrUggOnJoBeRFXlIWLjmL/0d8QViKKWlqxJgv06kIM6F0PM6d1d7TK7cXhnKxsrF99Gld/yURmlg5WiRAWLxEEKh/wgb4wy2Q04BHbhFBm5oN7/RAt6pTDoStLICnSRDhw5FdMHbMLjFSJzp1qYdceO0HW9di65hKWLz8Ea+XqYCqVhkathZVl6cAxKahLzBYEaa0INRegU5sqmL3EheLAA2/eJmP2ojO4eukv2oGrXasctmwdgurVSv67ViMRb8oxYM7cPbh8+xWsIjFiK5Yj5EkkPniI8aM6Y/YCO2n49Zs09Gs+E15BMXhZKhRaQuuhRVPHI2tnVVOVhandaiOuu3t30vF7+aPH75onT9kj5YmKn6NBZV/ezuDFJaJyACF133HYHJLIatbA1+YZQwvkFKg4Yk1rt9ky2sjjzhr2XNJfnrk+6w9wNJIqavjgWlQvjk/1fwZUrt0+pz66XKWC6P6RmGpeEtskL4nkW6Vc4qhPEV81kj9L2PM3oD50PVL+9F2QzEKEsx0XinIe/hEi7XkXBSqDGnHx4/9Re+nco1QM2HQDepPVUUcCHfqUPXkNsa4Qk8Z0woR5nrWpx3+9xaDecciVBoGtUAIaEk1xdsave+zpcjMdURUJJ1WcAEFGNZjMAvAGHSZN64whg5t5PBDZBRqkflRDo2ORnJyBN6/e08L+kJHt4efvTjj9/bdPGNBrHgIqloUkOATJHxIhYW0oE+6LneuHoERZd5b0f4NaGcn56N9nBRJNEkjCA6jRhNBohq1QgwhvBqdOz0FwiA8F57Llx+Pzh2QERodj48Yh6NHJnfXt+nm3rj/HgoVHkZmtR6XSvjh5cT5VNHU9Nm6+hPj1lxBeMvYLUOkKC9GnZ13MndXDbQFo8vOwZuUJHL+Whjy1EbpAMbigIMBbSTvHdlt3HhIbA6/0XAg+PEWDStE4e3sVJEV8Hc9ffojhAzZDJPFF06blsGv3ECgJBcHluHLmAcaMXwdTUAwk9WpBbTTAYjLROTq6wK02BGlMCNLnonGdGKzeOtotxfyUlIq1225i99ZbVHY4LMwXZ8/PorOj//EgUdXFB1gadwaJGWQaQAafAH9kJ6WgfdNq2HVgDD1FdrYWfb6bCh3vi3cVIlHoJDI7wcbBUyQrtlntWNya1rLYj37xPNnSsetCRl3AMUSmxlWQz7Wg/rX89ZUcSlVlBMC0Pkm2OcPShLBIBSzRUCdzf2Tej8zy2GymKw+svw6Y/fkK8b9wIX4WJ/vy/0z8/G8iqqLzfWRFyuvX9BGfWx3cigU7UiISVfKRSyh/inYFBALojXJT/D655saf4fLkdC8FT/ReXMiYxX+wo4hNVBCtVmqWcOLcfLRo5i754bwjcy68wJozD6iECeH4KMQSeBNy57uPiA6UYcfOKahSxzMyWDX/CPZtvwZdxcrQhagoFYEIgpEd6wsxrpgqP1kbZCRVBjGCWSO8U7MAvRaLVw9Ch7bu8roFeQYMGbEFCW+ToTexUGttMBlzUDo2EjdurEIoKZq6HJcuPcOEEWsQVrMKeAmD7OQsEE32hrVLY9O6gZB7F8+k/7cHw2q0YfCgONx7kgH/8tEQyeQw5RTAkpePkmE+OHV2HpRKMXVXKVV6CHLTChEQFY7Jk9pg3JimkImLl7vZuuMGtm66Bo3GgnKx3jh7dSF8fdzB4PCR3zBn/gFEliwJRkSstqzQ5hegd486mDu3lxt9zqgpxKolJ3Hox2Rkm8wwxfqD9/P/Mp/mtHYSEQG+tDwwye9QNVKFK/c2wKsI3eSnO6/Rq3scJBJfVKkRji0b+6JMGXeVhSf3P6DPoKXI5bwhq1cHWqEAZqOe1icpUNl4BGiMCFLnoHaFUKw/MJk4an050tMzsfPIr1i74gpMaj2USgEuXF2CJo3t6zQ3z4zEDymo+k0sZI7RF9f7lJepxfqN53DozAPotEZ4eZGIUYLa5UJx+tIMKh9sNHMY2HIOEj/qkFizDAqJeKPT9fuL4Qhp9PAoGx2AZyu6QCL2HC9TF5ps7brM454/zRBLidqqk5/gJgrgWPfOiMoBy2Qel7MAo/tk2eYN/8RLYRNxNgF4IWGqU2c3nmM5y4N33OMuk5LOmo20kE7AiERVhKZQ1J3mP8kT/z/VqAiWuI7OOGtUJO2T9e8SIF87QdWTFQhGyBgmTC5hBNS2goZLQuTkKAyzN/vpf3keKNXrBUoB0cClAsyOuk+xI62OeJPjYDJbEBMRimOnp9KRE1flFnLTyXBkt22/4urvb+mQJgnXVETz6fU7eBcWokWTili9ZRwkMvebR4wa+3dZhU9vspFZozQKFF72sQBH1/Dr1lk0J7W3Q8ieJOEFCGGtCEhPg8iow9Z9k/DNN2XcMOPZkzR07b4KGp0OIi8lCOwa1elo0qAWLpyeDJFLsZq88eDh3zF32jZE1qoBs1kPba4aSoEQfXvXx7QZXWiz4B+PopxZlxfOn3cYBw7eQWD5WCj9A2HMK4AhKxNVS4fg0Ok5NCLJz7OicrXhKMw1ICwqBh07VMa4sd+iVClPqVvyUUQX6vDRn2HUW1GmpD+u3FiEQH93n7kbN15g+Mh4hJYoCTGhRlhtUOfnok/3upg79wf7N3TsVha9HvErT2DnhffIMbEwVIgESIfUoaDhDHMZloN3Rj4kKYko6SvCrYeboSwSyf39JAntWi+DkFEiqqQ/Fsxui/bt3NPmtMRs9B24HK8+6yCvWROF3kpYzUZ7REVdqHmo1Eb456ahWqkQbD82HXLCd3Ec2dk52H/iLlYsuQod0cxnLDhxZiG6dq5Do9NHjz7jp9sP0K9fU0RFutNQ6Cl44PGfCRg/bTeev/xMGe1ePgEoF+mDsxdnwt8x4zip/1r8fOUdUutXRIGUqJDYB8tpVORIS4jvQEiQAj9Pb4UKxTSciAzZ2PFbrUeP3ZPIJFKP7dd+C1wzCadopYAaU1g4E35ow1un93nOlgizyoQQkeIOrSPSgrqJY1+ns69HLk079/Y9m+lwniFA5aQpOKkJrsRPJ+nT2flzHVAudpn/W0TlClSug8gUqOYMD1JN6uMziGf44VKhSC4VM6Tj5/A5Y/ApVaKfvD7Icu9FgEjA2pSMhPixkB6pM/j0fLqccEryX53OgC6dvsP8JR1QoVwJj9y/QGdF8zXX8eJ9BuU9kQxAaTLC+00SIqTAkOEtMZR0l4ocD++/w/hhW2BlJUiuVAJah7U4reR9yUed380V4O3FK3JRSK0q1GxCaHY2FLwJ+8/MRUy0Ozv4xs3XGNQ3DjYpg5gqlVFYaED6h8fo16UZduwi+kjuX2zD+itYufI4wqtUgK6wADYjhzBfBZYs74ZmTezzdwnvM/D7rx/Amm0oUGuRlqNFRpYaXhIOUyd1RKXq7s485D2HD/2CuXMOwCcqHAGRkdS2S5edim+/KYOt+yfQCCLhXS7qNxgDs02CgIAQVK4QiAmjGqJFe0+dKqOJw9BhRAP+ESxmK0qVCMD1n5YgLMS9q/rorxT06LkQfuFRkCkV4CxWaAryqNrAggV93VJ/m8mMdStPYtfZZ8iwAoYKUeDlcns/3tnZIAPqLEepA4pPiQiXWHHjzw20K+x6vEvIRrOmi2CziiHzFWFI/3qYP7Mb8bT/8jKjxojJk7fg/LVnkJQpj4KoMNhYK30wCVlYwvHwUesRkJ2KqjFB2HZyFpQuG15Obg72Hr2DuBU3oc/RgoUWW3dNwahhzelt/fmX9zh25h66tPsG3zUoS3XIih5mI48liw9j294bxPkeXl7eiA5VYveuUajmSCHXzD+MwxtuIK9eLaQrHUBFQMXpkEQgSyikahrb+9VDz4aeVu/kczdvvWadNfuAmHhC2sn+9maVy17hAlb2tW9XPubB2yx8w29k5p4N/zR3bm32ljJiITF7oO5QNg46g41LVZvfrzus/fHYBe1HR0T1b/LEroqfRYHK7t1VzPFPQEXx+h8iKio9vG1uSGD3ZspRQrGgv0zECBiGjPcR7Sg7QfJDksQ4clUI7r/y5yQM7yWWSQREJ/6fgOpLZkwGIlkbjAY95s4ZiB/61UCZkp4djbcphWi17jYyM3LpTkhSP++0dARrtCgXqMCUed3xXQvPAuPR/XexZsUpCP3D8LFEIOX7k04f5W3901Wyyz18+Veifx2kMyEsJxVhPhIcurQIfkVSn/Nnn2D08DUQhQSi+rf18PF1EtI/vsSIH5pizQbPAu+CBUexc8cteEeF0DY+EZqvU6s0tm4ejNBQPxA7+1nT9uDalYfgGC9wnBBqgw05uWrwgjzs3jwVw0Z61ike3k9Enz5LIfDyQ1jJErBodNDmZaJL+7pYuqqf/cG6+RJdus+H1DuQaj35+zKYM70jehbRcSIXIDtLje69NuHp43fUL5DMT97+eTFKRLtHDp8SCtC6zQyIVIFQESKkmUVhQS66tK+OJUv6u7neENOE9XEnsOv0E6QbeOiqxIInCnp2N4Gv82k2Hj56Fr6J7+Br0eL6g3UIDXWnrWRmadCg4XwUFJogkYvRuGFpHNgxHApfl9SZAw7svIrFK4/BJA+Ermp5sKR9TxyGyByBjYdSa0RAZhKqxIZi18mZ8JJ9pV/k5+dj+/4b2Lj+DjQZhTBzaixYNhyLZnen1Y1XL9KxdsdNqvoxoMs3qF+MByG5lu9fZWLQyHVISMgF6cr5+Igxf05H9Olv71Kf3X8byyfthbrWN0j1k8BKx2fsFnP2jc7exfNSSTGrTSXM70rklotE3jxw89Zza/feK0UMLxE4KTTuYYJrQd0BVPT05Kk08yVLKE1Nyz8wzxtl9BbLSURid2QiQKU3cXyW1px6/Z7t1qz4zKecvU7lGlG56lM5OVXFMdSdUdX/BFROoif5Ba41Kqe0i+LYmhKRLWpLJjEM315GnDZoVEpkTwnyC7lX7xjr6Lhw8cNXATaphBdLZQyV7f0KVC7fhxo5fMV3s8kEoViATWvHolXH8ggN9ORQXXqUjME7f4NOraMXTGi1wetzGmI4KxqUD8HcdUMRHlH0fTyWLziGY0f+ABcehc+RfjARWyzyLBSt7rtlfi5ARcZqbCwCC/UIykxGtbIR2HNuHqRFOFT7dt/FzGnboSgZgQYtv8Pfd54i59MbzBrfFTPnE08692PSlN04eexP8FIRSCokV8gxfHArzJvbhfoffk7KRYcuK2HQCui8mN5LBqIWkP0qEdacj5g4rCPit7oL95FPyEw3oEOnOUjN1COqTEnAROSNszFoUBNMndqFgvOpw/cwYvQG+IaHgzNzEDFWTJ3YHuMmekakr16molffzUj6mE5dS0L8fXH11lxULO9OiszLNaPJd5Nh4GUIiQyh9ukk9evYugqWrxhI9ce/HByPrWtPY/PB+8iwCKGvXhKcmJhC2CkDXwpahAlu4RGS/BnSvBRc+GUNShUhYxbqjKhXZx7SMzUQSUQoUzoIB3ePRPkK7t/v7ZMUDB66Ap9SLDDUqgCbv4raetGI2cZRcm9gVjKqlQnHzqPTIXUpUhGg2rTtR2zf8Sv0+SboTdkYNqIT1VAn7lSkPjl32Vlcv/E3OrSrhRULekDhU0y9jydE28tYs/EShDYlTSFHDmyMWQvso1Iv/kzAiC5LkBteGoWxQcijvluOgrjDtclOrBahZ4NYHB7a2NMvgAOePP1oa999lUCTYxTKZCK3DdmZ+jnvhSsDgvydeM94yRhT/QovLDvmab0U3oxYSP1siYgfR2tpGr218Ol70Z1+MxPvGc1frN6dDsrO2T/XAeX/5Pfn8Xz8U0RVHCPd2fGjw8g3tsaWqV5BPEsq4euRIp5AwBHNBCrVSkQIn7wUcRPiI8SP3wbwMplAICY25o6wpTiNdOdyJKREg16LkIgAbF4/Cq1aV4aEzBUUOdb8+AKLTjwGazJR3z/GaIZvRiZKiDn0bV8T4xf09niPrkCD6TMO4cYvn6D390N+tC84IUNdUr4AlROg3P502mrbdxmR1QrfHA38MxLQ/Nvq1G7K7bABK+POIz7uJALLx+Dbto1x6+Qd6HJTsGbFMAwZ5snrGj5mKy6dfQyLxQKL1Qz/IB9siBuJbj3t9ZWjpDg94zhU4ZHQRfhDT9je5Irm6WB5eR8tapbGyetLPIxEOSvQvedK/PTLK4RHRUJCdxQjxo9tjSHDWtJaw45ttzB/3kEElYyG0WCBRVeAft0bYtXawRAW6apdu/4MI0fvQ15OHi2oBvgqcOHKLNSq6T7naDIATZpOw6d0LaJLRlFJ6sK8HHRuVw3Ll/X3cE/Zt+UiVm+7iRybAurqJamaAXE+cZp/0ItAUjJWgIj0dPCf3+HM7VWoVNm9jkZqmw3qL8K7xExqDRYUrMSqJX3Qres3NE1yHiatDTOnbsXFCy9gDA+GuWwJqi9FBTNYG3zVOgTkpaFO9ZLYum+Cm05/QW4+lq46jWMnn8Bm4JFfmIq27evjzIl5hF4HmxVYt+VH6okYHBqAvbuGo2aN6GIjhcw0NQYOX4v3b4jFvBld2tTAhu32iLsgW4furWYixSiHuEppvGfsdaOv+ZE9oiKxQb3KEfhxXBP4+LinwmTO8PWbJG7EpD3c098TRF6E+OsSThUFKpcA1qGRbiOWhpbKJVKtp1dmSvyCeAkxfCCixITOYWE56Iwsm5jK/NJ7WuKt9LwvhfSiDPWiip/FMdSdP80juflvgcpZo6KjMxIJvO/uLFkjNla80EvMlyYFWZ7osVBehwgWq9By7xH46RtKSN4kBQq8FDzEErt/HtkdvwRPX4pSDmIwdVGxQa8tROUaFbB141DUb1DWg31MbuKUo79j5/V31ECBZ1mI1RqEa9QIEltp+7tdR0953U+vkzF11jE8fK+BWiGCIdoPnERmN4h05ag4g7svl8sdqMRWC1RZavhmvEffnq2waK374CopHE+csh8HjtxEbLXyqN2kNn48fAtWbS727JmCTh3cHVEIA7/PoI24e+OVA6isiCkZggun56BMuRBatBw5YituXn0FReXSyFcpYRYSzpcQUpMZ7OMHKOsnxU9/76DaXUWPBXOOIn7LRQQEhkIuEUPpTeojvdCubV1YTcCKlWeweeNVhFSMgYnlYMjKQt1KYThwaAZ8A90jgd17f8KcOSdg0JtoncJfocTx81PQqGh9hAfatVuGew/fI6Z0NEQCCbSF+ejSsSZWrehHFRVcj6M7rmFZ/AUUCL2RX6MsOPL7bPZo165Z5gAqXoDonHxY3j7B0avL7S4wLgdRCWjWfCn+epxM3YO8ZAK0aFIea1b3Q3Cwe4R9+/LfmDvnELK0NhjLR8Po7UujBMZkhU+hFkGFmWjVvCpWbXRP1XPSszBl9lH8fPcDpIw30lLfoXq1GNy4FQ9vlYjWgc5c/gujh2yH0WBG70EtsHV9X0ip5Zbnceb0H5g95wRMBivqV4vCqR/n0BexJht+6LYYj19kI+Cbynjn4wO9VgOOeFaSg44+ED4VhzKxQbg4vinKFynek5ckJHzmV2+8bjuw+yaj8lG6YZMHUNHz2mNYctVZluNZgZktH6GxnV39WRgaYREzVpGADHKTqIq18dBbOKRlcg/6z/x89U0y5xxMdlq9O220XIvqrsV0p+zLv47S/LdA5VT0JNQEqVIJ5f0DZRoH+GGJUi4MIF1RouhDx2YEYmjUMJy/K7Es3x/tnZGhZORKBmIxYbs6LovTbNQFN50obzWbYdCr0bhpQ2zdNADlSQeoyEF4U2OP/I5jdxKpfRBvMsMnPx+RRCxfIcTWzaNRsbJnYfnR3WeYNf8knudaaepkiPIDL3UUbZ1A5XpF3OJg+90jYnwS1gq/zEIo0t9jyqS+GD3V3XCCtdjwQ/943Lz9NyrVrYHKdavh0sGrELF6HDsyE98VqVmo1Tr0GrQOL//OhMVogsliROs23+DQ4XEgnRp1jh7tOy9BSh4HvlwUdBIGVuLdRTSULCawDx4hWGTBb3/tQGiYp9Lk5bN/o+/wtZDJVNTuKqaECps2DkXlijGwGKyYMfcgDh+8h+DKseDlUhR+zkCQhMXRPdNQtd7XSInoby9fewnrVl8BT4rPPA8fuRSnL87Ctw3du57klk0cuw97Dt9GWGQwpGIZDDoNfuhRHytXeQ4TXzr2K2bNOwwt443sWuXBEs4P0VFy2KnRDY7n4U2AKrcApld/4dCFFajfsIiGPukG996AW7efQ64g0YUFgSoxVi3rgw6d3Dev/Awtlq88jktXn8Aok8EUFQozJ4BIZ4RMY0SwtRCTJ3fFoFHutb9P75Ixasp+vH6XD3//IHz+8BphQXLcuL0BEdE+dGN9+PwjOrZciuysfHgHKHHx/EJ836hYlQMQL8R+g9fj99svEBWowk9/rYNSIaS6mWPHb8XZ4/cQU78OEqPDkZOXbReIpIBi30BJySUozI+mfi2re9Zz0z5n8cfOP7TNmX2QUUrlAobMZbqs86KSenas4qnWPSHCspyVKxOt58+sSuFLxBhEQouIpv0k4iX1YYPVhrxc7vnwxVkXf39myvsHq/eixE9n+ueqo+5snfzPEZXTw88p7UKBqnKsRHVpY1QHsZdgjspLJJWIyKUiNFUi5C/iU9KhO3ZdYdh1sWSgLl/ESJQOnz8achZn3e5AIqLbmbbcAAAgAElEQVRCotOBterRvVcHrFzeBSViPAc9UzLzMfbU37jyIBVCKwuhwYDAglxEskZEh/tj+66xCCpi+U4+4cb537Fm1VW80gug9ZHBQB5qYpD55bI47p7zJro1/ezXkCgzyMHCLyUfsrSPWL1mDDoX0Sw3GC1o2XYxnr1JRs1vq6N02dK4fPQafGVCHDk8BXXquD/USYmZGDxmOz6/KYRepwcnMGH16sEYPMROIn18/z369N0AtU8QzLFBlLlNB4yJQTxnBP54ARWnxfWf41G+UjEL9WMemraZg5w8K7y9pWjRtCJWxw2An599rGb1mguIW30FAeWjIA/2Rd6nfAgK0zG8d3MsWNnPXqUEkJedh2nzzuDs8d8pi59oR/n7KnD91kJULFIDIq8/degehk/cDt8AX0jEUlhMWkwe0xKTpvfw2Hwe33uDEcM2oNAsQ3btSjCKGEpQtRd07Q8OkfBVCoHIdDVMbx7h8KWlqF/fXbSPnHjk6L04ee4PKLx9aHTDWnXo2LomdmweDYFrUMMBjx5+xPyFB/DiVRpMKhUsXlKIDRZI9UZUjfbB9gPTEVPSvVHwx72XGDVxP3QGHoHhochNSYPQmIFT5+NR0zHKkvA5E82+W4yU5AzwIg69B7TB4W0jqYRzccfvfyVhaJ9VYI0i3Lq/CrFR3nRjjF9zFiuWHkHJKjWRVbUyUrJT7Cq2Xx5p8hcbvINUWNurLkY09bwehQV6/qdfXnLDRm4WWo02AUmJvvr8FRUmtncESUxBgMpstVE2eolQEy7Gp/LRJdWQWEQCIhtD9dU5wMDaUJBvTZi0vvDstbtaQlEgXT+S+hUnTeysVRUHVK5Rldtl+reIqiiHitxiSvac2Dc0YHp/WR9OKBjn5yMjXqJEGEJAgIq1ivlnbzj1wRv++uPXw0KFvIwhw42Uo/ZPQPUl3ORh1OsAmxkTpw7E+LGNER7pKQp27+UnTLv4En++yICAtYFIh4bptAg1FaBOnQpYu2EYpETno8hxZt8N7N1/D08MDPRKCQzBPvYw+p/bfV93LpocclTR05+xwft9KsQ5GThwZAbqNHLf1YksSuPms/E5Ix81vquJyMgQ3Dh7ByUCfbB352hUq+leV3nxPBkTph1B0psM6PR6BIUocePmIkRH2VOV/TtvUXsndXQUjKEBVMqWRBck25awRgjuP0YQY8O5a0tQoYp7rYi8nzNZMXjYZty4/QZBQSoMH/U9RgxuDqmUNEFE+O3mM/QcsBFe4eFQRQfCYrQi9+0H+Ih5LJ49AL2H2mVE3r9OxPAx+/Hkz48QiqV0AZcvE47bt+ZDFUi6au4P4afX2WjaYQmsNgE1K5UKTFgT1wut25FBaPelp87VY0DPpXjzrgCaWpWR5+1FO0u0oO4oGDAgg+E8gt5/AlI/4cytZahWwzOSW7T0PNZvuQq/4ACo/FTIz8qGQspi38axaNDE/V6xZg4Xzt3Dli0X8SElH5xUCRJx+AusmD+nF3r096RoHDn0K+bOPwKByg/hsdEwqQtQ8PYhtu9agtYdq9Pvm5mTj6ZNluPd20/UGME3SIkDO6aiYwf3AWfnEiX+sBPG78Sta29w9vJMVKsSRtflhbMPMHLwMkSUqoK8b2oipSCb1u/sQOUsSdgg9VNgWrsaWNbNo9PNm802PHjwlh8yYiPSkvOEXgolVTdx3oGissQklKBjMkR3yspRI4ugMBMuxaXyZUvnQWIlhncOoOJJRMVDW8BmLD2gPXngXH6KA6CcInpOhrprjep/Zqj/J6AqOuNHgMrrZHyJqHrl2SFCkaRvgEpOOx0ccUnkxbzBLBLcf4SCzaeDDL8+CgqVe0nt7Uwnb8PjE7+y0clrTDoDZDIx5i0ZhN69aiI01JMwd/DOCyy5mYDEhGwILBaIdQZE6g0INOagS/fGmDXfQSh0ASqy3A9tvIAzZ57jL2JF5CeBSUWWPbGVL3aT+/ofHdrrpIToJZUgHCxsT97DmzXh8q2liHAAivMN79/noE3nJcjO16FuyzpQMGLc//lP1CgbhU1bBqNcOfeo5+mTREybdRLvXqZDq1ejZcfaOHFgvJ3zIgCWLjiCAzvuQhsTBn2wP4QKBaUYMUIhvAo0EDz9CzVLhOLA5TkICiHgRgDDtQFtw4ULTzF79mH4+fhizrwOaNuyOoSUxChAbnI2mrZZjjyrAP6lwiHzUUCblgX1pzQoJDbMntUNnbo2wJ/3XmDKlHPIylZTGoqNs6BX36aIX9UXci8WIkbi1nWyaU1o1moF3ifnwlspQdUKodi0ZQhNBYsenMWGtYtPYP++a7DGxiIzPAIGsV11k4ggkoeHNFb9jEbInj5CkFiKc3eXIzLSXY2UnPf6lUcYPmE/hEovRJcIRW6GFuq8DFSrGI3De8YgMMzd3YZMs79+9xlHDv6G509eQy4SoXWHRhg8urlHc4IUyoeP3oxLFx/Du2xJhESGw1yYh9xnv2PlognoN8oeBas1BrRpG4dHj97ah9olAnxbvxJOHZ0IVREXaOe1uHj2LyxcehKbd0xAo3r24vuTv5LRs8N0iLzDoalfB5nGwq9S3l/AygbGW44hzapgW586tEtc5OBfvkzBsJFb8PDBG4GPSkXXDm0uuBqSOhpIzjIMoe1YrDYQyaAAHwsOLEmx1a6eAQUvJlqfpC5Nnx2DFdAXWNU7zxtOrDyY/QEcjaSc7HTXrh9J/5wUhX9yUC52OPl/ASpSSJdJpVD8tLdEycgATBCLhK38vWWOzhAn4HgR9AYp7v4pyl+639/0Pskn1NtbJiSSxKSb59S6cf9QB1A53C+MBiNKRkdg8oxO6Nq5BvwC3GsuRE9o9fWniLvxFgXpBYDJBKnegDCDGYH6TIyb0gMDh3o6/5IHe/fas7h88QUeElJhiA/MMjmIeddXswlHaPclxHIU/8nDwgipQ0qQGFCkZkL7JgnlS4bj6o1FkBUpYN9/kIS+wzcgv0CNOs0bQJdRgKS3H9CmcTUsXfEDIqLcH66EDxkYO34v3rzMgI01YfPO4ejaoTZNdghlZuOqs9iy6QZM0QSoAsDL5GQEDt4sB2FiGti0RAzt3RgLVg8DxM52JbG1tdLxIrXaiKSPJuw5/AsyU3PQsHEMKlWOhL9KCtJq/vv3JGzbdwfpBbmQyoRQ+QdBHhgMk84IbUYGQpQsmresj4SPOfj1zhuYLURNQkh9Cus1rIgqZX3BGq2wcgLqgB0S6IPAQB/o1CYcOHkXadka+CoVKF0qGN83q4HwYC/aReNAPOd4yGRSyGVKPP09AXsPXodN7gW2VCSyAoNh4UU05SO/SsHbEJiSAcuHt/i2QU0cPD0dYqnnEtZk69B76A68eJeBEuUiodeakJuZDYvJgC6ta2Lr1uHFWUzRZzv5bSbZdBFbhG7hfPBfPkpGt15xyDcDqsqloPT3Ba/WIu/Jb5g4pAemL7VvkmazGT26b8L9h2/pGmM5G2SMDQundcXYqZ2L3RkzUrWYOn83RgzpiO++LU0BLuOzGp2aT0FmAaBrUh9qYgj6pW1HZmodz7WEQa+mVbC+S1WEFaOhnpSUhclTDuDihXtQ+PhAJhFTljs5F4moPEqzjoCNNDSIRr/US8evnVxg/K5OEhOukEhpPV9AbO94mCyAXsOZTt8xnpm5Oe05a6ZA5Uz9nOmfq4PyfyP54naN/g2ois74EaCSBwRAcWd3TFlvBb9EKhJV9VdKyQgSSf3A82IUahjc+ktRMH1TuEmdLw5ReguFHHHWchudId/B/kC5NtaIm6/JaMb3jeqgT/9v0KNHA8iLWDGZ9GbMuPwSu2+9hilfQzXApUYTwrUGhLAFWLhsIFp38Byotdp4bF15Bj9fe40HFit0EQGwSO2tWk86rONbUbstuw28UCyCSgT4pWXC8Od76MGiRavaOHFqsgfL/N4vH9Fv9HpojUaUr1IBBan50BfmYmifppgwqS1UAT5uzOzszAKMnXgYf/3xFhXLROLg8dFQ+SghIemrELhz7QWmjN8JXYAf+KgQcHIFxBotmJTPMGUXQGg1oW+/71GpSgRSEtKRlZEHjaYQWrUaOp0RhQZAb2Rh4wQwWixkRot2Vx1T8rBaSVxJgiExbEIOUpUKsogIQC5FgUYLeU4WxLwYPCuBprAQVjNAtVrlAnASItcsBiuUgxeKwPIGWjMkXE2SfAt5FiKRCJzNTAmVApvIXgYQ8GAI9YHIANs4Cg5SgQ0GkwVysQ8C/LxhCAtGTkAE3VCUvBl+edmwffgMs06PWvUroccPDakdmkqhRHhkIPxD5fD3U8KoNWHd5pvYd+Qu/KPD4e2rgFajQWFaIXhOh4kjumDmPCI18x8i6SL/bLPYMGHYFpy7+gQoGQZldBhkMhkEWiNyHz9Aj1YNsHHvePoujrNhaP+tuPvnBzAqFbVit+rUKBWmwM6dE1C+crGyLHjzPh2hEWHwUwjs9R+tBb3azMaTp6kwtfgOOqkArHP4kdJ9nMUqDu2aVMe8JiVQr5InFSIzQ435i05hz66LkCu9qdoFIWaTgviX0cGiozSk2GHjSb8KIk7HTRmu07av/05UMlyskErso7sEJ8msqE5tYe++sF4ZszL1oVZNQapoROWc+ysuonLt/P3XERW5fcXVpyg1ISYcXjd2xlSTegk2K8RMkLdMQhcd+dKsjYFaLeKv3vfVTdoQauT0gkClSiy0kQ7VF8NR15TEMVfkIFtazRYYTSb07N4SXbtWQpdu33qoLOQXGjDq1FNcuPsGVr0RsLCQG80I1ekQJdAhbt0w1GtUyWMFsiyHzavO4u61V/jTaoU6LAg2GdHXcSonOt7iHNp0Ml0JSImEUAkBRUoqjE/ew2QRwsLbMHxUG6zf4KlD9fp5Otr0WAqd0YpAf18YtUZ4yxksntML7dpXh1ThBaELQVSTr8fSpddw4/rvGDO1C/p0rYdCrRp5OYUw6Kz44+e32H/0FrRGPaTEHIMsDoMeVtZI5YjFNg4K4vYiEMJsE0AqV0Ci8IZELAMvkVFum0TKU14R0e0S0PoCA5YXwSriiZE1FDIpdVWhtACpGCaJFDoOUOsNFEhUINdADI4hn8HDIuTBEvML4jNAhsiJhxLhmJEiK0moBYCEEcJLTJrBpAlBJu7JwibAxNBIT8jSGXZwPDUKh4QniuI2iIxGSEnrWyGFwVcBq683kFsAPvET8rN0EJhMhGBMNbBYloFAzFPfQi+5HEpfP+pAl68ugEZjhlAoRWAUaRIEojC7EJqsLMg4Ewb3a42JszrB15Wx/i+4xdlY7Fz/Izasu4A8pQqScpEQKeWQCRmq8ZX319/4tkopnLq68Av+zRq/C5fvvgMXEExrbZzeCFabgz5d6mP+kr4gJOh/OujTSoNiHuMGrMXFc/dhadEEJl8vmC3mr1kAxSnyahsa1q2IiQ0j0eNbz4J6ZkYhv3XrT1gbf5wsaHjJpXQDpo7ljtFBez7xNbqi3jW8ADaWWL1ruD5dWE2/Jh/ElUtbFURYkYqMckSWGNBqbfyTJMPPU9am//Lh4xdJ4qLDyUXrVE6AcnWm+Z+Aymnn4jrjRwvpVctJJZc3htcRSrFXKRKL5VI7b4TkqzaOgVYnxvlfVeYJ8WGsiBV4efkwAp4jQGVXJHSrnXyR/LV3GojRgoVlMXJYJ3TsVB4tWnpqMCVnaTBk/33c/fsTOIuFzn8pzCyCC/JQ1ofHmg3DULm6p2ICiRq2rz2LW5df4k/WCm2oP1gZ0Uf/wuyyrxla9LfPfBEOLyk2+4k4eCelwPziPQw8A46RwmKzYvOOoRhIx0zct+ac3AJ833QhMrJ08FHKwFo4lC7hj+3bhiO2ZAisrAUWswWslYNOY0HC+zxs330LqYmpiI72htloRHJqFowmnb0VbRFRJxtGJIdVyEHIiGEl0QvpaDEMRHIpWDL4LJNTjSOWTHCTHZMR0fsiIM63QmIa6YhihTwFJOKeTPYkAiJiRkQGCih3yUbupQ105yY1GfL77CPlPIiLEC8iUCeg2k0ca6cN0KFpyqOzb7MkpRAKyf/sMmTkepIiMBm7oakQaStxLIREW58AmYCBXMKDuIOIOTPAWkDKnqxACCsjhI04/qoNMGiNsJH8n7i4iCRghFKIeR6MxQaBSQ/OYKJgKeCM4I1m8FYrZEpvSEICwSgl0GhMsCTnQmzTolGD6hg5ug3qN6oIYREVhi8AwluhzdTh+KE72LbtBrRWMTTloyAgWvACGxRCEeScDYW//YUKkX648usqSMX2Rk78wqM4fOZv5AWGkSQXIrMJkvx8BClsWL1mGBo3d3ctKg60CFitmH0Ym9afAd+wMdgSwVBrtXZtKueIMd0EWJStVBLj6kdhTMsqVKzQ9cjN0vCHjvyBuDWnBIWFOigVcnpvigKV61p2+gHSZ9Og5+s04DWTOyWI6lXWKlQ+UhqgkIiLAJXewOJtuv7vuZtzb/zxN5vr0vkrqqJQHEPdSVEgf/7XQOWMpoq6zhCgUjT5Rsoci4toyomwTSkSQUpkLGhERfJwIcwmCQ5cVdlmbAmHjBcIZUoSOjAuYYtrROUostM6kd38UyyXYOTQtvihdw3UqFmEI0ME5j7nY+jeB3j04hMNp0U8Mbe0wjc/B1UDBFi/eTRiy3pyr8iDt3/LJZw9/hCPbRwKg/xpLYQw0u2CZA6csn9byqInD1cAePikpUH/KgkmWCBgFHTHDgr0wY/XpqFETNhXXotjZWTn5qJX5w148Trd4XrDoUq1Ehjauy4y0wrw+PF7fErORX6BHjqjCWaLDRYLC5612NvnjAQCqQw+vv5QBQRAKpNDqvQCJ5HAQtJBiRgGqRREeltrtcBgMMFoslBOC/GJpAvMaeHt0HL6Mm3vAGI7IBO7dQe3jeAMCdUEhENu93YjqSH50zmN7XytPcwlQPP1NfQsX7ZmWgigYoPOPrrduNJuPmvfsuzCb87muL0rTF5jg8DOwLUrvdK/2GV0CcGQvp6kKzRqIwAqoJGbXCymBqly4uXICyAmhRWDAbzZRAnBFgJ2CgksAgHMhRbwH1IosIX4K9G6ZQ207VgbpStFwD/AFwwBGt4GY6EWb159wqlD93Hj5gsUmEWwlQqBITIQLAFgmxVKiQQqIQ/NH08Rylhw44918HMUyw9vuYR1G24hLSQSJrEIAs4GlVYPcV4a2jSrjLhtE6CQ/4sqhmM9Hdv9M6ZN2wKuXDV41SyHT2QqgLLsHakfBSobgqOCMapxGTr3J///yPsOMKuKrNt1ws2hc9PkrBgQVBRBRMQ45gQGJIyIqGMYFceECmLOCUUxj46KYkBAJAgSBMQAKghNaDrnePM96X276pzbp283oI7zz/vfu/MxSPdNp07VqlV7r722r20hdGNdFB9/thEPP/kxynZXMWsZYtpsNdoYVTpQsXugk0tC2Og/wNsy7aJfpZOPbfBnZ1JHcm5JTH/iCQ27q6PbZ86p/+yLVclqM/NHR0B7V5qOtFRWUN3qSkN//yYdlR2o0l0TfJedFpCevbPgYk3SZvkkGbJEGim6WJGxk0TSaTz9zyxj1ttdhKAsCrKHMjf2Nj0dAxVNZIo9+HMzMHXS6ZhyzQno3q29hmrVtnJc/+ZG7NhZwXZnp0GdkDUE6usxpEBkBb+9+nV8/v/w7a/w2stLsTkGNOblQCVjNjqH2+RTbPILAhyChEwtgWBRMcTKCmiSjLAmIhlPImkYOO2MY/DWi1PQ1FyDmt1NqG0MIRSKIhaJY+feRnzy2WZUloeRlOIQZRWiU2MaoERCRELwQHf6eNMDtwNOYj9U2pDpY5kuXZahyk7IlJmRZXZ0YpOCIjkaCfA0qAotaAAKdcthfTP4wmbF1dzyOdWWLJWHtmIafGay2kwz60mvIfML3hGX0/9UkJU9nYMfATuBBrNgYfJlPqc4qyYQoW4nxNjIP8kEKjNoy4HGpK3sxWZ20gREDl50rWbDTPO5DCytDBeT4vHPtBYY/c2YG8XF6GhL7JGAQSRmRUfNJFtMhuhg48PYnaLBsbcOYm0DHMkQAkEHOuVloltBNrL8fqiKgpraJuwtrkFlvQLVF4TYtxsieX6oEmmzFN6SzSEj2yUhvmkHfM2V+GTJg+h/KPdOX/juCtx/33wUd+qBOMWWIMGT1BCsrUKWFMOsx67FmWe370ydzqzWf70D4y6/F2FvZ+SfMgyF9c1Q6D7x3cY8I6rwBr2YePLheOjcge2OtNGQgkVLvsPjz32OzRsK4fN7OKO2mYam7o35Bdgom1Y78VhM71Tgj9x5ya/iX0ZV+DplUr9GOvrTnASSmo7yhnDJwy83z//X4lh5GqOy1On2Vu8EUPbMnx2o2oWN08OJFp+02JTVdSZVjPz3S3LEe6/P+ptmGH+jYmTK3rAXEVDpBpJxlz7t2XzjrSW5YsAlCyIJ3Fo35bS0ucWoRKiqikQkjNyuebjxxnNxwzUnw+1pb4/x4cZd+Me7P6C8pJoZnZGPuSeuILOxAUPygEeeuBL9Dm2vJaIx37hmO+6Z8Sa216tozsxGLCeXNVXk+zQtPn7X3LKIrGgMjqJiSI3VGNC/NwYdezDmz1+Pyqoa6JKA884ZjnNG9MOmTbtAralaogoa6sNobAkjEklAVQ0kaPdGkgGM4PHBnZULOTsbgt8P2e+Fw0uNPRyslVFzQkEokWCFxnT8IvZh7ZhshBmKWEol1nSMgQQLaHJ04tsQ+7e1ilvtPPjWyW14+K7JHWDpX8QoqRcSZTbpsymGkWJNbB2ozMSQTqHMWo4HJE03aQEKK+xmCevW4yXFNujdyT+fjpqW5odpVVqXIgMdavjBTboZOFIci7lppOKF/KLoM4gDMMA0AYv7dJkMLrUH0kAR6FnP49OOWfaboEryCkrRu0PU5LUeSl0T5GQCbvY8nV1TkpIEHj+QnQlX93zEM9yIa3R/VBZzok/2yBIyXC7I2/ZCLNmOOXNvxinncAX8huXfYdrf30RRdlfEHIDq8EAkz7S6Jrgr92DE0EPw1It/a9eNOR2oWEH6OXegosFAp1NPRJkEtIRCLM7IbzwL9EGSdJw/ejBmX3IkOuWk2W8ngeUrfsDzr6/A0s/Ww+elzCtllc32dW00OhwWUkBl6IjFFMMXdEbvvWKvdP7pRW4CKrqvVHJEwXbFMFDXEql9/PWmD16dHy3WuUTBzqjSS2koqN5RcXKHLgoHAip7jR8VfflmXNNJvml8xr26ro1xUtzEvPukk1Z0w2gJeeKTZ+UJy3/o5M5ykysF22qtfXQfQCUgmUgwO9iC7gW4466LcPWVo1j8wv5QDOCVZT/j/vk/o6GmgQEjhYbd0Tgy6hsxKFPDg49OwqBj2gcT6X1qK1pww9+fw3e/VCDh9yHUuTc0F0WiSGNNkUsBLlJbN9XDWUr54HoMHNIfdz84HnVVIdxy/SsoL6tkEoCCTgEYsgstugtxg45kTsikpqYgst8JZ34Gkk6Zsa+kysGQnC6pvTl16WHHLl1jrgJ03FHZfDMniMUerN3ftKGhRcxhhnfK4SyHZ5ishUuiW36S5UcjKyjLIvDUKYaabHo9DHhaEuTjRQCgMGtZUpkP6JqLDLcDuqGCsrAOh4yAS4LbISGmKahuiqOqIQxBkpCb4UevLnnIcOssRhGlkhdRgt+hwiE5kEwm8OmGvWgKUUo9NfVTK4AC6QRkNCbUxSY76GF4TMfYplAUqkbtf3QOiBrxLd5rkYqxyUSOBKCMETOQNjdhC62tU6cJzmw8WCzNFB+zMeKt20TKPKoKJLJ50aiwXoZi2vAq1AhAFiE5ZSgkqCAGS6BJwCBSMxHAJ7vgLW6AUPgdZt03AeP/djabtsXby3D1+Mexy5GNUFYACY+XbRaeSBKunXvgU8OYfs94XN5Ba3r7vG+oCeGisTOxZWs18kefgNrcbDRWVZndk80+WsQcoWL0iMPxyvhj0SfNH4zeb92arXj1/XV497Uv4XW5IEkODlQM6+2nrdZ5aNUFxOK64ZTFxP1TyoULzyh0dQr4IUjUtYnimqzah7Lc0WffanrnyX+GdtuAyt7nL70paTpQWTEq1sHM/ugIqOwZP6vGj0kTCKievD3fceU5mU/o0E5x0mRhPsw0/hIUTdeq612hy6dnObfs7uLN8BII2F09zV3dBC42ddmuKSBBxbXJOLr37op7Z1yCKy7lbZzsj5a4iqe/2IynFm5HpKGR2QdTSYsciiKroRGHeGK4d+YkjDqtY/UvzfPnnv4YL7y8GIouIdmtK1BA8k2d1a7J0SSc1bWQm1ogJJqZ/GDaPRciJ+jFJ/M34MFHFiAWjiPQqyvCBlCvADHBwYWTAS+LIzlcFF+SoUgSY4mUkmcdTtjF8iaQ5NnMKvVNWk0xF+5+SmvAZD1sddIiMmM1lqmjorBMJQEdZfFcggGfx8n66oliEpGEgaYEXY8GagtEAXHr5OT2e3HdWUfg8qE92OJ/d91uvP3VdiQTGjTZib8M7oa5fz0SvqAfDc1RxJMKC7J7PW7mYJHUgPKmEBZvKcGqH4sw/JA+uPjIzshhzU8l5kRBuhqR2IYORBJxnP/8Cvy0s4a7U1iLwToCGiJLNlx80kCcPTAP3XL88MpO1Mfj2LyzGvO+3opvi5pAuRiCJ0qpBx0iZENFQhHQGNdAspPUGiNgJ0AmRwwG/PzIzA7DZiyOQZN5JGUtKImdEYuizQMEfkTw+BGaRBOs6QONIYvf2Y6gpgEkAyuICJQ3w7HjR9x47Tm4bRbvfBNqCGPCpQ9hW52ORNdOaHZ72X2nz/AU10Eq2YXBh3XHa+/cibyCjrss0/u01Icw9YbZWPbVZmQddSzq+/RCc1UFB2yWetN4vYuaxNHH9GcNSQd2b98M9ZctRZj7r7WY+9IiyHRMdlKm2AoD2CiUGbC1oMsQVESjgiHDUO6fWoOxZ2135AV8zNFXYz3+2B6PuJLUZpls6XoAACAASURBVL8b+ueDr9RvU3XW54/U6VaMys6oLOEnAZW9K40FVO0C6gcCKst+mGX8SJX+5v2dPRecHHxV17XBMpnksTtLATfacQ21uNzZMO6uDH9xbS9vwE2sga/R1g9Ki1FxtEI8nmDMoH//nphx/xhc0EFzgarGMB5ashVzvtgOjWU+wBaFgwFVE/rIYUy77TJccOnx7UDO+kFpUQOuvfYpbP6pFHIgE+6+PSFQ7RwpvKvroLQ0IBhwYeKVZ2HKLWfD4xBRVVSO2c8uw9sfrIfk9cE4+nA0UV0jtd1QFMYi6JhB7JLt2iRmZIFhzmyI+TEFMLUZYv1ZqWGBNS58obFjDgXDWWMMM+dPOx61niavDuY3r8PlEnHGsIMwqHs2Oud6kR/0IyvoQtDrRtBBEgMFv5Q2YvaiH7H+p2IodJSktWsYOGXEYVhw82g4zc8OJwyc9fBCrN9eCcHtQd8CD16ZMgIDOmcjSSZ1lMI2b15VNIkf9tTj+x012LK9lJVyTL/iVJx/RDeQvWo0msSynwtRWx9CQWYmBnTJQnU4iUteXIW6ughfUNZRjnmpSOiSl4mnJo7Ahcd0Y5qruqSOhpiGgzLYQRM1LXHcP38D3lm1jYXi7rj0DIwdWoAMv4C9NQrGP/059lSGTIZmXpRhwEHJB4cDDkNHY5jWB+nhDC6NoOlGm4TsYG4eNLZmp0n2nZjdLysvMd0BSH9hbqg8r2CuIVN0yaQX0BGsjMBd+DPGnjccT87lDRp0RcXkcY9iw0+VUPr1Qp0ngwEVZT29ig7P1kKILbW4/c4rcO2NHTdnoPeJt8Qw84H38eo7X8LT42A0Dj4Ukfp6E6D5vOBp2iT6H9oNr00ZhRP6d2q3BkqLq/HyW6sx+7mFUGJRuNw+dq18UOzCBHNfNd+Bmo6GoyKcuqbNmFqNKy7YKeVSWIYBFY0rARWFAFS8+lH0vbuerdxMkRzz6Jdu92JnVRZIWW4K/xZQpWr8CKzmPd414/QRwQ+gqd2JGXAvcxKGSYgrhvbDDmfVxBkZWeFody9ZijCcStkPs3+0TeebLIKOfjSBBh7eD7NmjcEpp7QPMhaW1mHW0h14Z/l2IBHnyShqbxRNIKexGd2UOky68lxce1PbluTpd+y7DUW45543sXNnCVRKz0sOQEnCJSrMNuRvN1+MocP58VHVE9i7pQgPP7IAi1ZshdrvICT6dkFSJ2d72sha/YHofrOMGaV92c3nxm8UROaxYwGG2eySAIjGzvJcIk8sWsyDDuuGvw7vxVTla/fU4+ufq9ESinHZADUdyJKwfNYEDMhxsowdxcu2NGhorAlhxIBMBOkoCGBzeRjnPLgANWV10CiF7tTw9p0X4aIj23azmbOyENPeWI0kbYnUJdjrw5AeAZx3fG9MPOUIeOnHAB6YvwVzlv4IpSXJWsA7XDrenHY+TuqXy+5odVMMM95aiJLaGIK5ufA7PNjbFMfXv5YxGQZf4CaYEBBLOh6deDJuO/NQ9tOEDjy2dCe+2rQH147uh7HHc4lJYzSKix5egJWb92Du3VMw/tg8htkhBRj94CL89HMxBxhrJ1STGHbs4XhvyhB4PBJW7G7EjLc3Ye/uCrb7ix4H+nbJQlNzFLUtSfZaWU+yeUQSAp3at9NGwgSrlNGio7nFqMzIM20cJk2ldU7yDn9VC9y//oQLzjgWs99t9Se7Z9qr+Gj+Ruj9eqM2OxcJ5tAJOCQJwYYYjK2b0atTAG+/9w/06QBc2IpJaJjz4iI88MQHUP2d0Dx0EJKJKCUmTUZlApWmokuffMy96kScObB95ru5MYLnXvoCLzy/GKHGZri8gTY+W62RKVuMisZA0BCJisyn674ptZg8djeyvFRvSrZ6fEOm6UsB/nmLE5/e/FjZ+liSxZ+IUaXbvaQDVUcBdTOq3RrN/C2Mqg1QLX6+Z8HIY3yfaprqJ6c87ooqQdMEqvnRF6+Xyv7+ZLccUc31OWSRM4j22cYUdvAYqw4lqbBYwJFHHoyHHhqDYce1jzN9V1iJe5Zsx5K1OzjrMJmIQzHQqbEJuU2VOHnUkXj4+SnMQ31/j6bGCD6etxqbv9uBRERBr56dcfIZg3HU8YdBtr2Y9E4/rd+Oe6b/C9/vbULi6MOQ9DtTUgDmlmsdK8jRgLYXar9FQWRDh0RxKCrWlpzI9DpwUNcA8jOA7WXNKK+JsCMMTXpd1dCrTwG+vOs8HJTDjQKJ8Vz71hp8uOpXFpynAK4vw8COZ6egc8DJAKSyPo7r53yO+uYWPDX1PAzpy4FjR3kDTrxvIeoqG5i26ZBDCvD1A2OQ7WSRHvYcostNUQNnPvo5NuyogqyqUOIa0VScfFwffHHXuYzp0OOSF1Zi8Te7yJ+IsTtvwIGF08/HsF68bo54/rsbilARptdL2FFUg29+KUVpVR3zLOJsyszVqAl07xbA2pkT0COLW5YU1iUxcvp8VFc3ID/XjfvHHo/zhvRjdr5Xvboc85duwuvTJ2PSsE4Mk0IqcNKDi/H95iIg1emFUDWJ8Wceibev4qEDutYLn16NBcs2M+Z8+siD8O6Np7L59v7q7Xh1eSGqm0LwBH3wke5LMRBRNHZ8DscJqJI8PEHaLZZP5aEOa/Olf0k6AVUT3IVbcMPk03HHI9RqnvF9fPouFTC/DSO7ALV9eyAkEPzxJhJeVYOHZBK15Rh3+Ug89NjEdgJndhHUYmveWtxwx6toSnoQPv5IpqcjG5xUwxSad7qKrK5ZmHPlSIwd0t7miDJ0Tz+3EE8/vgBNDU1weiigTsF0ewy5ddWwy2ZJDh2RCLdT+Pvl1bh5UjGyvBRnpSuhxA8HqqSuY9l6femUu/esCsVTjIr8qdKzfvaav45sia2jXypw9luAiinSzaOfe+WrvQ4aMtAzz1A16mjIurcz8qsLiMYMbe5njpKH3+nZyStkeS0dTNsPSWNULMNNwkIF5AI6dOjhePThsTisAz+ptdsqcNPHW/DDlj3maPLMjsMQkN/QiKyKUvTr2QkvvnELCjq3dTrcP2zt+7dxOtJ8+i1mzXwHxe4sxA/rA0Wk2Ahn22wkzUwWO76RqZ7Xg4yAA/VxOhxKUEUZx/TvhPsvOhqDCmTEEwoeXbELry/6CTF6DgvyJvH41LNw66lte8O9u7EI17+4glm+akkVgUwRO16cgjw3eVIBW4qaMPnJdxGNhPHI38biwmN6s+D9vG9346pnV0INhyHJBh6+aiRuPWcIWjTgphc/QmZmDu6/9CQEHMBnP1Ri7OMLoMaSEBQNhpLAyBMHYeXdZ6QG5qynvsRX3+5lM5Jibk6/A8vvH4PjLKAygHU7GwBdhtPpwLbqRjz92Xco3FvJY0V2aYKaxPChfbHstrPhMcnQ7G+qcP2TCyBHWpjhHTWOPKJ3PhyGhu01DSirKMdbd0/AZcd0YYuc4mUnPLQYmzbv5WzKAkFNwcSzjsCbk09MffeTZy3EV+t3M2SecOExeGvScL4RxA2c9+RybC2pxtXnHYXrRvRmyEYLuqIhhK01MXyxpQIbfy5ESXUYILZFAGRtTGYIzK3ryCyrhmvvr5g99zqccd4o4uJsKyjdU4MrLrwPdc0uNB7RF/Vef6pwjHoIBEMReLZtg8eh4umnr8cZZ3UsAt28djsmTn6SeZKFRhwFzeeCQdXC1lJmQKXDm+PDUxNOwOThfUBt3NMfL726DA/N/BD1tQ2QXW44ScZh6tU6ZlSUZ9FZfaeaNDDurDrj/quK9MwsEnvwiU85WjpZECv+cTvWT7pj56LyWtYqi+JTjR0AVbrbp6VMtx/92sSp9gVUHbkmUIzKufafvUcceZBnjqaqjE/xLk6k4xEQjonqrFdcpW8t6VvgkTwelvBjI2WlYDoGBJrIFEsJBD04YcRAPPzwGPTq3bndk7/cXIqJ725CdVE5yxbR5zL9DJV3hCLoVFIKr57A9BmTcN6Yti6afwiodBWN9SE88/AifPTe16gf0B+xLjlQDBVJZhqWwks2f0VdwdCj++DFCcPR2eNgweq5y36B5nThyXFDmalZQ3MLPtpUjPs/2Y46qlVMJtjtzsx14rsHL0efPC93VqQ6QwUoa2jGxc99hZ9210JQFHj8DmydcxW6eEW2FHbXxfHEgg0s+3LbmNEYkAHUhRXcPf97vPbpZpbNCmY68eMz49Arx4+dtXFc9thbCIUSmH/vRBzeJQPNSWDEXR/il18rWKCaWNOpow7D0rvOTA3bOU8twfINRSyDS7+XvQLWPHo5hnTjReN0ivp0/Q7Uh+LMYieqKPj4213YuK2mVZpgZYA1FYcenIf1910Kq0HLk8t2YNoLyyFrceiCA7rHA9mhgkq0KCEQamzAG7ePw7hju7KjX0sCOP7+T7F9W5lZkGnqMnQNV5x5BP55FdmzCCxSO/LeL7BxYyG1D8KVlx6H18bztumhBHD240vx8+4SzLzsKNxwGrdIoXGtC+sobkigb74TDZE43luzC698sRkVjTGTUwmQyGQPArLVGORtO+ENN2P+sgdwyGGko6J34dKJWyY/iy8W/ALtoB6o6tEFMcEqs5bg1BTkl1fDKN6Nw/p3x5xXb0SPPu17BJTtrMG4S2Zh264WhEcOgZrlZzbcKcWmCVSOoAezLhuBa4/vjmCgfYD+nfdW456730dNZS0kmWv4WPIg1eePEwl7DpB+RzopRdWMEUdFtJdvLVKz8qJOjyCJTDPHahupDYSBonL8NG7azvmFJUyeQEBlMar92b3QbSLyS4NmyRP2C1TpqnRi/vTHyvrJm97rd/GhfV0P6gpzwmdxR0qJk6okHBHUGx73l3y5vmcXj9NNkhRzACygMum/marmQ8J1M1Qkm5MbwKknH4mZMy9GQefsdtgy/7tSXP7yV0g2tphAxWkrpeFdqoHc4nJ4GutwwjEH4ZGnr0JOQVstye8DKwWRlhg+fu97zJ69HLWVTWgeejCiWQF2HKDjjKl15NychlVJ4PmbTsP1o3kjyqawilmfbGRK5+nnD2EBxwcWbsNLCzYhEU6y5AELNAgGzhvZFx/ccCaIzX+9uwo7y+pxxuE9cXBnP95YU4Tb31qHUFMIDqeBra9MRXc/VxU3xoCiRgXeDAf6+ihOANaB5R/zNmHe17uhx8M4YchBWHX3aWy7oG1u8fclaGqJ4oqTBjCqTI9Hlxbi7mcWsSwYabn+MmoAFt/Z6lx64XNfYtHaPezoQ793+EVseHwcBhUE2aVT665n5q9DRSzJrkdNxJB0eLFySx1CUdpAbUyaqgkyZCy98yIc14/f51W/VuOsBz9lRbgulxvHDeyC84f1QvfOQTz00Wb8sGUXZt9wEaaO6MGYUV3YwPB7PsCe4jouu6AHfYSqYMwZgzFvKiVURBYoGTVzKb5ZvQWC24HJY4fhlYlD2YpoiRq44Nnl2LyzBNPOOQT3XsCZVlwFZi/+AR9/+zNuPWUgLhzFAWzZd0W48LmlrJKA5p1TBTpFm1kNYriuGR5Rwj/uG4djj+sJtygjt0sABfkFWLfyF9z019lIOD1oPqgraoOZSDJpBGWtdfhiKjKKiiDVVeOss4cx62OPuy2HaKmLYcqkx7FmzR5ETxgCo1MGIqEIixFxlS/NQR2C14E7xh6PG4Z1Qef89pm/zxasx513vI+iogoGVJRJbXvyab1P5jJlw0prNKGpRv/eEfXV28qUXj0bXT7JSVI0k1HpSBhAbZ2+a/L00vfW/5y0/KjSgSo9RmXpqexOn1zkZ1PcpTOqdGmC3dmTGJWw+aMBkw/uId2hKVTkRaIU+ouASkBLWNIm3B0s3rSjV1enQ3a1DU2ZGG0ek1IdW017FwKqbl1zcfY5x+DO289FZnZ7kHl9XTGumr2YU16TUTE1jMiKLOALJZFZuBsZSGLq1L/g2lvPs6cbfztO6Un8+vNuvPvaeixe9DOaQ0As04Wmo3tBoXgIVZTbO6TQJGHp4TjevutsjLfF12ihxBUDAYeAb3bX4cwHFqG5McwEjhzoJLhcBubdeTbOGtQDZQ1J3PXmZ4jGVUy/7FQc3ScX5S0GLn7yS2z+tRQuh4rNc6agV4AvzqrmOF5a9gvqG8IYd8LBGDKgMwunLPihHLe8uRYN0Sjm3nQqLjuqNbha2KjCI+jontnaNGN3SxQjbpyHqpoQYyijj+uNFXdzoKIZM272Cnz4dSHLlJEY0htw4tvHLsdh+V62BYYVYNXPJdhVF4Zq6AjKInpnBfDklz9h+Y8lKfEqe0OzrOesEQdj/jUj4XLKDK/fWb0d3xSHMaR3Ds47uity/fz7nfbIIiz7di9euulcXD2iOyMqLRHgzCe+wPotZoyKBQtlQNJw6vCDsfTvo9i9p6367EdWYtmyjczHa/z5Q/H6xGOZ5KExCox5bjk27izD1NF98My4VpO8WQu+x4KfduO6wX3w17M5O/++qA4n3P0ektx1G664iqyyUqC4FNTv0Od0IegTkNASEA0F+Z2zMXhQPwQzMrFs8XY0NoYhZXjQ0q83avx+VuBN6nZZE+EOx5C5oxBuPYIbbhmLqTec3ma+agkNd978Ov713lokjjsSetccRMIxJDXugpFyURAFXHfRCNwyLBd9e7Y/lSxf+iOm3fYuCneVMmW6ixjV/o5+Jm7R0U7VVeRnR5MvTitTBh9W6/Y5PBJvOkzrwWCawVCLXjb5/vK3V26IN5j7ogVUli9VRy4K9qzf72JUliI9XZ6ArQsOvrF3gXyjziOkLA7HfJMEoLFZ1sfckrF3e0X37rLsdFgugVy7bpFJS0zGuSZjVIYGTdXRu3dnjB07HDdcfxr8HbQwf27FHtz0wuccfGSHmbI3O3FIVPYiI6O4Cq6ivcgJyLjjjrEYO34UPxr8hgcFq7f/WowFn63H0gU/oKwkAk32IJaXgVD3bET9DibKZFqnlMjfDBQT6iTjmH3jSbiug36C9PG7K0I4+4nFoJ6EDtPKlRjUkCF98eWtp8HrFBFNAs8u+BrkOHHj+SOQ7+Zc+I6PtuHlj7+B06VhzVNX4pAsHuZ+dWUhbnplBZLxFpx/6mB8eB2f4DVNBi5/7gv4Mt346MbRqaD486tK8MrSX9A1341rTuiF0YO7Iyjx7Oxf7l+Kpeu3U0oKgwd2x7rpZ8DrcaKiRcHf3lqHxWu2s2oAutRApgdzrxuNYb1z4HE6GWsMJ8h1R4HHrFaIJ1X8/f1vsGj9LjMDajFqng0lvdmlJxyKpy86Ap3IQ0kF10yRHsq8X3uqmnHyfQuwt7YFr918Fq48vhc/G4jAj0VhfLl+K4prmqCKwHcljSisimJAn3xsnP4XeMwWV5Pf3IzX318FuGTcPG4UHr/4cPYBTTHgwme+xLrt5bjx9IPx1OWtspbvdjegqLoJQ3p2Ro+uHpZl/McrX2Dumj3seEEZV+p+JMQ1eBsb4REM5Pg88CYVyAo1S1Whx6LMA0tLJhAOk06QKikMuDKDqD+oDxpyMlmfPtKcyboBb0UjPMW7kefQ8I97xmOsXQhqAC899gmeeGw+wgMHQu3TBZF4nLFb0hOm1pehYewZx2D6SV0xsF/7zN83a342pt32L/y8dS/zTif9HdOSpXKy7WPIrCTLbDjqC4YST9xQlhw1pNbrc7mZ3puF1A0DCnUBDBk1Vz9U/ubCr2O1JlDZtVT2Fu92S2K7luo3A5XdJ93OqKieRd++8JC7e+aLk1VFJZTijIophYGGJkk764bMsrK6Hl0lSZLbGtJZSGGF7EzxHBsDnRUYH3JIX4wbdxyuuorKZ6xDCX8dLaQHF27HvXMWsaJcRvdTwlHSJtE5VGLNI7N3FEOurERGwI0J407CxMknIr9rXrvejNZxobmuGT9s3InFC77HunW/oKo2wgzbhM55iPfshIjfBdXUjDDFgU2wmtrJ6AvG43hg6ijcfW77xqfWRXy7vRJT3tyAn/fWQ1RizL7y2RvPwjUn9E1dzppd1RANDSP7d0kVu6zZE8bkZz9HcyyB1Y9egUOyZHZ8mfr293hv2a+IxZsRyAtg26xz0S0nE79WJ/CXxz7F4V0DmD1+BAuaPremDM98uh7x5jjgEuCSdRzWswCnDaIjZgDPf74TmwvLmHdUMMuH4QPz4ZQ92FnRhD3VISjhKJdTUEpfNpCf5WWC0KDXhbygB9kZPmR5RQQcDlbwWh1VseDbIjQ3R1qBijEqU01Njg0yMKBnLm447QgM65uP3KAD1CQznFTxa62Cpz7bjPU/7GAL4e4JJ+PWE7rC5/NBkzhbUpUk044pCR0/ljZj6tz1SKgqPr35JAzty2tFl3xfib+/8x1kMYknJh2P0wYWsHGtqIvilMeWYHtFAx64ZDDutroD6cCK3S1YW1iN84/oiu7ZbkSTCl5YuBGPLS1kPv2sGtHsCUkRHVkipTo3iOTAI0PWNMgtYUjhEMSGerjCUUiJKIIuN+Qe3VDcuRNaHC5WF0kbtqzo8JY1wF1ShCx3EvfMmoCLxnPHUHoseGM5pt/xOmr6DkCsX28kKARBAmCuAeJPUpI4ZeQgPHhmPww5uBs/eNge32/YZtx+94f4bvNugYq1ZbpXrNTI6mDOblCb17AQDttbdHjkWOKhG8oSpx9f7fM5XRKV0TA3OoOqOwTEIlrD9U9Uv/nJl8w7neJSHVkS70ui8LtiVB0BFYEUbSTG7i8OebRzrjSGxGz8ephAiF1sXYtTO/3qzPLqUEFXSXRJvP4r/bKtQWg1zWMlJEkNg44YgL9OPA5XTDyJZY7sD7oX0+ZtxtNvLgNIbEaMyi77J8yUeLsuj6oja3cJjKJKyLKGAX3yMHz4wRg67BDkdspgN6+lJYriPbXYtq0SP2zeg117ytES0+F2+lh3Y71nJ4SDXjRT+pWKmdqY/NluJFcB8gK7aBQPXnca7jqHa8BoiD7/qRj9c7MwsEcwdTnlVQ0YOWs59pRUI6+rDytnjsFh+QEWQC9vSOCtTaXwIYmxx/RGl1wPUzKHNODql1dj/ba9ePu6UzCsbzZWFzfjvnk/4Ntfq6ApUdZBd/BB3XHcwXlYtbkUOyvrWYA/GPAjasiIhuIshc1yySTBYJfBJQNUwqIk6Vopk6QzUzuDbF8MJ98l2KZt0Ugqz+F3ltTo7JdMW2Tqi6xiY7KCYE8zx8i2nqyFxfStVFokynA5BJBZKhVGxw0J1KOPBYzoc2WgZ68uOLhLLo7sHkT3PA8KAg5keiTkBJ0IeryoaVBx45vr8ePeShwxoADvXH4MDuldwCR3NZEEQokY8gNe+L1OkBXUwp+qcOETy6BEmvHc1BNxw2kD+T3SgCv/uREffrMVlw8/CLMnjWBSjuqQjhNmfoydJXSqsbRh/PJZKQ57MS8ZY2JfFmXhdYtu0UCeoKMzddIhNX1SQ7mQQJnTD0WWWcE0ZbCpZ6S/rBmO4p3I0ptwwz8uxfi/nQm324fVH63GPXfNxa6C/mjp0Z0xGE0loDaDwfTxqoIhRx+MJ887DMcf1qVto1cAW7fs0u++5yOs2bhd0JOKQOVCHKisEHoaSFkRGzNO5XBGEvddXRE7/8TqYMDjEgVWOmEBFZCIGS23PVv9xjsLWipNoLLaZ9mD6XZ5QnrN3x9mVMyC2Ayq67uXHPpi1xzxL5SlsxqJEqMirU5Di0MbOSm7uinWqUCSJJFV9Ld72BiVOXEJqKhUYdgxgzBp4lBcMm4UryG0PQgqJr+6Dm9/soEDVfpWYUp06HvQ/8hMzh+OwlPWCKGZLIupTXqcW1tQwSzZ5mpUPiFBEd3QMwOQOmVB65IFlbJWzD6WF58SIPL9xqLYdqptXgRpFRJRvH77efjrSK4Bq2pUcMqTnyPgdOKTG09HQWYr+L6yvgQ3Pvkp+vTJxRe3n4fuQTd21URw+0c/YuF3u1ijkT6ZLhzdrxv6dsthrPWTb3djd3UjOme6mSd0SV0EYdI9JWOsNo8V/pm2HAyQSMjKfV/MkbSNKbscy73ALNsx1fHsybx2pzVQmwK11hgTX5eWJQzfsFLWuJZcwLqPrftTaxSAFQ5z0S63kDEV+eb7piwkSVhM2V2r4JpqE2lEyLSOrF1cEnL8XuIk2NsYRTwSIhsFdMv1Y/IpR+HiY3uhT66H2Q+TER39j9jU5S9uwPfbiwEtjJdvPAtXj+LSELqSs59Zju3bS3DqkD546q+j4OXejzj90YVY9i11grEp7W2jy5wZzH2L1WKaYmfW0ViishUBAVGEK5ZEo5JAmACKIqzUGJahtgEntZRvTMBbshfOWBkuPmsYLrn6DFT8Uoo5sz/Fd858NHbrzqxrSEDMAuq8DIIxqj79u+KlccfhpMO6wJHmn164tVi/c/o8Y82mQjEZjgpUf2oxKmvbslOLVNUTw0IdTsSS064si1x+elUw4PFI5GFGn8tKaSj6kTDCd8+pe/u1eY3FtqMfxafSO9JYTp+WLbHVkLRDdXpHwfT0Fu6WjopFb0uWHfpWXpZ4gkZ0IcWXRFA5TW2TQxs+IbcuquTkSpJTas2K2SEn7ejH0JiyfipGDBuMq6eMxPkXtW8emtBIdLgCny3fDLg6AKrWUU7tbLLoQmeXEy4liXhNHcJlNUg0h9hO53A74c7KgCc3DwJZ/Aa9CKtxNMZiUAh0WBDF3KlStNAeazOvyUqNsBhVBO9PvwCXDOWdUfZWNGLEwwtRH0rgwhMHYNZ5R6JHto8RlFDCwLjnF6Oypg73XDaKpfdfXbod60lpzTo38Ip45o7HSk5sokm2uilbY9afmXeRYQ/FEri5UyvI2HHK+u82t4QVtvFrtgoDraME2xCsz26t22z1pOL6HYtZcxphgqB9M7H8sVLiT9PGwPLLMnd0Lq60Vr413kxVnLJ34UyQmIr5fVh5kRm44jSGgxr/P/gzfBjcKxv9u/jhcUuob0lgw9ZaFFdGAZXWj44ZV52C+87kG0xUBxoiQG1DHbOL6Z6XAbcgsGLpi+esxsy2ZgAAIABJREFUwFcb9qRtlB3EQC2m3eZSOPvgddI8AcW/OJ9gfCvk/S8JrLwJHRmlJfDUl6B3rzz0yQ1ib0kttuhOVHbtBzXTD0NXWjtK02eqKvI6BTFn8kk4e3BXBuT2R+nuCuO2O9/X12wsFOKhEFWEM5Kxr6OfVYvLs/MaZDGSvOaSyvDUc6szAn5q3MKBip5Hhf1qUog++Hrtu8++3bDLBKp0S2JL/EkARXEquzKddiDL7uWAWT+6MsvmxVKl86pTQCxdcfi8vAzhaIoNsLXM7hHVucmobpD0oRM6NypqVpYsyyIP8qU/TKAyoZoH4shfScXoE4/F3647Eaf95eh2r2pOAGc9+jnW/bCHdzqxduzUHmi9pJWrUjmLg2rwWA0c04GwwWaeAmTx4XJBJLteSYaQjCMeD/PzfhtgSmks2l9KatHzeAWxmNduPgdXjuTlH4t+qcJf56xAOByHwyWjR64XnbxOlhYmNfO2khbUREJwyg7EyN44QfeOMzjegoY+2wSqFFiYzM62wLn3VPpmYAJG6h6YX9YCVn5eMeN89N1N0RvtkJYCm+rcWAzCOmbr1PrGPAqSz5Np0MdAwizjYFagpv0IvSczoaNNzWJeNBX5+7ASIi7Ea33Yj/Ope2tdnH2jsCFuCtha34s3WOEuBykgZTsnTW8bmNK6MARk5AQwqEsAudk+9O7eGWOPyEefgmxWy0mnh0RSxfKd9Zjx0SY01FH5mp0iMmQ2AdoKF1mAa/ue9sLsVLrABKqUBxh/LwIzWRdZvCW7vhauol0IaAk4RQeqNQ11ed0QOrg3qPaDrTMLGBUVfq+IF6/7Cy45tmc7oKourTWm3f2+vmrdDjFc3yCIVPPICrP59+RX0TqZ7PsaxahkLZEcd25py7RxtdkBn4PpqJiWigEVnTz1+JPvNL3/6Nza7R0AVbpC3WJT9s7J9jhV6uPTkcRiU3TH7YF05tNPcarqVQM/DwaEg7Ukvbc11wVmWFZWJ2vDrugSUY0Mv8NBXul276G2xw9rYGhRUEtzVVVw8qjjcOftp2Po8VyHZH9Uhw2cPOsTbN1JAj/zCGVfrO1eYQUHzWJL0XRysGJN1oJlbbFNcLCOdwyo7EPTIQ1pZRrWglI1jDyqB64752iUhzS8sXgLisrroFPhMokP6WSjiayOD7rCj160oljBmM1doM1np0bZBK60oF8KVNOBqqPv3G6QUhs6NUXI8EhoiGiI6QKzM3FoCgZ0DsDr86CougFNoQR8wQBcgoqWmMJsaD0+L3I8DgQdOjIC1DRTR2FlNRqaY8jI8MHjdKGsNoqEQtfLgfGQvgUw1BiKqsNMk9T2wqzv3ZpsaV04FlClM9t0kLDjCLd3YY6jKbJmp6CclVHygsqYIBNbN5Dhl9E1Lxu5AXKm0JAUHNhRGgHZTDPgM10H2sZJbZfSVpvTwcCn3VfbMyywIOkC+Tk4HC74W2oQ3LoL3uYmJAwVzcEcVAw5HHC5OPO21P+KCres4anrzsSUE/oyRmh/NNQ0GXfd+6G+dOXPQnNtA/mnC+y4an7f9kBlARiBGd2ruHLhyaVN917ZkBMMyCJ5d9HAckbF9urkCx82fTjj+eqt5nGPRJ/Wn46yfvvypdono6LvaDGpjoCKrtddtXLg0swMoZdKgU7T34duGh39qupkfcj4noqm+50OWRK0NjGqfQOVqqmM7Zx60lA88uhFGHBI+y4aO6tjOO3Bz7C3oo45WnI6Z+2g+1+U9sFnz2Q/MCe7tdDbvIV9kexjjlk/tmrYLMEdGRUTiyCZGbMOsaYAlzRw+OTpeY6LHTCkNh+ZvnMf4Pv85l+bjIqyVA4Jb95yHg7JBV5euRMbCuuR7fdj6uhuGNKnAE8u3oJ5a3dhYJ+ueGLSUOS4NPzj9U0orIng/kkjMbyXH0UV9SiNKjgoPwc/VoXx7uJNuHLkQBx/aA7mLPkFLy36GWS/d/KIQ/D0FUdi1bYa/P3FZQiRJU2KLVoLPSWTNn/QETO3r2wbcKWmme01KRZpvaYDoEu5IlhJBjpYktsFMUjOulgXDKuExmKxFgNkb/kbN4d93qPWXYfPCu6YRUBCn+2NRZBbWgJnYyPCwQBqDuqDpMPJzQ7NwD0ZGsp6HI9ccwZuOuXQdmU04aaIMX3mh/riZVuEuvJaCqabEiP+pdqtFYtpMTDTIegJ5bTjS5sfvq4hOyMoieQeQcc/VgZHZFkz1Dc+iyy47Yny72xAZanUOzLPS49RWce/3wVUbeJTBFQ1Xw9cHQwIBSo7ppgna7LuFWVU1TuMoy7vQXJAySE7TH1HakW3mXStGUFeO6bpKk4dfSxmvzixQ1X6jyUhnP3oIlRUHwCo0o9AHc6dDmmIfTv8zcu9zRNZppb7gjOGlNp5LWZpfm5qa7ft7Pv9xPSF9ce+XuurrM81d2KHhK9mXIyR/XOwZFsFvt6yBycfnI/h/brgpY178NDbaxDSJFx5xtGYO2EINCOBK1/dhB0VTfjwb6PQNSeAjcV1+Oj7Qgzvno8VJVF8teEX3HzmEIwf3gtbiusx5ZWvWYv1Zy4fhKF98vDEikLM/NcmROOJVmeFFCanYgr/7oV2cETr6C3t42vRLm7Yx5m/NV48WXFgtv0nfO3UauHNMbiTqQCnnkCQGlZITjQ5ZESo/CwV8aZaUxWCGsP0v56MGecNZo6i9kc8Ejfuf2i+/umiH4TqkmpBEE2gsl+meb38bU29I2UGyc8eUfWEo6qbn76xNjMrm4zI+YmE2RrxJKf+/peRxdc9WLYOOpMnWCBlNXmgn1kaKuvvdE8qK07V4dGvI0ZlZfzoaunFvpqvj/g2MyhkkBsnj1HxG0dAVVkn4qgJfQxoXoEKIjVS5aUe7RkV30mJtZKFiYIzThuGN966Fj5vq2LaevmqwnqMfWoJausp22kGeH8jo2rdKmye4SlK0yGl+uMzzWJY6fhs38z/+Lv/Sa+0sTS6fFHAqgfH4sQ+2axIOm4Y8Ig6fiyqwaRX1mF3eS1E2cANY0/CkxccjoSaxPjZ61AXV/DetaOR7Rbxc3ENPvu5HFn+bLy8bAsKyytx9EGdMW/KSHi9Xlz91lrWwffpy4bCL2uY8sZmzF+/k/mZWwFb25b+J11n+tuk71r7YWodsqM2XRD+Q9+x/dty4s19Gyi+SlUYLoeImO5EkkII3HuaAz5pFZQ4brhkGJ697DjmuW9/KHHFeOypBfp7n2wUKndXioz125dFKqxvEkQmLeGEhFwUoCfUY4+oaH7x1rqs7CyJHf14jIo6M/K0y8fLokuumlm62gQqAiYCKQqq09HvTwcqq86PSmforEVH0IyGtUds8foEBy+INDuJCAacoozSOhnHXNELhuGDQ5a5Z3bqhu8DqEx9BnUIPvucE/Huu9e3jQubo7z45ypMeH4FGhqbUoqVA+5s7Rh+W7/u9iD6J8+937Eu/txPti58X0zMBlRskhtY/fClOKF/DtN+kQiTKgU+W78DU97YhKSShKFEcc2YE/H0RYPQFDMw4aXlTKX+xjUnI8MpobS2CRt21yIue/HQvG9QWVULh1vG7KtG4+Jj+uHNtbtQH41gwrA+qIwkcNmzK7C3vIHF6ttkhw9wyvv3xuk33pD0MEDqQ/87QMWBgrMbq1yYAwfjM61rzCrlUuKYdO7ReP2vIyCQ3tD20BXdeP7Fxfrr760RKnZWicx51baJWke/1iGwxaiYFXRcPfbQyuaXptVnZeWwFqZmjMoCKkH/+KvYkqvuLSZGZUkSrMyfPZhuz/p1VO/XphuNfVrsi1ERUBEs05vl1q0ZtDkjACkZTxiGZgjcHJ5M/SVU1cs4cjxZZfiYf/iBYlRWbIJlDJQkzr/gRPzzbe6OmP54/9sSXPvySjSHIq3K8AMGvP+9af37X22f4f/RFfc7v1oHMRkr2MsycAI2PXY5hvTKTAEVbcw7i2oxee4KfLurEZIexU2XjcaTY45kNXKTZn8B0eHAy1NGw+8UUVzViB/21MIZ8OGBf63BzvJmlv074eie+Py6UxGNJVEbjbCKgzfW7sas99ezTK8ZqDOPGH/2Efe3DNN+PjOdVbFb+t+/r5xhmbDF9hlLSmNmVLUkLho9AB9cdyqktGA6VW698soS/eV/rhbKdlRwNYQ1F1K+VK3X2BpktxhVjDGql25tysrKEmzB9Fagmr88snTKjH0yKiugbu/vZ5coWFm//QKVpUpP7z5D/6Y3y29cO+gHrx+SGoszwGAZA2poIEqobHBg8GW9IMDL2nin5AmMme6LUZEhHAeqCy8+EW++2TFQvbp6F255Yy3C4Wir2P8/CVT/jTXzW9ZVm+cc6EvamVX6m5v3QzMg+hzY/vhl6N/Jj4rmJL74sRhD+xfgsK4BbCmsxaRXVmLLnnJMu3w0Hr94EMtejnnmC/hdHrxw1UjWDfnbneXYXhpC906ZeGX5FnyzvRpRVYTDL2DFrWdicM8sUB17RX0zxr64Bt/+QtlbUyBqAQD7Oz1++O8GqH/3oLYl2mwI9xczO9A9+IOff6C3tcbMniiwhJ9qEqcP74uFN58B2ZkWRtFhvPHGMv2F11cKxdsrzCI4c4w7ACq6Hzw6QEJWkqvE1GMOq22ac0stMSoWo6IjIR3fKYJFo/Xh8ujSq2eUfG0e/QiY0jsm27VUlm96er3fb2JU6UBlMaqC+jWDvg0E4FCicSa6ZZ1xGaOSUVUnYdCEPpA0D+u48nsYFckdLh4zCq+/cW2Hd/aZpdtw9782Ih6Lp3zYW49+/8XJ/Afn4YFftr+d+/der+2o1ybbSZJiDVLQjdLHL2Me7M8v3YonF/6IQX3z8dzlJ6Bnngcbd9Ti3Ec+xK2Xno5/nM41Yhc/txLZAR+eGHcsyORg/c5KbC8LoVd+ACu3VeD9b3ajrjmJpKzilrMG44FzBrPQ4srCelzw+BdobgyZ5MQCpv0dq/aX/NgHAB94gP8feIbtvtol5EoSw47shq/uPA9ualjb9mG89eYK/YXXVgl7tpWyhGJKYXsARsXFvFFt8IDaplfvqM/KzjZE3iWbx6hIwEqkZd6X4aVTZ5StMmNSFlBZ3WiISdnjVFZ/P7uDgsWqOgym0ze2iz0tHZUVo6I36tywbtBGr9dwqNRi21TTEqLyGJUTR1/RE4IVo2LyBOuz2jIqXpbC0ZrSq2oijrGXnIzX3rim3QSie/Dooi2YMe8HJKnzrSVwSzGq37tw/1tztKMjmG2ipJTKv+WI8VuSAB18nv04Q+NHamO3hLsuGYmeBTl4bclmFFaFIEgajuyThwmjDkJDcwLPfPIdBvXOwzkjD0YiquONZVtZpvb0Ef1wVNcMxMIq64rTO8eDXyrDeOrzX1BcUQdFiSA3P4BpFxyLfgVZmLN4O77csAMaCYYtHVxKovFn3pf/LXPi371m8x6n7qvA6v0GDcjH6nsuYAXjaQ/9n29/pb/w2lfi7q3lTNJvWS61WhLzSJgVF+P/Tf/SYAgR7dDedU1vT2/IzM0zJGZHzA6PlPnjHbDnLY8umTqjeK0tmE4gZQcqu9VLR0BlV6ezr58eo9rX0c9iVJ3r1wzaEPQbzmQiaRi6wS0+BQMOUURFvRNHju8FYZ8xKtvZ11TScvkReabHccUVp2POy+Q33fZBWf77Pvkej3yymVkW85dadPz/pwm5r0m9jzHY19CkExRixLIBTXRCUnXWeIAaS5KKXwJvLEtNSAWHCAe5bxoSktEw68fndjpYQTMVEweDHmT4XCDX3urGCJKxONnsMQEla1YpyVBZkbGppE+RKds0tKQb+w0FHQjw/93F/7/s9anjn5m+01QM6JuNtTPHIsfXLoOuvfev1cYzc5aJRb+Wi1QVklpKB2BUpJcyENb79qxveu++xozcXF0iOQ4XfBKj4nGzD5aGv7xmRtkaU5pAoERBdXJRsJgUsSrLQWFfQGXV6P0moLLkCVaMqqBx3aBNHq8ha/GEWWhBXTUo6ycxoBp0WQ/Igo/pN1gHX4swpMWoUkjOGJWBZDKGq68+G089PbHdLKHuK//48Fs8+/kv0CkDxYuL2upZrFiC9eoDnfH/o3PxQMc2e+zoAEDLfp0Wa0p/+1QM0PaLNoFgs+4vdTPsSGUWHpstwpmAzxQZ0gZhsBpDSpjwDBOT/ZFIlMv/WKqcBRPo88w/AtWPybwsg44F1BOP4hsGtVqmr8jUzOw/bNdmiV/TxoNHjf+NGLadee5r3NPGt83c+L9kIzzgfLbVdqoK+vXOxjf3j0FeoF23cf2Tj77RH35mkVhUWCnqrK6Vj6+dUbUOgemAYhWNCxGtT/f65vfva8jIyzck7qhBIEXHPz7/PloeWzJlRvEa6iZnAhLJE6y2WRZIdQRU9lq/Nh2T7VPeUqXTz6wYFfFGulL6N2X9OjesHbTR54NDiSVMYTUvgCUdVWmNjKMm9IYDXuZSsL8YFQcqPhysLXQihutvuBAPP3JZOwghN82b39uA2V9sY0WX/zsY1X4pQdo1drAYUmZoFrXfBwJ39DEmW23NBlmGdebnmCDPN1DqyWi2+Up1DOKyEzpiU7keax9vNuGwoIUZqbGUkc6AiESJFExlImoSB5pJFnafdSZUMWGOzPF4J5vUhmNtZhYmW8hkfr9WQEufGjaAsY+DlQVLbZL21x0IeNq80X90O/tT39wSpjKJgoqe3TOwYdYlKMhoD1QLPtugP/A4AVWFqJPLhq3ChN8C28knVVrDbC6IHOk9uzY0zZtVn5Gfp1NXFxuj4kfGeUvDS6ZyRtURUNmzflZRssWq7HbE+wQq+nZ0xLOAKl1HxbN+6wZtcnsMh5awx6gMuEQJOyudOG5CTzgkP2uL3dY9IS1GZQcqFqOK4O+3XoJZs8a2u39kz37ju+sw58sd7CbwgnM7ozrQ5PtTp0QHb2a6FTCm9wc+K0Xd7ZoYc5WZoMNiAXZNmsVILFcCK17HBLithcHEhHhm1tS8paoJTFQwmRTVwzHQItdKFrsiNsT7FlplbcxbycqEm808CagkszkqfRbDV4maffA6Z/51CJSodbjI5zU1aDXT6+xbsN5wvN6SAR8DRd4A1GrGylszmQ4Ktmw8hyoOkAz4TFvdFAtNKcnNxdeG2e+Dqlnr1E7G2t3WP3Kj/8Dc+K0vsYCKRklV0bVLgAFVt+x2DR70xQu/0+9/9FNxT2GFqJkNVpldTwqf2kMV+wk7+kW13l1qmz+Y1ZiRn8+PfjzWzG1eaNw/XB5dfPWMkm9sWT+LUdER0OpAY/ek6kieQKiYau1u3z4sgLKYFYFWqqmDKU/IY1k/H4tRmcTdZFSSiKIKB4Ze2Ruy4WPdgNv6UXUMVGxSmozqtjsvx73TL2h3a6hw9dq31+CNFWRpa3oWtUsZ/6cnzgEYUmr3t+cP7DPd+n7tvydrs2VrO84Agy1GAif6b7Pan53F6KkkvDOHiYyryKtJllhsyelywC2JcFHsSKKWdzLIkZd0bWRNxJwkybZZluCUyedJhFOmn1E0ymDvI5OBm8N8vnn0op9T12gqcuV+7wLrPkwsKgVyRLsVDckkOWDy0g9yR1DjCcQSCitMpo4y5J9ELb3IlYA6MtNGRJIHem1c0ZgnO/03OXUqCpVYqdyjngwMreLb1HSylbWkl7eYhnYMJGks2yRfrAG0/W3dw32y1PSp+Z+ec78VpWwbN2uyp6FzgQ/rZl2C3rm+9DfRv/ziB/3eBz8W9+6sElUqkLf2/N+Q9TMQ0fr1rGv6171NmXl5BFS8OQnP+nGg+mhZ5Msp95VaMSoCJkuZbvmm29tl2a1eLEbVzpMqHaj2x6jo/JjbuG7Q9x63IatJDlT8cEuMSsbeahnHjO8JWfRDYIzKfHu+FZoD1rpdWQSBYh6aEsP0GRNw261nt7s7saSOya+vwntf72k1gtuvtsV6i393IqXPWPtRw3Y9qY3ZOqa1xmt4UYGtyNliQvQa0hHZxoa6J1MZM4EHuaU4WGmSCIdEtsESnJIIt0Nif1wumYGRx+WAx+Ng/uAelwyvQ4LXJcMtA25ZhtshwueS4XEIcDsJtET4PA54HQKcsswMCh0OB1wyuXxK7N8M1CSZu0NSBb8kgPy1pTa6tX0vIuouTMBCbbVYUwDy004qSJJlCgMdAiqdgVUkriCS1BBLaggnNLTEVUSSKmKqjmhCQyyhIppQGYBF40nE4gr7Gb2e/Nnpv2Mq/V5nAEdqefZ51CWItmQ2yczCYqvMxGxe21oU3hoD404C/IDLgc26p/Y4mc0zyxqGDk+Mdm+t3wE6bbK/v+N1FjNXVXTq5MOamWPQv1Ors6z5TvqqFT/pd8yYJ+7dWSnSZsFWcYo2H+DoJ0S1Q/rVNr51Z0NWbi5JhfkJjdf6cYnJJyviy668dy/pqCxgor+trJ89oL6vWr/fDFQEWBSXsjMqAqocyvr5vIZHSVLDH3NjJ9shUUJZjYSjJvbhjIoZg+271s8eo2KbZDyO6bOuwK23dARUGibN/Qrz1pZwbyP2gv2J8PYDUG3w0jYJ20y4dPy2T5a2zIixIeZ5TYPBS4YY6WHpTNMLidm68G67rGGqQ4bP64XX7UBmwItMnwNZGT7k+BzI8LqQ5XMii/3cjUw/dTZxsp8HPA4EvE4GKMSOmPWTeaPo8y0xyAG43++Y+f/dp/Jx5N+BDR9zkuRGAUSwqAlsNK4gHE+iKaahMRJnfQWbWsJoiChojkRR1xxDXXMU9eEk+11zNIlIJIFkMgmN4p0W+DKTPxZgM613iKnR/TQD/6nbbpoVttmcUivBHDCbF1WbqWj7x799k+znUxuLp2+gqcjL9WLVjItxaBfed9H20Neu/kWfNv0DcW9hlaiqSebZxStMrLxF65drNQynnxEUxbQjDqppnHtXQ3ZuDiVzOaPiWT8O7h8uCy+9+t7Sr22NR63CZLvLp1VCY7knWE1I7e4JKQeFfTEqq/sMxaksHRW9KFi3ZuBarweZ5JneeqTljKq4VjaGjOthSFKGKBJQdXiT2jMqyurpiShunz4Od911fgeMSsPEV1bgw3WlJqOy2aSknm0/ZtneYp+YZRnHmaBnkkPrTJVqIcS+Lh0b+KTlP7e6itFrW5326ChEDSmdkgCvU4bfJSM36EFeTgBdcgPonBtAfsDFUsYBp4iAxwm3LLLnepwiXMRsHOQdLrNmDK629aT/XdT4X/TplMgiv/VoQgF1wqG/ibFFVM7aoorBGFhLNImaxggq6kKoboqjqimKulAMTdEoY3DE1JjamoGk5SLKmxmweWLrbkTHX8tpgYNrB6wrFeQ310Aa1rSJq9kTAulZ33b3wv5ZvHVbTrYbS++5EEf1bNcfU1+3+hf9tnveF/cQUCncIdQCKv7WHceoGGcSYtqQQ6oaX7ytMSs3h84EpEznQMUDSgLe/SK88PoHyzZCZ0c+S55A//17gWqfMSrr6NcRo6Lh91WtPHxVph95ZB2cMrOnrJ8kobxW0o6e0EMX9ExZlEThd8Wo4lHccttYzJzZPpgeT6iYNHcFPlhbarbDMIHKfsOsU1mbaHbatmUPRqcoPa9IZ7UEbFchAON9xvkuztW21oPO5NRcSoYEv8eF3Aw/umZ70aMgG73zPeieE0S3LC8Ksn3ICXrg90hwEfvZx0JPPxD/L8KD/6e+KoX/SOIVUQw0RhKobImhtCGEvTUtqKxpxN6qFpQSoDXHEIvGWaY6KcgsKZByKbUErJQUYPFE/jfHLcvI0TpS2n34U7tkBztsGqixZ6TonPl8W2iBsXgNWZluLJ5+EY7r0x6oli/9Qb9n1sdiEcWoVKUNo7KAyvoidkZFQCUiqg4/sqrp2b83ZmdndlDrZwjGW5+HPr/5kfJNZmzKAirr6Jee9fu3GBUd+6ysH+U3LQBz16w6fJXfJ3SibiWtMSrAJVEFvawdc1l3RZAyXIIks3vVSrv2HaMiRqUmI7h12hjMmHlJuwVAu+KkuSvxAR39WHzBAqoUOrW+Jp3Fmdmk1jKBVmsaZhNgJeosIzTSCLG4kAiPCPhdTnY0o0YB3TpnoF9BJg7vEcSATkFkBnzwuyS40u10/yNL2H5hv+fcQK9L982nf1vzhX6vAEoU0CO8S42ZOUpFWelYpJJRYpI7k1qxntSisdnukLmcSKoW072U6RXIOloC61hBYy5SgJeIOv2x+obQdLOI/H9kAP+UNyUwa4rEUVLTgsKyZhRWhbG7phkVDRFUNYfQHFMQTSYRV1QeJ2NNF8xOPWzc2IGWAxiFAszsdyr6ydTdpqbMrtjvMD5oD12Y4MXkCRoyMhxYNP1CHN8vL/26jYULNugPPLZAKNpVJaiKynu0WNljO58y46etXrk6ZDGqnHxsTfMj19VlZ2SIosSsq80YFfvioj7309CCfzxe9r2NQVkxqvRgekcxqj989LNmEo2Kq/Krw5dkBtDTYlRsqMygb0WtrA2Z0CMuGEEvA6o2nun7AyodajyKm6eNwf2z2gMVZf0mvvoVPlhd3LY/XEo70sYM0CSgPJXNP9X8bO5ABodDgsfjhs8lwSvLLPic4fWwzrxZfje65rjRr0s2+uUH0S3Hh+wML3ycZP0XHhbQEFCYZVJqDNCbW8FFSXCQUanTTgigfoH032oY0OOsU4luxGBQ2QqBFusYEmfZNEHU+DgJdATQIZLGie4bpaJ1YpnsBkOg1lnMap4HiahjCvu35Q8ocj0W8yqnLqIUv1b56w2dpAm0aPnftAeSIFQwyK+b/rggyF5A9ECQPDAkLwTJD0MKQnT6ASkTcAYAMQg4PRzoZD8gBACBpicBY7uatv/Re0VXRe3WKpuIibVgb20YFbXNKK0Lo745hqZYEiFKBOgGYpqOGLG3eBLxaBIU77VkGBzIzFhZijzxDCpj92agn09yc0amTgpmUI+AKsuJL++9CEN75bQDqs8+W68/8NjnQsmuasaoLKBqF6NK6YT5d6LMnmyO9ihBAAAgAElEQVRElTNPrGieObUhO9MviVKqrx+BFeGwqL8wr/GTe5+r+tGMUdn9qDryTN8Xo/rdOiprFrDtrnTFYR9nB4RDDZX0Nuagmu4J5XWyOnRC14imZwVFySGwjsKpx/6ASoMSj+D6m8bikUcubTfBCKguffkrfLq+DIJGVNX0OE/Zx5qBdcaKBMrFM3ByCIBbMFi2izJlQRac9iI/x488vwudc3zomePB4J45LDvid7c37PtzZzvfTU3fWJPpEHiY2VojDCTDHGySEUAJQUvUQU9UQ0s2AVojDIV+3wyDgMlQIBDDoZ2ZmCaBjqk1YpolNgNJO84Dw1ZszZrszNPI6j9iif7s94zNXOs7W8eTtKBfG6JnayHFpgZJK7jSnW0Z1vsx+1prFVIIVodoKpytIlfWlMHUSLFrEHjvOwguCBL5mgdgSBkQHBmQHFkQ3XmQ3F0AdzbgCPA/QiaFVc2ckNWfhNjN//wjElVQ0xRBUV0YO6taUFwXQ0VzFHUtMdS0RNDYEkWYZBxxxcxc8o7cKdmg2fSDb74mcJlxMIqfpcaYLo1iVLleLLvvQhzZjcagzcNYvOhb/b6HPhZKd9eyrB/dI24uYD3PjFHxM2sq4UDPkxFNjjm9vOX2CfXZQb9DlJl4lzYhxqoMQxfVR9+p++CRl+t22FTpljwhHaj+sODTXutnHf3sdsSOoiWHvlGQLQxVVY17OZvzl9Lo1Y2yMnRil5ZEIidbkolR2QeoY6Cin7J0diKCK6eci+eendRuFkUTOi58dgmWba6EqGs85cw6jFi6Ii4C9bhdLHvWPdeHrrkUK3KjR14Gcilz5nGywHangBvZfh/8bqpT+09NWLqqMJAghlMPKHXm302A2mSCUQuMZAiG0gid/jYirPWRBioRokwKPzfr5KBI1Npsc84mpT0VZooz+WmMAMAEB3N75MF/NrXNEvD047K52ZiwkNqprR+b9J+zrPSGC/v6t63sJQ3X0tZMa/rf/EWbBWeCHANLRtXMjJw55/ii5W3F2OVS4ww2EA52lBFFN0TJzdiZ6MqEIAcgOIIM5OAgltYJcHcGHLmAM4f/nLGz/4GHBiatiCQ0Jseoj6uoiyRR2xJHY0sYNU1RVDaGUdMSR3ljFGX1ITS1xJCgXgXEgugh0XGaAIYfLVndHYv1G8jICWLlzIsxqEs7wafx+YKN+syHPxVK99QIqmYe/dIEn9Z0MGW2ZsxWh0OPJydfVBS69pKmrAy3S5RkDlQkQ9EN3dA0IXnf3Lr3Zv+zfo/JqKzGDh0VJe8PqH5zrZ8VNLCAim1JRV8MmJ2fI43WVQpAt4IwBdNrWhzJ4ycWNIWiObmS7BBbldQcmVOoZo6ClR0hvU0yEcbEiWfipTlT2s2SlqiCsx9bgPW7eQyFAtokWgy6JBRk+tE1x4/OWV50yQ2iS9CJPrludMv2o1NuFnLIg+RPfxCIEGMNATrdhyYg1gIkGgC1BdCjgNIEJKqhJmoAtQEwojD0KAQ9xrrQUFkJAS0FYqn5pFX7ZjEPnvSxqtituAUfRqthBN8mzONtisyY48xwxcpstuJB63t2JKL/nzjctkWu1uYXrTfJJGMpaQJ7RerYYz3P7C7EusuYV9XmrU0ZASvf4bEgykTzGJkMgzEzDwQxCMORC8GRCdGZB9FFoJULSB5A8gHOTA5kIGZixdT+9AnVfs5HNNS3RFDbEEJVcxQ1YQU1oSRqWmKoagyhoiGM6uYQGiOU3dSQ0Hh3ZmrTTngVCLqx6sGLcVS3dvIE4+OP1uoPPbVIKNlVJWiaxiZJhzoq25JlvJqao8rh5I3jysNXnFmXkeF2SbIJVKSNY9UEqhi7+fmaf741v7HMZFRU42eBlaWhsmup/jT3BKswmf4Wdy4e8GjXHOlcVaMJ0Cq7l6hTckhUTpzcpa6uObeTw+EUW49+bc4HfHmZrIAZbukakvEoxo8/Ey+/0t49IRTXcc2bK/H99jrkZnhwRL9cDOndCQO6ZKJblg9Bjwtepq5u7WL0500lCjQ3AUoJENkNJIuBeDWgVEGL1wNaBLqeZH8oFiQIGo/fsDOYzsLYPKtIbbJMhTn1w2uTneQ1Ial5YRHVVADVni62N4pou7jbXHMHeQb+I/t72V//nwap9tTKAlr79259lu35KdJne0Wbr2s+N/US/oLUU6zyIIZ3vMaQyqkZ/jHzD368pYVIgldiZiy4bDghShRPC+D/8PYecFJV5/v4c8vU7YWFpfcmggVFBRt2Y48l9lhRscYaNfb2tceKGqyJsfeCvaFgAaVJh4VlgWV7m3rL//OecufcmdkFNb//JH522Zm55dxznvOW531eLVQBhCqgkRUW7ANEBgHhkUBogGCy/e9mXL4jcaDgmeiU46I9kWZUivWNnaitb8XqLR34ta4VS9c3o6mlHQURA+/edhJ26pPDTHdffOlL576HPtZqV27WSapHApVaQiMtKjkvmRPD2rbEUtefW9v1p/0bi0uCIcMwuDXLCL6O7dqWHjv/3s3Pv/6+19I9H1Bti8xLtxYVXVs+PSoJVMwm/vWd0TcO7K2f6JJWrWIu0gNu6dSsQy6o3rR+S+++phk0tsWiYkBl20gmunDqX4/EkzNyXT8674amLmxp60RpYRi9y4pQkNWq+o9NE5oGBPL1cGOb4bQvhdNBoNTArSOnHQ79tDug6XHmohGqsKwmK+qVkR6/1SjdLr4iFPai4vBIDWxuG6mrz/+7lxVSktMyipO59/+XYJONfOq5fH6iuJxsyymfBee3Dnv0Er2blOdVXdbc42SszoyYLgco2kT81846F7MHwM1S9rtajiPCWiwXQ/E+w4TrBuG6RFQpgGaWwAiXwYwMhl48HIgMBkLVxI8GkON6/bGpmufbxBujEqXOtI3WhIX6lhgMJ42JY/uxnGrWy33u+U+dh574VFu/fHPG6xHuER8ZGaTPECFoaMiLKgx3pO66eH187z3aCosCQcNkwXSqbiKgslwnrbf/9fZNz7//eeeWbbSoshU+KYiuMtPVK/J+z6dHpQKVPv/1UZeM7m9MI/F/r8JAFLx2xR3r6Mv6bvh1bb/+JnV3yM66Kaf0WVS2hWQyjpNP+RP+9dRZ//MHSQckFnNAjaO6XbAbP4Me/xlubAOQ3AjHbkHKIQspyeYs6x4ou8jSPUp6NMVEhNNFRDfBRWfuBZfK4Ka076GLf3ngne2VdbtKM4sqG6x6Hih1QSuTL3vW+kDz/8nQb8NBtw2i1ANlBxL8J9kaSCoOZ8bs4ofIuRT+PL3/2POlzi26kLohbhGfA9zVpnQnZTDDMMOVMIuGww0Nh1YwDAgPYlYZp2QwB2UbxuZ//hF3xpMfOjOe+UqrW7GZqJreNJUyL9lAxa9Ag22l0Ku0M/3PK2sTO4xvjxaYQcNkiXRer5l2LCQSWuPJN216/qvvulqygIqoCbIoWXX9/mdSxDJGRaOrf//yiNO3G2xe7Vqy3xdPm9L/Egk3fdoNVRtmLxgwIBg0TV/7Oi+blFlA8k9EdUimEvjLXw7EM0+f+5ueDM0r3kiFy42YokI/5diIOS4a2g1sbIwh3hHD1Im9ERZglV53N5zGV+G4LYx3wrJKLJfO2z6qvpjoWCahxuMJZyZ2xrbxu1ccrPIvQ/FXL7PWPZjkH5A/aD2pqJfvBL8dO7btueW77B7P1R0kqVZcdzfQw03mGGZK2Ytq2Xqkb0kNEPOdzCtuT3tQz+YN4yQRaFECwIVGaTvWDdyAq4dgBEoRKBgGrWA49IIRQEF/INhXxMAoLJzjqm3buG77p9wHHnzLefq/32qbVtazHZXdQU4wnVuX8j3WCdlKYWi/duvRK2uTw4fHwhHDZOWgdH8WFZnbFjo6tQ3HXFP74vxFSdkei/rbSZDqKetHgCXLaLapr58sH8vO+jHi59fPDTt059HBu2zL0TMBOM5PSiWd9MV3V9S+882QAcGgQY3pPZlTwWJThpPrUdFQkNREKp3EUUfvi+eePR8BgulteNEgdsXiaOkgxnAHtsQc1HUCazZ3YVldK1ZtaEVdUycM18bp+4zHzafvyKdB4kd0LTwPCHZAT+osDcxAijFveXbLF8nxtKHERYm56XdtMxuy35JSb6Q72Mpzv90j3DaMTDcf2bZhzXz5fwFWWWagdwk+RRy1BKQ7JMsekJ5uZhsuXD2cz/jM/q7/PJn9Vm40Iunh+5gU6eaWGG2g3nxiIEZ0DMIBVnAFuFHogQJokQroZbtD7308YPZmz4Fgbk1dFwb2KvhfZandm299yXnprXl6w5p6yhpmKvzUh8MUPDKbKWX10ukYJo6LWw//bV26f79YMKBT6TrfiMn1SztpbGpwVx51xbpXV62lWAmLp8gYlWxGmt2FhoLpv6tdVk9AFfjgySG77zUhNMOx3AxQsQAlkE656dtnltY+9dbg/oGAGTQYh0cubn9MgUGUeJOoDmkrhUMOnYwZj56Oyl45mQrvobFcW9xBXXMnaupbGS9lycZWrK5vxfL1rWho6oAbSwK2qAIKuCjuXYEXLjgUR0wgmLJg1VyCzsYvEKC9hLJCzCLLmOHsSr3Muz+KlB8CenZEpOncI8JkLWjPFOsJ23oyKrZmMWVfTF5yrvKh3wqc+e4nE/1QbBEvAd6N5alsDr8fovN8cxvArJvzdVsPzxY6X/ecHcJXPjuTgAPpIjL7TFAJ+N8sJpvjBiIIVBwKfcj11EaTMeye+mgp6ra0Y+So/hjdK4rqQh0l0TCioQBTwxDG3baNjgv3yqufdd6a9YveUttIGVCOob7eGlz1VYY0yJ0lICKv54h92u07Llpn9y63jABpUbNkmMsUMUi6etk6e+ExV6x9d1O912yUJIilRSVdP6nuScs5m/ApY1Rb7UKTDVRkWVEgneVmX7t/4KiDJ0efty0nxHhU4j+GqinXmvFGYd2dzw7tYxqhENPeZk+JP5QMmUEk1aVFZdtMm+jAg3bDnXf8GaNHUSbF/1qysRPXvvQtapsTaOuMoaOjC/F4CjHSPmIZVqlLJIpHWTkjldunsPvkHfHW5VNQRXdizUfnr5fCSTXB5KkM7juKmJK43Kyz97xKM1O+e1tq22bRb/iUuoNvC072cGiutCkmq2coiOhF9v7irbw8B9waOMpz8Gieh0DsN6UIl1+CjAOq51Gegw9Yf8O45Xz09wMWP5QEo0wtn/8UmeOzWH3WKvCOQFUBrsskdaCXITDyFqDkYHaom99fjXtfmwvXTiCs6SgvjqJXWQEqywsxtCqCCX2i2K66EIP6VqGqpGfXkUr7pl/0uPvZN8vQUtekaXRCXyBduSdp6GpAMkVSPUmccUyje/25tW5lIa04nclRUZkQZSJJJ232wvi3J11b93l7KwMgAiayqFSgUjN++YBqm/r6SVkAWesnxfMoTkXpi+jzdwyqPmpq6N+wUUY3yNUjOZnQTrv2618E669+ZEiZZRVGAmbAs5o8OSrFp5cWFWX90paFAw+chOv+fih2njgyZzo99/0GTH/iMyRaWxlyu67gIhA3htd5KPNGApcOovjfPe0o/G3fKv5+6/PoWHEfDHKHWYZHWHbdYpHqF+R3N9jkywaO32qBZN9xPiDKXrN/YH16y4ddZ+ZkjErBcIJvsbKiw3eqbVnbWUPFTuOtUv68eJGZPH822qon8ZM5MtfyOxVV/8C4df9V9XrzzBPxpwxQic/L2j8hkshECS0N+oCTEB50LQu6f7i8C4de/x9Qd1gqOWLKqaQfFg6hsCiEomgI5YUmqoqi6FUawehiA/uNHYBdx/TJudxkzHLPOe9R97uf1mrNdVugm0Eeks2ydvnewcMgru4gmdDhpJPuZac2a5eeuhalBZQGJMVWB0TFYgaJ6+CVTzo+ueDuTd+lYqwPKLl7MkYlXUHZ1l2ClLSoVNE8mfXzTVP1ZgigZOZPtsuSFhUDqsev719ywqHRmYbjDCUCHY9TcTPRseDMXhBomHbXwKK2jtIodSihG+AT329P8YHgp6ZK9GQqhf2m7oorL98fe+09PmeAH/9mHf428ysk25vFhBd6BEx2V9iuHlhlJkplZTHm3H4ShpfRIRNI1FyBVMMXML1iZXEqdUjy4dG2LM4/sgDyAZ083jZbTD1dpHBhvfotvsnICckI7hpVGzg8ueDyZysJosr+sm13qVhX3q0JC5rFAw2bl/24Jm8e4U2QfAide1/+v2wrE37bLv3/2aeyLU6vPImtch5uoM9QTKt4PCLjngTQC41pYNdrXsPalZtYi/aMc0IBewkxTDeaVWfpWicOnDgE7117rKpEw/fploQ77fxH8MPPtWjb3AjdDGjE+5NaDipkiW2c8QG7YkDAcZ1rzt6onXv8Oq28gMul0zIiegShEv3jyVfa373qkfqfKMIiiJ5qjCpfrV+2XrpalNwtUNFtSy6VqklFgXRy/aK3Xdw3et5xkX+a0CYSUJHlyLWqaXw1e816o+20WwZEV9aVhwuC5MJmthL/+s9YMjaRxWwLu08ah8suPgAHH7aLj1FEY/DCT3U4+6GPkerq5Ozi7Jo0dXbJTJpj4Yh9JuD1i/YSMisL0bHgYrjJBub2kfUgMFTY5Pktpix73T+PVRD5I2CmGm75Vko3l5b5KN+rPQtR4q8wZVkgwjP9uBUszUDqaK1rYYTDo2AHymF3LIRrbeAkVclB+V33xr8k4zXsFhg2VcON9oaWaoGbqqd8sTDg5D1kIXRP1qninqhboTcuv+u6Fc6GPFD2NWQ/r99lQXOA8kDCM7dIEroE4TEPAAWTWY3mLZ/W4KYnPuZhCl75LXSxMpWbxHMCaaC7Key56zB8ff1ROQyIhs0d7nnnP4YfFq7XYs2t0AwqN8oEzvltiQ1M3LutWYh3wg3rlnX9OY36aUfXGOVFJgNFcvvolClKSNm2+8Dzra/fOrNpITjXWfbzU7N+2Q1IJT1BZvyk6+dTGsie/jI+JS0rmfmTMaqCi07qE7xhWvQmXdcPCZLOts5dXEaic3WnrQ2p024eHPhqcZlRLEiZbMJ7FlVm5rDfmBCmw1y/XXYei/PP3wfHHDslZyeYtXQLjrnzXcTjdJ/ZWpZilnj+F2dj6q6FJy8/DmftQelfwGl+Al2rH2Etntiuxct2lZdKD++WV5DZdLKt/exFsbXJLedExh/gx+7Bgso8MP6hfOvQ26hFgFRatEzNkuKGNBFpk9GLYQZ7wygaB6N6X0AbDJhhoGku4mtuh2238Tir7z66QcwcQ0i5MvYet+jSKEDR8KtgVBzEPYPkr3DbfoTbthjprrWwnXa4ZJpToazQqMscOkMG8G9U2ciePUpioH4XmIhj/5Hv5tt4vCeXSSZ4i4QloHVE+54ODLiU2Qi/Nqcx9brXUL+phRMC2ZzJGmNa2qSQkUrg6AO2xxuXHZKD3XXrW9zzznsUPy6q1VKdMdYtigMVn00SqOTaZFCqWejssJziwkDq76fU6Scdvc6sLApQPzQOVA5ny1updPKup9tev//5lhWZGjNWPtNdMF0tn5H0BLX5aI8WlQQp2TKL4lMyRlVwymGV+r0XF1xghgNnhUyKAYmqa3L/dN214pp70T2DtH9/UaoRUFGTBzbZfUDFn3oGqIiHYWPHCSNw6imTcMY5B+Xoc39f24mDbnodbW3UCpxRMf2EOc+sZtW5DIjI7fvhrlMwpIzeTCC56kKkm7+F4dIYKw0SvIn0G4Aq7+TL80fvupT38qHLVi2mXHshC/L5mIg/MttKZJ54ITPPbOp6L5hFQ6GV7QyzZBIQ2S6rEDcFt3MD0hv+jnT7Qi4AxzahfDfS0yDkojgdJh0sRPGIh4HC3bO+TJ+vBZq/gtU8G+hahVSyBa4WJ6ohyYeIdcktcc/j8dne3Q9iXsNKbhC/1+ra1jnQ7eeyTyyKq5nL7SAQ3Q7muBkAeqPNBU59+HO8+9mvHKhygqJiSZAfFuvA2X+ehKfOmZozadav2uKePe1xLFiyTkunKOYlxCLz7JDe+tQcdHYm7arKUPKa4zbqxx6+JlhZGtJZrSo15xBlPR2tydY7Z7a89cTrHetFfIosKhWoJNFT7emXL+snJV56BCq1C42MU0nt9KJ9J5UYL9xcenQgYl5XYBosuynbMTm6wSTNb3yst/vgG1VakWmAGhZQtC4T7ci1qDiZzMG47YbiqCPH45LLj2YdUtTX8qY09rz2ZTQ0UbaTHhTvDedzy9jEE0Bl2zhozwl4+7I9eT28XY/4wpO5S+NwzlRuoFhM9P8/JnDOuvef1L/kchcgG0VFVYURDMV/7PZol9QDrNg2FBgFvZj+GwsUDgd0SizkKD8Ka64daP4SqPsnYvE6JQL+G4BKmnDsiNKN4Lu1jjAC5cfAGPH3HjSkYkBqPZBYC7djKdC+CFayBsn0FrhIcDIluasU3xJkxe5ybt1hhDcL1WH/n1tNPSCZd64ssGISOPJ5lyKyw6NAcGckHeCmdxbirudnC033bAkeEfRlAaMYrj1tL9x+QvZmACxfUouzz3nUXbisTqMsI4VvmMSL7yWviVtatD5jiZQ1pF8kefFhy4yjDq8PlpeFdM22QaKXBFRJy0X95tiG259q+vC/HyU2dgNUMuOX3SpLbZelkj1/F1BRnKpo3Kho4PW7eu1dXGbeWxjQYVDLJRFQJyUAxzJw/3Nl9m0v9nGjmmlqgQB0kZflHFg5M8TmL3q6kQk5dGg/HH7weFx7wwkIUa8n5bWhE9jj7y+hdlMTt6SYiSYHWBxT3hYJfJnAwxccgfP26s/Oabd8htTqy6HZSc4RYTrP0nyWEyMLqLrzrf7ITupbxPlcFn4vPNYkmO0qx0VogMnDsBFl98NEywBbhxmqhFE0Bkb59tCjY4DwdoBBCgA9vVJA8me4mz9DuvEjpNONLLDOmRuZZ8attjyWS86f1A2J34DGMrVkhRfDLNoRRvWBQPG+AAq3cm1dQOdiuK3fwWpbinSiFrA2MyFBl2RwMutKECvVi8m+sFwrJkOEUJ7/H3nG2/Jd9bLUeKvHE6EHayAy9ApoVWewI748fyOmP/45mtrjGQFJbw6LyUrVGVYCd54zFVcctlPOlfz84yqcce7jWLVqI0zWcSjA3L9c8jJ5PJwfSe8l43Fr53HRxFl7Lwwcdmh7sKjYZMqJjAjqaiDNuJVru5bf/MSWzz7+zqY6P9nQQcq7SL307tq5q6x0LhuqRDayn6JKT1CD6TLzV9S/TyDy7oPVO1RWmY8XB02dWOQUp6IdnHjdVjqAGS9F4zc91z8dQrCIsIotPG/C5wIVlahQ9XXfvr1w0L5jcfOdp6IkqxV1UwrY7ZpXsKqmgWvwsKCXACqPgyOEzm1qwFiCT285CaMrKOjXgkTNDXCaP4FBi5rJwEotdHURbgNQ/d5dV40niOmTfwllLxZBExCOrqSfEnhQbI+PfQEC0QHQi3cBek0CgmNYtmjbtJXSQPw7oO5lJNp+QdpqZCqeOnXrzstV2hpQdeNHidviuXCqkyNPNAQjNApm9bHQKv+07dfrtgGJZUDLj0DHz0jGlsGyOuAiLVxEajsmreutA1X2avZ4ZdsCOL/3M9lAJeaVV4VI4UTdRah4J2DU04wdtGJzGic9/TXmzV8haB3CYvU2P97YIajbuH/avph+QG72/MvPF+Hc82egbkMjC9sEgiHWFs0HVCKCwBRFRfG9k46lD9vbTB49cZ65/74IRguIk8SbjlKMKp608cuS9vnXPbxl9rxlIGuC3LyeXD9JT8gOpku3b5uBSuVSSaAqqCgOFL7zcPXIAdXGQ4Vhsywc1KETSY2sKehIJU33hbciHf94tjqtpcLlWjDEM895gEo+Y+JFEUWhtKII+00eizvuOR29q/z9yDpsYO8b3sTPS+s4HUHJWvHjiNGlmEoqgT/tux1e+dvBvHY9PR/x1ZdAa28SrozM9km3RF5J1qRW15xvYvUwO1UPybfb+b/j+5hnEagoyJ1lWS0oHSdajCRREqSK/dLxQNVkgKwmYyAA4mD8Bkleaw6c9a/Dbv4WKa0FGqW3aZqw7iri3J6VKm3hrI0mxygUX8gzdlxriw5N8SYe9yI3xzTCCETGAv2OBUr232bFAXapdgvgrAViS2G3zYfeshiJZAMcOwldt1kTXI2JD4pFvVVgUS3BHubF796wfE6FN3WlWejtZ8TgIIsnGIE+6kYgdCRTmL7245W498UveMdwGZ/LSiJFgxoeOm8qztp7dM7dvvPOj7jk0pnYsrmZuXyhUIj9zNx1psaP58U1OJbr6nq7feYRVvKwCcv0XXcxQ2bIIXFptm7TlotUEs6X8+LfXHZv3U8bt0Cy0SVQyfIZ+kkApcao8rVz36pFRcOvZv5k1o9+UpyqIBpA4asPDR04drB7Y1HY2D4SNplmP8WGaFIkYob79uehjpueG5hsbQpXGqEgAyoe/MzdbblpSc0qbUSKwth3jzG45Y6TMGIYyWRkXkkXOPSuD/H53BVAiOqj8lhUdDDqpmslcOlpe+KB43bjB3CIjT4dgVgr724lXFB+NWqJTJZFtTWgUtEm7wLwC7eoH/HWP8NXAQpiZ5RRPfZtnai/dJkGTLMMZslwoHJPoGQvAMP57dFtC6kr3g15K6/0fLg1MxFvmYu0HgNj5rAe64KEyYaFJxY8ebqsR5fNvJEwQC51Zg3Ljs/ycNz1z+Ay14ai0IBBjU4DURgF44E+JwClUwVTJv+9UE08bwvP71dyakCbubMAaPwGVsMPSMY3AU6cn5XO412oYpT4TqGqlmbekHMl52q6MSC7fQJ59sLsGeg9BU1HMKAjMOICoPAswAnizUVbcML97yDdmeKxKl/el/eSLCktwBPn7o0Tdh2SMxle+M/XuPbv/0ZzQwsM00QwSEDl2ekCOEUZPq1p6p+YdlBUkLIvPXZT+pDdVmPUsJIQDJs9XIu68VBX6wTSr37W+fHVD+bAPfoAACAASURBVNUvTsSZJaU2dOiuzi87kJ7NSvdGN3tOZwOVSvpkmb9AAEVP3TSo95Tx+mWFUWO/wqjpmiYvQCGgisU09/O5gY77Xx3YtWB5Qe9QKMhqAtlGKoFK3XRFjIq4VJrpYp/J43HDjcdip52G+Z413cE5T32HZ9/9kQOVspj4wxIHJQkWJ4VLTpqCB47bRQx8K9Jrrofd/hlcQjzPVGa5V68OSxw0e3bmn3NbRQP6mli0koDNjqSYKOxfQmJXdsFhzUz5DhcwQgiSQFvlHkAl0QdGCTpb5pJoXFIukEgBDS0OrGQM/aoLUZpX2PRXOGufQbLhc1haO3SKaRHAycQtuzRuTWWuVKTPpYqmd2qFue6jMEgRQAEhQqk0Ayk8i0iuBvMs2al4soUFyHUNhl4APbgdjAGHA6UH5MSwaAteW1OP1jRQUVmF8lKN6ePL9HTm0dDGvhZo/xGon4NU+2qkrVZoSMMhQGUbqJw76q6jqF54hX3ZllaeCfBbQMv3dT8MUlMUaqxB6B0oHo7QsFuB4A5s5F9d3IiT73kD6c60ACr5zGgy8Wz3oMHVePy0XXDw9gN5gly86FE/+vhHuPO219Da1AIzGEQoGMzKIMoNirO7GBDFbVT3dZx/nLDUmrp3s9artNDUdb5NUBKMOu7EY1psxtsdH9zx5JYVop9fNlCpZE8ZTJdBdNF1hHGv1IzfVoEqX72fzPwVXHVmn9Jzjg5Oi4YDJxQVBNwg9R5ncisaknEX85e4bU++P7jrna+Ke4eDEYNnFYSgv5JqkxkFGhJSDHVcC5N2GYvrrj0SU6dOyAGqW99YhFue+RQICzkwsev7dhXmVFsYO6wSz116JCb2E7VP8Z+AmmuR6NzA2FPMzVFSvD7TV8UT9SryzE3/n/JYjD71EP4PXkRKv/OmC8wY0jXoxGEyixExBwMVY4HSHYEQgW2mSJue5KY2YFWdg00NLXBBTQG60NHYjN4FYYwfPRJjRhQi6E1QC277XGDzK0i0foek1oEAcd+oPpJdLq/sZ78ybFF1I3iDAck2Yy4UawKhzH7llr1vyhpOzeWNhymNTXEpHyGLJzRUC0un47LicLJ8uMKmER0Do9/JQAVZWBx96Vubm4H5K2qwdmMjHCOCaEERygpLUFYQQd/KIHqXAyUhle9II7cc6PgWaJoPq7MGabsRtpXg8tZMY0yOhALW7H57asydmQHeGMo54/fk/Rug9zUO6PKfBOCsbM4BzEgEkeE3AcVHsu9uarNxxjOz8dGcpbxldPZ8ZHPfxq47jMLdfx6FvccM8hE+OxNx/POfH+Gh+95GR1s7guEI69rtpzqITJ8I95KnQ12lhw3R3LvPWe5MntymRRDiXHaXdN5s1qy1o91tufM/be//66WmGoU3JS0rWT6j0hOkYoIEK1lCo8ao1G3Rhwd8lmTcv2yLihCicN+JkYInru91QqTAnF4cDWhkNLExIgROa6hZl2z79+fD44+/UVClWxHdCBD7VTBolYktHyy5fql0GraVxphxQ3HDtUfjyKOE2yYuj0z9J79cg+kPvQuY5IkKMyB7dng7dBp7ThiJFy44EANZ+QyAtteADQ8gQRLC0sVXFEb8MJNTQeobKHUu5r4hpIbFAaUhSRalS6JrMFjTBgdkdkcRDJXDJOoAizdNBMAJquqrMwH8uhmYvzaBVRsbkbBiSHQ1w463ol9FGQ6ZsjN2Hm76FR2dH+GueRFJcoOMVu5+O6TRLgvmZZW8PJPqqtKEJTVMAlINplYFTQ/BstezOkm2Bj0LLHOlZA0yT1W3YWgVsMwqaPE11AqckUz5Sw6MgCnPwpZtonh7cR7DIo2xQrjh3REcfDRQQPOCiiR4tHb5JuCrOQvxa81qpPQwiourUFpYhpKCAgytLsaEUREMpO5aOSNKc+AnoHEu0LYMic46WHY7NCoGcai5riKux/CbzzdZXN+d8eS3uwSSqMkeefsKUEmYYlYmowNYMMwIIkOnA5XT2JJMpoHzn/8ez3/yM+y0xcdSAr93Ug78R+6zI/5x4EDsPIIy3plXTe1mPDnzSzz6zw+QjscQiRZwty9rc2LXIJxqImKn0yl3uxGW+8BlK7RddkpohhUAKfwy1QTHRZKaUzQ6dVc/3vLh25+1bVKaOqhAld3TT7p92UBF08ennEB3kI3J+YBK5VIRJSnauxyFHzw6YGplZeC64ogZoYA6HYt2TZrcbW1215tf9XJuebpXUUdnAUJB8g357irjqcp0ZW5AKplkwlwDhvTD9VcfjdNOp7R15kVA9fLc9TjzofeZT8zKaLz15dvWhcoifSSI4w+ciMeP3x6lzLCygC3PwNr0FKwUjSH36dU4VXcT0D9QuaaVNN7Z0bxCU9FggbUcslnSQTNCMM1e0AuHAiW7ACXjAHMQAP+koqttdYAfV9j4+pd1WLp+M+oTnYyzQi3DqiMmxg+rxsQxw7HTuCj6epcUA+KzgQ1vI978I1JoZUlSg6gBws3JZLUyC4n9Jv8p3D+ykAmoCqumQu9PMZIwnC2voqvuZRg6Leis0eLVCXACIQSKRiI07G+AMQDY8h7SNQ/DdhJwSIPJo6n4K8zYsLEZyC+E0RnYy2HZWs0sRDA6Guh1BNDrcC9LSID1w4o4Ppu3HIvX1IIyxMTA1xBAcagAw/pUYfKo/thxRBgDSPo8B7S2AM5qoP1XuK2/wkoshpXYAifVxbrccEkWUQIrVTbyGDTKhPRFjvyn82wnb8Al6DNrijWh0FEw+FSg99WcM+gCN727Gne99BnvQsN8VtETWKU2uFx19+zDJ+HK/QZiRD9RiC8u4IefluKll37AjBmzWDenSCQqwh6Z3gee8SA2IgIqy7Gd8SNS7kPXLNO2H5vSA+kAHPKAHE24fra7YVN61fR7Gj6eMz8uM35SNUHGp1Sgyi5IzqYm/CagknV/OUAVCaDwtX/2337c8MAthdFAn0iAZW9YboXo+LajpT+fW6Bd/lB/s7a+ECwzyDYkGbBVHp1QEbSos2wqicq+5bj2quMw7dz9fRZp2gE+WrgZf33sIzQ1dfBWQd7KyuzQMgjMXAhXR7g4iguP2ge3H9wX5I7DTQJbHkBy08twUjGvU4ssIfAH17OwXC32z6Akvy/hhnKTmICJSfWwvxuBAgQLh0AvHg8UjgFCI4DA0LzZrVpyadY7+KGmCXNXbsbqtTVIW3HWbFgP2KgqLcUeIwfhiF1GYuIIU3EKqQnpt8D6WUg1zkbKbWa98lhJmFSjFBZQbohfhm+5y0PlUFQvTNceLJyI0Jh7AENM+o4l6Fx6DnQKWrPPZJ6lzFE6Wgjm8FsQrOAuCxNu3HAvYptmQrOEwa5Q4HI2B1ks7Q2/IPbS+Bs6gmYBzNAYoPehQAVJofAMMa2En9a6mDX3V8xeVoP61hiTJzGMCEKGiYqyMozsX4nJI3pjp1FFIHEBv6Y4XQmtqzogvhxoXQS7dSmSsfVwrSbWzcZmGmbcReT0QX4jqowRvx95V/5/ZYOWZ5kyj4SrgRb2OQgYcgd3+R1g5nf1uPr5j9HU3C5klURsVT0YM6YcBIIarjpuMi7ZZzB6lWdCBvT2px/Px8tv/Ijnn/0E4UCAZfzkButFUcQxJX/YJoKjm7Z2HJG077lyqbn9GNs0bBOORWRPKi10kUxa9vJ16cVn3Fr3+ao1jgSobKCSMSrRxNKnQyVjVHmpCVmrkI+32NOy+VS0xFVdqsJnbx84ZN9dzesLI8b20QCTntPIhGRMddN05y8IuOfe2V9buq5Ui1KsgGIwjEkul4mwZESwkuSI08kUoiUFuPKK43DxBfshHMlEhOkOZi+px7QX5mD5svVAkC5HxlkUoJJ3wejZHMyKy8tx1yn74Pzdy4QP0AG39kbE6mexEhEeMvLrH8kHqOBRRkNJghLbXUVejBHiyWVwoBEjPEiSs6OAiolAZCcgMgqwi3lbc+VFdu6qTuDzhe2Y9cNKLFq5DlvaWuEaYTiBKIK6C9PpQK/iQuy1/RCcsvd4TBpqiGgNHYhKJt4H1r+GWNcypOwuBHQHFOskl5oXXnMAyrmnrHYS3HHgLh+VGEWig2COehwIK4mNrsXoWDwNOhqgec0G+bPkMs5UTa8jNPR2BPoerdxpK6y1VyLR8Ck0Jyj4upJd7c9dqejH41j8JZMMvBTIRBBhGOGhQPWRQC86V8ZWWlwPvDxnOT6cswzrmhJIkzOnmTxWBgdRM4zh1b1xwMSROGh8Ibbvnw1adEYau07A3QJ0LgEav4bT8TNSqXrYdppLoDDlB1Ka8OdoMjfuBywPwoRry+R+GfZx5c+CygnQhj4MGNXs9J8u68C0pz7EmlriUDKk9jbFzDnEODoWQlEDd562L6btNRTRcGY8UmkH770zB8/9ezbef/97FEajYDJMcmw9a5qPNONVuYx17gZ1N7XTiNb0vVevCo4cagd0W9ccm3fOTqVdJJJW8ufl8Z9OuW7TnOYWjzultshSJV5UoOqOQ8XU5NRXtg8jgYp+ypo/SfyUTR4YQ/2ey/r2OfGQ4OWhsLF3NKi7OkVK6f9U/xcIuIsWuu55d/V3fl5drkUCMAxiwCpWh5cFEhYVjQuZtWbIwPQLjsK5Z03CoMEZd4gGdN6qBlz+0o/4et5agMkVC0smx9AWPgRrnUEP0cDA4f3w1Jn74sDR8uE1wl37DyRaZ7NCTi/PI1LyfEJ5j9FbKplFJLIjQsnV1E2EivoD1fsBxbsBGon/kZA/j6eoL3JjF9QCby1qxie/rMaydZvR2d4K107yfpJB0hwyoRsuxvSvwjG7j8D+o/tj4tCAH6DcL4HV/0G89RdYToI3oyDgZfuGEk8RlpRY7eJScmGLBXEZ4NgwzUKER/0TKN5TufQ0sPlFtK99EKZGiRsRaFZXH2X0LBuhisNhjr7Pf+POWqQWX4RUaim0tCEqGvwZ9hxrT8kU89vg1ir/1YBu6AiQhRUcCvQ+GKg41jfmm2LAGz/W4z/fLMWiNZtBHYtNPcgWmQ0DhqYjHI5izIAqTBnfHweNr8CkIQbK8tLRyOIhQ2El0ELxre+Rbl2JtNMJh2gkFJFg9Axl3mRRcog/JgX0hBY3T+5oNqJF46CNvh/QydoGfliTxMXPfYTvl9UpbrZcsiKOIh8qLSA7jaKSEB6adgBO332oL66TiKXxxhtz8MAj72Lhz2tQWEjxKeq/Qu6i9AiEpqeHraw6wikt1FKTR9Wlbr9yQ6RPLyvg6VAxRrqLro5U+2c/xeeec1v9z1bK6+Ena/zyURMIrGQwPVsrXcaotgpUqlUlC5Mlj4pWOQOqq0+tqrj09MKz9YD252iA5F5cpmtDRch6IOQuXgz70nv7JL5f3ksPmU7EMIOs8TSzXLJLacSuQqlO2kFPPf0gnHjcOEyZwlOy8vXrukbc/M4CvPLlcrEKJfFTrhSZnlEmCjMmDdbmfdKOI/HCOZMxopfcPmqBmhsQJ4azEOGX2eoMc10mz2n6USA6cz26WYBQpC+0KJEVpwImlSzIyL1/jbY5wC91wKcL6vHBvLVYtGYj0jEqhXAF6DowqD02BVINoG9lJU7ebzzO22cI+vsqTKg30nvAulfQlVgKy0oyU5dKH70mFOL22Y/u2OVKWQ7/nCgVpAPpBgpHXA+Uney/CXsTkssvQbpzMXTWnVgQZ31rhiDfgh7oC3OHF2Fo/thbuus76KuuRjJFJTCGiOdlW1a5MUB5IR5plDOwRIqerAwDIS0AIzQEqD4eqDhMTFX+zZgDvPlLE+5/8wf8vKIeLmXNAmFOQCPrm9FU0giHwhjcpwL77jgCB4zvix2rDfSpgNcUxD8gBNbLgaYvgIZvEY/VsSazjptig8nCbUogXeYUOaeLH4nNM91GtGQ09GEPAOYw9t7GZuDc577ErB9WwCZuoK8IWcTxlAw6R940elUV4qnpB+HICf5xb29L4IV/z8ZNt/wHXe1diEbD0FSgEuw3HkiXCWHeh3r44JB1yPjvE5eemywoDFOXCtrLiOQBdMZtN9aern/mrbZvb3+6ldq4y9IZVTEhm5ogOyRLkJIaVKpyQo9AxTaqLNKnalERUNF/xScfXFJ672XlxyConRUJmKFAgI8l7XAEVGuWW+mrH+nT/sWS6pBpoRBmgDPU2QLJmPPcbuGmppXmDPUjj9kLfzluPA4/zF9UWbulHf/34RI88eEiWCRnwTIxkuEo3A9vEijRTpqIFll7IRy41wQ8dfKOLKjKX3Vw1t8Dq/lL2EmaePL6OMPGEYYls9GMIEKRShjFo4Cq/QR1gGro8rPB69qBuSs78fL89fj8lzVoamjgKmN0PcyEpxy0BpicR2QEyILqg5P2GYcTd+2LQT5yPrnxc4FVz6GzZS5sNw1TitsxxTUlfSlcuMwwy7HJLHd13rO1RBsyAYypI9zvTOh9r/GvSbbaP0R82dVwqKU4cZ5Y6/ms7J+IypObHx50PlB1Yc5x3Kb/wK67D+kU9Uz0Yvx85ikZp9wLkBuSWOT0g6EBuXXECWNZA5hUUkQtqqqPAMqO8FlYZBO9tzSFe975CfOW1iBJMTNaHnFeA8p5ZTSRTegBA30rS7HdqEE4YvsKTB1bjgG9DUR9+uLqVW4AuuYCrXPgNK9EKrUFttsJOFTaI4qHWNqfaB7ciiF+d6RoAvSR9wA6JVWA9k7gmlfn4tnPFyMey0PslJkPNZBOPEQriYGDK/HshQdin5F+dc/W5jgefPRj3Pl/L8J0gWg04vHZZA6YuaHK42BSSHbS3WtyoX3OnrOTe+2DSNDk/U8o45dyNXR1pZzmBnvtNY9s+ur92dSll8m8Z4NUPtdPzfblq/PbZqBSVRRUXSoCqoJdtjdLX7tr6L56yJpWEDT7UKCaNbQwiLQXQOsWK3XdY2VNHy8ZUdje6BTpVCWcF6gEgrNGpNTaPYVddx+HaWdPwTHH7omQ0oyvI2bhgY8W4t43fkZXLMFFc3lXSPFStnYeNcv8nXZQOwQ9HMLBU8bh0eN3wGCZFHFb4Gx8GKmGt+AmYxw6qXaRYiGBIgRDg2CUjQUKtgMKxwnTPOP/02bWEAc2tgKrGtrxc20zflmzBYvXbER9cysjzPF+bxJQbMAIEsEIMB0EC8IY2b8vztx/HE7epQpVPrJmA9D5OdxNHyJO2agUNZeU2USekcrE6pRYTzY28e3bS2lnOE8iRkIOiAYU9DkQ+uAH8oJvYuOdSK9/nkv7iPhXtgPJYkqaAYMKw6PDYY57M+dYjDe38S6k619klQSMm6XyzfzeYH68Uh+5GAPqbsw0t1iwW0fACMCMDAOqjgEqSJspE1wmv+TDJW0MDOYsqUVLRxIgMjDT1JWxTxFeIHZ40EBVcQhj+/fGmIFVmDikHBMGlGNgLw2FRH/LFiDARsBayjhbaPkFqdQGpNPNcKgzMWmlCaJvtGJHaMPuA/Q+DDBbE8ANby/A0x/NQ1dnUoYX+d3KuJY335XNybKg2ymMH9sfz0w/ADsM8KtjNG7uxHW3voKnnngTBeEoC6Sz8RIH5nHajDXFGwM7btBJ4+SjU84VJy2yi0q0QMhgWilMTDRlu25XPOWsX+cuPf7adZ9vqEeDcOkImFTXL5+yp9p5JhuoVEvGu/V8E0GClMz8qa2zmNpnVRWKP3hw5A69K1LnhQPmuHBEh2kym4qZ405Ks/75nNH03qLxBUuWGoVMBI1iWNweFgFsZWdkCqwcqKoHVOHqy4/EccdPQklxRqyern7GZ8tw44vfo6WlHZas9/O14VDdBnG/cgcikqOtQQ8XYK+Jo3HfMdtjpyESFRJAx9Owa9+Fk2yHphXDrJwEVO8PGNv7SJfsql2goQ1Y15DG4qYEFm1oxncr6rC8pg4tLWQ5EYAaGZlkn8VD7l4AxcVhbD+kAodNGoWTJw7CAF/znU7Amg1n3dtINM1BWosxHS22nanTy7PTswPSCnZnDCke1hP/ZqNDSR2NirQdFJbtBIx+XMTWskiOdgsSC05GKr0eJju/jHdmx/G4hUNAphOdYMLz0M2xzFBptyyUUBkDw8wu2DVXI9n8NaNbiHSMTw9PNRi6RSt+MLGGpVKgEGok5NUdBI0oDEpo9D0SKNoL0DOmalsaeH9xC17+dhnmLK1DY0cabtIGyLpm84sIkaJUhTTM2DE1lBUXYPCgauw6rAqTBldiaHUp+pZp6FcOZnH5XwnA/oXJ57gNvyAR3wLN1RGonAxj0HRAq2LDuaUduPuDnzDj04XoIuD0wNgjcPnTrHIissdhse7IU3cbhcfOmIzhvUt9l7BuVT3Ov+Q5fPLRtwhHowiTZeEJ5ik1pQpYOZbt6lYal53Z7F593kbN6bI0AjC6PUoGxi3bTSUc+4fF7vxjr6n50kqyAJ5s6pAPqLIzfjLbJ4Eqp8bPtx/lmQQqUMniZF+cKhBF9O+nVQ0844joheFwYO+CsK4H2BzkD9LUNeerH62ux94fEfhydnmYSgJITkLW2an8Z7Hu2QJMJZLQTRd/v+YUnHHmnqjKap317vxaXDjzG2yoa4RL8hQMG9WZkT1LJFiJv7OYVRBaMIiRw/riruN2xVE7yCAQjdMCIfdKAU3/wya3YUM7MGdVEl8vX48la9Zic3M7mmMptHamYSdptxT/MatDooIALXL1HAsF0SCmTBiD4/Ycib2H98Jw3+bXAsS+QGrtm0jGf4XjxpgiKevLS4vf2/lknK0HgyNnwcjKPX4Qylgx7o6WRGHRIGijHwWMscz9Wbi8AdHSAPr1LkVEd2DHvkFs0WXQNZpb0pLjKXHVouMoyItZ6Zqjg84B+lzCNLUXraxHVWkY1ZUlzON1nRpYyy9DsnMZj3lJo0G5pW0CK3UIFGuD3EFWe0gWlqvDDES5hUVKDZWHA3rm+dbHgS+WN+K1uavw7a912NzYBkZaYzE+nq1WeXfslAbVJ+qgrHZ5USH6VpRgeN8+2G3kQOw5uoRZ7EU5lhbRjIgTSeXyPGhOr3mrU/jH65/jkwXrYZH4FANgUT2RHZ9S71cOkJVGIKDjxP3H467jdkJ1WSawSVf+y/zV+OtZT2Dp4pUoLCyESZ2uhDoCf2J8A2QxM/E/x3ZdPZ1yrz9/o3vhuQ0GwRB1SOf5FteNU41f0km9+mni60vv3vST0glZEj2ltItKTcjuPKMqe/4uoFKLk7O5VCxWNaQaJe890v+S6l4FRxgmDOa/ioQ9yb+0dMK+/ol+7puf9jXTCdphJdmPj7TP9hGuWjKRRCrZhWnnHYdrrjoUfft7wST2nfnrWnD6o19gyYo6uJQiY66fPJJyRMUL9GwNaVlRLIMsHjOEXn0qcNVhO+OSvfsgkMsERNwC5te6+GFlI36sbca6zY2obWpBU3s7Yl0dAKXwJNKyuSyVQ2XsjICUz9bSkiCmbDcUx+0xCvuO6I1+ZWqFQwxIfwGn5h3Emn+AhU7QcPKGqHK8pEsiTpljICszOC9IyUvlx2GNyBn3phzhEbcCxVRXB8xZGsfns7/H8SfsgwHFQMi1kN50A+K1byHEDH8WuVeyolm+msgikTsXKBgJc9yrcBHAt0s7sbJ2HXbabgi27xfloJv+Cdbyq5DqquN7mHyWyrBm7spnC6rL1ftd8oHInWSbGLPeeZaQYaqusSyhHhoCo/ogoPQIQM9oddV1AV+tasGsX2rx0Q/LsKWpi8etHIrLyVkr0IdZWAJMWNjDQCQcRWlxKfqUl2BwdSXG9C/DnsNLsMuIICr8EmveNb/6UxNue/kTLK5tgmMr7H3vGeY8TPFdaf5QIN1CcWkRzjtwLK47fAcUkz8qXum0i08/+wV/PWcGOhrbECkIiXImX35SCfDLsInmINWVvuPSGvv0E9qiWoKInhanU7D60rSTjrsdtzzbOuvxl1pWC1UESUvorjtyPqBSa/x88i7yHrobAcmj6q7mj0YhFAAiX/97wBljhkZP1RyXAm3ChiSKAlcOvOmJEnvG6/11O21qjF8knWE2c0T9Hyto5vEbIn7Gk5045OApuPvuUzBqlF9FoaYxhjNmfImv5q2BK+VecnYtdWv2IZYXsOW0BZO5YMHCCA6bPBr/OGw0xlYFQfHLn+uBTxY3YfbCZVi5bj06Y0kkHZeFMIhDQroWPICt2gHMKOZjS+Ak4mfRaAh7bj8S0w4ah72GlaDCxzJMA8n3GM2gK7GcZXi4YA63diSb30tB9ARO+ZauamGI91kFAcMaG0YgjOiwS4CyM9m769uBKx/5ACVlBbj+zL3RlzhwqU1IrjgF6cRGBNjt8Z03v7Mp9ma2f1BGK4rITv+Cpu2Atc3Afe/8glisERceuid2Gix2hsSHsFfcjGRXEw+MMzzIgHLmlvNNV/+7qiPKE57q+0LAjxJXTMDPQDDaH6g8Eqg6DtAyFhalVRZssvDwe/Pw3pxlaO+kDK04v28pcUuLRXvYw6KnR0oXAeY1kulYHAliYGUVdhszHEdPrMbEYQGUGUBTl427P1yCf82ah+aOOKfSiHXB3c48brX3jJWgnihGHjy4Hy7adxAuOWSij67X3pnAf1/6Blde+Rzj15kB0T1KGR32NL2h4iAfMgzH0Ro7/nVDrXHgHh2FSAdhOwRUROqGS0CVirmNJ9+67u2v5tiNSsZPlR+W7bHUpqNS2kW6fPRTWlO/CaiEvetJvmTLvchmD9FPnhx0wMRxwctgo4SwicXaGE1BZ6Uz9z8TjN/xQpUOpzzoaAFPkzODlDx4ydjcdLW2g3iiE9ttNxSPPnw+dtvdr6LQ2J7ExS98h5e/XM6yJ9LVyFhV27KS6TPCNRMxh0BxMbbr3xdRU0dDexJNsQ50dXSwVvM8nUyBVsrY5dnq2Z9EJSmrV+GkvOKoiT1JB36/Cdh3WDF6UaJFnWj2B8DyZ9DVsQSObkF3uL68mK1eqSrPcPtzpTmYlI0b8t9isWZsEU4BZcxz3URRv79AG3Ad3n6DJAAAIABJREFUOxxtazf+dzne+GYe9t9tJG49bSJzft32t9G5+ibotgWSn5Uk0vzd9mSNJE12vt9Fqv8CfcD1LB308CcNmPHm+9h57Ag8eNpk9GXhohTQ9G8kah6Ak6L5zBsOZEZCxZv8e6v6aXUGsPpKVb2CLX6RLRZ6WIYZghkeAL3PYUD5X3xqDbSC5q5L4clPFuLDOYu5uiZ9n/WKEvPCyzwzhBVtxvjvtJlSiIIkVUzDQGHIQL+KIgypLkZtQxsW19QjRdIXEpglWvhuM/ue5RyUYOWwRNZO44bib1P74y9TKKaaedXXt+Du+9/GjEdnIRQIwjCpLEdYnIpnI6szGIlZ1xEOBZ2yyOrWNx/YVNiv2g6SeizTjiOgsuGmUimrqdVZe8iF62bVbPQajVKcigZJgpUEKjU+lY9Dpbp9OYu4O4tKBSqabQRUshkp/S7bZxU+e+uAMYftG7zBdNDfYC/KFFPQnIh4Jt75WGu94P7StOUMKndcw2BRErGw1ZPLQaIgXTKVREl5BE8+8jcccug4GIzcyV8dXWnc9NZ8zPhkGWJdZF3yCeEBFt+SctZxzqxnpp1aFi8CpiLgzxoi0NNgh5MmNgdV7yUbm9EfWI2QBjMcQEk0iLEDqnHugdvjmJ37IOojo6cB+2NgxUx0xpbBJnIla1zAXSqfEeC5Gt3fjveOCky+lZqhULLIkrgVSi8XVE5BYOSD3sKc8XUL7n7lK6aic+Uxe+DMKTwtmlp7MRJNX/EWYxSDE0lsZQPOjL9nBHCgomE2QyMRHP8si/nNXQ+ced9raIw5OP2QXXDbkUPAVadjcLfcj+T65+Gk+HeZeql4nL4nml3vkTM8PW1W4j12aJ0DIrH4qVxIN2EWDQF6/RkoP9SnK08mwE/rk5j52SK89d1SNLe1c6UH4t/JOJbsL6lMEX4aXlrGbC/RUdibs+xesuJ8Ykr75pq3EakbpQBKx0YwFMKeOw7FXUeNwsSRJKKYea1auRHnTf8X5n67FJFIKFPMnMkZi3ku147LiMdFUcM9fMryzlsvayw0HFZ3wq6fHArLgmtZVvKLnzrmnnJjw0+puE/Rc2tApWqkq4F0bp7mWcDdAZVanJyd+VNLaQpuOn9A9QV/Ma8KuNpEzTACgYCu8xZa9HACWL3SbT/5tpL2Da0j++oJ6ExdxLMxFR6y8KLoPeqOoQUs3HX7dBx77Dj0qsyQKIk+9dBHC3D/xyuwcXOD2IlUikI3kzTb4vBZ1cIl8OROhPsmQUk9JBtGhWZAx6XdMhRCn5IIxg7sg0MmjcGJE/ugt6+7dhpwvgFW/gtdHfMZQBnMghIZHY/2JVsXbQM4ZX8kYzYpca3MjbI8ArGnYSEQHo3Q+BmA2Y8d5eMlnbjgsY9Q15XGHmP64qGz9sJ2LHSzFF0/nwXX7mRyLewAPjTNkDXlSaXtx4GKXOAyhMb9H/TwHmw2n3T/95g1dxkq+vTCzSfsgbMnC5crvQHYeDfizZ/ASVhgsi/KPbGYU3f7UPbz7Waz4h+T5VJi3kiAoaC7Tos0CCMyFEbfw4GSowAtM/9oDH/aDNz99vf44vtFaIvbcFIWb/4ps9CS6S0Bx6uvkWwDrkWfuRdlgvkC51mIJy13dQzYZmkhUlCAgycOw4zTd0ZVqV8dd/78NTjy6DvR3hJDOMzr+/JrpPPR4WVhafQqd/DCdcuS48YlQ67Fy6rouiksS1Q6uHbsgrs3vfbyB7EN3CxmVpXkTKlZP9XtkzEq2vHUXn4qo26bLapsoFIzfzL7xyRfDtiztPCFm3udpun2cUHdKAwEdI1UAhhvmB6cZaQufaCs5Y2fhvTS210BVBkJFZ9VxR4A1+NJphM46cSDcdWVUzFiuH+HeOO7VbjhveVYsrKW+/E+0NnGBZ4HqLwAlsR0OfmZIaWSKqVl5UAP6uhVVoxdRg7BsZMG4+Dt+6G3j0m+Cej4FPaGdxFPLIVtp2Ayng93d2UMKqNo0M315yzErM+J90UXbgWoMjw1hq+OjXC4EoHRDwIFk9hBVjYCx9z+HlbWdyBQoOO8Q3bGzccM5zLOLTPQsepx6K5w+ZRNhl9BlhyOmqZjmxXx54II9jkCxkBSAwjjqbntuPTRD5G2NQzoU4pHz94XB48VpNn4EtgbbkaidQGzMhn5XZkk/LFlnzNPutAbnp6sK/+xWUyN/sT2KRLwMxGMDAaqDgd6/QnQM/I7pGwxe0UHPpy3Gp/NX4EV6zcztjY/gKjHky6hvP5cF0IJDEmOm0S3LOudPV/lXiRoCQutsLQYJ04ZiUdP25V5Murr5Ve/wzlnP8CIsMS7lqGWblcK6fEjjYHVcXvWw2vdomjC1JksEkm7cN05yyUNKqdlyl9rnq3d4hAoSaCSrh79rbsav2xaQt7OM+r1dWdR0d+zJV9ULpV0/6LRYgQ+fnTIpFGDcZvuBIqDAaqi4XIvdISoaeC92cH26Y+NKIo1RjghVxlzj7Co2HtkXpJY1/DRA/DsU+dhwg5DfGO6ZF0zLvz3D/hy4YZMNkZ4ct0PfrZB2d2tqwxvdQcXgM8KtRwgYKJPeQF2HNEXh+wyEsdMGIB+vo2sGYh/Anf9h4i3z4eFBAwGUDKzJagCrAB4G8B1G4FKXdTyDilRwbPrFoLEbRp+C1BOjG2+pR1xz1x8/P1KxkEtryzAM5ccgUOG0WS3kFozDYnmH2B6Lkuea5VrygN05TMsOK5DDw9EaMJjAAajthPY/9bPsLKmAZptYdSoAXj9or2ZmgE7BAH7+juRim8UBEx5PNUeEmFBiTXZ4+P7t3qB/uvPZAkzST3erkqY+KzJQph18zGrD+Zdc0i6Rry2JIF5NQl8MH853puzCOsbu+AQD4u17xGcMqYdxXbhDNh4lqJ4+L7pmOdhswtVgSoTjjA0B8UVJfjbweNw/dG5nWeuvfpFPPzImwhFCtnGmHe6scNxniN5REmrC+NHbGp/9+H2oqCb1lyKT1JwQlhUFPtbtjq9dvJZNS9bKTaNCKDIolKZ6dlApWb8pEWlls3kDaRL6M63SuSyV7N/aoxKbUoaOP3Y8soHLil/2naNfmGTZDVISpVrmodDBjbUh6zDLu/rbNhUHqQgllrrlAEqRZuI3D/SUI9oeO6Zy3HQwX61z66Eg3Oe/hKvfL0GNqWNeU8nP98h+65ynr3yB9Wklju2mFeS+M2PTwF1C2UlBThs8g44ftJQTBxcij4+C2oL0P4O0mvfRixZA2gWr8Vj3ErJg+Kz8g9bUco95rOk2DlkksJxWEA3Onw6UD7d++ZVr9biwde/RjqVZs0QJu46Cm9cMQX9WCZ1HTqpF2K6BQalO/Mhao41qwI9fy7MUtGiiI6+HSgiCoSBaS+vxJMvzWZETzdUgCP3GYUZJ04A8RQdYj82/gfWxsdgJykWlHvuvJaVfGaqUZJ3D/C+nbtoJaCwpyMAhuVsqDVcCIFINZdH7n0sYPJ6OjpaYxL4tT6Jd39ajbe+XYrV6+uFDI7U9lfF7FWokD6/h1z5dy0vLie+61lUVCOqoapPCR45eQ8cMynDzWIbUcrGnw67A3PnLkU4TL0G+ODkAysG50JvK2HF0yccsKn9wataKvQ0EYIp4C9ySqw8UsPrH7V/ffbNm77LYqOrjRxUoMrWoOoOqPLef3dmBX1YBanu4lQsqF4Shbbo9SGPFRWHdjE11zVIrZ+NBC89sKwgDr2osmneisqyUDBEfQ8VWM+YuJl9jwJ2Dmw7idtuPgsXX3JgzsX/7cXv8dgHS5iGFQXgfx9QicPmLAS5o4pJJgj3FeVRHLrLWPxlj1HYZWARyqNcYoK/2oHEO3DXvI6uzpWwQbV4oopK9VTEzuXN8O4spa3MW++08vvKz8xmzacjD9I7iA44Fuh3m9c04cEvm3H1vz5CKkalGg4CkQAuPH4K7j5iCFfE7HgGHcsfhObYTIIk7/TOA1Qyy8YeMtvyuKsb6n0S9EFXMvdv1uoEDr/uNVhxh1iTMItMnHfEJNx56EAURuibabiN/0S67kXYiThvr6Usr8xCy3IDJXKoMzuvQZXfyvLxsMQqUHlYJMOs6yQvUw2zz35AxfGAzik0dETScV+4MY13fq7By5/8iLqGDlE6JY0FyavLevDe9XZjXqsWle8jLoIBAyMHl+H1C/bDyCzeYc2qzTjg0DvQ1NiGgElZO9XFzMUEAirSI9PSsbaZ164O7r93PEKcQ1I+pdMyi8qxSHfCvviejS89+3ZnXR7+lCo9LMmeqjWl1vnRwBBodWtNyX0nP4LzKZaPoS4tKyn7QqEM/dvnB50/fkToDKpKNw1BedWIDRxAQDdw/h0VG174tLwqGogGyYfnA8afrjTo1Y2QFyknccRRU/D8sxfmFI8/9cUyXPHst+iMp7YRqFSbNwOO3s3LOjx2EYILxJxfDcXFUey1w0hcdsh47Dk4Cur0knnFgNjrcFb/B7HUOpa1JoBiE1coLvYoX5u90LuZp+yA+RZf1tPLfERlGdso7DURGEauVxkb83d+TeG0f76NNhIhpMyVaaK8fy+8fuEB2Gc47T9xWKunId78MxeUZOTGfDrd4gLUhebdg9iRqGEFsTZCExAcdw+gDUSTC+z191n4dUkdVzFwXUQri3DHiXvgwj17EXbRsoez/jrE6r+ATsERlvrPDJAKVr4nmv14expTD2L8A+nBiE+mhVuHXM5ZZ/M6EOnDeVi9jwe0DDmZVuKyBhePffgLXv56CVrbqNGECBswrXzptIjnujWgUi8v6/7CYRP77dAPr04/ABFiNyqvV1/7HtMvnMEKJlixBLMSsuwT5U+UsHDcJEYOaW9/865VhSWFpEVN18uJnuQpWbDR3uG2HnDBmmdWrGGxKen2qcXIMlYlddKlYkJ2xk/KuvxuoBL7Sbfts2Scihyf0Av3DR5/+O76g7qlh4lDxcnYVKBMxaEm3vs02jjtoSo9nSopN7QAJ3gqQMXHVlgABBSMtmRj0JBKvP/uTejLCTfea87qRhx3/yxsauxkNYJ8IfdgIPoyRlkPi20VDg8YUzGyYTLuS0k0gH12GoXTp47H1OEFKPHFKKmI9T1g5Ux0JtbwwDgTURP3wcisQrOK29QiAJOFLPK2u7Os5Md7sn19WJHpGsOZ5y6CBQMRHPsoYI5kn5y3AThtxvv4dcXmTJ8t08CUPbbHuxftglImbDUPsZ8vgGN38cYHLIWuApUC/NnX5gu4c74O0yIzqhAZcSNQTI0aNFzxXg3ue+5rwU2jmjoD/QaVYcYZe+GwcULHy90Aa8XFSLXzhgbsVIr16LOs5Fipj3erIJUNUH52WDYPi51aZvUcTm8wjBD0SF+YpMxZdhKg+QuCFzQA989aiHe//hktxMMSHCx2LOazC3KwZzHmuejsGJW4bGrJHg0ZuOyI7XDLn/19Bugjl13+bzz7zCwEzaAXBsgzAzOZUJe0/C332tPrrOkn1gV0O8Sbe1CzUfrJSp0cfDEvvuDoqza+Z3EZNAqcy4yfWjaTXTqjEj177IycfY1bm/70vhCLZj+z+VRMSYGyf9dO6xe+7NTIIyEHo4mEwSgKYlKRudzarlvH/aN/68KVlZVhnZQWs+Y9GwyxoMVV0UMMBm3MfPoaHHIQdf/NvJo70zjozrexYHUT0ozTL9JDW7sj31GEPpZw/Tjnx0RpURQ7jhyKs/cbgz+NK0fEV/pAXXo/hLPqRXQlV7KHTzwodjsiBsXXaVbaXgWinq6xu4WV7zveguRfkh/hCp08S2OEixEecRtQcBD7TGMncNyTs/Hljyt5LRuNG+nZBzXcfPZBuH4/EShumYn2FQ972ui5bp9yQaoXxVefGGVhUTFLiAYxhHDfo6ENIAmZID5ZHcPht7+DZAfpN9FXSIID2GlcP8w8YzJ26C9M1/SPcFdehVj7Rr75McDMAD/7qpw72TO8p/HsFsS6RzfP+me3L+gX4twmifhF+nO10cpDAY1TP+hFvs3cDSm8+M1yvPPtr6jb0shxn4XfWMReufJ858+zk2nUKsREcVEQr12+H6aOyQT52TntNPbb/2YsWbAeRsBk1lDeO5PlUGRNMX16O/X8jSvMffZo02EJfqH0zdgyc3DdQ01vPvTf5iVi2lFtX3bHme4Y6aoGlXT5pEZ6twO/tWVN76vuX3ZXGslQL9pncrn70q0VF0dCzom6a7g6uX9iMpHqZwg6bnu6qOvuVwZHIxqJrGf63WesEAlU/C/EwbHScUy/4GjcehspN/pff338M7wyZz0SqQQXQpNV7jmf7OEPBC6UmTID6F0SwYRhfXHMntvhqPFVqPSJc3YBqS+ANc+hs2Mh210YUVO6I2xNenfCT+gNu39heQF69TPdWVSK9ZBzFwpQeSAlSJ3MszZDKBg0HVrVOeyr5D1d9N/FePzD+QBxf9huQUDloKxXEb676RiMrqJH2oHk6n8g2fgZTK/NWvbZe4gNedayGAB2nXxR65FRCI2fyVzQpiRw0N2fYN4C6n5NbG86pgYtYGD/3UbgmVMnop/0ptrfRXrNzUgn2lgxNbPQxNh42oD5wEo+g8wA8RtRZ74KtL7bzF03mcchkj9shQi6iZBmJo9BjwxDoPpPQMnBgJGhNdCQL9oCPDhrAd7/Zh4a2ih0QwdhhYg9gFX+CUJcs4F9S/HDrYejFwX3lNeSJTU44ug70dqUBIEo82LyvDLi4FT+k3LLS9ranr9uXeEOYxImoxjJImWWCHURizuJQ6at+9fPK9IqLaE7oTzZHVlaU2p8Ss34yV0t7zVuK1BlFyirGuoU0CgoLob59oNDJk4YbTxs2qT4yZsKsLWga4joBj7+zkz/9a6hVjpRFCGBPRmmEvkv/wVSUwQCKsvCzjuPxKyPr832rPHvb1Zh2szZSKQsVizJgaH73TDvQoeLUEEh9tpxJE7ZdSCmjuqD/uVywtDV1wDNn8Kt+wBd6ZXsPCS3woFI8KAEOHjH725D/I2Xp5IdcxaXcrIckKJL0w0U9zsO6Hej98n7vtiCa5/7GCmqtKaYE2Md2tCcNA7cZwe8e/EULgGYXoquZefBTTZAZ/pMWWSm7IvJsaho7WVq0dgSYx4O2WXFiI57AIiQm2Lgxg+W45ZnvuLGOtPs4oqbZjiIkw+diIePG4EiVhLoAM0zkF73KKwEBXapzEbcmiy5lOOruvk9WqKZ7+ddHT0+UPEmO76waLmGkbDuqZYwgGBoAFCxH1B1MBDMeAWdLvD18g58sKAG73y/DLUbycJSVBpyLigLqJgRQB2mXUzeeQS+vGa/nPUx45FZuPWOV5BKcVXdHJlnyXDwxouSWEn7gN23dPzj7HUFA6uCAQp5aUT0ZIF0l13ir8vjqw44v/b1Dl4YItu2kwWVHaOSRM988al8hch/yKJSrapsaWICLOn+hc87oazizumlz+p6sIJqj3icihdraq7hrlmnWX+5qe+WdRt7VwcDOrUgEBXzXDjN92KEfSp+dFBWVohZH16LYcP9BcrrmlKYeNWLaIxRoFdaCN0As/qcVUvHBYaOGIoZp03GAaOLlJ12PdDwBtwtXyERWwkLScaDYh8Qk585tzLB6S2SLKzMtoi2FUezd3w6fs6iU6eexm0fdo0uCsr2hDHqPkArYsP6wdJOnPzw+2gl0SNJtWCKljZMw8XDlx6J8/bg4+s0P4bY2kehsQps3oIp96X8Ub0n736zaQoySaEj1PsU6IOuYK7e/Po4DrzxdTRtiYvOQsL0c4BgSQn+fvxk3HBIXz6XnFZg031INLwOJ04692bGCPGBVRZVxbM8FWDKtrCybzCvAeNvAMLnggApRgMRFQ4yniRIgwEtBD06AHrFHkDBoUDhBHbdtFIXbgYumPkhfvh1A1zOpsyDnlkX61FxdJiOhStO2At3/nmc/w5cFyef9BA+/+wXIfCRPQgZHhpfMbxHX0kklb7nwjX2lF3bjNLCQMDUyXdwWcKK1iLN+ZlvtHx8+YMNCx2L8acoSyCzfKpighpElz381Bo/2XFG/swgfs+zLe+eIlamR1VQgSpbRz06uD+iX87sf3VhQeTgsKbTps73G1ZPZbhdnbBumFHV+MInvcuDRiBkGKawquTDVhaj1xRRY62ibrvpRJx9zv45F7nbta/ix5XNJL/NuVvstRU0kJkPJiHgYsrO4/Dfcyajfy+RMYm9j/SqxxG31vKFLHv/MTeRgxM/SzeLVQUV1fX4PSCl3rHPcsloS8mJxvrw2Q4Ki4fDGP2waMkFLNgMHPvA+1i1qk7SroX0jAakLVT07YU5tx2LEaxSpAOJlRfBav2eaTgRNYG9fGCVhVx5gUAFKmFh6eSyAVpoBILbPwUNvdkWfPSDX+KTL5YCQdrzyGelYjJ6NibK+lTgntOn4qzdRDLFqQc23IpY48ecC03XqHhMmT0oSyGwO9evu2eS39Pa+vzyLCzafHmwnQCfKY4GSQetD1DxF67WYBZgcwI4/r638c2ijZzRLoud/bu2QBVJw+EXR8cMBV28f/0xmDrK38Nv9eo6/Pn4B7GxtomVvnCTNve5sRQJqXkSIcRJujuOilvP3VCjVVUk9YBGEgM8IUMglXZsJJJ6ctqtdS+++0WsNSuI3hN/ip6U2nBUjU1tNT6Vd4/OQgIJVPRTdqWRYKW6fzTDCsMmwu89MWCfHUYHbw64umYafHBYFT3dr2Xa3/5cYk27v5/T1BKIUrsefgIBVNkPh4K8ugFXd7DP5NF46b+XQ6fKb+V15YtzcO+bv7DmngxPVGspL/aKz3j+uo39dtsZ/zlrN/QuoxlfA3flhehsXw2TJhirMuepfv6Y81zttrh6PU585ULzWi/K+vDezwAVM8vp5h0LgWAvhMfeBxTswb60uQP48yNf4bt5y/kiYOw42SePwMTGsYdOwX/OGs873FhLEPvlHLhuKw9fsWzfNgJVjguoDowkf5L2fAH0cY8gENqduRT3fbUOVz36iVDPpOcjLAvmcRoYMHgQZp61Fw4YK9RYrdVwaq5Fsu0XJhPFW8VnXv4p4Jm//v0r+3nkA7J8lmLOnPI/fB6WzYC0PCwbdvISAhqMwuFAv2uAgsnoSgEnPPIJa/jBFA0YsZZvg/6BF5Nb0hpYgbiN4cMr8dMNf0Zx1E9LeO6Z/4+7t4Czour/x98TNzZZdmHpblEEA1ERFRu7EESQUClBxVZUxC5KwkJQDMR4MBAeURAMkFCQ7q7dJbZuz8z/9Tlnztxzh7sBIs/397/PywfYvXfuzIn3+eT7vQDDn52OYCnRERk8A+0yyXnBMeck443G4egd1xQrT929yaqWSfSVfGSZIrJhMgqirbvMTTc8tP373fuYNSVr98ktM8k0/IQ0lmifkcsSRHNtWTv2aGciyTvFE8pAJWf/hPtH9VTpox+sU6PH9f6xXqC2TtI0msr0/tj2tnTzyBEFPUbUDy5aVzU1lZCMAqzOlNiTI5/QbKgs1K6ZiS+/fAJNm9VIuMUFG/bj6he+QWmIqCkqY1U53c/2dQiozsL0/ueiGnlJ5m8IrRoMIxxmIMXr6G0BioThspdgsvVU5nBX8At5s8h7zw0ACRk+ToBHJRq67kVqyyeAzNvZF5VEgDveXY6vF/wJxJj5YesKitICk+nAfTTsBtzSlp/I5uFpKN70GnRyTBiXubt2KgmSyvcnHtF5FheKM5deg79BT6Dmw4x5a/HuEK57+Rsc3HeEce5zPSm7+Zn65zwpOLdNQ7x15wVoI8RVQosR2/oEwqzekHoC7XIQe4/HA+xu7uUk+18G4uOxgMu04OOU27SCGEWZrkDzVoVW7y4g6y4GVN3GL8R3y0jAhWpyOClhcqCSJp4hSwi9b2iHKb2p3CPxdf/Q9/D554sRivLWFyGUmgjocR44I2aaPq8Vuu/mLZ5+3fKVrEyWJmQJDsLOcITuyzR/+D00v/ezu/8OB1mrDMWn3G6fnO2jv7ul20XWr1L1U+7lVNHWElXqstafLPhAYEVAlXH7lZlpox+uPkjXzOs8umZpBEZU8EebSVGsSKkSe2R0jdinv9QxPYaVqnm8nNiR3UEyNgUq3wf8qR68/ko/3H57ojJNYQS4aPjHWLGlkGkKxhMbFfhZIj5sGri0Uwd83u8sZFFFmPELAn/2txc+P91EG0qi6exy+9wnckUj6v59MmAS73G5VjIG8HszGB9RSsO7gRpU+c1fg6evx6Rvf4cVojVF1pQd7GVAQCdyCKed2gBznrgJtVjCKIjw1qEIFSyCh1lS7oOuDHOvLIuS3bfLBST3j6rUMxtBaUnUL9Wwr8TC4OlL8R/KRjLXz7aaGXUzb4rQU7y48aK2ePOWU1mbDXuV/gfRLS8iRplA6qMs07KKZwidwSnvUBDAVVlXXcI+dwEAP6B54oXz36rwpqZCrd0bRrXBiMU03PH2Ynz169+sIpwBFV90SVKTdlac5sYw4VEMvP/QFbijQ8uE1bRl02489PjHWPTzOh6fcnZYYuyOvASWaKX4U8yItWkWMoZctca8qgt8Pr+iUiEwGeHkhRNQxSJK8eiP93//2odFu2AmAJWbzbO8+ily+ypk9Cxve5S3tYTrJ7J/soSW6Puj7F9mo/p6+o8TG56bmmY97VcVjVpoNAIQqtAgDuuIFZ32td98/csWxQfyvDl+j8YsLrE2xMQKL47MUpper9eD7t0uxKhR3e2anPjtDvngV4yfuQKqz8NdIBv0ysUK0Upgmriic0fM6H06mI6EsQilK/tDiUVtzTl73UhwmiSqHf+q44p5JAuUS3cvrdk4SAlpI66vl1anC1D3VUcteOL8A3h02n9RUkQtHMTtQgWVEtDEKHsZQZ+bOmJCr3O422fsQGDVbTBjhZyPpzJAVdHzuoHKzv4pWir8rV8CfJej1AA+/msf7hv7PUJkBjJuL16vw+OBvNLWn5mJ+2/ogKcur49UmyXV2j8Kob1TYUWpDYiSNvYSZjliAAAgAElEQVRgieA6u78k7l9F1qt8SJS7kNy/dA+I7AZSGESDNy0Nau1+QE5fRGIe9JnyJ2Ys+IuXD8TskE3CZVxmO+2JmImc3Cwsev46NKueWAz9ybQFmPjuPKxfs5N7MowVgocK5N1BPzGIrcSA5fPGYoOvP6zcfOl6o3njFB9rwjRjMAyLgV0wFEX+fnVDnxG7Fy7fGKb4FIETWVRyti+Zfp+wqGShURGjEqdhhUdCeREReQbofcKqolWTLPtHaz3D70fml6Ob1W/bLDbSo2h1U1KJllVl6hUUSVUtzVizLhJ69fMW6ve/Z+uaZXpUpvRB48knlTl7zvxazAKlZubzO56KN167FU2aJoorzliyE91f+xYmbUYxFQnmc5KVJoDKMHDZpZ0wo1cbblHFliKw+h4gHHKmla/9BH+07KXrdgXpnclco2M5MuzPC6tTWI3U5EwLMDX7DGgtxgHgbvH3q0sx8J3vsHP/YZvKk9cxOUWRzKQ3kJXqwcv3XIn+nRraFsp0lK4dabtevAI5/ipnqZS3zI4CKloH3GJKzb0aaPASItDx54Eoerw0A1u3HebuqQAq9k7RaqohK7cKRt5+EYZ0FNXfARi7n0YobzYUcnMcQQ1xwIgl4bp/HlFIfLyy5k5gXYXbSZ5U15sFYBJ1THom1Fr9YGV3RzSagj4frsDnPy3luj5HuX7yArKvbxc4X3dhG3w84Fyke+MtE8SP/sjDH2DmN0tQeLiEsYoyoBKLxq5DZoaASWwIFCg3zLo1FPPZPptx+cWHVL/Hx3KSlIXklEtRBEpjsYXLjd/6Pr9nRZiT5MkMnmXxowtFZLlt5pjKEsSIHg9QJZN6F3EqciAybr82K+eFAVm9PH79xgy/Cq+HhK75wUagFAqZwYmfZXonfdU4WlSq+knunecw+MZga5sNqHC9uFXVsHEtPHjfFejR8+KEbb6lIIxOw6djb0GQeQ0Vun/CFGd9WyYuubgTPul5GnJJriq2EoG1/YAwiWNyErFKA1V5C70yp7J7NiSAixtD/H4E57mvSj14mlOGrzX7hvX7THQb/y1WbtpnV53TihSuj/gCTtF4eutGmDroUrStQ9NmIrZjIEIHFrIYEosRsVeyh5IepjyLSrxNLjRkAMT5wDVPI/jaToWFXOwoAYZOnotvF26279cu27YtAnY2Wlzltk69XLzVt3O8zQa7YW59HKV5f1B1FV9DonLdfnz+GEnKFgQIOfdagXUrD0m5c5oEqNhza/BkVIWnZn9Y2TciFEnFnZOX4ctfVvDVT3TXCYWZomNDQkuKR3pVvD3ocvTp2CQhcrpjWx4GDH0fvy74m2VYWcKK9PucXmSb5ZXxvrHoq2WZMaNZvSJr7IPbcGY7w6NEqcaRh1xMw7QC4QiKi83SNz4u/O+kzwq3SU3IwoJKBlRkSclAJRPliZIEthMrTtOX68MkzIKwqMSf5ZUppKX5kfHluJrntWmW8phf1/w+L5VuktlLnQIqVE23vp1rBp+e0tKzY3+aoivQaTAdf1644nbqlNw/GrTUdB9uvq49XnulF3xpccmYcMRCj0k/YeZvm3nNx1Flx0lWlE1DQ+PU6bwOmNazHeoTo6WxHoG1d0IJ2V3vdoyBCWvaOcoy16d7Tx/TCZxkg7gsKRHuEPxSmj8bqS1GAmlcPeZwCdB9wmz8sGJnPHsknaTOkjCj8Hp1DLnlYjxzcytb0mkNwsv7IGZSb5+deXM15B713OVaUrIl6XqjTf0CZCCl1fOM+oW6aF6fuw6jv1yKkpIQy0Q5TdAM3HgzMP2nKRpOObUB3u/TEWc1EJnAlYhteBCR4p28ul2qXGfYIiwoueeyPOu3rEmu7JwmWGxyexhZVDnQ6g6BWaULwqEU3D55Cb75bQXHJ1aeIH+5BFT2AUt00PUbZGP2Q9egVZ1ESbcFP67E0Ec+wvq1O+DzajZQET94/Jq8xYrvFE1TLL9fiXVovD388qN7vXVzFS8NFoVQWO2tCZSEwsahg9jVd+TOH5esNg/ZAXQ5y5dMFktwpLsVkZNVo1c4qsdiUbHlIrXUiHYawaYg5N7peE5/4f6cxnfdkPWECjRJ8eoKq6niug8EVNi6zSgZ9HpNdcWWhh4rauiUHWTZG7Y5E7MlhO40cPS/9mc1xztvD0SjxtUTltKUXzdj6NvzUBqK2aICFRx9Dt2FhfPPao/Jvc4CE7wxt6J03Z1Qg4eYaazaIJmw0F3r6Kg1LY9qhVNgfzrZTMhjwUCbLzACKtWXgrQG9wLV7uJ2jwkMmLYc781eahd92v6zvOrtAk/K6dfIzcC0YTfhkpZVOYXKoTEIbH7PdrtlShcB0El2blmuk3T4O368+9yjg8nSkJJ7GdDoVabc8u3ag3j4o0Ws3osDlW0ByWosLFekQfN5cNl5rfF+77NRS4RoSr6Bsfl5hIOHmeXibE77EdjtypZVskeTf1aehex2Hd3DUwZQWaoOT1oteBs+BCOtM4oDOm596zf8uHwdL/Ykiyrh5QIqg0RAYrj0guaYPuBSVJUO7JhlYdrUnzHimU+Rn3cI3hQ/U9qhjF+cDNBWZeS0PZbqsdCgZjQ27Jo14RtvMFJVy2Cd9RTWNBQF0YhlhcLR0LwlgT/6Pbd/ZTjoxKQEULlBimJWMvWwu7ev0m0z8jD8E6BKZlVRiJP+y+h5c7Wqrw3I6avqkav9Ho+mexTVycpoKoyIHhsxOv3w1381zT58mJiqFTsTHq/2FWlaLi9NCG+gZt0cTHxzIC69JLFJeWNBEDe8NBPrthY4KjDsQZMCgHTCATj79HaY1KMDzqRQjbUPwY29gOK9tlFK1pyLNaAyp215MRD3DLg3jPPveBaUHbbspCPPSUd6zRugNHyKN/ICGDt3Cx7/aD6CgZjdsCviS/YAOIEtapmJoEO7hvjk/hvRsAr9Pozw+q4IF2+BhyWc3JulApCSgUm89ajnl7N/vL6OnH3dnwtPm7cBpRnyAsDAaYsxc94qEKMkr/SmC8nMDXZPoKHA409Bj6vOxPiupyCNBddLgfwPEdlNbTYUYxRK1VK8SoCV5Bo6a6Qs4E128IiflWeVOdeTLkxAlV4PniZPIuY7BweLPLhu4gIs/XsD13gQzfVOrNX+LBsGHuAmXboHu7fHiGvOALHpitfWLQcwatwsfDxlLlOKIcEHNjVSiwz9mzEaEW8cUzW3lPanHoh+8Mx2tUqGqvG4FP1nsZ71cMRAaaGRN+i1vNlzfgnstymH5eLOZEAlK87IQXQhiyW7fmXtJvfRVqn3iaUoW1QCqGTmTxoZxqVeuz7Sp49oeHbTBtYwn+7L9vmYlBYfflWBV9cx71cUjZzSzLdpZ7Y3Zsbs7J+Um7CPQB47JGJ5Cx6Pjgce6opHH7wcusQNXRIx0X/yz5j+4zq7v1BmVHQfUolA1bZVa4zq1gkXE/YphxDcQEC1wzbDTxBQJRvmcmJSTmsG26YirsCxMzO7A9D4JcBTk1115sojuHvidyg4ROtHcpnk7xR7JUZun4qul56OCXddgEwSUjE2IPBXNygWSatzSpcKDUH3G8oCZsflsj8gkiV2rEqBDyktHgOq3Ma+c9SCnXjy3TkIh6iOSvZXbGk0UbjIlrqO1MxUPNj1Ajx9RT2i1AKsALD/JYT2fkYZZqa450hvVdQT6Aadiiwqx0Ir60AUE8B8NjtIq8Ob2Rh605Gw9LbYcRC4ZtwcrNmwg8fumEVlD5q7iZisINNC/fq5eP/uDujcOq4lEI0B38xcjBEjZmDblt3cmiI2XTbecf5vdie8VMLSQCSABvpeszn0zNAjfiuqKKYZZewUFNOPGhYi0Zi1bkN07TUP7v6xpJQF0Cn2JGql3JQuogHZ7fbJYCXqp8SgVAqAKmtRiYvZhThOlbooUxDtNIJMLwU60u64wpf10uBqI/xpqW19HhW6E+kEPB4NgbBuDhiRc2T+yvpZsail0qJKeAmgErp/pHpoGTj3gtMwblRPNGsep9EwDQtvzluLJz9chEAo6mhFJh0FxwfgBA+nNG6O524+H9ef7YdKzAGb+sIsWm9zNfGN7xQQllcjW54rVNZ0uE9r9m9+IQHZ7KBl6jEmUtKaQGs+CkjhtTN/7gqg+7jvsXEb6T/a9TdCVSUh3Wg3yyoWGteujvuvaYd7L2/GniaWPxah7ZM5NlokgFoGHUgy4CvLgnI/r3DfnM0v2C4UpGRfAqXp66y04pcdQdzy0mfII2qFoxaDZNkyN5ZCBQqq1crFmF4X4Pb2OXyPG3uBXc8ieHgBTFLolnX33GDlns+yDg8ZlMSx7Z5vGZcS5pXvSV70qcNXtRXUZi/BRHNszQeuGPUNtm6lFhq7KbssoDJijIjyxovbYFTXU1E3O16WEItZeP75L/DGG1+zRIjf72cGgWgrY7fjAL/dCqZpSFNLgh8+s8lsf3Y4zWRKM0S5wwRGESFNrChi7393ZMEjYw/+DTOhuFOUJcigJQo8y8r2yWUJ/ypQCYtKLlWQqV/kOJU/Jwepc8bXuL1h3fQ+XmjEpGJboaTWqsOjKXj/K9/B5z9okFkazPSwAJ5MPifOFmYAUZkCr8BOr+LHyGe7oW/vSxKW8h+b89Hv3V+wbsuBeCO6vJGchRRfYTR3LRo0xdM3d0DXDpnQEERkS3/EjqyAQpVulDS2v5+vaddKlt22sk7kozZtkj3o/IhvRgFS3OUj/DCQkpYDT4sXgVSe9dxxGLh9/Fz8vmqrfRLLvWAuE4chrQmfpuKC9qfixVva4uwGVI9xGJG1dyAS3MmC6Ix2uDJAlWzjun+WMFyJbSUsOWHHTjRPA3hPGwdozRiV742jf8TCpVsYeaFFFoYAb+eAsQeL3EcmpOrBac3r4M3endGpmR1cj26AteMJlB5axQgNWYGrFEiPX6qMnsBkoFPeQZTU1Y37hxS45lihI6V6OyiNqeatDv7ea+Hq17/A7r0H48KmyYCKFXkaqFI1A8/fcQH6d2oEj9ROVlBQiG7dx+D3havgT0sB9dEyWmG7rtAxbJklS1/F+fsvabuncPyIfempOtFQ0QOS58Lrq6KGSdm+/J5P75r967IonYRyWYKbbpisKwFQbtl2uchT7u2r0HBPtn3d2ynZv53HTBJUP6pJWdeRNuWVWs2v7pDymhpFuq5rTEqLa0Qp5AviyCEtcs8LNUoXb21UVYkEYZiiUVm03fDb4PBLPOoEZga6drsQ74ztB5WrV7JXUWkUw6YvwbS5axhpGIFecgPIRhdavBTtr98Ij1xzJnpflAsPwohuH4bI4d+hRshiNWzzWVhVsjsiDVFZro880gLUZHATDye5SKKrUGT3LFKP8WTA1+IpIPMmdsVwDOj5/lJ8MW8FrCgTWbMrz91faP+b4Z+FTL8HPbqci5e7ncqzfaVfILj+OXYKs9OXBcEqWArycyRbSck2NHs+6YAgMKT2KSoCVjLgbTQYWrXbWMxt7K/78Ni7PyAcjlLXhv0NcjbMvg67Jhdvpazx+We2xJQ+HdFE9OcGF8LcNhLh0j0sC8ppjPnDJRR+s8tJDx3Hl/hAJJtfN5glPLcUk2N/JcCl7jkPUmp0ABq+wQROf98WxfVvfI6CfKqhpKZkUUcgqtPF4jdART5Nm9TEB3dfhA5NE5NJs+esQN++41FcFIA/xZeA7fHH4cpQtP0MI4qMzGD4oyc2aR3OiOqmodpy7TxrblCsyrTMWfNLfu37/P7l0ahDOZws20cgJQfQBa2LLNl+XNm+EwFU9PyipkqW0iKrio41qvPO6NIxzf/O07WGpfiVSymeTjWZrCeW1p+uwq9pmPJN5qGnpzarYpTomqHEGKIntADb64s2LrEDxEwDLVrUwVefPY76jeLikPRQHy3ahqGTF+LIESqaZVyQSSiK5RVlol5uHQy6sh2GXNUQaXoM4d3PIFrwX2is9cRWS3bqeeS0ewVAJUDItQ+OggH2fHF3j28k7n4x5RpNR1qTe4GcQc5Hn5q5Ba+QekzAjks5bSf2WeICBka1rKmomeXHi3ddgTvbczK32M4HEDowl48UKwQVe9ZtHrru2n0WJrg6ScYlwSqKozMxfyqWDk/1DtCavMwI9dYVAlc89zV27cqLqwiz2Js8oPIS5v2Bqu7BrZeegXdvPx0ZTJQQsA5+jOiecYiFqH/W7l2UQEmGTueu3UBcFnC5gSphiBJbh1iCgrLZigeptS4F6r/GwrkzV5ag57gZKC0JsngaN7xcX0ioahiMffbKcxticp+LkJsZJ8mj9pZBgyZjxidz4fWn2p1SibpYjuQqFV1DQdiKWOe3Lij54PmdGSk+kwwsZnFTKxL9NWaZCAVRfPvj+7+av7T4gK2sJvf1uf8u4lLCqhJNyG5rys6MVBwGlYezorPTvaeERcWMR8mqEkAlVJRF71+a7of2Uv+MFv1vy52omLrOtBkZ7QvxHOlMrv1AgR654eEahVv31qmm64ZimaJqU7KqREUt6/S2oOsmXn75HtzVr1PCPa7bU4hbRs3Bhh0HeaWvG6ick9FeopaJnCpV0btzOzx12ynI1C2YeWMR3jcdSogOD+76MefTyZ7E451HgY4blJLtd7dlZQOVLSnBT3sWSyE3DEiteytQd4ST4Zv8ewEenDwbhUdo8/HkRKJFYE+rHIwl7nRdRcuG1fH5o9eheVWaqoMIrbkTkcAO6BSotUsxyrSokt23jBflGfICOOXxZ9fj2T/VVw2+U8YDvjbs6L5l0h/47ue/uaUnXKEEYHAVQhp8OeopOobe1Bmv3VDf5kMLwdz3BiIHvoIZCbBkgfs2E8BKni/33LktxYqASvo9ARXNJxU8p9S7CUptAmXg7YX7MPSdbxAhxlXaUmzObE9AADMTCVFQtUoqHr2xNR66+uyEaO7WrQdwZZeROLDnEPwpKTxMIpa362FZORoseMxocMzQjco1V4X8bPmYUaeShChdKFKwbHVw7TX37f4pyBuQ3a0ybtdPzvTJ3Oii0POYmpCTAU/SvVbOD8WuEFzqor/BbVWRZUXnmr9lQ12bN7n2hPTUlFOohchREiFifNXDeHtefj97/6jp1XM0LcXD2D+ZB8JXtbDY+bxx09iIRdH+/Fb4dNpQZFfl5HD0CoQM9J/yC778ZTPCMXL/JLByV/yy65lI8/nR/aJ2eKX3maD9axV9iuD2cdCCJXaqngdCnRiV+8Qtb1TFe+VFLcBM+l38xOCLjItfGEir3gFKkzGseZdev20O47Yx/8Ge/RTTEItafFqUdiQBKgrEawpuu+IcvN3nTGbyWpH5KFnzCNRYEApzsWyE5OjO79i9cZNZTmVZU/K4lAFUgibJgh9pzR4Hsm9mbJ8TftuPB8Z/gyjFCW0GjcRhFkAldiRtcp6MSatSBW/0uRL9O1KrAb32w9z2LIIHf4VKZQ8sXhW/mmOoMSNE1PJJlrP8xWXNZ8LNyUF/O77PLCqKC+lIbXgnUPMJ9oknv96Klz79gZPmifFmxaqCc58zSZBASqumtfHJgPZoXS+RQWT0G99i5POfMmuNKIedlplEo46vYVVB1IjirOaHiz4cuT09u6qiMoJEhVx/vr0oPhWJwnhi3L5v3v2KKmgTREVFFbrMkiBI8tyxqX+c7RPDeqwWlficO/snCz/IsSrWUqPr8Hw9ofaVnU5PHWZFFSpTZ+IP7DS16Vv37fNGej1bK7h8W/Uq6R6aNE+8P0nCCAH7sZgJX5qKj6Y9gksvPiVhmUxfvA3DPlyMvEMlMIiiWKRnRWm3WBH2CqUAc5dzWmHioIuQS8mS0DwENj8NJVBEJFp2oyu/CUc01B2zOBawkkHLieXyDcdAiiUOTPgzm8PT6nVA4zVj2wuAm0fPxJ8b99kZbNeR72IPiCf9KDaiomqajgn3XovbzqQgjgVjz+MI7J0NlVKKTLI97oImDVSVB7ryM7nHIgGw5NgN5/oS68CbcyX0Jk8z929jIXDZU59i554jtsXozmNI13EyikT0Rx0QOmrUzcWE3pfg5ra2DxhdC2Pb44gUbmYBev6scSAut3JdvNc1b85jHWWFucwYJ0ZFNWw6UlsOAbKHsI/3+3Al3v9ukVOzF1+riehI5Ty3X3Ya3u51NivtEa/8A0dw9XWvYePGXfBQX598r+w2eEmQqJ016dk94dDInjuUvrcd8pHbTeuNrGmWtDFJ3gHYvCOy5aohO+bkHXTKEURvnywqWp4SsohPCddPbkAuz/ZOunqOF6hk109YVO5SBZEBpFhV5n09s7NGDKr2mhY1GhChOqtTEyclNSUbCsZ9XK3otRmNU81oTKfyBSpai9sK9rM5LiAF1WPo3qMTJoy7J8Fb2XM4iFsn/Izlq3cjwjahFHdxzGn7h9Q3pVg477T6+GBYF9TP9EC11qF07T1QS4k+hPP5sIvYXegJq+FYhlwOPdh/T7Ck6JtYKMaAJyUHvubPAqlcfLUkDHR76xfM+mU1/3pmr8ub1b2bEq0hjwI0a1IPs5+4GvWZsvN+BFfcgVhsP1QWPhFMnm5/R1o3bqBiyGr/Xn62ZEtNgILcpGyTErKOBepH8zREaqsXAF87FtDtPnkpZnz3BxQPHVrCspLQwhl7yYJhVMwe1vjcvFl9Fs/p2NTewIG5sLaNRLA4z+4tTRTdcCwrcbDJc+u2Gt3Pm/B7USxm3ys7fGiQDaiWF6ltngHSurOxu2XSYnw5/y8bqOwBdqp0mE/GDpmMDC8+HNwZ151hN5Dbl546dT4eevRDmDGLQr5HqW/zblX6j4NzOKZabRoWlbz90NrUpi0smyzOzqjbJHmGYZmvTj006+UpB7fAZAR5ZEWJILqs1yezJcglCckEHI4r2ydm+58AlQxWcvHn0TVVQEazRj7PrPF1b6pexRqgWRp0UvFk5q3JhAhooNds9AUfGNcw+vfW9IwUon8hfmFnH8RjEvx04HzqOdU9+PyTp9G2XaJU0LBPluDtWX8jFI0m9v457p+dVaE2GTOKU5vVwPTHbkSrHDIC8xBY0w1KIN+uFI4XUcbXbmKwMukxUNaGlX4uJO2F08UZWXxIazgYEOoxBvDgZ8sx/rvlMCL0BkmKy90nwq4towdHCK8C3HFtJ7x9xymcNCX4E4pXPghVjTjN1wmncbJAVVmgVBFICQyVgUXcJwMrrvtnKunwNxoGrTopDnnx0d+F6PXCZ3aGzt0DJw+uyw0UPYG+VFxwZlO82/McNK1BNxkDCr9EdPsriAZ4skUuBuUWs3D5XL5huc/odPxKYx8/zviS4+6VqqTAfyaVYlwM0ti4/s2FmLuY2mfsxjrh9knWHgk6dWhTG3MevBLpKXb5BYFOMIoed47BvLkroWpU+xMHRmEusnXFljpn8fQpWvjJ2zej26379Iz0FI36BoV2IWPyNA3sy4vs7fbw7u//3mwKK4r+FK0xchBdZPrcLTMCqESm75ibkN1b558ClQArN6GeoCkWLTWpuh9pj/epljvwtozRabqeqzE+PZt+guVLNauwFObEL2oHJ3xeQ7UsJVVj+n8UauUTHY9V2ST6lKuyIhg4+Ho8N4JiG/HXog0HcPMbc3DgcJBxtjs0F+xSdoaLZtE0GFA1qFsF04d3RXvWOBZFaP0tsEq2sEpgnqKMB2ETjKh4JWjlsMoZcUElTOlg3t3O42AaMurcCNR+ClC9LJY/+ufdeOyDuYgEInZ2ULoD53plHPk2MGem+zDj4etxxSmkPxVDdM8rCO6aDk0hyzw+tvGHSLJRjwWopI3mAKCwyOTDwvlC6kfT4M++CEozSt37sLkIuHD459i7O59JaCXMoXu0RQZCfBkrCNXhT0vFbZe1w5hbWyGLJcpM4MhbiG4bb6vZ6JVXs0lmPR+lSiIYgWTzM+5+6b4M+E7/BEBT7D4EdH1nPhb9RTTRUjmCaKhmt6vAo5sYN6gzBnRKJMib+8MKDBoyGQV5hdBFTZV0j+LwY+6cQnVRMM45JRweNXCVr2kLOhxoF/LQBpNqN0xEoiY+n3Vo3pAxhzYaUWZJUcYmGUiJuJQMUrIkluzyuYGqcnsl4UA/5o84y46WovjPTVMsx6kc7b+a1eH/5MXqN5/eukofj6WoZO7HDxCillDMFWv90XvfaBxduyvFn+alYgYm2+swK7DtYx8dLCdoGWh1WmN88fFQ5NaOd5LTKHUd8wO+/m0r9TOxkgfnxY8YfsoZJjQzgmrVfHjroVtwQyveloIdAxDK/zUeO7A3F4er+C48eu2WYWk5ro8NuvYwCtYnOu0oI5WSfR50qjxXeSB41qoj6DNpNvL327EapxbI/mY+IK5ZlFcrWYwGzmrXDD88eiWqMGrtXShdMwRGySbodnzCsSacK7mASv6Gstwg/mj8VRZQietw5U3+Lzakdu+frzo8rd8HvE1QYgBDPl6Gqf/5A6qH6vLdX+z6InE9ZqnzynVqFEnLysJTt3XEI5fXtKMNhcD+0Qjtnw4zRK59JXoCk7l2ldw7/LZI016FL6MB9JYfsTjcwvXFGPzRAqzetNtuZ7RrQ9jxb3+hATSon42lIxN1+wKlEfS75x38+OMKGNEIYyXhHoozwI7EFZO7soCMLCXc68LNyn198tT0dI+mMkpRu+HfJHEHE4cOx/LuGrF39vzlESrsEgWeMlCJthnxMwFUbt0+2Zo65t4+99Aer0UlVojs/smxKpmmWMSqKDWX/uy9GbUG3Fr9OR+UOpqHtNl4GwtTVlZUFAasyOvvNDbenZ1jWYaRqhNXlR0JZDfrLEY6ufhJ5UvX8fTj3dC/fyJ39Ny/9+L612ezxkpGFcN2o71BxHVMA5oZRZUMFSMHdMHg87nsOfJfRWTndBikHsA2s6hQF0OY7Hi1fyf2XwI4JQ49/xW/f64eYyA9swE0StFrtvT6LhM9x8/COlKP4UoLtsiqAIOKps+uv7FieLTv1Xj+mmbsg0bpbJRueByaEbEVUuQWofhCT7t4+iYAACAASURBVLhj+XHL+9rygEoeuiQtNWwtWB74Gz0MVO8OEx78d8NBdH15JkqKwlA0sjylgyLZfSTcJ1nqfFnWrJWDsX0uRdczKWRKw1kA7HkGwQNzYJEasK0YIzZ6wuwmJCniv0kGmxx3+W9E4oVViNMa1jWk1+kApRZlcVPw1g+b8eLsv7FrD9WLueKNzGlgRAa496azMbbbGQnT8fO8Fbh32DTs3p5Hl7Xpm0WenG9PzqVvrzJdM9s1LYk83vVPpVMnP20qlYVdqOCdFGiirJja/HFx4Nc+z+5dHQwklCMIUJJ7+0TJggAqWbxBbj4WgCUMvErC+9H75bg+aH9IZP8ERXGyWBW5f6KuKrNzx4yUj56t30vXQzemkO1JsSrBRaXqjMZr8V++wPDJTbW/N3t8XkVTTerzFvJZrhIDBmKqgbPObIop7wxB7frxAtBQFLh45Ews2ZjP6Hp5BliyphhKULGbgbQ04N6uHTHy2jNZUBKBn2HueAGhQB4Q4+POjRe5WayspWp/TRkb2gEp2+SmOIHHVwO+1q8DKZwT/mApcNvEhfjpj7VxXibGxyJNlzvL555JlkI0kJmeglnPdEfHxpQBsxDd9xQiO79glgRZpCzklfDZJDeeDKjKcgX5PnFf1LXy3EDPK+sp++TNOAdqq4mwkI4DQeCGl7/EkhW7Ad3DxR+SXVy2JqTDjPdS8Rqrhg3r4ZOBl+DcJnbsM7YB2DYcweKVsIjJWFgxDtC4B/Toh5J/ctQYMiuehynYXz1+pDcdCmT0Yj9/9OMlmDh/PUqoHo4xsMrEfhyQq1ZNxS/PXIfWdeLrOlgSxtgJszBu3BwUFZbARyqhjEXJVmy2AxW8z48pKFlp6bp5e8d1kUeGHPRk+L26xZJMPNNHsd5QOIaSQhQMG5s/Z+a8YmqXISByW09yaYIAL7kkoSwV5OMq8pRHv6IjuSIQc1tUyWJVolKdsSqkZSLt5SG5DW+6LHOkX9eq+VSD0yrQi2mgaSgqUcJvfFon+uHsXF8kYnko3cwqj8UCZSvCVoZh6VQLOTmpeP6Z3uh+Bynwxl+TflyDIe8u5AwENk45bh9dj4kqWvB7gRsuOh1ju12A6szrKgKKPgf2zkQ4uA8RIwCV3svUTvj1eTmqOD0TVP5sd0Z8Yfx++GLmlh2bPao49vqR0vJZIIPH2aIGcO8na/HOt79ykCRwFMIM4vNi5sSfzsNJU0obNhrBOe1PxexHLkFVFkU/hMDqXjCDm6GaVBVOhYjJNqTrZ8cDVPLjuzGd7XCZPofTkbCxVavD124yLLUZIhYw7OPFeOurZbxym50iR49rotsjBdcZSNluoOpB+7ZNMH1gJzQSTMalP8PY/jzCgV18JmX2ZeebEgcoAZwkV4u7r5yrlrwDdg4qMVbkqevV4al1E1CjN20DduWe4+ZixpIdiIRJ0ioOauyXpsUs/a5dTsdHd1+UUOD5+8J1ePbl7/D7wj8ZgwijehGsEvYesbk72dqxVNVsVqc49vq9m6xzzzJ9ZEEaFEQnUQdQzZSJSMgwf1sWXNznuX0ri7g1Jahc5CyfaJVxizcIYVE3ULlLEspxQ9xrMPHfJwqoBGC5Y1VC+EGmKk6vWx3+L8fUHdykceoVXsNUCai4qjJhFU2wggWLPCUPv9lU2XM4I1VRqa2b6Iq5uyeOasFSSIeDx2Oie7fLMfyJa5FbK3767C2K4qLhn2LTLlKpIfErYZbYLoQdq/LoKlo3rY+XbuuIK08ThYIU6SJ9u+XA/nmIHlqJSPAAFDNMnj3HDznd7oymDBZSaYQ99vygI3g1GFtlSqNBQI0HnP337OydeOGTHxENBCUdPvt+uVkXn8WEQ174nOKLTHg0Cy/ecx0evLQ+/1TwRwRWPwhqi2eNugnMEK5ri29xL69koON+r/s94vfifp0/EyvMyXK24IHeYjj0Krcy0P546Q48OvU35B8ssTNUgqY44eGlcRFulMjG2eygBFpeHbdc2gGTe7REJuOwMoDC6YjuHIdY+AhnN5UiDLwCxDmZnLUncNaZC4XWFi1gjTfWk4iDrwo82W2hZHcEUqmDghft0hsLDpXimte/wx+bCmxrSsocMjdQRWa6is8f7YLLT4lrBJSWRvDyK99i0ttzEC4tgd/rZbGvuBHJ9S2pPo3tJKIj9ptGj46bQo8PK0zxqyCJcn5QMhIAkKSWFSi2Ch8bf2DOp3NK86QqdAFIchW6XOiZzJoS9VPJQOp/ClT2UcAQQFSrl1VTJarV014eltW63y3VnvJErSoUq1Jt347FBFWiP1WNZ8Y2LPz855oZpmF66LRlzd2cKJRTr9huHB9wA42b1MaLz9+BK688PaHyeOTMFXh22m/s1DGF+Kbj7HAAoGumpafhovZt8OyVp+CM+t64XLgDC9uB4FIgfxmMks2IxHYhFimFQnLy1JPH9OVokcTrvxxDJ2EbcdFHVnle5xqgHnXSp7AF/P7ig7j/3e9QXEgZYYqwswBEIjAlBSppDbCjnGz6KGrXzsSc4bfjtNo09Cai+4YjtGsmm6i4ZSmfXslA1u1ylnP6ud1Be2Me9QkHY1xr15bT8lc7H0bjCawmauXeAB74dAl+WbTWNkaFSk2ydS+Bl43tHBzIiuXulSctA4/cdiGGX1ILxIbCjIf9ExHc+yFgkHUjMsOOw++4Zdxi4mPE7Ceb299SVWhaKuDJht/fHKjWBqhyBqARl328L49otnYeMvDlij147dN5OFIcsONu9klNBx/NnebBlec2x+f3XoB0T7xMZ/WqHeg/ZApWLN8AL8XnPV4GivGMKH9++h9VVpu6ghY18oPjhm1WW5+m+bh4hMmatCl4FGOcU4bxx9+lf945cv/ywwePonJx07mUJYWVzO1jK9FePccNUmUcn+UswqN/JVa1sKiSxaqE6yesKopmpnXuWC3loxdq9POqoWt8lADUad65tUP/IJaFjTv8gd5P1Ylty8vK0OiMMClHJYqy+XMzq4rViDD+Z/S84xKMHHEbqlSNL47Vu4tw1YvfYHdeCfOgeFuNa9zsloWU1HS0a9YYXdrWxXlNc9Cwejpq5shLTQzCfiC6FCj4E2bJNsQCeTCih2AaVJ/Dq+Ep3uLwwEuHMqvGJs6gqmdCaTEKACdA+++6IO6e9A127aVTVkyPDFJJLCl5w4tHYhvNgBINoUvn0/HRvZchi7l9+Qiv6YZw6T6w4XYI8lzo4gyyK6FYFggls57cxo577RwFVPZF2H5V4fFnwNOKRCvOxsEQ8OqPGzDmo/mIhKO2So2I55QBVnGTx55rkQnkwfWs3CyM6N4JgztUg04r0yiCuWc4gvk/QolG7Xpa0TNHsyjAkZpVyWpi2vTQlFTo3hzoGS2g5J4LpJ8NgDitE1+HS4HNBWH8vnkPZv+9Ays27kN+/iGJ4UMu4rKQnZOJqYMvwrWnx+sDY2ELk6f8F8889yWKjhTD7/dxrq2jXrwTgRJUuhKNDrtpQ/jufqVpHrL/qVOD7RneKhM2YigujB15YNTB77+eV0LWFMWmyqo+lws8y4pNuVVmBFAdE7AkWy7/6AL2h2WgEmCVzKqiJcHaatLS4Huyf27ju27KesarIlcnfk87+MOMK0IuRcHYadlHxnxWNy1iah4FRAFjr3DmtojDj6iKDfZfs2a1MGnivTinQyPnuYj98OEZSzDuP0sZSlGBaVkBWWYWqxRT0JCqG6iRXQWnN2+Ea9u1xDnN01EnhzcwJr4OAdZ+ILgDKFoHlP6FaGgHjNBBmLEwqFaFFjr1OXIub4PR0apNJwDeU9mZs7HAQrc3Z+GvdTu4pcNL96VYl+tcKc/lo88Tk6cOPNHzEjx5/amsyNOMLkbpX/dApSplFh4STJ6y6RHf186pIB62IqCqrDUlHiXJgcGml1lVKlIa3AXk3s9Ko2euPoghb36LAweK41TTovBVBkpxr05wXS4GFSrMvAWlTv2aGN+rI244LYv7AuH1iG17EJEiit+RvRTnI2PcWR4/oGfC46kDJas5kHE6kNoM0KikhfrvEm/koAH8sj6I75asx4qNm7Ez/zAOlZBWHp2WgmdLOCT2HBD/lgpcdUFzfNb/YmSkxKXaN2/Yi/5DpuKP31YxPjchhXXUpha7ERbOaHSg+J1n96bWzLU0K0rBc6qb4pYiFXhGo4Y1f1Hxkl4jDiwPhp3YlKiRchd3uvnQk2n2yXQuJ8Sacq38f4RXsvuXzKoSsSpRqsDk36tlwjfnvfp3N63vvU6NEaUQAZTIXhBPkYWDBZ7o3c/VDv6xqXaGrvFYlSMyanMs8Vo5E9T/p6kx9B90E4Y/ei0j2BOvZVvzcfPrs1nvGItVyayPbCRsc56uyQL09olNoOX1o2bVLDSuUwvN6lZHh4ZZOKd5FTTPpbJE94sWHAHXbiC8AwjnA6E9QNFGILgZ0VgxPJ4coP6TQJUrWIhkfxFw99R5mLV4A1ePiUfrk9RISUeDY0zYf7FdY7YJLBMt61fHq3dejGvb8SZWc99IBHZ8xk9hcleTbXB64z+1qJJZWGUtr2S6fwpZzhZ8GadCbfU+y/6tKTAwYPy3WLRyD68xYitOMlOTHcGysSUH7qnjwWAFj2jTthGm9D4fbevZMxleCBwYDxRSLy611NeCldYSir8xkFoP0GsBOsWMKBp/9ADuOgT8uqkYv23Ow197DuFAQR4KCvJRUlzK5amoNFC4luLjjiXMq++rVknBCz3bY2DnUxOe6vXXvsPLr32FSDAMn5fahES5Bt/KbNpsujfTjMHnDwXevHeLck2XQIoV0VgJDA+Z8LOQxCAKC2MFfZ/ZP+unpYFC25oSrTKyZSUAy03lIsu1M0+SB/14CZfk8v0jt+/fACqB5ZWJVVFdVcrQO6rUfXpgjRd1w6jOpbQ4UBFIkXSNDhWfz8ooGf5uC+1IKVI8XuJzpsAljxVwC5+pk3GFFtNAnQY1MWl8f3S6gNcN0as4bOKBTxbjw+/+YoVt1G+YEMiSwEpUrsfbW4iN1AOL1hhxaHk0VPVnomWDRrjqrBY4v4UPzWsCVZNZ4ezbaT4DgLUeCK0BrHpA6hXsNyWlwLDPV2DynKUwiQDPSZHL+6Asl08CKGFhsahADET9fMsl7fHUjaejRXU6J/IQXtUdsfB+m8K3kgIOZYGZGFiXMZZQ8ClAr7wzMMFFsz/AuYCgqNlIOW0U4DsL+UFg+FdLMPXbFYiQmrD7vipzn6zy3172bDtp0L0eXH3x6XjvjjNQjSfjAKwCwhsYAyd8VA2eyHkmPw7t7u2HgWVbSvHTyq1YvmYTdh8+gqihIEalSrEIEAtL2UQ7Qyf6XOXDhvpOPV5c2K4h3uvTHg0d7Xpg27YDuLXbG9i4fi+rm6KuDRojuVpfBqqQaUavPSs/Mm74ztTUFENRbOVrocZFfxqGZXzw7aGFD40uWBWLMZAhi8ndLiPHqNxAJdO5CKASIHXCrKl/C6hoKQigcrMqCItKEOtl5lRB7NuJ9W9p0cA7wEvmtoc3qJJFQHxVtG+LAzDufa1m4ezf62boKgXWWT01Xy9OAaAtmMjoSkzc2fcqvPHi7dB88RX87Z+7MOSDRdi5u4DTU8t1K87bRB+dbKXY2UZRJsAUmTUompcECeHR/aiZk4NTGtfGeS1q4uLmqWhVV2XCCUe/yJGh59NYe9ek3/fiyQ9+QuHh4qMtBHnzCdoP4dLIG9w5kW03x4wiNzsdT/e6Cn0vrM1DuYFPULrmZTL47U2TJA/vvlm3K1eR6yeA6ZgsKleKjUcpoap0GPmQUqcnlDpDELU0fLx8P56YOh/78optgVRhUR3Dgc12s3CzqCDUhJqagcHXdcS4mxrZoj4iLmwXh0rjEoySmw78tS2Aeev3YunGrcg7dAiRWAgxCj/ELBh2sJqBiGAoTah5S/Db490PMJGdmYanbuuAoVeeEi9JMIDnX/wCo8Z9ByNGmVxRvmhvAbskgVxVOuSjpmrVygqEPn5io+eUtmGdkggk2iDi9CI+tWNPcPe19+Z9vzMvTOAkmo/dbp/bmhK86LL6scj0icbjf1yJ7l6KFZ1D5Z2Fya4lLCoBVm4GUHK4yR8Tf1Jjnb/7tVn+MQ9XH+vT1PpU8qloFK7ii4nMc4qkLFrtDQ15pW5oT0GVTF31qFRY6xyQHLFsXnUeWK9fvxo+/ugRtGnDmSzplXe4FA/MWI4v56/jxPUiQCpDdkLcRFpQkuXAVT3I6iPBIS5hxSSaCVU1BZmpKWhSLRctG9bGWS2qo1WdTNTO0FAtDaAYv59u3QBmrjuCwe/9hANUmcyDRke7EzKAJlZ7xhMCDlDZKhAkG9AgG1PuuxHnNeSbLbbzHgQP/AaN2f3HAFJHjU2SALsbmNwujbiGjCdiaI+yqPhccSFIDZ705tBOeRtADlbkxTBwygL8sWyjPRLlBdTtSXdhQkLcjVmfBCY6fDnZGNGtEx7unMtqSonHrjQG7CsFdh4xse1gCf7amo+/t+zGlt37caS4BDGuXWbXdFqgwl0SGUnkOa5oC9kHI3VIaArObVMP0wZcjIbV4xxrq1fvRI9eb2L75v2MJ53CI/GhFH8nkCJcpFWtR4fesNm4r38eFUyTtAyj8XZYY00FwbAZeXny/p9Gf1xMpqOwpuRgubuWKpk1xbm6Ocgdl1R7RaMjfn8igYquKaBedgFl/T+5rkpUq2elpkL79JV6HTqd6XtcMxSd3D9mVFFQnQEEnQg+69WpuYEJM6uqVkRLIdpZwxaCYA9hd+Gz1Csrs4miZ6/LMOr13hQbd15TF6zHY9P+QMGRUk58kWC12G9LAKskQ+nERrjJxHrFbMuOlXEKXXlbTFLTPKiWnYnGdXPRrn4WLjy1JixdwQuf/IJVW/I5cNB9uN0BB7jkoJE8dYlWH3dZDXhVBZ3ObIz3B12Bepk0/HsR+LsbYqHDdm8fd/vKtUPcoCK+NpmrVxZQyV/iBoyEYXXRorBB5b1/ipYGf4uXgIxLEDDJTf4bb3/5u9RKlQwVE0uqKtwMdtlClRo5ePTaNrigSVUs2xrAf9ftw8otu1FQUIBomAwIOojI7yK3SyrvcHpHZSu/wm/l16OPsKJjBdlpOp66vQPuu+I058OhQAz3P/whPp/xK6xYDDrFpez1J59PdibPMi3VatP8UGjcA5v05k0Vj8L6+WIMkEVLjWmq5qoNwU23PLxzwYHDLMNHDyfTuCSjchES7YIPnT4jGo/L4pw6BlO3/PE60UDFtpv9H+9b4G6grFQjGpbJsiJXkI6OjIvP8qnTXqp1f6pHu5g2muLhDcv28UqtSdau3R7z/jENSxetSU31aJpu8m3nfCF/M3d/iDCvSvVUTH33flx0YVysdN+hAHq9txALlm7lUT/h2NubI36NsoIvYhMIt0M8rtj59h2x1L9IS/I+L6pqpZ9lpOjwev04eIhk43ngm20ABz7kXV3uDk9EG+ZqWMjKTMHA69rj2ZtOZaZrrPg/CG0YyarQ6XTl2b4K1lBZQOVeT5UBLo7mrvYfd9A+3uvG3sqGlUu4p9TuCaX+MGaIf7yiAAPGfI2SUqrYl13/xCp35wCqcKtI4MJEO1Wk+HwoDhk8aWNSOl+K5zmHhzjkkocKjtp28qEj1pw4EC0Lmu7BeafVxWcDL0CtbCdYhu+/X4b7HpqKgv3F0FnamBdEy+cGk2PgXqyVkWlGn71zdezGq0M+r6JrbM7tnj7h8gVKjaKHxhz88ePvj+yWrCmqq5EbjeUShfJksMoKold4FlYGyuVj+VjeX9F7ZaByW1W0ZwRgCf0/h1nBl4qUZwek1rvjqmrPp3l9WTqLVdmc6YxhV7UMS7e+nJMTGfFujcihEj1d91E00WtTy0qYawfWqQewU+fTMWXivcjKiWcAv/trF/q99TMKjgRZ8N3ZRcKiqegpJUDkQCqBVcISEjuO52RYc6p8bdF7KAfQj/JNKnEzbMHzdiCS8G7VtBbe6nsRzm9GnnUIkS2DETm8nNMN2/xDFV41GVD9kxhVBXgrxC0EfjLX32Z/1dNOh9Z6NFTUxNbDFq596Qts2HGYy24w96sMq0p+yDK/Pw5UjBNLjCV7vx0PdkAm2bZxWbXu7+QLJHG4mckv6qa4+1g1MwVv9DwffS5s6rz3cH4xHnhkKr75ZgkTXYirIvPDmVeg22uLWmZ11bj2zD2Rkfft0qtmax7VoAQTNeTb9NamhXDYNOYvK/yz/3P5fx4uZtaU6OkTTcbuanTRdOwmxhNWlHD/5CC6jKMVLrXKvOFEW1RiVgRI0Z/JKGCECISwqqhcIaNebXhnjq55W+NaabeR/8fLnfjJRYuI7P3CUs14alyDwBc/16Q6hRSqrhIULvH1yvX/aAlVyfJi5Mh+6NWjg7NeAiELvd5fgG8WrEeUUWpKp2NFloY8quxkdJsUyYZd2kjMzbNJ/MXJmhBordAEOPoLxOai8LNiocslZ+Pdvmcjh0aZaqfWDINllEAxuIBDBU5f/PpuYDpWoCoP7OQ974wj/yHv+yZgp8wflZLkIKX5Y8z9o2j3oOkr8d7XS5jrzlLu4uBI+LMyyz8Zqhzn+AsgTNhR7u0laroEOPIMLQHQVR2a4qOBnVElJR6n+OD9+Xjmhek4UlBq800JiXt+30JZi0CdYK9pndLIi31X45zzVS/zR0wugcY8ByLFMywrLy90YOCrh3/++Y8Sajx2Z/TkGJU7XkWuXrJyBDk2RYN3DAus8nP0bwAVfbtw+wRgJXMBRaW6INcjFzD1scHZucPvrPW0EY3U02leVN72QraIRs3JimKt2uSPPPhqA/PvHZl+TTEU3rScGOJhtC7UQKwauLDzWRj3Sg/UaxzXQluwdh9ueX0WDhaTqnKSBVX5MTz2d8rd/WUHyRKvm8wikE9m9vwW0n3A432uxWOX1GNXNgrGILB9MnQ6VR0BhwpuWWDvsQITXbYsj1ke4mRYINw45zn5hajmy4Af3prXwtPgIRYpWLgrii7PTAf1vXGVIHqvuOhxAE2lZjDZYJT1Qelh5XlzarlEbIq76rlVffj0oS7o3DJe0b5rZz7u7DcJy5duZsF91rfPyhFsWLbHizdyx0zVMqJ3X70t9tC9JSleNmjEs2Vnwsm/i1kIlkaCH805/PuTkwo3R0PMmnILNMhkeDIHFVlTZDnJBZ7C5RPqxzJInfBJ+LeASraoxN/LoisWJQvkmKdXqwrt/ecbXXbBGb6BumJSei9uVTG+IhWGpVmffFMl+PIHjfSCgOH16F4QFQxvsuV1VZzegk4SE6mZXjz44C24b+AV0ImTl0bcAHq/twCfz10NkxR5naF179JKreLkbxL37vxWchOckf8HUyBfn7I9KlCrWio+e6wrzq9PRqqJ4OY+iBxZBo/DVCpZd0e5JGUEod0gc6z/ZmaSNETlAZXbKiKrimh+0pvC23oCFKUO4x7pMOJ7rF69CyyNKTWqV9paTDZjMpAk/F6et/LmK6lZFbf4HBCn93ENRToje3U5C+/0bs/ooulFhBkvvvwfjJ/4DcJBA16NicHblrj9hOI2SD3GMqNnNymIvDn8gLdBXUs3ozGFcaTbDB3U3mfELGvVqpL1A14rWLJue4TKv+R4lBw8l3mmxHtEvZQAKmFFua0pcWL8PwVUNJTiv/Kq1ROYFSjA3iAXqd9OavRggzqec8nPprQ/Kx1hpprGiBsPHVYjD49qGPzhz5x01bI0sqocaSw2XHzMeMNyDKe0aYgpk4agZWubwRPA2j0lOG/4dBSWGtwbE3SwlYl5/AP8SqQ3+QdA5boHXTFx4dnN8NVDl4OiUzBWo3jVYFiRQ1y3L6Flxo0eSSrST7RFVd7ydfa4RCBnm2cs/6dnwNfydSCd6zg+8u1GvPbBXBf9jTDpjnNyHBf0eOekrM/ZCCWAkC1NsgQVNK6XjVmPdEHL2oKxA/jl53W4/6F3sXnjAVZPRq4hv4LNbSXObkVBLBa1cnNKoxOH7VLPOzegE7O0sJzFcqZYXrjUKBkxKW/epJnFe2AiABVBOsdcNMOyhSVTDMt9fXKmT65Cl8Ov/88AldgFsmUlx6rIERe86nJ7DRX9kCmgP9A37dQn+9Z+zGMY2YqmQdVt1gSWDGJ82NaCpZmBJ8c1tLbn66max1INooIhq4p57KJanVOt+lJU9O9/A556/AZ4pSLQQdMWYdJ/lnKlE/Y5schP+Fgf5+6p5MeIcE4x8OqgG3HfRbyR1SyYiJLt70Jj3EN2LV4Cx7e9sWQjMpnlc6wWVEXvT/ZIZQAV16KjPkkS7uwN1CaZKR8W7YngyuEfoagoZPdFyhf9F+dOduXKnZqyTEguaEKnqt+j4vEe52L4tW2d4s6S4hAGDX0f3323GGbUYskR1qkhvotdlg5WIug0LcUTNR65ZZ8xsOcBj64oKhfr4cydVJnAGDwNw/xhUeFf/Z7LW14SD6DLrl2ybJ8cPHdLtLvLEU5oFXpZy6OSO+G43lbZWJUIrlMRNbmAKbVrQ581tsGt9XK17h4ioaVyBcaxTnQqvMUiasCa8GG90vEzauhFMdPn8ZHRQJfipzJ357gMPE1us+Z18NJLd+LSS4h6g7925Jfiguf+g127D9t8VZU8TSu9YO0vEpXlTp7+WC9QzvSxOh4TuTkZWPDC7WhZjc6BI1Z4wwBECtfw1evo9snX+T8IVAnJDNuFJyYARYEnvTXUVmOgKnVRbAHXvzIX80nBhXTuROaVPdJxAFVF0yF7dZW6vHRBdzSBSh6oHKFVHXw6tDPqZ8cr4GfM+B2PDv8EBQcKmU4fF8EmbQCxjogZgeNCxFJjF7fOi775+E49J8fSVYt+E+/nY0leWNh7IHjg1mEH/7tmW+AwVBZnCknWVLIiT1GOICwpQYxXljX1r7l8Cfh8XBBUuQ/JFpX4uztW5ZbXYg3LVLHe68acqi/dm3lfqkdrp1MPIM0apWGZrN4EKwAAIABJREFUVaVCU03kF+rGY6PrB79ZmEuxLo/XS+yF8UUS7wE0oWsWLu9yJiaM6o/s6nEOhPHzNuL+d+bBilHTqFxYXM7qrWhhV258ju9dCbEOe2PGYrjy4jPx1ZDzOLNVZAWKVg6CgkJFpaSCCDg7OJwEkJ3rSrfl/tnx/JsuJ76urE3ujKf8Bnv9U5yKqdZmIaXFM0DGZSwI8OJ/t2D4O3PiDeZOm9HxDeuJ/VQZQGXLEVermobRfS9Ej/MaO0OzbUse7ur/HpYuWcvcPep9jWsV2Xenks4fEI2qRu3s0thbD6yyzjxH8WlMasmuQBcF9xYQiRiR594+8OO4T4u32W6eKNx010mJJmRZrEG2qoQ0e3k0LpWC8OMZ50qaD8dzafYZdh6UEasSgCW7gIJfnSyrKikp8L35dK2W3TpnPGrEzCo6o38h/jNesc78d13D+h3e8AMv1Y4t25ydoisk5mIHx203h4GVTa6XWcWL557rh969znceqqTUxDVj/ouFf21li8AQhnh5sSr3xvu3gSvp9YVFZMLn1TFhyHXo14FicKZl5X+Iok2jQIwTDkjJgOEOpMuGSLJnE6N1PEBVEUiJ+zrK7RYHNRf+sBQPvLVuh17vQVb8+cuOIG5+7gvkHwlAUd0lrK4982/PT2W2iJ3Q8Og6bjy/Gd7ueyGy0nk5Qixq4NHHZmDqB3NhRKMgxlmR5WMhCVu1h0mJmoqpq6oxvMd6o3ePw16P5lHJtacYJG865sydhgFz7i9H/uz7/IGlJQFWfW53xyfIX7mD6u5WGSHLLrfJnLTY1MmyqNxgJbOAyn2Abspi+jerWK+VA+3TUY1ubNvS00MxGUmGwzDAMrYWVXzr+Hqhv/Tpt5qo+w+pKbrqYVlAHq+y22tsInuq1G3drik+eHcgmjTl9Cf0+m7FHtw2ejaCJRF2fbbMy4Px/wsL3y7ypGdq3Kgmfnz6VjTMpFsvRHDjA4geWgyNeL5kihPniaWHc7smJwOo3OOX8G8BMhLYMJFSwJvWEmrraWx55IWA3pPmY/aC1Vz3T+7dPB73rzJgcyzvkUGdYa7J6sKa1s3G5H7n44LWdZyrffvNMgwdNhmHDgZASRG7iJApMPFRoOpzCmNYJDRnXt9hX+yFh/ZoWRmKzgo7GbWsYBDhQLVnb3Df7U8enLNiU4DaYwioZKvJXZogsn3uVhkBVMLtc4OUOE2OZWSO+b3/tkUlA6LoA3SDlTuwLsoVyLpiVDAtGmjpX49vMKxGrnaGTsNFWUD7znkmREMgBOPxsQ1Lvvq1qteIKSlEg+FIwtscPGwiSXBUV3DnXVfilWe7w0OBdQsoDZvo9s7PmLVgLZNlStABPFmjVNnpkzcAqejEQuhza2dM6tGOWmYsy1iO4pX9LUQDjDCFMY2WpzTjNtjl5/0nFpSw0tzXO8qCStZiI2f/eAUCxak0zQ9vy9FA2oUIWQre+20Hhr05C9GYTdv8b2dsKztH8rOzrcyDpqlpPtx/XXuMuKkNSICJXrt25aPXnRPw14qtjDCQ9blKJyWnNBKyarDOaHMkNnrQVrNVs5iPTlMqweGlCLS+ibnTRDBgBEa+XTB34ldF+2AeZUkly/bJWT7h8gkJLBmkkqke/2su38m0qJJZVXK5gqCCcYuWOu01lAW8t0dKi6cG1HnUZyGbit+ocVlYPFwZQsW6TamR4W/VDSxel5GqWvASuwGdSHyf8Loq1lJgWqhWIxXjxt6LLlfGG0B/35SPG8b8gII8EocVy6MCy+pYFu6Jei8DD7vHzCDuKQVTH70N3c5gBa1W8OB7iG0exYolFYtyP4LJs5xpl5daecB8IoCrLKASm5v93r4h8QfjJ1NADKz+WrcC9Z9BFDpW5QXR9cWvsGXbQSgenRfvCuvsf3XAHDVGvNWH7v/8dg0xY/AlqGWTOpICzPARM/De27NgGqrddCwTY9jaANRaHINVp1bUGNl3ffSqzkEv6c+w67JGfN7+w1g7YzFj1i9Hlg5++eCqkhJmRQnrya3FJ8epBDjJcSm3NWVTnh7Fg/7/S6Ci5SM3LLublgXHOv3JJLaoZCE3C9qX42pf3bJhSi8PxcUpC0h0MHYPHdOEU3XrpwXVIsMn1opsz9dSdY+iWYy+mPdDsf+3K7QtxNC+Q2tMe28QatThCst0Gj3y5Z8Y9+VidkIT0Dkd7v8XXAm328ZWZgytmtfH149ci2Y5KhCLWIFNd8MsXqao5DYQ9WzChi1j9yYDKvGzE2Vhub+jvOXNfXbH1OIWIefH8frqAW1nEN8ADoWBe975ATN/2sB1Aanm6H8BUOWFAljlMZCbnYL377scV58ad/m+/mYZ7n9wKg7mFTGQov5W0dHFQlrMgWAuHzxpZqznRTsjD929T89K93h58o93YDBqYYsJiVqbdxRvG/BS0a8r1gXkRmN3fMrtBgqXT2T6krl8gm9K9PWJFfn/O6ASZ6kAKtmyEurKcryKgEqULPiv6JiZ8d7TuQNSfEoHj8pktjh1MSNN5H/GYh7rw89rhV/7uLZxOGCkeb00gUzY1FEPEUygulfFkAduxDMPXs8ZsgDsyQ/i2nFzsGLtHlD9VpxdwR3IOVHm0TFcR65Et2MepHY85PZL8OzNbRhRnxn8yyxedY+iKQGq5LB5vxNMlbK/0A1M/zZQuW9LHuIEq8i+EbsEQUUK/KeOBVI7glRdXp+zBi9//DtKgxEoOi+OLDe+eAxDflxvTYhNcZeP1unQW87F6K7tnFvbuiUfvfu9hRV/bmBkkbzp2GatZQYzJ8JjpTYezbi0zf7wE7226C2aayRAk8AxxarPGbVwpOiZtwt++uDbkjy7BEG0xbizenKMStRJJbOm3OwIIib1r/T0lTXeJ/Psoe+S/5NjVrIQhAxYwqoisMrUNHieGlytyZBu1QapZqw+ZfhIK4HR1tJ5q3jYZJcETOPV92qHpn5bxxOOGV6VKUV5mL3KPSZ+wpEIY3bNTEx+6wF0vqipc4DP/HMPeo6bg5IAWSNCiSRh9R3X+v3HH4oX03DWALr/LC8+f6IHLmyWyVixwrufN0N7P1U9rPhGXktuf0S6m/9VjCrZeSwDFLtlOVZFU83POF/trlDrPsk4yeauzcfwz5Zg+ZpdRHgft4JP5uqWDUDnuQTDp4KzT62NWQ90QfUszs0eDIQx7KHp+OKLXxCLhLmbbuvzcaAl+5Hyzwoiim62qhOKvNj7L619R5JqpJCGLXtFLh8sxEhrNmwan83O//XxiUc2lJSwuJQsxiDLXMm1UyLLJ7KCcpuMu1VGgJT85z9e1pW5wMmeyrKAimsYcbtG/k8E1ulPqorLzEmHOvqp2hdee2FmD9U0q2pEWMTEAAmoiGpNIyk8a89BK/bE2Mah//5WI92CoZAkEnGtC4ooIRkUM6M4t2NbTJ3YF7Xrc/ncUAQY9NEifDBnOXM3eCjTnQqrzPCe4PcwoLLvg2SPYhGc1bYu/vPYbaibSgdswCpZe5NlhHZoHpOGlIsF8FcSoCoLe0+Uq5d089q3kyzALiyhBOPV5S8y8Q/K/tWBdcoU6KiLnUUWhs/8C9O/+wNRxqZAbKtSgP5krXJnPO3qc3s7Z2f58ekDV+By2+Wjafxw6s8Y/tx0FB0OQSP+Oa4X58wUAS6FYckbyM2yIk93XYYuNxlePwFajPX3sRlljVGc/xzLVhat7/dc3uKdeQa1QyaLR7lLEcoq7BSlCO5MnxuoTvACL/tyJ2sKxR2I7xNxKne8SgYr+ruwqEQ/IGNYqF0Vvq8mNOzeqqnvKsQMilYx316UmxBcqR6PuXi1FnpibH1j7bYqGSxLSM3HBo9WCclrmnCPT0PfvlfiueFd4U3lt7htfymueu1bbNxewJVoHYVleTedtHmKYw3b/Dw2pVlR9L6xA0bfeT4F8qxoZJUZ/runCjPKmZwqohwuK2Z0MoGqrOiGE/OR/U+nyY2JG/iaPApU7cHy7mMX7MJz781GSUmYJMx5D+DJXt1ugLVImNnCw1074rmbTnduZ+mSzeg/cAK2bMlnWT6Fipnt2j3+tARSFF/U4U/RYkOvWWP073fE69N1xSLtN9YnyLhk7SyfZe3bHz0w6KX8+fOXlwg1GXcA3R2TcpcjiOrz8kDqX2+VKWtHneyplAFLdv0YjNhWlQArUbYgrCqytKicnPpt9Q6tteqfjGowJCtTPVUzFbKauT9vu3fUGxazvObn81KCr0+tZ+w96MukAlEmquCwb1K9CQUjTdSqUwWvvNQXN1x/pjNW037fjv6T5iIUjPLFHz/vTjJCSV/NUJYDFckqvX7X5bjzggY0eGZw/5uWsfMdtuyptkqSPonfr2vf8wFzPdq/DVRlWVPyqDouoKtMgd5jz0VK9iVQm45hS+eHzaXoP+YrbN9TaMtp2bpR5Xi8/84kSoyfloWLz2yIz4degZw0XtiZn1+MuwZOwsL5q9ihSWrGnM00Pgks5moo8KV4zOvO3hJ58v79nupVNI0ajg0SabBLFUhazVRMK1ASC4x49/BP73x1eJ/JSxGSxaOSAZWIScn0LWVVoP/PrCl5if47c5b8qrJV5basymqvEZlAJwtI2/WWq9NaTHi41qN+r1qN6GBY+tq+Opfb1hGO6dabn9QKvPWf6mZpQM/QNRJh5KFIThBJYhBEBWugbbvmeOfN/mh+CmdYiESAe6Ytwsc//MVDQsxkc476kzdm8klNfzdICEDFBW0b4fVeF+IMonSJ5Zmlq++EFdurspYZ06bqTXaX8vWSgcb/YaDixGNc6kz31YV++rtQUR+7ioG73pqLBcu3MfVf7uk6i+HkzJVjHVIWQ0ej3Ax89tAVOLthDvv+cNTCi8/PwMR3ZyMa5DY6aw1yRJKJLJBtS1LjtTqdWRB5ut92tVVT00toZpFba2tOEuOngZhlRs3Y9DlFS4eOzl8b5QKiMiOniD/JyjLiPXIfn2xNJRNqOOlZPveE/S8sKvk7k7mAXIsqMVYlXD9RW0XxKh95cmMez7i4++U1Bnos+DVNoXZzpmDD55uaOjUUFnswclL10i/m11ZLjFgKNXuSIAMPSHIqGPq75rFwW9eLMf61PtDTuAW17UAA14yZg7Wb9tld7NLtn6zRE7EpYU1ZBjJSveh33Xl45NrTUCsFVqRophnaOFJVEVNYO0VFbh89XGWsDfd7TsS/y7Li3G6gY2SIX4g/aXPrgJqG1CaDgezurKbqpdlb8MZnv6AkGAEJcCb4fidjrtj8cJIpn8+DV3p1xH2Xx/n6v/xyCR56eAoK8kug67zRmrfHiMOPPZ9lWKp1WrNA5Kle69Dx3JhPo+YC1q9psyJYKmImcbrHrBXrghu7PXVgUV6eIRPhCatKgFay2JSbsbOsCnQeCuOrpSxH/V8/CE7G9CV7CPl7ZRdQlC2ILKAcs5ID645l1SAX+OyNWt2a10+9USebyqMonGXBFigl60nTsf+AD0+9Wafku2VZfhiGrmpcHp7diA1WlAXMzPJhzOuDcGvXuAv4yZJduHviDwiURlh2USbXPylxEIfW0VYsUS3Uq1EVI+64FN3PrQk/LDO8YxjCeT+pxOTJxQgqsaZkN1AAl9vOPhHAVJGFJr4z2S2zPewGKgqoE0WxB96Ms6C3Gs2aGH7bGUOv0V9j656DXAlaJEH4JP/rm4m75Fyo47r2jfHJ4M5IS+V1L2tW7UTv3hOxcfMeXmHP1GS42Ad7cYyyDMO0atUzI/dfv9Hqdm2JL8WnqNQsz9Yoa5GhpnuLAdW+/YEDvZ85NHfZ2iBVKEcljinh5ok4lJsMT5QjCLCSQUpIsv9PKtDLmqT/C0DFPHRJakumLS4rXiWktii47r2ofVr6lGdz+2Wmes73KIaqkuILq1znpQVkXpNk1YYNaeaTb9YN/b4pLcU0LAZothKpQ4BPC7xRi7r46L3BaH0aSXcDoTBw7yeLMGX2n7aGnx2vcuIo//IecPYp7zT1eDWc1rw2Jg24Cu3r+KxodI8V2nAnzNB+VbdP3grvSN638fAI/1hFwHKif58MqOSxTQJUTE6LLGa9KnynTwS003DYAHpO+BWzFv4tKU7/i666DOJ2iwwNXutGuZg+5BKcWp8rLOcfKET//lMxf/5SVjlPgXJKTcvwSSuVknlZ2TCG3rgn1vP6vd6sdFVjmnzk7jFqf4VCk+TyoajIKHl0fN6Pn31fss+mCRZuXrImY5HdEy6giEm5XT4BTgKs3JbUSUD75Cv3fwVU7u2QzAUsL17FKF3s4HoVaPDedUtW7RF3Zd+Z6tNPI2IelVEt8EVKgXUyscgS+mNZ1dgLU+rHlm/XU5gYp0qagfbg2JYVcfqc3+k0fDjpHlSvzavWN+8twq0T52Hlut0ntxdQXhpsY1iokupFlwtOw7he56CaF1bg8Awzuu1VRY1FVJXcPlZLVM6rLBdL7JwTDUQVXa8si0oG0IR6KhshGP2LjpQGQ4EavWFAxxvzduCxt+dwt955nWCwcsf4BJAaFqpkevHh0Ktw3Rn8kAsHw3j00c/wwbQfYMYsFltUdCpA/v/a+w7wKsr0+zPttvQEEkJvoQoiVQUVVFTsFbuu+nfVdYuru79dd91117IqKGtd+6rrrgXsBRtFRUHASgeB0JKQENKTm1tm5v+838x3+fIxNwkISrnx8QlJbpk75cx5z3fe8+64JxD7j5uWbaSp5pUTt8Vv+NkWX26mSTYqWMSOSTQnG4KtIGqZiDaZ0YdeqJx7z/O1xRahVstUBNE/JZo95VQEHi/sJZ6LjcfyGdjmPXBvPOCnBCrx84hAxf/N0xVEM6iYBspLQdKr0ikS5g8/zy76+dkdLwnqSl+D1Ee3H9AVKBlVsCzdnvtZXuSuZ7or35erfpp2wnoCKcPKbVqmp+o+G5dffiLu/Ptk+IM0PxB44+stuOrROaipJZsK3QOlAaZ74wglThMXdAHkd8jElCsn4tJR+TYQthu+vwlW7XzKnVJIRGcGjNaObGtAJX+Gn6r02wnc5Ihi5yZD+BXIPRZK0e0AcvHV1ihOuW0GyrfVOxOFE+O09iAZkPeJ077A8vtuvuBw3HbmYWwvUqjqww++hzumTEdTY4ylIqgaWXF5tDAtABEYaVD8innuuMr4n39WrOcXmKS2MvGceZOZFUEBdXVFw6b13ifbv/zVfVVLG5oSwxYIhOik5MxJZFVeNgTZ1CmPZJdHX+3Bnbd7F8m+BFS8BORAJeesyy02YsoCS1rIy0Tonzd3HnnOxKzL47F4lk4H21lacZmVwU7uSNS03nivMPzAy72MLdWmDzrRa43JCw5YOfphVnY6/nTzubjm6mOdlRkLuGH613j0jS/YVA/bpe97Xf9g14EDpEQUhw7sgTd/P8nuSl2QzUvRsPJ62GaNolKDKonILY5qkkPsBVayZvVjMazWzt1ECdhCy3GblslBp0ANdIcx4E6o/pHsSp388Dy89+lyJ4o3UTaKhdbuXSyJZ4mMir2sc2M4Y+xAvPSrCQg4vmK8On0RbvrDv1FZScNDqdqjSCL3j6yHzwLl1dp+vz1peGXszmvWaQVdoppm0g3V9Uq5MS9x00Y0Zttff1e37PqpFV+uL7FEwVwUzUXmJE6VEVf5iE21Fd+yVzPQd/UI7AtAJW5DshJQXgXk0cXcEJpIWuici7Tn7ut14uFDjbPtKLUb2LZNooBLfmiKDX01NKvmf1/v2fzk6938W+vjuqbHYVrOOCLeuEy+rN59OuLee67AsccOYs+rb7Zx2gOz8MnCVU7LQyLtei/0l4m9fW4kQABxXHLmUXjsomE0dwdW1Qw0rJ0CTQkrbMAoe46XAOWxyicD048NVK3pZPKZzAArIda5dRMdVhLVQwj0vhZqhwtYA8NTi8px/QPvOI3liRKQnruHiQE7WZy6dWjfjnj7D6ehe46f/eqrxetw1TWPoHj9NmYp4CDF2uhtSukkGZ2YVACH96+K3XvNKqVH35iuEUuneXwuk2LiuU3BehaKNzZuvP7e6vkLlzaSeC76pURwEi0KolVBHNDAgSpZfMtPvsrndfh3Fdz2xuM5WMmsSiwDvUpAceIygRUZQtN6FGgZrz/U87yivr6JVtRUNddj5dwIbaiWzlYCaxri5hMvdo88+053f01zXFOMOA2NYKsqDKxMGz4/MHr0ENx39wUYeIijO2yoiODI219DWVmVm/Pkbvaehn2pCZm0jMyAimd+dx7OGppH3V2IbrgdzeVvKoYSZxE2O3+1slE/NjAlY2jOtb7jywtPOFC1ACxnocSCBqPDMfD1ccq/DfXA2D++jFKK66Ex6AzgJJDbnbNYZFL8NS0FBfmZeOdPp2Jk92z2LqtXl+DGm/6NefPXQLUczzk1uCc+PhsVoyBupGFk39r4vVevRtEhYV2nWw+zlrij3tybJjH9qupY5Z8frv7sxVnV29kUGW+/lFzycQDjoMZ1KdF9LgrnIkDtBWTfnZ3u3pN2/6l7/JkyWMm2Be6vEsfCy0BFJSCBVWBEX6PDC/d3v7ggXzsCcTai1HUsUxsYyeoksKuorLPNB57rEZ0+q5uvJhzTdIP8KaRZOcvBdJIHQj6cdsooTLvrImR1oHoLePnLElzxwDsIh00wLUy8DvYUYCW0EGdcO5WjA4sKMevWc9A5QCJZORpWXg2rcZ1C47B2MA7x2AgbI2orSUjXTt4qWY/ZGz+3G6h4Spiw8Q5ZhuLvCt+Qx6BqfdjRPefx+Xj9o2/Z6i/TEhNf7WRVov7u9ZmdZTjofhUP/XISrh3bg73Dtopa/PGW/+HtNxciGiGvlNtYncjJouFVCiw9gIFdms2pV3xnDTsiphtk8WTTvV0jMsuXYqHCaGq06u56rmr+Qy9VlVpmixFXXDgXV/zElT0xY0q0IngxKa5L7SFU37P4sKcuqT2xVXxbaEdxP5WsV8nNy6K4zkGLxHU2fXn88LROz96Rf1VWnnGISisu5FxnMcNum7FlsLC1rdWWee/TPWOvzu5oRKKmBoM0K/JZ8TubiczsAH5z7en4/W9PIeGTfd4/v7oEU6bPQ5zlFghib3v2qnghtGfvUeSHGcf1F07AQ+cNdZ4Rnom6lbcA8QgYa2S+vCQgxW/n/M/i+8vX8Y/9Mweq1jBE1KoSj3OOJFvtVwPwF/0dSvZJrEX01eWVuPCOGYiRB4l1Popf7QQr/hSRedK/nTYFaD4NvzpjBKZdNIqBZUNjM6be8waeeOYjRBuJqNC27YgtZKuxtoWYGkK/rlHzjgtXWEdMqNd0RXW6CdjNxhnVzm6UqoVo1G56Ykb1F7c8tn2TZbYQzOV0BNEzJa/wiS0yMpviLEoEKvmTt+cM3auPac8ltVc3IMmLi1qVWP6JHisCJt4PKI6Hp0gYnmNlXHJaqM89vy38eTCg9iAarrNJW45gxU5fKgN1DSWVmnnXUz3i783L15ua45rqizNmRS02jMwoNjrmZ+OuW8/H+RcdyTa7KQpc8MgsvP35Svdi2AV/VbuAyj08TLAwEQgYePfvF+HYvmQfi8Esux3hza8yQdmZ2+fevRM7lT9fSBLgoCAC148NTG29n9dJkRSonLl/1GvgyzsZap+/AMjG1igw4Y8vYhVpRIYbNrY7U2rk8phQxPWznDl+MJ6/eizSgwaiMRPPP/sJbrvzFdRUNzk2hATR5q0xNkzVj54Finn7xd+ZRx1br/nIzWexJWf2qdn9juGgRbpU9IX3a7/87bRta6JRBlJiuJ2cjiCv7ollH7Ep0YaQbC5fwqjzU1z0rb3nvgxUjDQLZlAxbE9OWRBbbLjAzphV0Aftl5eGDrnp4sL/Z/j0TmQ00DRiVs4rk+6s0CxAvw+bKlTzH4/3NN+bl6tFY3ENRhS25Qw1pTscVRA9eubj6YeuxuhxRWy/ri5txHkPzMSytWVOOoMr1jugsZuHWyz5+NlrWhgyuBc+/uvJyGXXXQWal1+JeGOx8xm4PtXiPaUNaKts4+DVFpDs7b+3ClSyqO72/sF2ev8OeQiqPpAtaf3mf1/i0emfO0DFm0DlfdDaIdppf7nOc1vBmIEFmHHTieiWl4F43MScWUvxy18/i9LSKug63RAdCwIrD1QyF9iIKUF07WBZf7nw+/iJJ27TDEXVaOYicS46hu5kY5t8fFbcNj+cX7f0Z3dWLGusB4nnUTaTz2INxzytUyz5RBYlNhuLpk4egsdzphg/FP7f55gU36DdvZR28wps99P4diUDK74KKArsYoQxd66TXuXPTIPxx6szRl52WsGlAUPt6FNtW6WeQLeJ2bnQHWa1aZtm3vFEL/PDzwv0pkhEVY0Y87lY5GmxFNLgMezQ3vjfs9ehS3eWUY6ZS8vxs3/NwrZt1a4VQmBW7f7IwgMTIjq/0Trs/M+XHY87TuvvPLD5EzQs+x1gN7KsOFY27HQ02wAqr21rC8z2xt+9WJ68bQlG5b36R/xYQQDBopuAXFr90/Dyt+X42ZQ30RyJOzqiFxC3CVTuGztzqNj/g3rl4flfT8SwHnmsZWbx4mJcdfXjWL+2BLqhgWZQOrGzNrsh0gpfXPGhIEe3/jh5hXn6yVWqTyP8Iq+5c2y5sZ2YFMy4uXh586oLbin9tqISFCcsAo9sRRCHMoj/Fnv52hLP97lVPq/DvzuX0t5+jniFtcaqRMCS9Sr6mVgVa2DOz4Pvr/8vNOq8iZ0u0XxaDvlaWHMywxRyr9M3AzB0bKnU43/9Vx971ufZejQWU+CLAqYBk5Zf6OTTgGOOHoynH78GHfKz2Pl7/6x1uOXZj9AUjrMVHmc8vFs3tOd2kJikLNgI2DY5tUDHgmx8cMtkHNaZPlYcdukUNG5+ARrlO/Il+NbYFL9IvUBhbzOk9r5+u6Uj/sAdT6B2GjqYRs7R0Ivuhw0fVlXGcOkD7+Gr5Vug6OK0YfH0bYGA3mDGbR+2ivyOQfzn+hNw4lAn93z1is245PLBY3pPAAAgAElEQVQnsHTZegZQPnJ9qo4uRQNyCahMBJGXo9h/OHetec5pZYqhKZrTk+n8z2gNY1SWrdi2vWJdXfHkP1Uu3lhi1rjsiVsLZB3KKylB7OOT/VJt9fG1+wjsbQDYX4BKvJz4v+VVwNac67wUJL2K/+/v1gmhqTdmHTl+RO5kVdMzA7piq0SsWJaVc0+2LJ3lbhdXBMy/Pdob8xblaI3NUSjErJhmRUY8MNvCuWeOxX33XYr0jCCaY8DNMxbj/lcXOvuY15byJ0l2hEWg4o+h08aMQzFjmHjMoXjlxuPY/DDYlYisvByxxvXQmKrgTCFJavTkLEjWW+SfvRjH3mBQMnDxfdTuy8TjgZTuSsfRlwvj0Oegoi9qYsCd7yzFtBfnORE9siieSC3gGyS+rgtg/GYBFRkZfky5fBx+Pr6I6ZulGytx6VVPYP785ey9nelIOjuXyEpCEoMFPzrm6Pbvz19jnTWpFH5NUVUmWTlykDPJm2QvluBhr9kY2Xj+LVsWrttgiSAll3Xyz15Mio+68hLP5RU+XqX+2PjT7vdrz72+3S+2hx/oxarodxywCKhEcd1rOASBFNesQhoQGtDHCN1/Y+YxwwZknqHoerquwTZ0TSF6zvCFTW7RGbNaVx6wbn+sF+YsyFQi0ZgCIwaY5GCnM81CwK/jyp8dj7//7TwKOUNNo4lLH/8Y7362zMlMcjvkuXO51f3Db+zig9ht1oQPcfz5/52Mv5zc38Gi+DyEl/wCZsyZ6cziP1or+w4UoBL3kZSlztvaKdYn0P16IP86plPNXF2DK+55FdU1YTf1041V8dSqJOROpFYo8Bk2/jR5LG45YygFvqJqWxWuuPq/+ODDhUz+MlgjvGMYJk2KzidTSUdBLuw/X7LROv3EzQrdF9nqrOvBSmhSZAAFsG5D/ebz/lI5f8362Ha6RQnNxjJzSlbu8dU92S8leqX2qVSE9mLGvgxU/DPIelUyZkVAJQ8zpdU/rl0RaKX5fAgM6aNmTr0xb/zg3umnKJoeojnwNHqLTjiK4FBY2wKZQjWsK/NZ/3iqtz33ixyloTmqKlqUOYopo5pOuPRMHX+86Vxc/+uTGPXfVBnG+Y99gi++/t7pNWMjt9yvXdnb/B4XjyMzLxNv3nwuxvelKhaIbbsH8fXPOs5mOp/dFg52mSUuQJdBJGMv7T1DfixG1d7tSVRqLZM/HaBSWAnvzxgCZeDTsJGBNVVxXHzvG/h6dcWOJE32GiID9fiQArkydAUXHjsED116BDPc1lXX4bpfvoA33pzvxAYTkyMZgU1zdvr34vDbhbmGffNFa+0zTipTDNVSNEbrHK3LHbtuW4wKW/aW0ubSy24vW/jlkni5O9WYAEUWzdtjQUhm6hRF830mFWFXDnt7H/tTPU5mVl4RxuJ4eA5YvM2GwIrrVySup2tAYGh/I/2e32RNGN4/81TF0AKGRlN4VQZWDrOiU8qgE9DeVBmw736yl/3uvEwlHImpjFnF3d5AxUReTgZu+9uFuOyycewk/XZjDSY/PBvfF5eyLOxEONquABWr6Mh8HsUJ40fh5V+ORTZ9ImsjoquuRryhxOmUkVb72M2avU87gerHAKJkGlW7Sz3h1JNFdQFv2EexAc2fDWPIQ1D0UahpBG54/hO8Mu97NEVjbseLx74Rz26+mEHsRwNOGdEXj18zDp0zg6itq8UNN7yG6TM+ZmzXMEjndHL4WU1HE2GUEArzVOsvFxfbp5y4RTEUmwZMOlOBBE3KtJ2s2S1bG7f+4p6qRXMXhQmk+Cqd2Mvn1dcn2g+8YltkUycPKWOSmNRPtDtH4kfFg129dH7UjZPejG8rBypeBnLbgjjIlK8GirYF0RAaNAwEBvZW0x/8Q97EQT3SJimaESDNqgWzYtEatBqooqzSZ9/7bC/r7U/y1LqmqAKNVgNV1iFPY+I7F2Zj2pTLMYky123gw6WluPbpT7G5rGpnOpV0r7vnC6/j4jH4AjZe/OMFOPvQAuccrn4OzZsfZP+klhnWbtHiInPIQgugam/p92NpVu7m7U7rHSNCCXB1Nph9XGIpbmImlX/BflcB2b9CNKrhpYXrcMtLi1BSUeMqQ5KA3nJCa4tFkHFDe+DZa8ejT4cQGuoacNNNr+CF6R+zY86ZFGuNVmkKErnbDHTP99u3XrbWPm5CqWLQNBm2YY7Pjc2UJLcLS2007ZLySMUvp5Ytmr2AMSkCH64t8TYZ0Tslr/iJACUnInALgtwiw3n3Pq9Liaf1/ghUtM3i/7K/Sk4HlaNhuBk0TdMQHNbPSJt2Y+YJg3pnnKgaPj8ZQskDo1L9R3yI0XQDtq5hW42Oac/2NmfMzlXrGyMKdLIsqCxJAYqJPj0L8PCDV+LIowYxb80b35bi+qfnorqaVpgZT9ux7732PG8oZvc7Ouuj6D+oIz645QL0IB5oVgEVjyBc8SLUKOWD0NqSK8oKvS/C5eu8nwxUMlAkYzzic/mW7wkG9gOAyu3NTjReJzadARVpRArr40zrOwnI+T1g5WFTZSN+/r9FmLVgNRvS6Zw+AiqzH93f80UN28bwokI8/9vjMCg/Aw3hOtz8+3fw7H8+QtyMwe8yKXaOsMUYMnMG0avQtu+4YiOOHFuiGKQ9MevLDgsCAynWlExMqmnrL+/dvnjW/PBWAaDkGGH+s+yZEpuMRec517ZkgBId6OLR/CnJR7vfe38CKv6hZKASmZW4EiiWgDKzSjQwGwb8hw4wMh/4Xe7EPl1CEzVdD/gpz9ph9I5mxUbBO5rVtlrVfuSFXtbLH+RrVTSaSTFZdzuFolG21fChPfGvhy7DgEP6oDEaw5Mfr8QdMxayYabOl3A3l/d+onmWyRY09hmDBnTA2zdfgN7ZrtZVOweouAeR+i2wYjvSEpxXdV5wB8Ny3+CHAFVbp9LuAFcyoJKITgs8EY+++wn57uPaHJEU2gf+9HT4el8PpJ1DlT6awiZ+8eJX+O9H35FFySNFYceBYA1WqoqB3Tvgmd8chzFds9HY1IBb//oWnnzyQwq4g0YlnqY5fV60ZqJoMDUf+nVV7DuvWIMRh1fCZ5mUD5aospw0BAIpltNpl5Q3b73unorFcxdGK1wmJQbgiT16Xit+yUCKl3ucTYm6FGdQ+xWTanHY2zoX98G/t8aqvGwL4uitnTUrDcHRQ/xZ9/46a0LfbmkTNR9pVio0nWtWFOZC4EGrgRqqmzT73y/3tZ56M1fbXh+DrZB1QUEsTsvTJo4aMwD/nHYhehV1R21TM+6btRIPv/0NIhFnikjS6SiJGBN3j8dtBNKBG888EreccRiCzsQloOE1WBsfQbS5DJa78pco99yHtACr9pZ+PyaDEkkNBy6v+/xO4LUTX3R745zAMMXIQFq/G4Hs01iOOn09PW8Dbp/+OTaWkiGXm3H5KeTuKcEe0r97Rzz56wk4qkceGppqceutM/HkE3MQi4VhGO60ZsplZC+lQgkEMbhH3P7HFWsxZOQ2xaBYFwZSLjoxuZE1uTMo3VLWWH7tlO1ffLIosk3IhRKF8mT6FAcweaqxl6GTI/J+4TxvC2P2R0YlntbJSkAvZiUPNG2pWQUQHDnIn3XfDdnje3cKTFQNIxgwaAgzDYvgwQtUWqigTPa6Jt168e3eeOzVTmpJVTMbDx+jWyadHqqF8WMPwbR7z0ffvl1QVhfG399dgv9+tBTshs4AoZUUzkR5QuYcIC2g4ZpJY3DbaUOQRssBDKxmAlseRFP9BhZV68hSOw5nAqgS/3D/thOLayUjfU9pVl4MSqq+EieqzNBagGdLkGJQ4PomLdOCbqQhVPRnIPfcxMs9+ckW3PzCHGzfXu9OiHFz8hOPcHaI06oO9O6Wi0evGY8T+uejoa4Od989Ew8+OhtmLAZVNVnwHakCKqnjig7NF8Dw/pZ9589WomhoDXwmMSmhJHcN7aaTfmFvKY9UXHd3xcJPFkfE1T2e0MnNmsl8U3L4nVeulNwewxmULKC3hQ371N/3d6DilwAHLFGvElcC5VYbsd2Ga1YhTUNo2EAj475fZ44f1Dt9omr4QmQ5IHalksHKvbio3UbRDDREbPvdWX0xbUY3ZU1pE+x4hK2nxEyHWY0/eggenHo+evQqREltI/70znLMmLvcSRBlLnfXvS7PChQZEPu3hkB6EFceOxpTz+2PEBkt6KtxJuzNDyPStB5mxGQlSML0yTQb8VwTDI8/BDh+SKnHQUd8f0+trmWF7GhsLWb/ON0szChJTDcORc9Dev8/ATmnOx/aBP41bwtum/4Jyitr3Z0hbzz3VDlo17MwCw/9ajxOLipAfV0N7rpzFh5/eg7C4Ub4fY4rmDgRI1I0EistHUcPj9q3XrQS3fvXKLpJWWdOQoKb1uKWe06v38ayxtJfT92+eM7CnZgUj2bhTEkOwvNiUpxF8aRO2XXulS21g2jvUzDU9sbsr0DFT3X+CVtjViJIyWkLXLtK9AaSZlXUHZn3/S736BH9Mk+Epqf7dBWG5jArEk2dFTXqjtcQian2p4t64+7/9FCWbgwjEiGflQIrbrHRcxOPHYJ/TpmM7t0KUFzZiBteWYQPvyyWFohbOX/YnwiANOhGAJefNBpTzypCDovFsoH62bBKH0Bz/Rog7owISzArvqkiQHAk8yq92sOg5HOqPcCVDBjbOj8Try0zKSdi2AEqC5qei7R+twI5kxKv+OCcUvx9+seo2k4TzukaFvxsgoXf2Q02OndIxwPXTcDpgwtQt70WU+/5EI8/8zGikWZoOrXDOPdARTHZsQgG0zBpXNT+w+QV6NKrHrppKzQhiC1u8O4YxqEIL0xrQ0l4yy+mVH4z78topaRJUSoCZ1KycC4CljyHj+tRYt65PJRhv9alpNtsW2fLPvt3EWRFoKIN5o51/l3sCeQOds6q+KpggllR6kKvbki7+/qMw48fmXuK5fdl6wrgI5+VSjdnnmelw9ZYIqj91bfdcM+LvZRPl5uIR+NAJIq4pUH3AccdOwT33nUuevTsjDVba3DjKwsx59vNbt+6CFKuiXGn2wexBnpjHVrIh0smjsY/z+qHHEeCARrnwNr8ICKNK2HFyIjqRIxwBtgqsxIhvz1A9UOASfyo4mf0KveE085xKTlf9Fk4k6JoG1XPR2jArUDWROfvJnDv7M2Y8to8VFbVCIt79ERRft+x0NClYxruuHIczh9aiLrqatx5x4d4/sUFCDfVI0AB6GxBxQnBI0aVnhXCecc32TecvQa5hXWKRqu+LE/KiRBm6MCiWphMZK0urt947ZSab75cEiGvCi/XRE2KfuelUYnWBHkGnwxQBFzJWmP2WyYlMpF9Fol2YcNkcZ1+lstA0bbgxawIsHhfYEDTEMjJROC2X4VGnXdMxzMUw8ij3i0f06woEM1hL06PHZtiY6/9Ph9TpndVPvg6DXV1ZAolT2CcBe1NGDcI06ZORp/e3bG8pBK/euFzzF9d7qzu0bIhO5U8zid2Pbl1nOU03mrBEC6ZOBJTTu+HfGeaF9C0GGbJVDTXfAMl7nz8RF5ca8xKPBPaAqr2/j0Zg0oGVEkPdMtyzymgXF3KNOH358Pf/w4gY3ziFf7x7kZMeX0eamvrHNRinQEcoHagI2dS3fMzcOdlY3H6Ifmo31aNu6d8hOdemo9YuBmaYUHXdYIotvoL3UBebgCXnlyHKyetsHNyw9AZPlEqLO/d40DFdCp7yZrm9Vf/Y+u3K9bGqyUzJy/3CHDkpE45pkVOQhDFc0bZ3P+TRQmngGoXwGRvPTQZs5LBSowylg2hO3mtSMMmZhXKgv7bi4JDrz+r0zlaul5IJ62PZVo5VRYzBVgGLIVOaBtlZZl44PVeeOnTLNRW2bDCjUyO0v0KDj+iPx6ZdhH69O2K7zZW4lcvfY5F329zgCruFdMiuBk5nTCp/jSgZwRxwfgRmHZGP3R05lwCsSXAxnsRrv0CdpQ5fFo2KreQqXYwCvZcL3FbBqa2gErEWpG8iEe+3WLDzpoUS26yqMUpjoC/N4xBtwPBUc6rm8A/PijG1Nfmoaa2oaUvShTuhObk3oWZuO1nY3BqUQFqt1fhH/+YjRdfmY9wcxP8fidgUaP/bB9sTbW790nDz08pVyZPWINQWpiMnGwcl00HmDMpKkkVli9lLVxa+/3V/9j+3bpNLAWBMylxRU/UpMSyj4+94u0wIlCJFgQOUvx7slIvBVR7C31283VbY1ZcXPcabMpHb3HAEvOsjEAAxlXnpg2++bKOZ2ek+7pbiqIQWCnErohZ0d3WcvoD6c5bV5OBf3/YGc+8V4iNm6Iwm8nFHoUS0HHkmL64f+qF6F/UC18Xb8VvX/kCi9dtA6JUK7AoUe/APT5ZhrWGOZqVFkrDhRMOw9Qz+qNTrrvH4pthl96J5orZsOm+64KVi6oJw/qO/SsgBy/BxO8cxPgTdqX0k0liMuFcfo+EI8x5U6b5JYDARDDQB0b/u4HQoc7fLeC2dzfg3tc+Ye5xVgFxJsXeU/yM1DWsoH/XXPzt4lGY2K8jtm2qwN33fIRX31qMaHMYqmbB8NnQFB/lhkLRffaQwT785pwNmDCqWAkYcQZSxKJoAIhjOnBc5yzJwrLicxeHV/58SsmKrVtZ6B1viyHAEYVzuQ1GjhDmLnWv/r32gNR+D1D8tGv3/W03gePHfFpbzEpMW2gPWPERXJS64DMC0E+fEOgz9VcFk7M6BntT94rPtplm5WALufl0R8tQNYRjBl6f1xUPv94Fq1YriDSGGVjpfg2HHNIND067GMOH98fX6yvwfzM+w+drqwAKeKMrUm7pSIy/cs876hBjXWIa9JAf5x4zCvef3R8FnFlZJcCmu9FU+X4CrAhMxVSTlmewxK6SMSwOPMn0pdYuC/k5In5I4OfYNhM5dWxCMIEBNWD7AoPgG3Q34HcCBGmM4d/e/R7/fHMBGqjc4/suUfeKNNLZt/265+LWi0fguJ552LqhDLf/YxY+mPUdIs1NMAzHNsKihO0M6IZujz/awo1nrFWGDiqHocZckHKmFHGQopgWS6FOBUTfnFO79Df/rFhVUwNCTc6kuA4llnUyMInAJYOUbOYUx68fsEzqQAQqucAQ2ZWoV4kCu6hbiSuAvKE5oVmxxmYN+nHDfb0e+FPXc3p01QbE46rqsyktVGENN6yhme6qJmkaPsTjGj5bVYBp07th4SIfmpqisJQoYKgo6tkR9997McYdPRRffl+G38+Yj4Xrq8jbIIGVRG+8NKtAAOeOH477zhqELnnubjCrYZXdhUjZG7BjdBERgLJxA4n91AJX5JwYr1JQBipZc0oGVPLtsBWtStw6BgJklGSJFhbS0oZCKboTCPZjn4F21V/eWIuH3v4cTQ1U7lmOVTyRjMAB2L2OFRUDenTALeceimN65aJ4ZQmmTv0IHy9cjUhTE80iZnEuUHywlHRkBoP26cduxw3nFKNz9xpFp6QEN8jQnbS+g+1ZJmIxq+l/Mxu+u/nRrevCjSzjXCz3xNJOBC1e5skjrUQW1VpCp6xLyTz2xyQLe+29DiRG5QW+ewKs2EQbEto1IGgCar+eesF/7uh8+uB+vlFx09ANy6LFP2dfspwkBapFXnYDpmpjRWkeHny+B976OAN1jXGodP5qJjp1ysL9916G408cgaXrK3DzjE8w7/saIEbnpdAX2IJ98IvOYQq0wkclp+LTcOLoIXjoghHo28ndFVY1sPVhRMpeQjwWZWwvMYnVfchO2LJzsFULb1biTBSBTGZg8i1DPn09gcq1VrDLzE29dG2YtN2BtCOh978N8HVmr9YcBX7/+go8PXMhwk10rfON4BsmJKxSSa1rOLSoM/5w1iCMKUjD6qWbMW3aJ1jw1RrGpHyam6WvBWAZ6eiQYdlXnVKCK07foqRlN8OgFUa+bQSeziAa57tpor7RrHrytfol9/x32+ZYcwuQ4vqSDEhy2Se2xbQXpDiT2u/SEHYV0Q5EoPohzIqYlKhTiSwrkRRKuVc98pH77D09jh8xwDchZmp+P0zouso6+J1LhpaD6N/UI2hjW1U6Hn+jM/77VldsrWlmscaWrqAwz4+/3XIOzp48ASu3bMVfXluAuasqYZFmxVcBE5HGAkOQNSt6U1XD0SP644GLjsSw7hzo4sD2xxDb9CSikSaWYeXEh7dUuxPYkRDMhSgUWbPyAiYv8bxdmpTz4iKTcko9lxioKtJzTgB6/hXwOUJcWR1w40vfYvrcr2BF6Xqn2VW65HDlK6nEslSMHNAdfzxjEIbnB7F43ho8/Min+Gb5BkSam6Epcfj81NyZDjU9C73yYrjxnFX2iceXIaCbFNHCVhCd8p4lgLktMYAZidsVFZHyB15s/O7fM6vKYzE2d08MsBP79mSflJx+IGpZXiPX2/JJHTCalAxkBzJQJdOs2ioDxaRQUWSn3/MBp+z3hbnIvP8PhaOOPyLtJAt6TkCx2QQSVnkkEkPpJNcpRhT1EeDtD/tj2kuFWFtGY7jITd6MjHQFN1x/Kq6+/hRsKq/C39+Yj3eXbmOeKKZZeXFFvszECASNy6L2HhKKgSED+uJflx2Bcf14v00YqHoJsY2PIRqrgUIrZ+48PDEkZifdqi3NyYsZJftdEl3LkaF3aGROoBz9bEHRAgh1mgyl2+9owijbCxsqbfzyhYV49/NlQDTMGsVbanoCk6LXNnQcMbA7bjy5H4bm6vhi7mo8/PgCfLdiM+KxMAKGDY0sCEoa/DlpGDmgCTefuQJDR22Hz3Smw1AmPTOYuqI+9e1RCkOs2bS+X9uw4a7nGpa++0VDNSwGUqLfidsOxMxz2XoggpWXaC7GtXj5pBxfhPOVAqpdpWr72OPFEpD+3RZYiUmhojGUxxonysHsTKTddkN+/wuOzTkNltLV0Ez4CaxUx8fEhWFn9U1njctfL++JKf8txLzlOouIoeSFNH8UF198NH514+mojYUx9f1leH1hMaIRPpJc2KMie+HMyh0NR4UgWSX69+6C+y4+Gqcc6kx2dlzsryO24X5Eqc2M2nw84glaMKsdg+l2Ppy7q2ElAEso9djmuU5zxtYsqHoaQj2uBjr+IvHe35TZuOH5z/Dpl6vZ0NUEk5I/h8tAqSfzyEN64ncn9UO/DAUff7Acjz01HyvXlzEmxtqjfEHWr5fXMYTjR1Tj16etQNeiBgTJwEmsl0ycboYhfScnggXTjoSt+KIv69fc9mzVyi/XxOuFMVYym/JiVF45UvIkYz7aqq2R67z828cuuT27OQcyo/LiIbuiWYnRxmIJyFkWfSevVTAYROCXl+R0/cWZuaeGQspAv6FSfLYTEeNOuSHAUm3SrCiyFijfWoB7/tsRr3yWg8amAOxwPfx+E5NOG4Fb/no6bJ8f0+asxvR536OhIeosb7FWGrlqS9RqzuflFaOiomNBAe6/dBwuOoIr7DbQPBfWumlobi5mMTJu7FaLe3GbTnavc1BmTF7c3SVPzkN3MCliK4S3JhPDycjZBUbR/wHppyZeZdGGZlz33Mf4eik1Yced/HMex5rgE26jNxGpgIHxQ/vgmrFd0CdLxQfvLsFTzyzG2uJywA7D79OgqUFofr/dp5eOC8ZXKZdOLEZ2h1o2MIP8UUyAYkmvrhueMSkT4Saz+Z3Z1UvufL5m7cbSFixK1Jnk1T3RZS42F3ut7rUHpA4KJuV1Ee9ZCNz3Xo1fSu0FKw5UfNip7LVKDI0gsPL74T95XHre367pcHLnPHukZugaNTM7LnZ3rgA74Z3UUENREA5n4fnZ+fjXa3nYssUPM2zDCAJjj+mBm26ahIzuHfHSoq14dtZSbK+mlW5+pQuoIEbDcAbkXvgU+JfTIRu3nj8OvzmqE+AODEZsBazN5GL/koXzObjh+LdE6avlIZSamr2AyKv4kG6F8p0x0bNHYXIqEEjvDa3fXYDvsAScvfldNf7vP3Px/aZKB7BpyY1W91rYOFxNSlMQ8mk4Zlg//OLoLujiV/Day4vw/MuLsWVzJexYFJrPgBbIQHooiBFDGu2rT9yE8YdvUwLBZvjo+MTJZuB42hhdoVF7NptdjOq6eP3Tr9R+/cCM2s319QykuLOcsyQxAcGr5OMrfmLYHdej6HtrIMXBiX8/YEu9ZKfXvgcre36LdlezEl3s8uxADl5UCqapKoIjhuiB26/JGj+6X2AiAn4/NbPqitN7l2hoplwrlgypw4SBz5fk4K7/FGDxsmzEm234DRMDBufh+htOwMAxA/Deymo8+cEybCqtcG7vrDySLnlRBE+03LAHwp+ehRtOG40/n9gLGbw/EBXA5n+ieduHsM162HEC1J1RZceVsENH2qVDI7ykKJgzTGNL/WScpPgUIK3jOKDvHQCcmXkkz/17bjH+/voX2LK1zjXEuqxJ3FYCZhK6FQXBdAUnjRqCq4YXIkeP4ZknZuGNd9agsqIOCqLEoGCEMtEhw8AJ47bimhM3YMCARhhKzBmVQTk8rrvUKfmolHb0xC1bm7fd/kT94hmz67daJgMUr9gVGajE1T458E4UzOXevWTC+UHFpA5GRiVeX21pVlSwiR4r3tQsrgrKDItNuTEM+PKyYfzxqowRl5yUc7rP0HMpdk9X3X4x953ZyCSLykAfk69KykOY8r98vPVJIerrDbYK1aWLjskXH46jTj8cK7bF8ch73zij4zkQtbhYhY8n4g215yh++EJBnDl2MO44dQCKuhDe0lcD7Mr/IFb6PGKR7Uy3olIw4ZV0H9UCrJLdw0XNysHHFl8iSDFYYUFy1IJCCwoK0ntOBjrf4g4NAmrDwO1vLcGTH36DOip9Ga2h3j3XuS9o8GxcmK4h5FNwylFDcO2Ybohtq8Jjj8zE7E+/R1O9BZ3GSZNrNzMXA3qouODoZZh83Fbk5EWgu5HBthVnZI2LPg6bshA3Teu7VeGNf3ik4qtFS+LUWMxZD7EjLqCLYeG3UfMAACAASURBVHZimSeWgHICAmdQXr17rTUYHzRM6mAGKi9m5TUwQk4K9WJWPHyPvvNVwXRVhT8QgHbW8Rk97rgm76y8PKWvbfkVgwo/MjyzyU7OKhL5oAgTVV1BQ5OO597oiqfe7YWSKh1+xUZGhoXjTjsEZ11yHLZDxcPvLMUXKzcxJuKUJ5LfihdM/IJm1ITmNylQAwGMHj4Ad508COMHO6O3HLx6C/FNjyIaLmYrja7bymVtO66JHUK7ABbimeSx4ieXetSq6wxkoR1BwJOJ9IG/BLIvS2wOYfFfXpmLNxavQ3PYTRpsMbJ+ByrSpGgyDqSnazj3qGG4YlgXbN28FQ/d+zq+XlKGWJQmW2tQfT7k5IUwbJCFX0z8BuNGVsJnkG7vwhI5y93oAzc2mL1yLGpFZn5au+r/Hq5cWl7J/FE8k5yDEdeYkq3syWmcolNddJvz9IMUk/Kg7AeDmN5apSIzK3lFUAYrzqw4MIlZ7JxtkScgqGnwqyq0EQMDeVN/nz/p0D7G4XHbpxm2yYZHsKgYt63FSWFwWm9sS8PCpYWYOj0XX67IhGLpoIkTh4zshPP+33HILuiEpz9ZhfcWrgW5F6hzvyUFEqmG+9HpU7EoEgPwB9G9az7+esYIXDEmFyonV03fwtz6ECLVC1iDNHM6yIF+O61/S2OnEm+9YxsSwjmTkBzNh5zmlmkj5O8GY/AtQODoxDGau7wRN7/4Eb5cWwbTdF8/kYYq9EGS7sc20kZGyIfJxw3C5Yd2xZIF3+PxR97FuuIymHEfFE2Hahjo3j2Ek8fV4OKjV6BPvyb4XeuBSfsvMVLd6SlkSfRmHLW1keqnX21cOuWF7ZuiUdajx5mPrDN5tcfIBk7RI0WgJAbeiSAljrVqQe4OZPtBaxepB0Fv6+EH1N+TaVYyWPGWGzkmRi4D5ZVB6hEMmICen4+0qb/tMOaUcdkn2tAz/dSKQa5LGphJ/MrtFaQGWFKUiQHU1WThkem5eP7DXDQ0ZYLGLnXtlYlzrzwKA0b1wfSFZZjx8TI0EgA5a+YtV8Fa3IJcqkPMihqaNT8yO2TjxknD8X8TuyDIE0PNLcDWpxHd9hbMaKOgh7U87jvpVi3+7PzV4Txc13J79xh+UbScH4HcE6D3uwlAYeLZz82vxG0vfoji8hpmrHQ6qHlks/tajCmSbZUmEQO5mUFcPXEwzhpciI/e/RaPTXsblbX1zmh1zc9iWoYfpuKKk0pw0shSZGaHncnSDLgJkF3wZIsczB9lx2OmtWFD46Z7nqtb9uqnjVWwEk3FXH8SSziRSYmaVXuc5pxRibnm4vQJhuvC7j3oSr6DufTzQtvWmBX9TWRWckOzyK7EwRHca8VWB7MzEbzuorye15yZfUrIQC9dV1WDJlMqCrMyOCkMLJUPFnQYqgoz5sPM+Wl46PUCrFiXgwACyMkL4uQLh+OI48dg3vpyPPHRElTThBuKiUmMfJI+otjUzPxWBIgG9KAfFx43Enee2gfduIOBQrRqX0es5AnEmrawC5oxvyReQhGW5JOKwRMTuh3TJANkPRPBnlcDHa5JbGQ4Ctw1sxgPvfUpauqouqIvuj9ItaTL8AjcKbO8MC8LVxxXhBN65+P5J+bgtZfmob4xwhqKbd1AdlomTj2pET8/sRh9elfCr5rQic1ZJmyXNTosT2Hhh5YSRySM6MefVa+547nqVcuKLZpzxks7L5DyYlJepR4v9ziT4iZOeVoMByb+wUVGdUCxhF39MAd76SezytYAyysmhlsXRDe7CFZccCfOEvL74TvuiPTsW3+WdXzvLr4xCJKDQbf91K3vZrLTBtBgU/pRVXTYqoWK7QHc+1JXvDOvK5obLITSDBx+0lCceN7h2FRr4anPVmJdaS1A47PIY+QsMe58I054D6hxV2fRNBS8NOqQQZg2eQjGFfExN+SvXgR7wwNorltKfSJOeoFHKUhvklhwdN9xh5ZFEECOeZOlrgRCvaD0o1aYsYltK60EbpqxGDM+/QYmJaPKK4+cnyXemyKeVQzt1QlXHdELvTM0PHz/u1jw0UpELQu6TwUhf++uIfsX55Tj5KOKlYysGHx2nJWyPJrFMfY76QemQvNhTLuyMl77zGs1S//1Wu2G6nrGoghIOBjJDcaiHYEL5rJVgT9HXt0TTZyttcXw/XTQMqkUo/KGdC+gEktBHhUjl4EiYHn5rXhkDE1o1rp1UgM3X5U75oyj0ifqhppNd/+AotD158xCcUtB1hpDY+VVFZG4H6991h2PTc/BllINwVAmevbsjAnnH4pA5wK8+W0xFqwsRzN163I1mGXQiFDiNk0zpuOwN/ZdDaFb13z86YzRuGJMJslY7tO2AmWPIVr+NsxYvSOAi2YrCQq5xM2ZFLEiYlKqriKUezjQ81ZA65F41qxVYfzh+U/w9ZqN7mh6V9tKSFxck+LsinKidEwa2Q0XjOyO6nWleOqRmVi/qhZREzAMFZkZOo4ZY9k3nLUBRf23QVeitH7BJkoTdyJtjFYbHV8soRWt6lmxZWsiJXc9Xbn0/YXhCliMRRGAcJCSBXPRWS4OXvBa1RNX9Dij4qVeWyB10ANUCqh2BqpkmhVnXeLoeK9SkEpADljywFMxlz0NKgx/AMp5EzP7/OXyrBPyOun9yD0VZK1pdJd3cpOc9TG3V1Az2Himtevz8Ngr6Xh/cSY0vQvyCrMxanxvFB7SA0u21+P9rzajqq6BulCcaTct2JV73rMX5fqRq1spPgTTM3H+hKH42wk90KOQg5wFhN+Eue5xNIeLyTju2E4Tzdc7N5ixyGCW6kD5dZlI73kx0JFKPcdx2hQFHp1bjHvfWICtFTR8gURxF4w8L03S84CMkB+Tx/fCqX07Ye6bC1ipV11Nzw1B0y307WvbV55SjXOP2oL0HBq4YDIXCA8yZ3UVa5+02RwGGybCYav+7Y/rv7/zmYo1m8tApZ5oPeDlnsiUvBqJ5XJPNHC2FdGSLD5YusPsarF0YD0+Vfq1zaz4VZ1sRdArhE9OYeD9gvR7tiroeBKgDe2t5//9152POGZYYFQ0ruQYmqmEDMHKngiRowvfoMx2NDaH8Ma8EF54vxAbyvKQl9cJ+UUdMOzogaj1BTHzu/VYU1oFm5kX3bRLr5KKExX6G8tZD7JScHj/brjjzGGYdCinVlQErYG99V+IVMyBFW92xkZJSXxOwiVrFoKt6gj6B0Drcx2QPiGxl1eXAbe8tRBvfr4csbDrMuc5UrzRmu1xvqJIiwUmOnTIwm9OHYSeBvDK4zOxeNEGNIaDsJQY0jQfTjqh2b7+1BL071sKVY3DbysKK/NYQ7G74mgriNsWTMuyY1HTLC+Plj/9RuPqx9+uKmkOJ1b1RCYllnuyRiWbN+VoFnGcFQc/kUmJepSsRaWYlHRdpoCqbWYlAlWyFcFkYOW1MsjZFY+NMTKykPbHqzoXXXJ85lGqUt/XH9S1kM/H7ArsEmNCOxEDZ1CBSp4C1UZJuYrHp3fDews6QwkUIqdrBxw2oQi+rtn44NuNWFG8HXFq9iXhmJVsUswxP/qsZnMjjmlV0AigsLAjbjppGK47psOOOYJEOKpeQ3zzs4jFSp1OFofyMb2LNZ2oxHDy4O94JtSulwHajlW9GV834O4Z7+O7Ddtgsphkt1h0PpxzJBJnpDvQIm6ib/983HDyUERWrscLj81CaVkjYhRuBw09O0fsa88sxRlHlyGUEYVmxSkhmhlJnVU9B/QIWGlfxOIxu6nJavp6aXjdg9Nr18/5JlwLMzGuSizxOPDIRk6ZPSVrhUmWyMkZVIpJ7QLpSwFV6ztLvJRF/YqXgeKKoAhWXiI7LwfFcV0EVmxVMJiGwNmndOtw9SlpY4o61h+u+fWQP+iDz03m5Bcx2wgqqxQduqEhHAFmLyjAYzM6YHNVZ+QUdsLgEX3R6dCe+GLLVsxfuREN4TgzhzJhm4GC0NTXAhyc7Hfmt9J8CIQMnH7kIfjTSf1waA9BaI8sA7ZMQ6R+MZRonM2uo+2iaLlAWl+oPX4PZOzwRpXV06reWrww+wtsr6bpMKICLwwBTQCpQzYUy8KRw7viqnGHYNHLH2DerDWorqXSLY5g0LSPPIxGVm1Q+g+qh05iOUE6M3Cy3HLHepDwb1mIxqNWaXlz5UszwyufmVlTWlaJsGs9kEHJC6SSreaJgjkX3zlIiUNBRX/UATstZhewZ5cemgKq5LtL3jey0M7d7GK0sdcoeTmFQQzmE5MYQoYfgW69O/l+cU6H/ueOjU4MhsJdaUx5ANSw6xgEmO+KkQT6bsDWCUBUVJQH8J9X8/HOglxYwf4oHNwTfY/ujy11zZj97TJUR0ymWzkDU+SPJmlXxNxcs6US8KF/n164aeIAXHFkB2i8sZk6R6ofgbn5RSDaDEVNg9rhRKDbtYDi9OrR15wV9bjltYVYvHIj4hEiHxKTcgmZkwrh2CBsOwYjoOLsI4ZieH4G3n/sZaxfWQNLC0GJx+yevWrty0/ZilMOr1GycpoVlRqGHfHJ6S7ikTGOVg5TjSMWMSOLl9QX//PF+lVzv4zUmGbCdiAyIlkM9yrvxBgXzsBEA6cMUnK5J5Z5ImTzPbFLF/DB8uAUULV9pJOJ7LwM5N85SHkZREWw4uWgvDroDEBV/b5gekw/fninTr++NP24EUXWYaaia37EobGQODfjSrVdjUiDpWgwFBXxmIavl6Th3691whfr8tGhTxH6TTgCerYPM5cuR+n2RqbZmDSUgK3IuR+Nl28MQxgcOszKzd609QDS00M4c0x/3H7GQPTM3zF12Kp7ASpFxmQfAfiOTezN7U3AAx8X46mZC1FW2eCkHlA5JubUcFGfvz/VklYc+QUZuGjsSJgbS/Dp9Lloqo4iYll2TkizT5hQYv/spFKlW7cGlTLMCaapzHPm6rkMiqUdODOLbcTt6ppo7fNvNS7/15tVm8rLE1qUGK8ir+rJhk7OsGSQEkVzEaCS+aPEyOCUR6rtay/xiBRQtb2z2mJWbelWvCTkJV8y3UocKEEgpuXkqOl3Xt/p0HOOCR1n6VZHQ6e+HNKoVFtlXlFHu6LCizUTK7QyaKM55sNHc3rhybcCKLG7oujICehU1AeflK3GuuIS1nZDvcqWpTpMRCz/Ep+W61mKsw5GnlefD4f07YxbzxiGc0cmHKI0qtmN5nJe6vPvI7j1lbmYt3wzohSpzPWnFpE0fMfTG5Lgb7I04SF9CnFc315YM+tbrFiwDJbSbPtt2P36RexrTt6gHD6iUvX7bOhUyrq+KKJNrMRzgZfNc1Usuzlqxb5b2rjx3heqVny4KFJNrXuCgVNsaZH9T16uchmsODDR70VgSiVytn1N7fIjUkC1y7ssQQnaUwryFAavkfJyNrvItBKm0bRM+M4/Pq/gytP94/p1UYYrRiCoGSp8igKdlYN8vJYjPrORmZoKDSrKKvPw6PQMzPkmDelFx6P3mNFYVbcNSzZsJL0GMdNi/iNH13HRqoUqJ5werJGD8t91hNKDOH9sP0w5YyA65DkRwfRVEwYe/3gLHnl3HjZX1LjNH65g3iKFkzc1O716ZFfKSfdjVL8B6BiP2CUffYOSkm0wlGY7M7fOPvnwWlw2qVLpkF+vUjywEwns+qKcbDs3sZkYFeVvxq3yimjt82/WL3/szZri7TVMLOcrbxygRHbUWsknNhGLK3scqPjqnljicW2KsyYxP0ou93b9DDwIn5ECql0/6LtTCnoZRHnrjcywRMByVgZV6J07wXfduVn9L52YcUwoU+kBLajRH1nPIMcYV7+ybZ31KauaH5YdwIqlGp582cC6hpHIP3o8tvmysGZrGeob61EfiZLh0dGt+DwEbjvglgZeojE8cwlkyI/RRZ3w4OT+GFXUFRvK6/GXN1fi1U+WIhKNOY3SjCy1ttIeg+IzMbiwK/rkFaB+1Ua7ds1qu7m6Ch3SItawwaXK+ZNqlEF9mhWfFmFDFijAjpmjSChni4XkNiftjVpgYpRQHPnim/qNtz1TtezL5fFKV7YnoBDBiEBGBqq2xHIOUmIbjFju0XuIBk65zEv17O36tZYq/X7APhOfKrMq8WdRs0rW2OxlEpWTGQiPAizSyoB+9JBgwU1X5o86crBxmAUt21BNhZgVJYkyiyZb1HP1JYWepEHXfKiusvDBR9n4ZHk+6rqciMqcbtgajqKmsR5VDY1odAPjuNm0xf7hn4o3CVOpSUkPuoaOWSqG983B+k11+L60GbDJG0WlnGjgbHk/ZEYGxYbfp2JY1552Fnyo/m4VolvW235/tT2gW4199lGlyugjmtWMUFzRWR+jazlwhfJEEoMFRM0YohEzVrHN2jbjo4a1/3qnamN1JRv+yVkOsR7RvCmu6iVb4ZM1LLENRtajRJCS/VG0K1N61A+84FKMavd3YDJmJdCOxBCJtqY0i452r5KQ6isyitJ3NZSF9N9e1KHXlZOyx2SkmwMUHYZP1eFzJoy6znFKvHQ0LFXRmPfKtFRsWadh9oI8LKsfhuLM0diqBNAYV1Beuw01jc0Ja5N4++eMzfnuoBZr5WUZThQz41oXEnvEZVEJBua6wxkDBDTFRmYwYHfPzUGwBnbtpjW2WrkeAwq24YTR5Tj2yLCS3zmu+Ky4Qomb7GW4094FS2b7sm1EIjG7pt6qWfRtZN3Tb9du+vibcK1lJvr0uF2AsyUONl4rfV6/E8FJ1KJEHUpug0n5o3b/mkr6zBRQ7ZmdKjIpDlT8d5xNyS04YjkoCu1eswXpsbxfkAGZ34/AqCHpWVeelXvICYcZh4dCVkeohmqoNnRSpUliZxEyTvoBS+wjwDJVhJstlBSn47Plhfh0+zCsDw5FcyCI6voabK5uoETLBOCx3eMYzhMlZgK4GE8gduR6sxJ6matLcaBykYa2ze8zkB3KRBdfyLK2b7WbNq2xexmblZNGF2P8kVGlS3cLfiWqGqRDWWQ7cP1QlqPHuVUf24RozIx/s6phwxOv1a96f35jdX19i1FVonAuakteJZ8MZLIWJcYEy2J5yh+1Z66hVl8lBVQ/fCfv7qogoYlsEhWNovKIeTmvPQQVvmAa9FOO71Hwmwuzx/QvaBoOKxpQdB0BBS3jj1XSd5wEBMWmhX0FkYiKypIQPvyqK2ZvPwwVuYNQZWoortiOSDN5IV2sZbgjiPYtPjH/QWRRQguMsxzHVvQyA+l2ViAdWfFG27dtg5XVuM4+afBGbdK4KiWvWwzpPnKGWZR8Q20uTN/a0f7CW/YcEC2vNKtefr9m2aOvVG0sqWAAxXUoKvFEkJIBS7YYiL17YtsLF9HlSBZ5fJUXg0r5o374dbWT+rCHX/KgfTmvUlAuA10lmpWEcmyMuDLYVinII5Cd1UEdvi5d0oNXn9up52Xj7fG5oUiPqKpqqqoipBugARNs5Z4xK+4KJ8AymKs8HlWwZnUO3lneHavUY7ApUIgV5Q2or693/EmsBYVTK358xZVCCaT4QyzyelG/sY78tBw7y2/b6Q1bkV/xjTWq+zqcenSz2ruoQfX54/CxvE5yljtFJ5tUxcRz58Xo9xQNHG62I+/Pbljz6Ft1y79a1VxH0VKuPUAs87w8Usl0KfH3YgOxVzOx14w9Eaj4Tkqt7O1hGEgxqj23Q732pZfYLpaAyQBLZlZiOejV8MxC+lQdWlGfzMBvL+582JnHBMdZdlWebcXVdM1nGz6D9cA5Ghb/z4ltobhj21DQ3KBixfI8zCrti+XqUfiyJoiSynrEYzFW4lmJMLsE2kl7z70+ibk5S3LwBYJ2YW46CuMNdlb1EntM5lL7zHHb1e79mxS/oSjMD6U7fi7SvKiSpMUAZjK3YTPjphWj3sDo6rXhstv+XbN09uKmUjdB2PE2OCt4cmKBbCvw8k2J7S9cg5JtB8myo1ozb7a21LnnzriD6JVSQLV3D7YMVPRu8pRm/jMvBeUGZ3FqMwcp+fuOCc4qFN2APmlsrx6/u7bL6AEdynrb0Wi2L2AYPoNy2Umrcg47Wx0kDYvQy9KgKTqsuIWGeh/WbMzF55WD8H7VMCyrMVDVFEE8RqYrN4JGvBSdLBU3qcGGovqpodoOGbo9MM9AUWSZXaQswAlDazFwSEz1pdNKHlGhHWWjbbqTaVx3Oc0ojsZjdrgxHqkotyvfm9+48bGZNcUlJVadcMj4ap4IUqK+JLMokWmJpZ3Xip6XFiU2FIveKJFJ7d0z6iB99RRQ7b0D395VQV4OJos75qI7BycOXMl8WGRnoMfa6dmhrD/8fEDRRRMDg9OV8n66EU03VEploNFdzgohH43l4I7O/JckulNaJjGsDZvyMadiIN4rH2Avqw3a2xtjCuIM2ZzcLL7M6EQnQNEVy+fTrf4ZUAZnlGOw+bl9fNFGZeChpmoEoGhUy6mOYdMJ+HPbXlwGRS8Tt2OIRWNmZZW9ff430Y3/mVm96fOlkRrLZA5wkfGQHiX+7CWKy+kGIvvy8kSJOeZevqjUqt7eu2aSvnIKqH6cnd7WqqDIsry0KxGsvFpxRPDiWe2Mmfl8enDQIR0zTz2msMfpRynDi/JqBlAHDklkquZkSrFYFFdNczaU0j8pDllDLBZDuMmPDds62h+X9DTfLh2ApTXZSnUkqipxx5hAj4uQYA5Yhelxc3xuGU7pvFjtl7sJXXsBGbmqqplxxRmk4Ea6OFq5875sPoXplHkwKYalcc7CpuLnZtavn/dduDrWnJj+IjIfDkAcbNrDnjijEvUn/vxkE4rlWBa55JPFux/njDrI3iUFVHv/gMvMyoWEnVpxZLASTaIcvDhIyRqWaBzlIX38O3O2Q4Xao0eHjN9d3qXorKPMcSG1sauiaSzmmNpxmIWBh/SxLSYIMRxVytbIEW5HI4pdUp6FD9b1sd8o6WMtqe2ExpiqhkygwBexjui+xZ7YYak2uvNmpUPnZoTSVEV3ImUUAiHmXuDRKzzogEbrIQ7TNO2GJjR+tzq68ek3ata9+1nD9mg0sZrHneReq3KiFiUCUbKcKC+QEnv1ZBaVbFVPPHNSmtRevo5SQLWXd7DHy3sJ7OLv2hLbOUiJA1FlliVmXhHDItBij8/ICmpjDs3Mmny8PuSE4erYrAw1V9X9CpvsQvrVjji7ROyKmkha0BEzYzDjirWhNCM+Z22h+dn2TmqmFcfZRavtkb2qtGCupRkGFN3RshQqD+kDOat4fPXQLRzZYywlGrPji75rWvfM2zUr3v+iqaa+EXE3t1ws9WThW7YdJPNNeSUc0O84g/JqIuaO9tZc5j/+mXMQv2MKqH6ag8/3u1wSihlXMsMSfVdeIX1i641sIOXsipeFuu6DfdjAYM4NF2QOP2Fs9uEBw8pUFAqc06AR72HLga4HnU11pmtWc/KiTIWmE9vxuG03RVR2xWdlxmBQCo2pKIqqMoBirYfC3Dybhr1QfIxmUroBIlElvra4ueTZd2tXvPJRbfn2OpjMg7BjRJVY6sneKNGOIAroIqtqC6R464uXuzylRf0014bnu6aA6qc9GLujXTlJeQ5DkgGrNbASDaMEWFTXaRkZUMYdmpF71vi0sSeM9g3LytFCCnyKplgKCe5M6Xc1LCdFxa3ZyOVOSaPkJ6CSkaUgOP8zhHP0KJtMprZFoSsWS0SmxPJoNB5bWxyvnvFRw6rps2s2VVQjQtq8hzDeGlBxhiXbDsTyUF7NE1mUmHaQjEHt+FDOeZIq8X6i6yUFVD/RjnffNtnKoFcpKHquREsDsae2MttbC+4j0KL3i/bsjoL7bsg75oTDOx5qK/EQNR6T39tJancTjN1RpA7HItHdYkDGRwY6wQvUdsxW9myTstSpURm2GY6iubLKrJnxYd3aR16u3FBVx0Ls6BmcRXmBjOyPki0GopguPp//npd53A8lh9rtSpmXAqqf6HpJAdVPtOOlt/UqBWUtS9au5EQGUXCXM9vlUlAcmEp2BmJb9KV26ozMycfm5fcuaOx1/Oicwzp1ChTomk7hDLaqOnNnGGNyi0FHgHcNnpxT0VBPgieTGTbNaMRsWrqmefvbc2o3v/9lw+b1JaAij7MVOSdKBituxEymUcnlnQxWcm55MrFcdphzBpUCp33gGkkB1U9/ELyOQXu0K57I4AVYsuDu5b0SwYxrWD6VImV0GLoO9bCBetZvL8o6ZNyw7GFBn52va0x/oiEK7H+nWnN1LG6LovHoNgnu8XhDWK0tqcD212dXb3zqtZottY0JBkVP9AIYL/bkpU3JBk95JU+MYRGBirMn2bgplngtrKw//emR2gLnHEt97Yt7oDXtislGbrknTsPhq4CicVT8nciiuJ3By/VOoOWUiiqM3FyExgzwpx09PL3TSUf6R3bvFOynswAspx2Hz7ShEpGhgG3aDY2xug8WNK98bW795kUrw3WVVWiGmQiVIyDgs/PE6BQZkER9KVmypqxBeQGULJhzUJL9UaIGlWJR+9hVkQKqfeyAeNw85BKQ32C8WnG4ViWbRr0iZcTGZ65hya05ToKDCn8gAKNvd10/95jMwjOOSx/VtZO/yKerfjY5RrGgmLZVVWOWLFjaVPzoa9s3fPJ1rIaZDNycT0EoF/UoUTcSS7tkulQyD1RbDEpe1ZMZlAxMKaDax66LFFDtYwfEY3PauzIoMi0RqEShXU5okMFKNpRyduWsJqrw+XywO3eAcfrYvIJJR/lGFnUNDGpssmrf/bxhwctzajcvXRePW9HE6pjIXmSQEVfguNUgmZguNgxzEBOd5HKQnZcOJdsNRA0qBUz7+HWQAqp9/ABJq4Oy6C77rjhYySuEMlh5aVhiaSgyLFnL4n+jApTEKlVlU9JZAqkz2nlHBLCoCcmrbnJKAQcpL2bFQUks9WSRXFzNk7fBi0GltKj949x3ddD9aGNTm9pCU+SgxBkXBy0ZrOR0Btl/JY7zSrZaKDIxrm9xUKILnmtdfBu4kbgN8wAAA3VJREFUDiUyKpkBifaBZA50MbROBDY5eqWtnCivzChRk0qdWvv4Hkgxqn38AEmbx48XZwMiODF7wY4xMS3+LZeCXqWhWPZ5jffycsOLOhkHSLmk4uyGAxULSHD/l60EMnjJbS5eyQbJEg7k5mEeyyLu0lTJt5+c/ymg2k8OVJLNbEu/EtmVHNInD5zgJZ24UiimNsirivzx/HXoohfPJ5FNcXASV+BksBJZlSiOy0I5fw3xu7yCx8FRXslLAdN+er6ngGo/PXA/cHVQHjQhrhaKK4RimciBSQY80SLBgZMDhAggYnnmBUTJgEpkTHLJJ2pRXl4o/jt+lFNAtZ+e7ymg2k8P3C6uDop6lmxrkJmV7HCXfVlerTwiWImgwIGEa1ZeLnFZhxJFd5k1JXOVezEosQQ9cI7yQfpJUkB14Bx48VjKq4OyFysZWHmVh5xVeelc/PHy64vsRl75k0u3ZKUdByXxuxeD8tLEUgzqwDmvU6t+B9ixlD9Oe9ztXqZR0fUuglOyko/3LIvgKIKH3PQrl3JyHpT8dxHoknmhZLA6wA/twffxUozqwDvmXsc0GcMSS7ZkTne5XUfsMRTFelGf8mI5Yvkngg8BFQegZDYDEexSDOrAO2fb/EQpoGpzFx0QD5CBij5Ua/6rZEzLy44gv46sUXEBW8x/Eku4tlzkoiDvtYqXEsgPiFO09Q+RAqqD4CC3sUIogpZsZ5B9WV4+LZFJyat+Xo5wr1IuWapBMmYmH7UUWB3g53EKqA7wAyx8PDrW/IKWwYUeRiAkM61kBlIvFuWlUXkBjaxZJbMYiIZN8XVEVnXwHL2D/JOmgOrgPAHk455MeBed76LFQV7lk0FKLv84uMhiuAxSKQZ1cJ6PbX7qFFC1uYsOigd4MSwvMGptJZGzMXGHcQaXzIzZnlW8FIM6KE7BlEaVOsxt74FkK4UyWIlg5CXQy2AlA5XMmJKVdLLmlNKg2j6GB/QjUozqgD68u/3hWgMh8ZxJVvLJbywCVmt6k9zystsfIPXEA2sPpIDqwDqee+LTtHZOJAMwr7JP1KnkclAGrmSP3ROfJ/UaB8AeSAHVAXAQf+SPIOpZ4lsnO5e8yrYUc/qRD9r+/nYpoNrfj+BPs/0/9LxJaU4/zXHbb9/1h55w++0HT234D9oDP/S8SQHVD9r9B9+T/z8SNyaXt1WexgAAAABJRU5ErkJggg==&quot;&gt;&lt;/span&gt;&lt;/p&gt;" style="text;whiteSpace=wrap;html=1;" parent="1" vertex="1">
          <mxGeometry x="960" y="16.02" width="190" height="200" as="geometry" />
        </mxCell>
        <mxCell id="7TzrphOt-DHHnTkeYhhr-20" value="" style="group" parent="1" vertex="1" connectable="0">
          <mxGeometry x="660" y="700" width="470" height="80" as="geometry" />
        </mxCell>
        <mxCell id="7TzrphOt-DHHnTkeYhhr-6" value="" style="group" parent="7TzrphOt-DHHnTkeYhhr-20" vertex="1" connectable="0">
          <mxGeometry width="470" height="20" as="geometry" />
        </mxCell>
        <mxCell id="7TzrphOt-DHHnTkeYhhr-3" value="" style="rounded=0;whiteSpace=wrap;html=1;" parent="7TzrphOt-DHHnTkeYhhr-6" vertex="1">
          <mxGeometry x="30" width="220" height="20" as="geometry" />
        </mxCell>
        <mxCell id="7TzrphOt-DHHnTkeYhhr-4" value="" style="rounded=0;whiteSpace=wrap;html=1;" parent="7TzrphOt-DHHnTkeYhhr-6" vertex="1">
          <mxGeometry x="250" width="220" height="20" as="geometry" />
        </mxCell>
        <mxCell id="7TzrphOt-DHHnTkeYhhr-5" value="" style="rounded=0;whiteSpace=wrap;html=1;" parent="7TzrphOt-DHHnTkeYhhr-6" vertex="1">
          <mxGeometry width="30" height="20" as="geometry" />
        </mxCell>
        <mxCell id="7TzrphOt-DHHnTkeYhhr-7" value="" style="group" parent="7TzrphOt-DHHnTkeYhhr-20" vertex="1" connectable="0">
          <mxGeometry y="20" width="470" height="20" as="geometry" />
        </mxCell>
        <mxCell id="7TzrphOt-DHHnTkeYhhr-8" value="" style="rounded=0;whiteSpace=wrap;html=1;" parent="7TzrphOt-DHHnTkeYhhr-7" vertex="1">
          <mxGeometry x="30" width="220" height="20" as="geometry" />
        </mxCell>
        <mxCell id="7TzrphOt-DHHnTkeYhhr-9" value="" style="rounded=0;whiteSpace=wrap;html=1;" parent="7TzrphOt-DHHnTkeYhhr-7" vertex="1">
          <mxGeometry x="250" width="220" height="20" as="geometry" />
        </mxCell>
        <mxCell id="7TzrphOt-DHHnTkeYhhr-10" value="" style="rounded=0;whiteSpace=wrap;html=1;" parent="7TzrphOt-DHHnTkeYhhr-7" vertex="1">
          <mxGeometry width="30" height="20" as="geometry" />
        </mxCell>
        <mxCell id="7TzrphOt-DHHnTkeYhhr-11" value="" style="group" parent="7TzrphOt-DHHnTkeYhhr-20" vertex="1" connectable="0">
          <mxGeometry y="40" width="470" height="20" as="geometry" />
        </mxCell>
        <mxCell id="7TzrphOt-DHHnTkeYhhr-12" value="" style="rounded=0;whiteSpace=wrap;html=1;" parent="7TzrphOt-DHHnTkeYhhr-11" vertex="1">
          <mxGeometry x="30" width="220" height="20" as="geometry" />
        </mxCell>
        <mxCell id="7TzrphOt-DHHnTkeYhhr-13" value="" style="rounded=0;whiteSpace=wrap;html=1;" parent="7TzrphOt-DHHnTkeYhhr-11" vertex="1">
          <mxGeometry x="250" width="220" height="20" as="geometry" />
        </mxCell>
        <mxCell id="7TzrphOt-DHHnTkeYhhr-14" value="" style="rounded=0;whiteSpace=wrap;html=1;" parent="7TzrphOt-DHHnTkeYhhr-11" vertex="1">
          <mxGeometry width="30" height="20" as="geometry" />
        </mxCell>
        <mxCell id="7TzrphOt-DHHnTkeYhhr-15" value="" style="group" parent="7TzrphOt-DHHnTkeYhhr-20" vertex="1" connectable="0">
          <mxGeometry y="60" width="470" height="20" as="geometry" />
        </mxCell>
        <mxCell id="7TzrphOt-DHHnTkeYhhr-16" value="" style="rounded=0;whiteSpace=wrap;html=1;" parent="7TzrphOt-DHHnTkeYhhr-15" vertex="1">
          <mxGeometry x="30" width="220" height="20" as="geometry" />
        </mxCell>
        <mxCell id="7TzrphOt-DHHnTkeYhhr-17" value="" style="rounded=0;whiteSpace=wrap;html=1;" parent="7TzrphOt-DHHnTkeYhhr-15" vertex="1">
          <mxGeometry x="250" width="220" height="20" as="geometry" />
        </mxCell>
        <mxCell id="7TzrphOt-DHHnTkeYhhr-18" value="" style="rounded=0;whiteSpace=wrap;html=1;" parent="7TzrphOt-DHHnTkeYhhr-15" vertex="1">
          <mxGeometry width="30" height="20" as="geometry" />
        </mxCell>
        <mxCell id="Np6NXg_4izOHI7aook8U-31" value="" style="rounded=1;fillColor=#f5f5f5;strokeColor=#666666;spacing=0;fontSize=12;align=left;spacingLeft=10;labelBackgroundColor=none;fontColor=default;" parent="1" vertex="1">
          <mxGeometry x="56.58333333333333" y="130" width="204.1666666666666" height="64.51451612903226" as="geometry" />
        </mxCell>
        <mxCell id="Np6NXg_4izOHI7aook8U-32" value="{{ round1_position1_athlete1 }}" style="rounded=1;fillColor=#f8cecc;strokeColor=#b85450;align=left;spacing=0;fontSize=12;spacingLeft=10;labelBackgroundColor=none;fontColor=default;" parent="1" vertex="1">
          <mxGeometry x="42" y="130" width="233.33333333333331" height="28.67311827956989" as="geometry" />
        </mxCell>
        <mxCell id="Np6NXg_4izOHI7aook8U-33" value="{{ round1_position1_athlete2 }}" style="rounded=1;fillColor=#dae8fc;strokeColor=#6c8ebf;spacing=0;fontSize=12;align=left;spacingLeft=10;labelBackgroundColor=none;fontColor=default;" parent="1" vertex="1">
          <mxGeometry x="42" y="165.84139784946237" width="233.33333333333331" height="28.67311827956989" as="geometry" />
        </mxCell>
        <mxCell id="Np6NXg_4izOHI7aook8U-27" value="" style="rounded=1;fillColor=#f5f5f5;strokeColor=#666666;spacing=0;fontSize=12;align=left;spacingLeft=10;labelBackgroundColor=none;fontColor=default;" parent="1" vertex="1">
          <mxGeometry x="56.58333333333333" y="216.01935483870966" width="204.1666666666666" height="64.51451612903226" as="geometry" />
        </mxCell>
        <mxCell id="Np6NXg_4izOHI7aook8U-12" value="{{ round1_position2_athlete1 }}" style="rounded=1;fillColor=#f8cecc;strokeColor=#b85450;spacing=0;fontSize=12;align=left;spacingLeft=10;labelBackgroundColor=none;fontColor=default;" parent="1" vertex="1">
          <mxGeometry x="42" y="216.01935483870966" width="233.33333333333331" height="28.67311827956989" as="geometry" />
        </mxCell>
        <mxCell id="Np6NXg_4izOHI7aook8U-13" value="{{ round1_position2_athlete2 }}" style="rounded=1;fillColor=#dae8fc;strokeColor=#6c8ebf;spacing=0;fontSize=12;align=left;spacingLeft=10;labelBackgroundColor=none;fontColor=default;" parent="1" vertex="1">
          <mxGeometry x="42" y="251.86075268817203" width="233.33333333333331" height="28.67311827956989" as="geometry" />
        </mxCell>
        <mxCell id="Np6NXg_4izOHI7aook8U-54" value="" style="rounded=1;fillColor=#f5f5f5;strokeColor=#666666;spacing=0;fontSize=12;align=left;spacingLeft=10;labelBackgroundColor=none;fontColor=default;" parent="1" vertex="1">
          <mxGeometry x="56.58333333333333" y="302.0387096774193" width="204.1666666666666" height="64.51451612903226" as="geometry" />
        </mxCell>
        <mxCell id="Np6NXg_4izOHI7aook8U-55" value="{{ round1_position3_athlete1 }}" style="rounded=1;fillColor=#f8cecc;strokeColor=#b85450;spacing=0;fontSize=12;align=left;spacingLeft=10;labelBackgroundColor=none;fontColor=default;" parent="1" vertex="1">
          <mxGeometry x="42" y="302.0387096774193" width="233.33333333333331" height="28.67311827956989" as="geometry" />
        </mxCell>
        <mxCell id="Np6NXg_4izOHI7aook8U-56" value="{{ round1_position3_athlete2 }}" style="rounded=1;fillColor=#dae8fc;strokeColor=#6c8ebf;spacing=0;fontSize=12;align=left;spacingLeft=10;labelBackgroundColor=none;fontColor=default;" parent="1" vertex="1">
          <mxGeometry x="42" y="337.88010752688166" width="233.33333333333331" height="28.67311827956989" as="geometry" />
        </mxCell>
        <mxCell id="Np6NXg_4izOHI7aook8U-50" value="" style="rounded=1;fillColor=#f5f5f5;strokeColor=#666666;spacing=0;fontSize=12;align=left;spacingLeft=10;labelBackgroundColor=none;fontColor=default;" parent="1" vertex="1">
          <mxGeometry x="56.58333333333333" y="388.05806451612904" width="204.1666666666666" height="64.51451612903226" as="geometry" />
        </mxCell>
        <mxCell id="Np6NXg_4izOHI7aook8U-51" value="{{ round1_position4_athlete1 }}" style="rounded=1;fillColor=#f8cecc;strokeColor=#b85450;spacing=0;fontSize=12;align=left;spacingLeft=10;labelBackgroundColor=none;fontColor=default;" parent="1" vertex="1">
          <mxGeometry x="42" y="388.05806451612904" width="233.33333333333331" height="28.67311827956989" as="geometry" />
        </mxCell>
        <mxCell id="Np6NXg_4izOHI7aook8U-52" value="{{ round1_position4_athlete2 }}" style="rounded=1;fillColor=#dae8fc;strokeColor=#6c8ebf;spacing=0;fontSize=12;align=left;spacingLeft=10;labelBackgroundColor=none;fontColor=default;" parent="1" vertex="1">
          <mxGeometry x="42" y="423.8994623655914" width="233.33333333333331" height="28.67311827956989" as="geometry" />
        </mxCell>
        <mxCell id="cP9SBrHYOixEWWslTNj9-24" value="" style="rounded=1;fillColor=#f5f5f5;strokeColor=#666666;spacing=0;fontSize=12;align=left;spacingLeft=10;labelBackgroundColor=none;fontColor=default;" parent="1" vertex="1">
          <mxGeometry x="56.58333333333333" y="474.0774193548387" width="204.1666666666666" height="64.51451612903226" as="geometry" />
        </mxCell>
        <mxCell id="cP9SBrHYOixEWWslTNj9-25" value="{{ round1_position5_athlete1 }}" style="rounded=1;fillColor=#f8cecc;strokeColor=#b85450;spacing=0;fontSize=12;align=left;spacingLeft=10;labelBackgroundColor=none;fontColor=default;" parent="1" vertex="1">
          <mxGeometry x="42" y="474.0774193548387" width="233.33333333333331" height="28.67311827956989" as="geometry" />
        </mxCell>
        <mxCell id="cP9SBrHYOixEWWslTNj9-26" value="{{ round1_position5_athlete2 }}" style="rounded=1;fillColor=#dae8fc;strokeColor=#6c8ebf;spacing=0;fontSize=12;align=left;spacingLeft=10;labelBackgroundColor=none;fontColor=default;" parent="1" vertex="1">
          <mxGeometry x="42" y="509.91881720430104" width="233.33333333333331" height="28.67311827956989" as="geometry" />
        </mxCell>
        <mxCell id="cP9SBrHYOixEWWslTNj9-20" value="" style="rounded=1;fillColor=#f5f5f5;strokeColor=#666666;spacing=0;fontSize=12;align=left;spacingLeft=10;labelBackgroundColor=none;fontColor=default;" parent="1" vertex="1">
          <mxGeometry x="56.58333333333333" y="560.0967741935484" width="204.1666666666666" height="64.51451612903226" as="geometry" />
        </mxCell>
        <mxCell id="cP9SBrHYOixEWWslTNj9-21" value="{{ round1_position6_athlete1 }}" style="rounded=1;fillColor=#f8cecc;strokeColor=#b85450;spacing=0;fontSize=12;align=left;spacingLeft=10;labelBackgroundColor=none;fontColor=default;" parent="1" vertex="1">
          <mxGeometry x="42" y="560.0967741935484" width="233.33333333333331" height="28.67311827956989" as="geometry" />
        </mxCell>
        <mxCell id="cP9SBrHYOixEWWslTNj9-22" value="{{ round1_position6_athlete2 }}" style="rounded=1;fillColor=#dae8fc;strokeColor=#6c8ebf;spacing=0;fontSize=12;align=left;spacingLeft=10;labelBackgroundColor=none;fontColor=default;" parent="1" vertex="1">
          <mxGeometry x="42" y="595.9381720430108" width="233.33333333333331" height="28.67311827956989" as="geometry" />
        </mxCell>
        <mxCell id="cP9SBrHYOixEWWslTNj9-32" value="" style="rounded=1;fillColor=#f5f5f5;strokeColor=#666666;spacing=0;fontSize=12;align=left;spacingLeft=10;labelBackgroundColor=none;fontColor=default;" parent="1" vertex="1">
          <mxGeometry x="56.58333333333333" y="646.1161290322581" width="204.1666666666666" height="64.51451612903226" as="geometry" />
        </mxCell>
        <mxCell id="cP9SBrHYOixEWWslTNj9-33" value="{{ round1_position7_athlete1 }}" style="rounded=1;fillColor=#f8cecc;strokeColor=#b85450;spacing=0;fontSize=12;align=left;spacingLeft=10;" parent="1" vertex="1">
          <mxGeometry x="42" y="646.1161290322581" width="233.33333333333331" height="28.67311827956989" as="geometry" />
        </mxCell>
        <mxCell id="cP9SBrHYOixEWWslTNj9-34" value="{{ round1_position7_athlete2 }}" style="rounded=1;fillColor=#dae8fc;strokeColor=#6c8ebf;spacing=0;fontSize=12;align=left;spacingLeft=10;labelBackgroundColor=none;fontColor=default;" parent="1" vertex="1">
          <mxGeometry x="42" y="681.9575268817205" width="233.33333333333331" height="28.67311827956989" as="geometry" />
        </mxCell>
        <mxCell id="cP9SBrHYOixEWWslTNj9-28" value="" style="rounded=1;fillColor=#f5f5f5;strokeColor=#666666;spacing=0;fontSize=12;align=left;spacingLeft=10;labelBackgroundColor=none;fontColor=default;" parent="1" vertex="1">
          <mxGeometry x="56.58333333333333" y="732.1354838709676" width="204.1666666666666" height="64.51451612903226" as="geometry" />
        </mxCell>
        <mxCell id="cP9SBrHYOixEWWslTNj9-29" value="{{ round1_position8_athlete1 }}" style="rounded=1;fillColor=#f8cecc;strokeColor=#b85450;spacing=0;fontSize=12;align=left;spacingLeft=10;labelBackgroundColor=none;fontColor=default;" parent="1" vertex="1">
          <mxGeometry x="42" y="732.1354838709676" width="233.33333333333331" height="28.67311827956989" as="geometry" />
        </mxCell>
        <mxCell id="cP9SBrHYOixEWWslTNj9-30" value="{{ round1_position8_athlete2 }}" style="rounded=1;fillColor=#dae8fc;strokeColor=#6c8ebf;spacing=0;fontSize=12;align=left;spacingLeft=10;labelBackgroundColor=none;fontColor=default;" parent="1" vertex="1">
          <mxGeometry x="42" y="767.97688172043" width="233.33333333333331" height="28.67311827956989" as="geometry" />
        </mxCell>
        <mxCell id="cP9SBrHYOixEWWslTNj9-8" value="" style="rounded=1;fillColor=#f5f5f5;strokeColor=#666666;spacing=0;fontSize=12;align=left;spacingLeft=10;labelBackgroundColor=none;fontColor=default;" parent="1" vertex="1">
          <mxGeometry x="340.4722222222221" y="689.1258064516129" width="204.16666666666657" height="64.51451612903226" as="geometry" />
        </mxCell>
        <mxCell id="cP9SBrHYOixEWWslTNj9-9" value="{{ round2_position4_athlete1 }}" style="rounded=1;fillColor=#f8cecc;strokeColor=#b85450;spacing=0;fontSize=12;align=left;spacingLeft=10;labelBackgroundColor=none;fontColor=default;" parent="1" vertex="1">
          <mxGeometry x="325.8888888888888" y="689.1258064516129" width="233.3333333333333" height="28.67311827956989" as="geometry" />
        </mxCell>
        <mxCell id="cP9SBrHYOixEWWslTNj9-10" value="{{ round2_position4_athlete2 }}" style="rounded=1;fillColor=#dae8fc;strokeColor=#6c8ebf;spacing=0;fontSize=12;align=left;spacingLeft=10;labelBackgroundColor=none;fontColor=default;" parent="1" vertex="1">
          <mxGeometry x="325.8888888888888" y="724.9672043010753" width="233.3333333333333" height="28.67311827956989" as="geometry" />
        </mxCell>
        <mxCell id="cP9SBrHYOixEWWslTNj9-2" value="" style="rounded=1;fillColor=#f5f5f5;strokeColor=#666666;spacing=0;fontSize=12;align=left;spacingLeft=10;labelBackgroundColor=none;fontColor=default;" parent="1" vertex="1">
          <mxGeometry x="340.4722222222221" y="517.0870967741935" width="204.16666666666657" height="64.51451612903226" as="geometry" />
        </mxCell>
        <mxCell id="cP9SBrHYOixEWWslTNj9-3" value="{{ round2_position3_athlete1 }}" style="rounded=1;fillColor=#f8cecc;strokeColor=#b85450;spacing=0;fontSize=12;align=left;spacingLeft=10;labelBackgroundColor=none;fontColor=default;" parent="1" vertex="1">
          <mxGeometry x="325.8888888888888" y="517.0870967741935" width="233.3333333333333" height="28.67311827956989" as="geometry" />
        </mxCell>
        <mxCell id="cP9SBrHYOixEWWslTNj9-4" value="{{ round2_position3_athlete2 }}" style="rounded=1;fillColor=#dae8fc;strokeColor=#6c8ebf;spacing=0;fontSize=12;align=left;spacingLeft=10;labelBackgroundColor=none;fontColor=default;" parent="1" vertex="1">
          <mxGeometry x="325.8888888888888" y="552.9284946236559" width="233.3333333333333" height="28.67311827956989" as="geometry" />
        </mxCell>
        <mxCell id="Np6NXg_4izOHI7aook8U-46" value="" style="rounded=1;fillColor=#f5f5f5;strokeColor=#666666;spacing=0;fontSize=12;align=left;spacingLeft=10;labelBackgroundColor=none;fontColor=default;" parent="1" vertex="1">
          <mxGeometry x="340.4722222222221" y="345.0483870967742" width="204.16666666666657" height="64.51451612903226" as="geometry" />
        </mxCell>
        <mxCell id="Np6NXg_4izOHI7aook8U-47" value="{{ round2_position2_athlete1 }}" style="rounded=1;fillColor=#f8cecc;strokeColor=#b85450;spacing=0;fontSize=12;align=left;spacingLeft=10;labelBackgroundColor=none;fontColor=default;" parent="1" vertex="1">
          <mxGeometry x="325.8888888888888" y="345.0483870967742" width="233.3333333333333" height="28.67311827956989" as="geometry" />
        </mxCell>
        <mxCell id="Np6NXg_4izOHI7aook8U-48" value="{{ round2_position2_athlete2 }}" style="rounded=1;fillColor=#dae8fc;strokeColor=#6c8ebf;spacing=0;fontSize=12;align=left;spacingLeft=10;labelBackgroundColor=none;fontColor=default;" parent="1" vertex="1">
          <mxGeometry x="325.8888888888888" y="380.88978494623655" width="233.3333333333333" height="28.67311827956989" as="geometry" />
        </mxCell>
        <mxCell id="Np6NXg_4izOHI7aook8U-35" value="" style="rounded=1;fillColor=#f5f5f5;strokeColor=#666666;spacing=0;fontSize=12;align=left;spacingLeft=10;labelBackgroundColor=none;fontColor=default;" parent="1" vertex="1">
          <mxGeometry x="340.4722222222221" y="173.00967741935483" width="204.16666666666657" height="64.51451612903226" as="geometry" />
        </mxCell>
        <mxCell id="Np6NXg_4izOHI7aook8U-36" value="{{ round2_position1_athlete1 }}" style="rounded=1;fillColor=#f8cecc;strokeColor=#b85450;spacing=0;fontSize=12;align=left;spacingLeft=10;labelBackgroundColor=none;fontColor=default;" parent="1" vertex="1">
          <mxGeometry x="325.8888888888888" y="173.00967741935483" width="233.3333333333333" height="28.67311827956989" as="geometry" />
        </mxCell>
        <mxCell id="Np6NXg_4izOHI7aook8U-37" value="{{ round2_position1_athlete2 }}" style="rounded=1;fillColor=#dae8fc;strokeColor=#6c8ebf;spacing=0;fontSize=12;align=left;spacingLeft=10;labelBackgroundColor=none;fontColor=default;" parent="1" vertex="1">
          <mxGeometry x="325.8888888888888" y="208.8510752688172" width="233.3333333333333" height="28.67311827956989" as="geometry" />
        </mxCell>
        <mxCell id="Np6NXg_4izOHI7aook8U-60" value="" style="rounded=1;fillColor=#f5f5f5;strokeColor=#666666;spacing=0;fontSize=12;align=left;spacingLeft=10;labelBackgroundColor=none;fontColor=default;" parent="1" vertex="1">
          <mxGeometry x="624.361111111111" y="258.6706182795699" width="204.16666666666657" height="64.51451612903226" as="geometry" />
        </mxCell>
        <mxCell id="Np6NXg_4izOHI7aook8U-61" value="{{ round3_position1_athlete1 }}" style="rounded=1;fillColor=#f8cecc;strokeColor=#b85450;spacing=0;fontSize=12;align=left;spacingLeft=10;labelBackgroundColor=none;fontColor=default;" parent="1" vertex="1">
          <mxGeometry x="609.7777777777776" y="258.6706182795699" width="233.3333333333333" height="28.67311827956989" as="geometry" />
        </mxCell>
        <mxCell id="Np6NXg_4izOHI7aook8U-62" value="{{ round3_position1_athlete2 }}" style="rounded=1;fillColor=#dae8fc;strokeColor=#6c8ebf;spacing=0;fontSize=12;align=left;spacingLeft=10;labelBackgroundColor=none;fontColor=default;" parent="1" vertex="1">
          <mxGeometry x="609.7777777777776" y="294.51201612903225" width="233.3333333333333" height="28.67311827956989" as="geometry" />
        </mxCell>
        <mxCell id="cP9SBrHYOixEWWslTNj9-14" value="" style="rounded=1;fillColor=#f5f5f5;strokeColor=#666666;spacing=0;fontSize=12;align=left;spacingLeft=10;labelBackgroundColor=none;fontColor=default;" parent="1" vertex="1">
          <mxGeometry x="624.361111111111" y="602.7480376344085" width="204.16666666666657" height="64.51451612903226" as="geometry" />
        </mxCell>
        <mxCell id="cP9SBrHYOixEWWslTNj9-15" value="{{ round3_position2_athlete1 }}" style="rounded=1;fillColor=#f8cecc;strokeColor=#b85450;spacing=0;fontSize=12;align=left;spacingLeft=10;labelBackgroundColor=none;fontColor=default;" parent="1" vertex="1">
          <mxGeometry x="609.7777777777776" y="602.7480376344085" width="233.3333333333333" height="28.67311827956989" as="geometry" />
        </mxCell>
        <mxCell id="cP9SBrHYOixEWWslTNj9-16" value="{{ round3_position2_athlete2 }}" style="rounded=1;fillColor=#dae8fc;strokeColor=#6c8ebf;spacing=0;fontSize=12;align=left;spacingLeft=10;labelBackgroundColor=none;fontColor=default;" parent="1" vertex="1">
          <mxGeometry x="609.7777777777776" y="638.589435483871" width="233.3333333333333" height="28.67311827956989" as="geometry" />
        </mxCell>
        <mxCell id="cP9SBrHYOixEWWslTNj9-36" value="" style="rounded=1;fillColor=#f5f5f5;strokeColor=#666666;spacing=0;fontSize=12;align=left;spacingLeft=10;labelBackgroundColor=none;fontColor=default;" parent="1" vertex="1">
          <mxGeometry x="908.2500000000002" y="431.78456989247314" width="204.16666666666657" height="64.51451612903226" as="geometry" />
        </mxCell>
        <mxCell id="cP9SBrHYOixEWWslTNj9-37" value="{{ round4_position1_athlete1 }}" style="rounded=1;fillColor=#f8cecc;strokeColor=#b85450;spacing=0;fontSize=12;align=left;spacingLeft=10;labelBackgroundColor=none;fontColor=default;" parent="1" vertex="1">
          <mxGeometry x="893.6666666666669" y="431.78456989247314" width="233.3333333333333" height="28.67311827956989" as="geometry" />
        </mxCell>
        <mxCell id="cP9SBrHYOixEWWslTNj9-38" value="{{ round4_position1_athlete2 }}" style="rounded=1;fillColor=#dae8fc;strokeColor=#6c8ebf;spacing=0;fontSize=12;align=left;spacingLeft=10;labelBackgroundColor=none;fontColor=default;" parent="1" vertex="1">
          <mxGeometry x="893.6666666666669" y="467.6259677419355" width="233.3333333333333" height="28.67311827956989" as="geometry" />
        </mxCell>
      </root>
    </mxGraphModel>
  </diagram>
</mxfile>
